<?xml version="1.0" encoding="UTF-8"?>
<svg width="100px" height="100px" viewBox="0 0 100 100" version="1.1" xmlns="http://www.w3.org/2000/svg" xmlns:xlink="http://www.w3.org/1999/xlink">
    <title>alfa-romeo</title>
    <g id="Page-1" stroke="none" stroke-width="1" fill="none" fill-rule="evenodd">
        <g id="alfa-romeo" fill="#000000" fill-rule="nonzero">
            <path d="M47.6375,6.77083333 L47.6583333,9.22083333 L51.725,9.17916667 C52.4291667,9.17916667 52.8625,8.70833333 52.8583631,7.96666667 C52.85,7.22916667 52.4,6.73333333 51.7375,6.73333333 L47.6375,6.775 L47.6375,6.77083333 Z M45.5333333,6.00833333 C45.4995387,5.66339443 45.367998,5.33526561 45.1541667,5.0625 L45.525,5.0625 L45.525,5.05833333 L51.9291667,5 C53.7333333,5 54.9083333,6.20416667 54.925,8.05833333 C54.9333333,9.2375 54.425,10.1708333 53.525,10.6166667 L53.3083333,10.725 L55.0791667,13.1583333 L52.7375,13.1833333 L51.1958333,10.9208333 L47.675,10.9541667 L47.6916667,13.225 L45.5916667,13.2458333 L45.5333333,6.00833333 L45.5333333,6.00833333 Z M63.1875,9.125 C62.05,9.125 61.25,9.66666667 60.925,10.6541667 C60.45,12.0791667 61.3083333,13.4375 63.1083333,14.1125 C63.6291667,14.3083333 64.1375,14.4041667 64.6166667,14.4041667 C65.7458333,14.4041667 66.55,13.8625 66.8791667,12.8708333 C67.35,11.45 66.4875,10.0958333 64.6791667,9.41666667 C64.2033326,9.2312119 63.698143,9.13243182 63.1875,9.125 L63.1875,9.125 Z M64.9041667,16.3041667 C64.1333333,16.3041667 63.3375,16.15 62.5375,15.8541667 C59.6375,14.7708333 58.1041667,12.2583333 58.8916667,9.8875 C59.4416667,8.22916667 60.95,7.2375 62.9166667,7.2375 C63.6875,7.2375 64.4708333,7.38333333 65.25,7.67916667 C66.6083333,8.18333333 67.7291667,9.04583333 68.4083333,10.0958333 C69.1136981,11.1355554 69.2982987,12.4431431 68.9083333,13.6375 C68.3541667,15.3041667 66.8583333,16.3041667 64.9083333,16.3041667 L64.9041667,16.3041667 Z M28.7875,16.3625 L31.6833333,14.6291667 L28.6916667,12.6125 L28.7875,16.3625 Z M26.9,12.8416667 L26.9,12.8333333 C26.8458179,12.5131053 26.6518651,12.2336301 26.3708333,12.0708333 L29,10.5125 L36.3958333,15.4833333 L34.5625,16.5791667 L33.2416667,15.6875 L28.8291667,18.325 L28.8708333,19.9875 L27.0375,21.0833333 L26.9,12.8458333 L26.9,12.8416667 Z M77.175,25.8833333 L80.3208333,21.45 L74.5916667,22.85 L74.5,22.7541667 L75.25,16.5333333 L71.4583333,20.3458333 L69.9083333,18.8375 L74.8583333,13.8375 C75.0983983,13.558493 75.2352151,13.2054175 75.2458333,12.8375 L75.4708333,13.0541667 L77.3333333,14.8583333 L76.7208333,20.275 L81.7208333,19.1083333 L83.4916667,20.8291667 L78.7166667,27.3833333 L77.175,25.8833333 L77.175,25.8833333 Z M16.0416667,23.1833333 L16.0333333,23.175 C15.7718255,22.9751709 15.4574755,22.8563842 15.1291667,22.8333333 L21.2333333,15.9375 L22.4208333,17.1208333 L18.0208333,22.0916667 L19.4333333,23.5041667 L22.4916667,20.05 L23.6791667,21.2375 L20.6208333,24.6875 L22.4541667,26.5166667 L21.0083333,28.1416667 L16.0416667,23.1833333 L16.0416667,23.1833333 Z M9.7375,34.2 C9.41794343,34.0696506 9.06640008,34.0391448 8.72916667,34.1125 L9.8625,31.7541667 L15.3541667,34.7458333 L18.0416667,29.1958333 L19.5125,30 L15.8708333,37.5416667 L9.7375,34.2 L9.7375,34.2 Z M80.2333333,29.875 L86.1958333,26.5125 C86.5005866,26.320025 86.7379362,26.0375353 86.875,25.7041667 L91.0416667,34.0375 L89.6041667,34.8458333 L86.5916667,28.8208333 L85.3708333,29.5083333 L87.4625,33.6958333 L86.025,34.5041667 L83.9333333,30.3166667 L82.6583333,31.0416667 L85.8083333,37.3416667 L84.3708333,38.15 L80.2333333,29.875 L80.2333333,29.875 Z M8.10833333,44.0416667 L10.9833333,46.3 L11.4833333,42.8666667 L8.10833333,44.0416667 Z M7.16666667,45.65 L7.15416667,45.6416667 C6.87810765,45.4822896 6.54311216,45.4622207 6.25,45.5875 L6.71666667,42.4791667 L15.0625,39.5625 L14.7458333,41.7333333 L13.2458333,42.2541667 L12.4833333,47.4875 L13.7583333,48.4875 L13.4416667,50.6666667 L7.16666667,45.65 Z M89.4625,41.8791667 C89.3381653,41.8796984 89.2141032,41.8908501 89.0916667,41.9125 C87.6833333,42.1625 86.9791667,43.6208333 87.3,45.6208333 C87.5833333,47.425 88.5333333,48.5458333 89.7708333,48.5458333 C89.8965543,48.545417 90.0220101,48.5342653 90.1458333,48.5125 C91.5541667,48.2625 92.2541667,46.8 91.9333333,44.7958333 C91.65,43.0208333 90.6833333,41.8791667 89.4625,41.8791667 L89.4625,41.8791667 Z M89.8875,50.8291667 C87.7875,50.8291667 86.0583333,48.8583333 85.5916667,45.9291667 C85.075,42.7125 86.3958333,40.0708333 88.7333333,39.65 C88.9375,39.6125 89.1458333,39.5958333 89.3416667,39.5958333 C91.4125,39.5958333 93.175,41.6041667 93.6375,44.4875 C94.1541667,47.7083333 92.8375,50.3541667 90.5125,50.7708333 C90.3063344,50.8089583 90.09716,50.8284812 89.8875,50.8291667 L89.8875,50.8291667 Z" id="Shape"></path>
            <path d="M49.0541667,22.725 C49.5466206,22.725 49.9458333,22.3257872 49.9458333,21.8333333 C49.9458333,21.3408794 49.5466206,20.9416667 49.0541667,20.9416667 C48.5617128,20.9416667 48.1625,21.3408794 48.1625,21.8333333 C48.1625,22.3257872 48.5617128,22.725 49.0541667,22.725 Z M48.7541667,24.975 L56.6208333,24.975 C56.949903,24.975 57.2166666,24.7082363 57.2166666,24.3791667 C57.2166666,24.050097 56.949903,23.7833334 56.6208333,23.7833333 L48.7541667,23.7833333 C48.4260422,23.7856042 48.1606042,24.0510422 48.1583333,24.3791667 C48.1583333,24.7125 48.4291667,24.975 48.7541667,24.975 L48.7541667,24.975 Z M62.9833333,78.8375 L62.8708333,78.8958333 L62.8791667,78.8875 L62.9833333,78.8375 C65.2273995,77.7691406 66.4329095,75.2895606 65.8870959,72.8648312 C65.3412824,70.4401018 63.1895662,68.7162431 60.7041667,68.7125 L55.1,68.7083333 C54.7214548,68.7083333 54.4145833,68.4014618 54.4145833,68.0229167 C54.4145833,67.6443715 54.7214548,67.3375 55.1,67.3375 L64.5583333,67.3375 C67.5006,67.4321047 70.2607732,65.9164275 71.7598965,63.3829491 C73.2590198,60.8494708 73.2590198,57.7005292 71.7598965,55.1670509 C70.2607732,52.6335725 67.5006,51.1178953 64.5583333,51.2125 L55.4291667,51.2125 C55.0506215,51.2125 54.74375,50.9056285 54.74375,50.5270833 C54.74375,50.1485382 55.0506215,49.8416667 55.4291667,49.8416667 L62.4041667,49.8333333 C67.3067734,49.8348844 71.8145041,47.1449915 74.1410608,42.8295901 C76.4676174,38.5141886 76.2374111,33.269938 73.5416667,29.175 L73.5041667,29.1291667 C73.4927046,29.1119172 73.486881,29.0915345 73.4875,29.0708333 C73.4875,29.0166667 73.5291667,28.975 73.5833333,28.975 C73.6166667,28.975 73.6291667,28.9791667 73.65,29.0041667 L73.6583333,29.0166667 C80.3325128,36.5408979 83.0297121,46.791164 80.9232718,56.6258798 C78.8168314,66.4605956 72.1579516,74.7069378 62.9875,78.8375 L62.9833333,78.8375 Z M60.1708333,79.95 C56.8949937,81.0604185 53.4589215,81.6248859 50,81.620855 C45.25,81.620855 40.75,80.575 36.7083333,78.6958333 L36.7083333,53.7791667 L45.6666667,53.7791667 C44.8124828,51.2051283 45.0348787,48.3951264 46.2833333,45.9875 L36.7041667,45.9875 L36.7041667,21.3041667 C40.7458333,19.4291667 45.2458333,18.3791667 49.9958333,18.3791667 C55.5166667,18.3791667 60.7041667,19.7958333 65.225,22.2791667 C66.091773,22.8282369 66.4920795,23.8835379 66.2075283,24.8693391 C65.922977,25.8551404 65.0218773,26.5347908 63.9958333,26.5375 L60.0625,26.5375 C58.9541667,26.5375 58.3458333,26.8625 57.9666667,27.1958333 C56.8666667,28.1458333 57.2416667,29.275 54.9916667,29.275 L48.7791667,29.275 C49.6208333,31.2125 51.55,32.6083333 52.0291667,32.9375 L59.6583333,32.9375 C59.9708333,32.9375 60.2333333,33.1291667 60.3416667,33.4 C60.3977733,33.5255006 60.4123702,33.6656303 60.3833333,33.8 C60.3243983,34.1548592 60.018051,34.4154304 59.6583333,34.4166667 L51.8916667,34.4166667 C50.3348698,35.2812056 49.1709472,36.7122335 48.6416667,38.4125 L62.6666667,38.4125 C63.5491292,38.4567756 64.2419014,39.1851774 64.2419014,40.06875 C64.2419014,40.9523226 63.5491292,41.6807244 62.6666667,41.725 L55.5625,41.725 C50.6678764,41.725 46.7,45.6928764 46.7,50.5875 C46.7,55.4821236 50.6678764,59.45 55.5625,59.45 L64.4208333,59.45 C64.7958333,59.45 65.1041667,59.7666667 65.1041667,60.1458333 C65.1041667,60.5208333 64.7958333,60.8208333 64.4208333,60.8208333 L55.35,60.8208333 C51.7636009,60.8208333 48.85625,63.7281842 48.85625,67.3145833 C48.85625,70.9009824 51.7636009,73.8083333 55.35,73.8083333 L58.775,73.8208333 C60.5083333,73.8208333 61.9333333,75.2708333 61.9333333,76.9875 C61.9333333,78.3958333 61.0833333,79.3875 60.1666667,79.95 L60.1708333,79.95 Z M28.9208333,45.9916667 L18.625,45.9916667 C19.5849868,38.4433455 23.2399088,31.4960342 28.9166667,26.4291667 L28.9166667,45.9875 L28.9208333,45.9916667 Z M28.9208333,73.5708333 C23.1856678,68.4507335 19.5171111,61.4129127 18.6041667,53.7791667 L28.9166667,53.7791667 L28.9166667,73.5708333 L28.9208333,73.5708333 Z M50,16.6666667 C31.5905083,16.6666667 16.6666667,31.5905083 16.6666667,50 C16.6666667,68.4094917 31.5905083,83.3333333 50,83.3333333 C68.4094917,83.3333333 83.3333333,68.4094917 83.3333333,50 C83.3333333,31.5905083 68.4094917,16.6666667 50,16.6666667 Z M50.2916667,33.6958333 L50.4,33.5875 L50.2875,33.4791667 C48.5458333,32.2125 47.775,30.6458333 47.3125,29.4375 C46.9875,28.6041667 46.625,27.9166667 46.1041667,27.4125 C45.5541667,26.8916667 45.1541667,26.6166667 44.3666667,26.6166667 C44.0625,26.6166667 43.7416667,26.6583333 43.4166667,26.7375 L43.225,26.7791667 L43.3416667,27 C43.5166667,27.325 43.8416667,27.925 44.4083333,28.0958333 C44.45,28.1125 44.5,28.1166667 44.5541667,28.1166667 L44.6916667,28.1083333 L44.8,28.1041667 L44.8541667,28.1041667 C45.4625,28.4625 45.7875,31.0708333 45.7875,32.3708333 C45.7875,32.5958333 45.6916667,32.6916667 45.4875,32.6916667 C45.2525169,32.6794548 45.0288899,32.5867673 44.8541667,32.4291667 C44.4817497,32.0364148 43.9620263,31.8173454 43.4208333,31.825 C42.5,31.825 41.525,32.4458333 41.4875,33.4791667 L41.4875,33.6916667 C41.525,34.7291667 42.5,35.35 43.4208333,35.35 C43.9620263,35.3576546 44.4817497,35.1385852 44.8541667,34.7458333 C45.0284902,34.5870077 45.2520716,34.4928681 45.4875,34.4791667 C45.6958333,34.4791667 45.7875,34.5791667 45.7875,34.8 C45.7875,36.1 45.4625,38.7125 44.8541667,39.0666667 L44.8,39.0666667 C44.7639115,39.0684734 44.7277552,39.0684734 44.6916667,39.0666667 L44.5541667,39.0583333 C44.5049954,39.0565605 44.4558366,39.0621787 44.4083333,39.075 C43.8416667,39.25 43.5166667,39.85 43.3416667,40.175 L43.225,40.3916667 L43.4166667,40.4333333 C43.7416667,40.5166667 44.0625,40.5583333 44.3666667,40.5583333 C45.1583333,40.5583333 45.5541667,40.2833333 46.1,39.7583333 C46.625,39.2583333 46.9875,38.5708333 47.3083333,37.7375 C47.775,36.525 48.5458333,34.9583333 50.2875,33.6958333 L50.2916667,33.6958333 Z M52.725,22.725 C53.2186045,22.7261506 53.6196827,22.3269378 53.6208333,21.8333333 C53.6219839,21.3397288 53.2227712,20.9386506 52.7291667,20.9375 C52.2355622,20.9375 51.8354167,21.3376455 51.8354167,21.83125 C51.8354167,22.3248545 52.2355622,22.725 52.7291667,22.725 L52.725,22.725 Z M56.325,22.725 C56.8186045,22.725 57.21875,22.3248545 57.21875,21.83125 C57.21875,21.3376455 56.8186045,20.9375 56.325,20.9375 C55.8313955,20.9375 55.43125,21.3376455 55.43125,21.83125 C55.43125,22.3248545 55.8313955,22.725 56.325,22.725 L56.325,22.725 Z" id="Shape"></path>
            <path d="M50,98 C23.4916667,98 2,76.5125 2,50 C2,23.4916667 23.4916667,2 50,2 C76.5083333,2 98,23.4916667 98,50 C98,76.5125 76.5083333,98 50,98 M50,0 C22.3875,0 0,22.3875 0,50 C0,77.6125 22.3875,100 50,100 C77.6125,100 100,77.6125 100,50 C100,22.3875 77.6125,0 50,0" id="Shape"></path>
        </g>
    </g>
</svg>