<?xml version="1.0" encoding="UTF-8"?>
<svg width="100px" height="35px" viewBox="0 0 100 35" version="1.1" xmlns="http://www.w3.org/2000/svg" xmlns:xlink="http://www.w3.org/1999/xlink">
    <title>audi</title>
    <g id="Page-1" stroke="none" stroke-width="1" fill="none" fill-rule="evenodd">
        <g id="Artboard" transform="translate(-11.000000, -324.000000)" fill="#000000" fill-rule="nonzero">
            <g id="audi" transform="translate(11.000000, 324.000000)">
                <path d="M82.5181316,3.34719568e-05 C78.4221137,3.34719568e-05 74.6594442,1.40380385 71.6801434,3.7544397 C68.597419,1.31740202 64.7768474,-0.00607687823 60.8421551,3.34719568e-05 C56.7461372,3.34719568e-05 52.9793009,1.40380385 50,3.7544397 C46.9164791,1.31593039 43.094076,-0.00767406781 39.1578449,3.34719568e-05 C35.061827,3.34719568e-05 31.2991575,1.40380385 28.3156898,3.7544397 C22.3055404,-0.976896435 13.9051076,-1.25773541 7.59036977,3.06156139 C1.27563191,7.38085819 -1.4826328,15.2942747 0.785253854,22.5853281 C3.05314051,29.8763815 9.81896052,34.8468979 17.4777015,34.8484682 C21.5737194,34.8484682 25.3405558,33.4447149 28.3156898,31.094079 C31.2991575,33.4447149 35.0659939,34.8484682 39.1578449,34.8484682 C43.2538628,34.8484682 47.0165323,33.4447149 49.9916663,31.094079 C52.9793009,33.4447149 56.7461372,34.8484682 60.8421551,34.8484682 C64.7779992,34.8538954 68.5996638,33.5305466 71.6843102,31.094079 C77.6944596,35.8254152 86.0948924,36.1062541 92.4096302,31.7869573 C98.7243681,27.4676605 101.482633,19.554244 99.2147461,12.2631906 C96.9468595,4.97213722 90.1810395,0.00162078931 82.5222985,3.34719568e-05 L82.5181316,3.34719568e-05 Z M25.4572277,28.2492282 C21.3641125,31.2547069 15.9217266,31.7066757 11.3860109,29.4177876 C6.85029522,27.1288994 3.99438564,22.4893071 4.0020789,17.4221828 C3.99438564,12.3550586 6.85029522,7.71546621 11.3860109,5.42657808 C15.9217266,3.13768995 21.3641125,3.58965876 25.4572277,6.59513745 C20.4176668,12.9362318 20.4176668,21.8998278 25.4572277,28.2409221 L25.4613945,28.2492282 L25.4572277,28.2492282 Z M28.3198566,25.4085305 C26.5994727,23.0993596 25.6729374,20.2983627 25.6780497,17.4221828 C25.6780497,14.4278216 26.648948,11.6784913 28.3198566,9.44414134 C29.9782647,11.6784913 30.9491838,14.4278216 30.9491838,17.4221828 C30.9563702,20.2967563 30.0311759,23.0966609 28.3115229,25.4043774 L28.3198566,25.4043774 L28.3198566,25.4085305 Z M47.1290373,28.2492282 C44.8914365,29.8896896 42.1288121,30.8532285 39.1411775,30.8532285 C36.2727998,30.8589841 33.4784386,29.9461419 31.169985,28.2492282 C36.2338746,21.9166687 36.239059,12.9376549 31.1824856,6.59929052 C33.491349,4.90316932 36.2854406,3.99041519 39.153678,3.99529794 C42.1454795,3.99529794 44.9039371,4.9588291 47.1415379,6.59929052 C44.7664309,9.57288641 43.3538673,13.3272589 43.3538673,17.4221828 C43.3549995,21.3530052 44.688221,25.1682122 47.137371,28.2492282 L47.1290373,28.2492282 L47.1290373,28.2492282 Z M49.9958331,25.4085305 C48.2775197,23.1001217 47.3524759,20.3006728 47.3581878,17.4263359 C47.3581878,14.4319747 48.3374251,11.6784913 49.9958331,9.44414134 C51.658408,11.6784913 52.637648,14.4278216 52.637648,17.4221828 C52.6436429,20.2972276 51.716972,23.0971776 49.9958331,25.4043774 L49.9958331,25.4085305 Z M68.8133475,28.2492282 C66.5757467,29.8896896 63.8131223,30.8532285 60.8254877,30.8532285 C57.95711,30.8589841 55.1627488,29.9461419 52.8542953,28.2492282 C57.9052721,21.910546 57.9052721,12.9379727 52.8542953,6.59929052 C55.1643046,4.90232401 57.9599931,3.98952537 60.8296545,3.99529019 C63.8172891,3.99529019 66.5799136,4.9588291 68.8175144,6.59929052 C66.3598899,9.67405294 65.0255444,13.4910117 65.0340106,17.4221828 C65.033957,21.3525097 66.3656921,25.1676648 68.8133475,28.2492282 L68.8133475,28.2492282 Z M71.6759765,25.4085305 C69.9623453,23.0979578 69.0391355,20.2996381 69.0425152,17.4263359 C69.0425152,14.4319747 70.0217353,11.6784913 71.6843102,9.44414134 C73.3427183,11.6784913 74.3219582,14.4278216 74.3219582,17.4221828 C74.3279531,20.2972276 73.4012822,23.0971776 71.6801434,25.4043774 L71.6759765,25.4043774 L71.6759765,25.4085305 Z M82.5222985,30.8573542 C79.5554981,30.8573542 76.7720394,29.8606182 74.5427723,28.2409221 C79.5777425,21.8982359 79.5777425,12.9378236 74.5427723,6.59513745 C78.6373247,3.59630626 84.0761828,3.14797239 88.6094049,5.43560217 C93.142627,7.72323195 95.9993879,12.3578387 95.9979061,17.4221828 C95.9979061,20.9843104 94.5781581,24.4005424 92.0509916,26.919347 C89.5238251,29.4381515 86.0962517,30.8532011 82.5222985,30.8532011 L82.5222985,30.8573542 Z" id="Shape"></path>
            </g>
        </g>
    </g>
</svg>