<?xml version="1.0" encoding="UTF-8"?>
<svg width="101px" height="14px" viewBox="0 0 101 14" version="1.1" xmlns="http://www.w3.org/2000/svg" xmlns:xlink="http://www.w3.org/1999/xlink">
    <title>becker-logo-svg-vector</title>
    <g id="Page-1" stroke="none" stroke-width="1" fill="none" fill-rule="evenodd">
        <g id="becker-logo-svg-vector" transform="translate(0.769283, 0.773870)" fill="#000000" fill-rule="nonzero">
            <path d="M9.98572187,0 C11.3991097,0.00294027958 12.5441551,1.14798566 12.5470953,2.56137347 L12.5470953,9.98518736 C12.5447421,11.3989056 11.3994396,12.5444471 9.98572187,12.5470953 L2.56137347,12.5470953 C1.14765575,12.5444471 0.00235322921,11.3989056 -2.04980354e-15,9.98518736 L-2.04980354e-15,2.56137347 C0.00264730392,1.14786397 1.14786397,0.00264730392 2.56137347,0 L9.98572187,0 Z M55.3859598,0.29718774 C56.7596513,0.29718774 56.6858889,2.85856121 55.2742471,2.85856121 C54.3837529,2.85856121 50.6715787,2.89544242 49.8179657,2.89544242 C46.2175042,2.89544242 45.9203164,9.87454372 49.8553814,9.87454372 L55.2379004,9.87454372 C56.6484731,9.87454372 56.4624636,12.4353827 55.2379004,12.4353827 L49.78055,12.4353827 C42.2450234,12.4353827 42.3562016,0.334068952 49.78055,0.334068952 L55.3859598,0.29718774 Z M95.6634507,0.668137905 C99.9331192,0.668137905 100.267188,5.75400364 97.1488549,7.01598251 L99.3392782,9.6142372 C101.009623,11.6929478 99.1912188,13.4007083 97.4455081,11.4326413 L93.6221558,6.60815113 C93.2506711,6.1249538 93.1020772,4.97415307 94.178581,4.97415307 L95.5891538,4.97415307 C97.1488549,4.86297493 97.0007955,2.96973936 95.6634507,3.08091751 L88.7960621,3.08091751 L88.7960621,5.86464727 L88.8334778,5.86464727 L88.7960621,10.3940878 C88.7960621,12.8806298 86.1978074,12.8432141 86.1978074,10.3940878 L86.1978074,2.56137347 C86.1978074,1.26197887 86.6799357,0.668137905 87.9798648,0.668137905 L95.6634507,0.668137905 Z M60.7690132,2.33901718 L60.7690132,5.16016267 L67.3771644,1.37315702 C69.6039344,0.14805936 71.1636355,1.96699799 69.2335187,3.04350178 L64.1471185,5.93894421 L69.9016566,9.72594985 C71.8686546,10.9879287 70.049716,12.6208578 67.8972429,11.3219977 L60.7690132,6.94168558 L60.7690132,10.356672 C60.7690132,12.7325704 58.1707585,12.8811643 58.1707585,10.356672 L58.1707585,2.33901718 C58.1707585,-0.222356295 60.7690132,0.000534510324 60.7690132,2.33901718 Z M7.6472392,1.52121638 L3.22951138,1.52121638 L5.75400364,6.56966639 L5.53164734,6.56966639 C5.41993468,6.53331969 5.27134081,6.53331969 5.16016267,6.53331969 C3.89818379,6.53331969 2.89593028,7.60982348 2.89593028,8.83438663 C2.89210473,9.43606474 3.12940854,10.0142218 3.55486802,10.4396813 C3.9803275,10.8651408 4.55848456,11.1024446 5.16016267,11.098619 C6.38526033,11.098619 7.4243484,10.0963655 7.4243484,8.83438663 C7.4243484,8.20366445 7.12716066,7.60982348 6.68191356,7.16404187 L6.68191356,7.16404187 L6.68191356,7.12662615 L9.72594985,7.12662615 L9.42876211,6.5702009 L6.38472582,6.5702009 L4.34289638,2.4127796 L8.16678324,2.4127796 L7.6472392,1.52121638 Z M5.38251896,7.12716066 C6.19925074,7.27628904 6.83050743,8.01872388 6.82997326,8.83492114 C6.82997326,9.76283107 6.05065687,10.5052805 5.15962816,10.5052805 C4.71605855,10.5071228 4.29012009,10.3317369 3.97646627,10.018083 C3.66281244,9.70442921 3.48742653,9.27849075 3.4892688,8.83492114 C3.4892688,7.94442694 4.23171823,7.12716066 5.15962816,7.12716066 L5.15962816,7.12716066 Z M5.12274694,7.72100163 C4.50848605,7.72305645 4.01112194,8.22065934 4.00936194,8.83492114 C4.00936194,9.42929662 4.52890597,9.91142494 5.12274694,9.91142494 C5.71658791,9.91142494 6.19925074,9.42876211 6.19925074,8.83492114 C6.19925074,8.20419896 5.71658791,7.72100163 5.12274694,7.72100163 Z" id="Combined-Shape"></path>
            <path d="M41.9109545,0.59384097 C44.2494372,0.59384097 44.398031,3.04350178 41.8740733,3.04350178 L33.5212805,3.04350178 L33.5212805,5.0479155 L38.1618991,5.0479155 C40.5746787,5.0479155 40.6489756,7.42381389 38.1618991,7.42381389 L33.5212805,7.42381389 L33.5212805,9.6142372 L41.9478357,9.6142372 C44.398031,9.6142372 44.472328,12.0270168 41.9478357,12.0270168 L32.6302517,12.0270168 C31.4420353,12.0270168 30.8850755,11.6566011 30.8850755,10.3940878 L30.8850755,2.45019532 C30.8850755,1.22509766 31.3677384,0.59384097 32.667133,0.59384097 L41.9109545,0.59384097 Z M82.2627424,0.59384097 C84.601225,0.59384097 84.7492844,3.04350178 82.2253267,3.04350178 L73.8361871,3.04350178 L73.8361871,5.0479155 L78.5131525,5.0479155 C80.9270011,5.0479155 81.0007635,7.42381389 78.5131525,7.42381389 L73.8361871,7.42381389 L73.8361871,9.6142372 L82.2996236,9.6142372 C84.7134722,9.6142372 84.8241158,12.0270168 82.2996236,12.0270168 L72.9820396,12.0270168 C71.7938232,12.0270168 71.2373979,11.6566011 71.2373979,10.3940878 L71.2373979,2.45019532 C71.2373979,1.22509766 71.7195262,0.59384097 73.0194553,0.59384097 L82.2627424,0.59384097 L82.2627424,0.59384097 Z M18.1525051,12.064967 C17.1128825,12.064967 16.3704477,11.6566011 16.3704477,10.4689192 L16.3704477,2.48707654 C16.3704477,1.29886009 16.9274074,0.630722182 18.1525051,0.630722182 L25.0573095,0.630722182 C28.397999,0.630722182 29.9202844,3.89711477 27.9158707,5.97635993 C30.88561,7.20145759 29.5119185,12.0644325 25.4287941,12.0644325 L18.1525051,12.0644325 L18.1525051,12.064967 L18.1525051,12.064967 Z M23.4238459,7.23887332 C22.161867,7.23887332 22.1244513,5.08586573 23.4238459,5.08586573 L25.0941907,5.08586573 C26.9131293,5.08586573 26.5790604,2.85856121 25.0573095,2.85856121 L19.2290089,2.85856121 C18.9323557,2.85856121 18.560871,2.70996734 18.560871,3.60099605 L18.560871,8.9466338 C18.560871,9.57735598 18.6720491,9.837128 19.2290089,9.837128 L25.3170815,9.837128 C27.6929799,9.837128 27.6555642,7.23887332 25.2427846,7.23887332 L23.4238459,7.23887332 L23.4238459,7.23887332 Z" id="Shape"></path>
        </g>
    </g>
</svg>