<?xml version="1.0" encoding="UTF-8"?>
<svg width="100px" height="11px" viewBox="0 0 100 11" version="1.1" xmlns="http://www.w3.org/2000/svg" xmlns:xlink="http://www.w3.org/1999/xlink">
    <title>blaupunkt-1</title>
    <g id="Page-1" stroke="none" stroke-width="1" fill="none" fill-rule="evenodd">
        <g id="blaupunkt-1" fill="#000000" fill-rule="nonzero">
            <path d="M24.8972108,9.8135904 L26.8418713,0.616735193 L29.6935771,0.616735193 L28.2031337,7.66751861 L32.1785754,7.66751861 L31.7243583,9.8135904 L24.8972108,9.8135904 L24.8972108,9.8135904 Z M39.2710301,8.59956662 L36.2693077,8.59956662 L35.667852,9.8135904 L32.4897211,9.8135904 L37.9583843,0.616735193 L41.0240027,0.616735193 L42.2116346,9.8135904 L39.3724303,9.8135904 L39.2710301,8.59956662 L39.2710301,8.59956662 Z M39.1196244,6.29375486 L38.8779309,3.38926547 L37.4444383,6.29375486 L39.1196244,6.29375486 Z M77.2266363,5.63673742 C77.6266807,3.09478831 77.8850428,1.98494277 78.1725747,0.616735193 L81.0590066,0.616735193 L79.114346,9.8135904 L76.2918102,9.80108901 L74.3818758,4.79497722 C74.1554617,6.34237137 74.0193355,7.37581954 73.4373264,9.8135904 L70.5633959,9.8135904 L72.5080565,0.616735193 L75.3305923,0.616735193 L77.2266363,5.63673742 L77.2266363,5.63673742 Z M82.1799644,0.616735193 L85.0316702,0.616735193 L84.4024336,3.59345483 L87.6430715,0.616735193 L90.9531615,0.616735193 L87.2860873,4.07823091 L89.3349261,9.8135904 L86.5651739,9.8135904 L85.1636293,5.78953217 L83.6690188,7.06328481 L83.0856206,9.81220136 L80.2339149,9.81220136 L82.1799644,0.616735193 L82.1799644,0.616735193 Z M91.8963218,0.616735193 L100,0.616735193 L99.5555062,2.7378042 L96.9135459,2.7378042 L95.4133793,9.8135904 L92.5297255,9.8135904 L94.0298922,2.7378042 L91.451828,2.7378042 L91.8963218,0.616735193 Z M5.16029559,10.3205912 C2.31034303,10.3205912 0,8.01024815 0,5.16029559 C0,2.31034303 2.31034303,0 5.16029559,0 C8.01024815,0 10.3205912,2.31034303 10.3205912,5.16029559 C10.3205912,8.01024815 8.01024815,10.3205912 5.16029559,10.3205912 Z M15.9212135,9.8135904 L17.865874,0.616735193 L22.1621847,0.616735193 C24.2318591,0.616735193 25.6139571,1.10151128 25.2278031,2.92949217 C25.0176002,3.79912258 24.4353981,4.53220954 23.6359596,4.93388154 C24.5777309,5.1894655 24.8847094,6.2243027 24.6749639,7.22024669 C24.2401934,9.27603067 22.6969663,9.81220136 20.307812,9.81220136 L15.9212135,9.81220136 L15.9212135,9.8135904 Z M20.2966996,2.37248583 L19.9730526,3.90598955 L21.4857206,3.90598955 C22.0857873,3.90598955 22.4469385,3.63790421 22.5594511,3.10173353 C22.7108568,2.38637626 22.1260696,2.37387487 21.4884987,2.37387487 L20.2966996,2.37387487 L20.2966996,2.37248583 Z M19.1285143,7.79808868 L20.5745083,7.79808868 C21.3148683,7.79808868 21.9093788,7.64529392 22.0552284,6.95632848 C22.2260807,6.15068341 21.5343371,6.10067785 20.5758973,6.10067785 L19.4882765,6.10067785 L19.1285143,7.79808868 L19.1285143,7.79808868 Z M44.0798978,0.616735193 L46.9316035,0.616735193 L45.7675853,6.1215135 C45.5758973,7.02716969 45.5578398,7.93838204 46.7954773,7.93838204 C47.8817091,7.93838204 48.3789866,7.1174575 48.5901211,6.1215135 L49.7541393,0.616735193 L52.6377931,0.616735193 L51.5071119,6.07567508 C50.8834315,9.02600289 49.3402045,10.217802 46.2884765,10.217802 C43.4395488,10.217802 42.2810868,9.23019224 42.9519947,6.06178464 L44.0798978,0.616735193 L44.0798978,0.616735193 Z M51.7918658,9.8135904 L54.6755195,9.8135904 L55.2478053,7.11606845 L56.7674186,7.11606845 C59.4121569,7.11606845 60.7734193,6.39932215 61.3026447,3.98238693 C61.7151906,2.09467719 60.6817424,0.618124236 58.0383932,0.618124236 L53.7365263,0.618124236 C53.7365263,0.616735193 51.7168574,9.78719858 51.7918658,9.8135904 Z M56.1659629,2.76280698 L57.0216135,2.76280698 C57.6605734,2.76280698 58.8509834,2.81559062 58.6537393,3.96155128 C58.5834664,4.65294667 57.9709033,5.15970348 57.2785865,5.09917769 L55.6686854,5.09917769 L56.1659629,2.76280698 L56.1659629,2.76280698 Z M62.8458718,0.616735193 L65.6975775,0.616735193 L64.5335593,6.1215135 C64.3418713,7.02855873 64.3224247,7.93838204 65.5628403,7.93838204 C66.6476831,7.93838204 67.1463496,7.1174575 67.3560951,6.1215135 L68.5201133,0.616735193 L71.4037671,0.616735193 L70.2730859,6.07567508 C69.6494055,9.02600289 68.1075675,10.217802 65.0544505,10.217802 C62.2069119,10.217802 61.0470608,9.23019224 61.7179687,6.06178464 L62.8458718,0.616735193 L62.8458718,0.616735193 Z" id="Shape"></path>
        </g>
    </g>
</svg>