<?xml version="1.0" encoding="UTF-8"?>
<svg width="101px" height="18px" viewBox="0 0 101 18" version="1.1" xmlns="http://www.w3.org/2000/svg" xmlns:xlink="http://www.w3.org/1999/xlink">
    <title>Group</title>
    <g id="Page-1" stroke="none" stroke-width="1" fill="none" fill-rule="evenodd">
        <g id="Artboard" transform="translate(-1075.000000, -1514.000000)" fill="#000000" fill-rule="nonzero">
            <g id="Group" transform="translate(1075.427154, 1514.090685)">
                <path d="M38.2488753,8.28935422 C38.9313145,7.65860663 39.7039391,6.6159759 39.7039391,5.28959123 C39.7039391,2.98546531 38.3396106,0.539462418 34.7607916,0.539462418 L27.1010851,0.539462418 L27.1010851,17.0169873 L35.7517307,17.0169873 C38.429246,17.0169873 40.3341368,14.5715343 40.3341368,12.3960875 C40.3341368,10.5417885 39.3816914,9.08727468 38.2488753,8.28935422 L38.2488753,8.28935422 Z M30.9114165,4.1182814 L34.1294941,4.1182814 C34.8509769,4.1182814 35.3909893,4.89090596 35.3909893,5.66298062 C35.3909893,6.47409893 34.7987354,7.19503189 33.8077963,7.19503189 L30.9114165,7.19503189 L30.9114165,4.1182814 Z M33.9496733,13.6702306 L30.9119664,13.6702306 L30.9119664,10.310826 L34.0783524,10.310826 C35.2111685,10.310826 35.8419161,11.2242277 35.8419161,11.9842044 C35.8413662,12.7557291 35.3008039,13.6702306 33.9496733,13.6702306 L33.9496733,13.6702306 Z M48.894597,0.217764646 C45.1870989,0.217764646 41.2865821,3.21752763 41.2865821,8.6880395 C41.2865821,13.7087244 44.6333388,17.2875434 48.894597,17.2875434 C53.1558551,17.2875434 56.5152597,13.7087244 56.5152597,8.6880395 C56.5158097,3.21752763 52.6152929,0.217764646 48.894597,0.217764646 L48.894597,0.217764646 Z M48.894597,13.5289036 C46.7191501,13.5289036 45.0974634,11.2632714 45.0974634,8.5599103 C45.0974634,5.93353669 47.2212186,4.02809604 48.894597,4.02809604 C50.5811731,4.02809604 52.7049285,5.93353669 52.7049285,8.5599103 C52.7054783,11.2632714 51.0700438,13.5289036 48.894597,13.5289036 Z M66.2992713,7.06635278 C63.5959102,6.65446965 61.9995194,6.29427812 61.9995194,5.07127668 C61.9995194,4.15732506 62.4889399,3.57826907 63.7119414,3.57826907 C64.8958992,3.57826907 66.3894567,4.20901667 67.341902,4.89145587 L69.5690405,2.26563217 C68.1145266,0.990939121 65.1279615,0 64.0336391,0 C60.1842641,0 57.7778548,2.30412593 57.7778548,5.29069106 C57.7778548,8.38008949 59.888962,9.80875755 62.0000693,10.1310052 C64.3558868,10.4911968 66.0298151,10.9932652 66.0298151,12.1777729 C66.0298151,13.1175704 65.038326,13.6196389 63.9440037,13.6196389 C62.18044,13.6196389 60.9062969,12.7573788 59.8246225,11.6245628 C58.6918064,12.7573788 57.2884342,14.2498365 57.2884342,14.2498365 C58.6401148,15.8462274 60.4036785,17.2495995 63.6223059,17.2495995 C67.9731996,17.2495995 70.2905233,14.1602011 70.2905233,11.9457106 C70.2899734,9.17746004 68.3845328,7.3754026 66.2992713,7.06635278 L66.2992713,7.06635278 Z M79.1979772,4.02809604 C80.4589225,4.02809604 81.0649241,4.71053524 82.1449488,5.93353669 L85.2733909,3.79658362 C83.7286916,1.4924577 81.8364489,0.089085537 78.9785628,0.089085537 C74.9108732,0.089085537 71.511875,3.84827523 71.511875,8.72708316 C71.511875,13.6190889 74.9108732,17.3777287 78.9785628,17.3777287 C81.8364489,17.3777287 83.7292416,15.9743566 85.2733909,13.6702306 L82.1449488,11.5332776 C81.0643742,12.756279 80.4589225,13.4387182 79.1979772,13.4387182 C77.1121658,13.4387182 75.4519854,11.6751545 75.4519854,8.72708316 C75.4519854,5.79165972 77.1121658,4.02809604 79.1979772,4.02809604 L79.1979772,4.02809604 Z M95.9713541,6.29372821 L90.9891629,6.29372821 L90.9891629,0.539462418 L86.9473191,0.539462418 L86.9473191,17.0164374 L90.9891629,17.0164374 L90.9891629,10.4516032 L95.9713541,10.4516032 L95.9713541,17.0164374 L100,17.0164374 L100,0.539462418 L95.9713541,0.539462418 L95.9713541,6.29372821 Z M12.9635954,4.72318319 C12.5151612,4.22057319 11.9841999,3.79822187 11.3936002,3.47433594 L11.3936002,6.38391357 L5.36822847,6.38391357 L5.36822847,3.47433594 C4.78230204,3.79440683 4.25556221,4.21252517 3.8108813,4.71053524 C2.79354647,5.84335133 2.20184253,7.323711 2.20184253,8.86841021 C2.20184253,10.4136593 2.79354647,11.906117 3.8108813,13.039483 C4.25200031,13.5446481 4.77929726,13.9674911 5.36822847,14.2883303 L5.36822847,11.2891172 L11.3936002,11.2891172 L11.3936002,14.2883303 C11.9843198,13.9646247 12.5153099,13.5422504 12.9635954,13.039483 C13.9809302,11.906117 14.5726341,10.4136593 14.5726341,8.86841021 C14.5726341,7.323711 13.9803803,5.84335133 12.9635954,4.72318319 L12.9635954,4.72318319 Z M3.81033139,11.6999005 C3.2828137,10.8494627 3.0019945,9.86916575 2.99921308,8.86841021 C3.00012572,7.86324969 3.28099421,6.87821058 3.81033139,6.02372205 C4.03202861,5.66338338 4.29562193,5.33056912 4.5956039,5.03223302 L4.62144971,12.7304332 C4.31259736,12.4190357 4.04044907,12.073269 3.81033139,11.6999005 L3.81033139,11.6999005 Z M11.3930503,10.477449 L5.36767856,10.477449 L5.36767856,7.22087769 L11.3930503,7.22087769 L11.3930503,10.477449 L11.3930503,10.477449 Z M8.40648521,0.475110222 C10.0229164,0.472314813 11.6056194,0.937366314 12.9635954,1.81415547 C15.2803692,3.32036094 16.8129704,5.92033883 16.8129704,8.86841021 C16.8129704,11.8159317 15.2803692,14.4170094 12.9635954,15.922665 C11.6498586,16.772277 10.0798635,17.2743455 8.40648521,17.2743455 C6.70781099,17.2743455 5.13726596,16.7590792 3.8108813,15.8968192 C1.51995324,14.3911636 -1.16962323e-13,11.8032837 -1.16962323e-13,8.86841021 C-1.16962323e-13,5.93298678 1.51995324,3.34565683 3.8108813,1.83945137 C5.13726596,0.977191353 6.70726108,0.475110222 8.40648521,0.475110222 Z M8.40648521,1.31206787 C6.74231423,1.30832078 5.12467377,1.86114849 3.8108813,2.882632 C2.00882387,4.25960845 0.836964119,6.43505527 0.836964119,8.86841021 C0.836964119,11.3017652 2.00882387,13.4766621 3.8108813,14.8668364 C5.12875287,15.8792409 6.74463588,16.4270208 8.40648521,16.4247466 C10.0524609,16.4278133 11.6537652,15.8894721 12.9635954,14.8926822 C14.7914986,13.5025079 15.9633583,11.3138632 15.9633583,8.86896012 C15.9633583,6.42295723 14.7914986,4.23431256 12.9635954,2.84413825 C11.6889023,1.89169288 10.1183573,1.31206787 8.40648521,1.31206787 Z M12.165125,5.03223302 C12.4728886,5.32680299 12.7411039,5.66008508 12.9630454,6.02372205 C13.4923826,6.87821058 13.7732511,7.86324969 13.7741638,8.86841021 C13.7741638,9.85989925 13.4777619,10.8502885 12.9630454,11.6999005 C12.733295,12.0733767 12.4613153,12.4191637 12.152477,12.7304332 L12.165125,5.03223302 Z" id="Shape"></path>
            </g>
        </g>
    </g>
</svg>