<?xml version="1.0" encoding="UTF-8"?>
<svg width="250px" height="53px" viewBox="0 0 250 53" version="1.1" xmlns="http://www.w3.org/2000/svg" xmlns:xlink="http://www.w3.org/1999/xlink">
    <title>carshop-logo</title>
    <g id="Page-1" stroke="none" stroke-width="1" fill="none" fill-rule="evenodd">
        <g id="Group-21" transform="translate(0.000000, -3.000000)" fill="#FFFFFF" fill-rule="nonzero">
            <g id="carshop-logo" transform="translate(0.000000, 3.000000)">
                <path d="M118.557692,32.4329837 C117.135781,32.4329837 115.935314,32.2231935 115.935314,30.3933567 L115.935314,20.3787879 C115.935314,14.7494173 111.057692,11.4364802 103.956876,11.4364802 C99.0034965,11.4364802 92.0104895,14.6241259 92.0104895,21.1072261 L100.6993,21.1451049 C100.859557,19.434732 101.596736,18.4061772 103.884032,18.1235431 C105.871212,17.8817016 107.331002,18.4149184 107.465035,19.9067599 C107.610722,21.5297203 106.990093,22.7972028 102.278555,23.3799534 C94.1491841,24.3851982 90.8420746,26.1480187 90.8420746,31.3723776 C90.8420746,36.2645688 94.5483683,39.4726107 100.439976,39.4726107 C104.647436,39.4726107 107.645687,38.4207459 109.37937,36.3170163 C109.63874,36.9878112 110.054263,37.5871224 110.591492,38.0652681 C111.867022,38.9675882 113.380037,39.4742912 114.941725,39.5221445 C116.243692,39.4808888 117.524821,39.1838728 118.712121,38.6480187 L118.712121,32.441725 L118.557692,32.4329837 Z M107.450466,26.5297203 L107.450466,28.3566434 C107.450466,32.3980187 104.988345,33.9306527 102.124126,33.9306527 C100.236014,33.9306527 98.8607226,32.7651515 98.8607226,31.4189977 C98.8607226,29.9621212 99.8018648,28.8403264 101.893939,28.5052448 C103.814102,28.219697 106.375291,27.6048951 107.450466,26.5297203 Z" id="Shape"></path>
                <path d="M122.459207,38.5343823 L122.459207,12.0192308 L130.588578,12.0192308 L130.588578,15.6468532 C131.800699,12.9662005 134.93007,11.439394 138.560606,11.439394 C139.24299,11.4515542 139.924057,11.5040937 140.600233,11.5967366 L140.600233,20.1282051 C139.736813,19.9547318 138.858525,19.8659271 137.977855,19.8630536 C133.508158,19.8630536 130.877039,22.3892774 130.877039,26.7540793 L130.877039,38.5285548 L122.459207,38.5343823 Z" id="Path"></path>
                <path d="M153.094405,23.4207459 C148.956876,21.733683 147.226107,20.6177156 147.226107,18.0623543 C147.226107,15.8129371 149.012238,14.3036131 151.66958,14.3036131 C153.744172,14.3036131 155.305944,15.1777389 156.308275,16.9434732 L156.445221,17.1853147 L159.108391,15.8216783 L158.977272,15.5623543 C157.520396,12.6981352 155.040792,11.2470863 151.617133,11.2470863 C147.211538,11.2470863 144.012238,14.1142191 144.012238,18.0623543 C144.012238,20.0611888 144.594988,21.5588578 145.827506,22.8175991 C146.90268,23.8986014 148.470279,24.8222611 151.241259,26.0227273 C153.61014,27.0075758 155.405011,27.9574592 156.433566,28.7674825 C157.371795,29.5104895 157.846736,30.6002331 157.846736,32.0134033 C157.846736,34.8601399 155.617715,36.5588578 151.87937,36.5588578 C148.213869,36.5588578 145.603147,34.9271562 144.525058,31.9638695 L144.42599,31.687063 L141.684149,32.7301865 L141.765734,32.9924243 C143.050699,37.1270396 146.838578,39.6095571 151.87937,39.6095571 C157.371795,39.6095571 161.060606,36.5530303 161.060606,32.0075758 C161.060606,27.5553613 158.260489,25.5565268 153.094405,23.4207459 Z" id="Path"></path>
                <path d="M176.652098,11.509324 C172.5,11.509324 169.577506,13.018648 167.948718,15.9994173 L167.948718,3.52855478 L164.74359,3.52855478 L164.74359,39.0268065 L167.948718,39.0268065 L167.948718,24.4784382 C167.948718,18.455711 171.139277,14.5716783 176.075175,14.5716783 C180.690559,14.5716783 183.674242,17.8438229 183.674242,22.9050117 L183.674242,39.0268065 L186.87937,39.0268065 L186.87937,22.3747086 C186.87937,19.0675991 185.932401,16.4160839 184.064685,14.5075758 C182.170746,12.4854313 179.746503,11.509324 176.652098,11.509324 Z" id="Path"></path>
                <path d="M204.752331,11.2470863 C200.728438,11.2470863 197.31352,12.6223776 194.603729,15.3263403 C191.893939,18.030303 190.524475,21.4452215 190.524475,25.4749417 C190.524475,29.504662 191.896853,32.9137529 194.603729,35.6235431 C197.310606,38.3333334 200.72261,39.7027972 204.752331,39.7027972 C208.782051,39.7027972 212.100816,38.3682984 214.848485,35.6235431 C217.596154,32.8787879 218.9831,29.4638695 218.9831,25.4749417 C218.9831,21.486014 217.590326,18.0710956 214.848485,15.3263403 C212.106643,12.5815851 208.79662,11.2470863 204.752331,11.2470863 Z M215.769231,25.4778555 C215.769231,28.6276224 214.699883,31.3199301 212.59324,33.4761072 C210.486597,35.5856644 207.84965,36.6520979 204.752331,36.6520979 C201.655011,36.6520979 198.965617,35.5856644 196.858974,33.490676 C194.758158,31.3257576 193.75,28.7062937 193.75,25.4778555 C193.75,22.2494173 194.798951,19.6037296 196.873543,17.5291375 C198.965617,15.3875292 201.620046,14.3036131 204.7669,14.3036131 C207.913753,14.3036131 210.515734,15.3875292 212.607809,17.5320513 C214.699883,19.6765734 215.769231,22.3106061 215.769231,25.4778555 L215.769231,25.4778555 Z" id="Shape"></path>
                <path d="M245.737179,15.3350816 C241.366671,10.867717 234.511637,9.95972567 229.128788,13.1351982 C227.622377,14.0967366 226.538461,15.1748252 225.842074,16.3840327 L225.842074,11.9289044 L222.636946,11.9289044 L222.636946,49.1754079 L225.842074,49.1754079 L225.842074,34.5745921 C226.651876,35.9276896 227.781476,37.0612925 229.131701,37.8758741 C231.08683,39.0909091 233.420746,39.7086247 236.072261,39.7086247 C239.729355,39.7776269 243.244823,38.2956472 245.748834,35.6293706 C248.385781,32.8846154 249.723193,29.4726107 249.723193,25.4865968 C249.723193,21.5005828 248.374126,18.0798368 245.737179,15.3350816 Z M236.060606,36.6520979 C232.995338,36.6520979 230.524475,35.6322844 228.537296,33.5343823 C226.550116,31.4364802 225.509907,28.715035 225.509907,25.4778555 C225.509907,22.240676 226.526806,19.5804196 228.531468,17.4737762 C230.474267,15.3952054 233.210281,14.242307 236.054778,14.3036131 C238.880089,14.2358481 241.592149,15.4144486 243.470279,17.5262238 C245.474941,19.6328672 246.491841,22.3106061 246.491841,25.4778555 C246.491841,28.5955711 245.474941,31.2703963 243.467366,33.4324009 C241.590687,35.5407363 238.882424,36.7180104 236.060606,36.6520979 L236.060606,36.6520979 Z" id="Shape"></path>
                <path d="M88.8811188,19.1754079 L81.3490676,22.52331 C80.1835664,20.483683 78.5984848,19.3910257 76.5180652,19.3910257 C73.1381119,19.3910257 70.5477855,21.9842658 70.5477855,25.5099068 C70.5477855,29.0355478 73.1847319,31.5734266 76.5180652,31.5734266 C78.5984848,31.5734266 80.3263403,30.6089744 81.2004662,28.277972 L89.2278554,30.4399767 C87.4796037,37.724359 81.0984848,39.504662 76.7307692,39.504662 C72.6282051,39.504662 69.1550116,38.1905595 66.3170163,35.506993 C63.5285547,32.8234266 62.1095571,29.5104895 62.1095571,25.5128205 C62.1095571,21.5151515 63.5285547,18.2022145 66.3170163,15.518648 C69.1579254,12.8350816 72.6282051,11.4684604 76.7307692,11.4684604 C81.0984848,11.4597902 85.6759906,13.0565268 88.8811188,19.1754079 Z" id="Path"></path>
                <rect id="Rectangle" x="0" y="29.5396271" width="11.5472028" height="23.1497669" rx="5.7736014"></rect>
                <rect id="Rectangle" x="17.9487179" y="29.5454546" width="11.5472028" height="23.1497669" rx="5.7736014"></rect>
                <rect id="Rectangle" x="17.9662004" y="0" width="11.5472028" height="23.1497669" rx="5.7736014"></rect>
                <rect id="Rectangle" x="35.8770396" y="29.5454546" width="11.5472028" height="23.1497669" rx="5.7736014"></rect>
                <rect id="Rectangle" x="0.032051282" y="0" width="11.5472028" height="23.1497669" rx="5.7736014"></rect>
                <rect id="Rectangle" x="35.9003496" y="0" width="11.5472028" height="23.1497669" rx="5.7736014"></rect>
            </g>
        </g>
    </g>
</svg>