<?xml version="1.0" encoding="UTF-8"?>
<svg width="100px" height="23px" viewBox="0 0 100 23" version="1.1" xmlns="http://www.w3.org/2000/svg" xmlns:xlink="http://www.w3.org/1999/xlink">
    <title>chrysler</title>
    <g id="Page-1" stroke="none" stroke-width="1" fill="none" fill-rule="evenodd">
        <g id="chrysler" fill-rule="nonzero">
            <path d="M85.5019321,13.797402 C84.0892206,15.0574801 80.7437182,15.6515245 76.7295428,15.5774023 C74.9442773,16.9867914 70.1860629,17.2832804 64.90777,17.2832804 C56.6554597,17.2832804 57.7699144,22.1785478 49.7404952,22.1785478 C41.7110755,22.1785478 42.751768,17.2832804 34.5732199,17.2832804 C29.2943924,17.2832804 24.5361783,16.9862581 22.7519817,15.5774023 C18.7367374,15.6515245 15.3912351,15.0574801 13.9785234,13.797402 C8.25391394,13.6486243 6.84120221,12.5362574 6.32058881,11.645724 C9.81521965,11.9427462 26.6180975,12.5362574 38.2164447,12.5362574 C42.3054513,12.5362574 44.1644795,9.93984593 49.7404952,9.93984593 C55.3170449,9.93984593 57.1012415,12.5362574 61.2645452,12.5362574 C72.8628925,12.5362574 89.6657703,11.9427462 93.1609357,11.645724 C92.6392533,12.5357241 91.2270762,13.648091 85.5019321,13.797402 L85.5019321,13.797402 Z" id="Path" fill="#FFFFFF"></path>
            <path d="M49.7399607,10.9039683 C45.3532314,10.9039683 41.7105411,12.9804576 41.7105411,15.6509913 C41.7105411,18.2474028 45.3537658,20.6209143 49.7399607,20.6209143 C54.2004523,20.6209143 57.7699144,18.2474028 57.7699144,15.6509913 C57.7699144,12.9804576 54.2004523,10.9039683 49.7399607,10.9039683 Z" id="Path" fill="#000000"></path>
            <path d="M56.8772818,15.6509913 C56.8772818,18.098625 53.6809078,20.1015253 49.7399607,20.1015253 C45.7995476,20.1015253 42.6769363,18.098625 42.6769363,15.6509913 C42.6769363,13.2774798 45.7995476,11.2745795 49.7399607,11.2745795 C53.6809078,11.2745795 56.8772818,13.2774798 56.8772818,15.6509913 Z M49.7399607,11.7203795 C47.5094474,11.7203795 45.7252509,13.5003798 45.7252509,15.6509913 C45.7252509,17.8767915 47.5094474,19.5826696 49.7399607,19.5826696 C52.0447707,19.5826696 53.8289673,17.8767915 53.8289673,15.6509913 C53.8289673,13.5003798 52.0447707,11.7203795 49.7399607,11.7203795 Z M53.4574822,12.4621351 C54.275818,13.2774798 54.7216002,14.4650354 54.7216002,15.6509913 C54.7216002,16.9121359 54.275818,18.098625 53.4574822,18.9150362 C55.0936193,18.2474028 56.2080745,16.9862581 56.2080745,15.6509913 C56.2080745,14.3157244 55.0930849,13.1297686 53.4574822,12.4621351 Z M44.8326179,15.6509913 C44.8326179,14.4645021 45.2789342,13.2774798 46.0967355,12.4621351 C44.4605984,13.1297686 43.3456092,14.3162577 43.3456092,15.6509913 C43.3456092,16.9857249 44.4605984,18.2474028 46.0967355,18.9150362 C45.2789342,18.098625 44.8326179,16.9126691 44.8326179,15.6509913 Z" id="Shape" fill="#FFFFFF"></path>
            <path d="M55.3512535,17.6405602 C55.2031618,18.0491607 55.008765,18.4395448 54.7718442,18.8041194 C53.4804661,19.6061328 51.7026836,20.1020586 49.7399607,20.1020586 C47.6799563,20.1020586 45.842843,19.5554737 44.5594829,18.6825376 C44.3004775,18.2645838 44.0974206,17.8146065 43.9554858,17.3440713 C44.4408218,17.9919743 45.1891365,18.5449582 46.0972704,18.9155694 C45.2794691,18.0991583 44.8331524,16.9126691 44.8331524,15.6515245 C44.8331524,14.4650354 45.2794691,13.2780131 46.0972704,12.4626684 C45.2158621,12.8220813 44.4851861,13.3334714 43.9987812,13.9365812 C44.1452373,13.4854487 44.3451441,13.0588458 44.5926225,12.663705 C45.8743793,11.8147653 47.6975951,11.2751128 49.7399607,11.2751128 C51.6866482,11.2751128 53.4521371,11.7646395 54.7403079,12.5458559 C54.9680097,12.8935372 55.1598986,13.2678812 55.3100964,13.6614223 C54.8370545,13.1782946 54.2015213,12.7655564 53.4569478,12.4626684 C54.2752835,13.2780131 54.7210653,14.4655687 54.7210653,15.6515245 C54.7210653,16.9126691 54.2752835,18.0991583 53.4569478,18.9155694 C54.2234362,18.6025496 54.8750048,18.1599492 55.3512535,17.6405602 L55.3512535,17.6405602 Z M49.7399607,11.7203795 C47.5094474,11.7203795 45.7252509,13.5003798 45.7252509,15.6509913 C45.7252509,17.8767915 47.5094474,19.5826696 49.7399607,19.5826696 C52.0447707,19.5826696 53.8289673,17.8767915 53.8289673,15.6509913 C53.8289673,13.5003798 52.0447707,11.7203795 49.7399607,11.7203795 Z" id="Shape" fill="#FFFFFF"></path>
            <path d="M46.0384741,17.2038256 C45.8322691,16.7379703 45.7255956,16.2343696 45.7252509,15.7251135 L45.7252509,15.6899188 C45.7283821,16.2102431 45.8348406,16.7247898 46.0384741,17.2038256 L46.0384741,17.2038256 Z" id="Path" fill="#D0B26F"></path>
            <path d="M50.9297811,18.321525 C51.0040783,18.321525 50.8560188,18.321525 50.9297811,18.321525 C51.3755633,18.098625 51.6732857,18.1738138 51.9704735,17.8016028 C52.3419586,17.5056471 52.3419586,17.1339694 52.4905525,16.7633582 C52.4905525,16.6892359 52.5659186,16.6156469 52.5659186,16.5415247 L53.1597599,16.8385469 L52.7882748,19.0632807 L52.342493,18.7662584 L52.1190675,19.7309141 L50.9297811,18.321525 L50.9297811,18.321525 Z" id="Path" fill="#000000"></path>
            <path d="M46.7659429,16.2450357 C46.6916461,16.096258 46.6173489,15.9480135 46.6173489,15.7251135 C46.6173489,15.2803801 46.9145372,15.0574801 47.0631312,14.6127466 C47.2117251,14.1680132 47.2117251,13.870991 47.5837446,13.5003798 C47.8809325,13.2033575 48.1786548,13.2774798 48.6244366,13.0545798 C49.0702184,12.9068686 49.293644,12.6839686 49.7394258,12.6839686 C50.1857425,12.6839686 50.4080987,12.9068686 50.8549499,13.0545798 C51.3007317,13.2033575 51.598454,13.2033575 51.8956419,13.4262575 L46.7659429,16.2450357 L46.7659429,16.2450357 Z M49.8142575,18.6921362 C49.293644,18.6921362 49.1450501,18.4692362 48.6244366,18.321525 C48.2524171,18.1738138 47.9557637,18.1738138 47.6580414,17.8767915 L52.7134436,15.0574801 C52.7877404,15.2062579 52.9368688,15.4280913 52.9368688,15.6509913 C52.9368688,16.0216025 52.7134436,16.2445025 52.5653842,16.5415247 C52.5653842,16.6156469 52.490018,16.6892359 52.490018,16.7633582 C52.4157209,16.9121359 52.4157209,16.9862581 52.4157209,17.0603804 C52.3414241,17.1345026 52.3414241,17.2091581 52.3414241,17.2091581 C52.2671269,17.4309916 52.1933646,17.6538916 51.9699391,17.8016028 C51.7465135,18.098625 51.4487911,18.098625 51.0773061,18.2474028 C51.0030093,18.2474028 50.9292466,18.2474028 50.9292466,18.321525 L50.8549499,18.321525 C50.4839993,18.4692362 50.2605737,18.6921362 49.8142575,18.6921362 L49.8142575,18.6921362 Z" id="Shape" fill="#000000"></path>
            <path d="M51.6732857,15.6509913 C51.6732857,16.6892359 50.8560188,17.5797693 49.7399607,17.5797693 C48.6992683,17.5797693 47.8071698,16.6892359 47.8071698,15.6509913 C47.8071698,14.6863357 48.6992683,13.7968688 49.7399607,13.7968688 C50.8560188,13.797402 51.6732857,14.6868689 51.6732857,15.6509913 Z M49.7399607,13.4262575 C48.4763772,13.4262575 47.4351503,14.3898467 47.4351503,15.6509913 C47.4351503,16.9121359 48.4763772,17.9503805 49.7399607,17.9503805 C51.0778406,17.9503805 52.1190675,16.9121359 52.1190675,15.6509913 C52.1190675,14.3898467 51.0783755,13.4262575 49.7399607,13.4262575 Z" id="Shape" fill="#000000"></path>
            <path d="M49.5170696,13.4262575 C49.5913663,13.4262575 49.7399607,13.4262575 49.7399607,13.5003798 L49.9628514,13.7222132 C49.8885546,13.797402 49.8142575,13.797402 49.7399607,13.7222132 L49.5170696,13.4262575 L49.5170696,13.4262575 Z M49.1450501,13.5003798 L49.3679412,13.5003798 L49.6656635,13.7222132 C49.5908319,13.797402 49.4427724,13.870991 49.4427724,13.797402 L49.1450501,13.5003798 Z M48.773565,13.7222132 C48.773565,13.574502 48.9226939,13.574502 48.9964561,13.574502 L49.2941785,13.797402 C49.2198817,13.8715242 49.1455845,13.9451132 49.0712878,13.8715242 L48.773565,13.7222132 Z M48.4015459,13.870991 C48.4015459,13.7968688 48.5501399,13.7222132 48.6244366,13.7968688 L48.922159,13.870991 C48.922159,14.0187022 48.8478622,14.0187022 48.7730306,14.0187022 L48.4015459,13.870991 L48.4015459,13.870991 Z M48.1043576,14.1680132 C48.1043576,14.0192355 48.252952,14.0192355 48.252952,14.0192355 L48.6249711,14.0933577 C48.6200299,14.1731917 48.5563814,14.2369193 48.4763772,14.2421354 L48.1043576,14.1680132 L48.1043576,14.1680132 Z M47.881467,14.4650354 C47.881467,14.3162577 47.9562982,14.2421354 48.0300609,14.2421354 L48.4015459,14.2421354 C48.4015459,14.3898467 48.3272488,14.4650354 48.252952,14.4650354 L47.881467,14.4650354 Z M47.6585758,14.7615244 C47.6585758,14.6863357 47.732873,14.6127466 47.8071698,14.6127466 L48.1043576,14.5386244 C48.1786548,14.6127466 48.1043576,14.6863357 48.0300609,14.7615244 L47.6585758,14.7615244 L47.6585758,14.7615244 Z M47.5094474,15.1326688 C47.5094474,15.0574801 47.5837446,14.9838911 47.5837446,14.9838911 L47.9557637,14.8361799 C48.0300609,14.9103021 47.9557637,14.9838911 47.8809325,15.0580134 L47.5094474,15.1326688 Z M47.4351503,15.5774023 C47.4351503,15.4286246 47.4351503,15.3545023 47.5094474,15.3545023 L47.8071698,15.1326688 C47.881467,15.2067911 47.881467,15.2803801 47.8071698,15.3545023 L47.4351503,15.5774023 Z M47.5094474,15.9480135 C47.4351503,15.8738912 47.4351503,15.7251135 47.5094474,15.7251135 L47.7323386,15.50328 C47.8071698,15.5774023 47.8071698,15.6509913 47.8071698,15.7251135 L47.5094474,15.9480135 Z M47.5837446,16.3186247 C47.5094474,16.2445025 47.5094474,16.1709135 47.5094474,16.0957247 L47.7323386,15.7987025 C47.8071698,15.8738912 47.8809325,15.9474803 47.8071698,16.0216025 L47.5837446,16.3186247 Z M47.7323386,16.6897692 C47.6580414,16.6156469 47.5837446,16.5420579 47.6580414,16.4679357 L47.8066353,16.1709135 C47.8809325,16.1709135 47.9552292,16.3186247 47.8809325,16.3186247 L47.7323386,16.6897692 Z M47.9557637,16.9862581 C47.8071698,16.9862581 47.8071698,16.8385469 47.8071698,16.8385469 L47.9557637,16.4679357 C48.0300609,16.4679357 48.1043576,16.6156469 48.0300609,16.6897692 L47.9557637,16.9862581 Z M48.1786548,17.2832804 C48.1043576,17.2832804 48.0300609,17.2091581 48.0300609,17.1345026 L48.1043576,16.7638914 C48.1786548,16.7638914 48.252952,16.8390802 48.252952,16.9126691 L48.1786548,17.2832804 Z M48.4763772,17.5797693 C48.4015459,17.5797693 48.3277832,17.4309916 48.3277832,17.3568693 L48.3277832,17.0598471 C48.4020804,17.0598471 48.4763772,17.0598471 48.4763772,17.1339694 L48.4763772,17.5797693 L48.4763772,17.5797693 Z M48.8478622,17.7280138 C48.7730306,17.7280138 48.6249711,17.6538916 48.6249711,17.5803026 L48.5506743,17.2832804 C48.6992683,17.2091581 48.773565,17.2832804 48.773565,17.3574026 L48.8478622,17.7280138 L48.8478622,17.7280138 Z M49.2193473,17.8767915 C49.1450501,17.8767915 48.9964561,17.8016028 48.9964561,17.8016028 L48.8478622,17.4309916 C48.9964561,17.3568693 49.0707533,17.4309916 49.0707533,17.5061803 L49.2193473,17.8767915 Z M49.6656635,17.8767915 C49.5165351,17.9509138 49.4427724,17.9509138 49.3679412,17.8767915 L49.2193473,17.5797693 C49.293644,17.5056471 49.3679412,17.5056471 49.4422379,17.5797693 L49.6656635,17.8767915 Z M50.037683,17.8767915 C49.9633859,17.9509138 49.8147919,17.9509138 49.8147919,17.8767915 L49.5919012,17.6538916 C49.5919012,17.5797693 49.7404952,17.5797693 49.8147919,17.5797693 L50.037683,17.8767915 Z M50.4091681,17.802136 C50.3348709,17.8773248 50.2605737,17.8773248 50.186277,17.8773248 L49.8885546,17.6544248 C49.9628514,17.5803026 50.0371486,17.5067136 50.1114453,17.5803026 L50.4091681,17.802136 Z M50.7806527,17.6538916 C50.7806527,17.7280138 50.6325932,17.8016028 50.5582965,17.7280138 L50.2605737,17.5803026 C50.2605737,17.5061803 50.4091681,17.4315248 50.4839993,17.5061803 L50.7806527,17.6538916 L50.7806527,17.6538916 Z M51.1521377,17.5061803 C51.0778406,17.5803026 51.0040783,17.5803026 50.9297811,17.5803026 L50.5582965,17.4315248 C50.6325932,17.3574026 50.7063559,17.2838136 50.7806527,17.3574026 L51.1521377,17.5061803 Z M51.4498601,17.2091581 C51.4498601,17.2832804 51.3018006,17.3568693 51.2275039,17.3568693 L50.8560188,17.2827471 C50.930316,17.2086249 51.0040783,17.1339694 51.0783755,17.1339694 L51.4498601,17.2091581 L51.4498601,17.2091581 Z M51.6732857,16.9126691 C51.6732857,16.9867914 51.5989885,17.0603804 51.5241573,17.0603804 L51.1526722,17.0603804 C51.1526722,16.9862581 51.2280383,16.9126691 51.3018006,16.9126691 L51.6732857,16.9126691 Z M51.8967112,16.5415247 C51.8967112,16.6892359 51.8213451,16.7633582 51.7475824,16.7633582 L51.3760978,16.8385469 C51.3760978,16.7633582 51.4503946,16.6897692 51.5241573,16.6156469 L51.8967112,16.5415247 L51.8967112,16.5415247 Z M52.0447707,16.1709135 C52.0447707,16.3186247 51.9704735,16.3927469 51.8967112,16.3927469 L51.5989885,16.5415247 C51.5236228,16.4674025 51.5989885,16.3927469 51.6732857,16.3186247 L52.0447707,16.1709135 L52.0447707,16.1709135 Z M52.0447707,15.7992358 C52.1190675,15.8744245 52.0447707,16.0221357 52.0447707,16.0221357 L51.6732857,16.2450357 C51.6732857,16.1709135 51.6732857,16.0221357 51.7475824,16.0221357 L52.0447707,15.7992358 Z M52.0447707,15.4280913 C52.1190675,15.50328 52.1190675,15.6509913 52.0447707,15.6509913 L51.7470479,15.8738912 C51.6727512,15.7987025 51.6727512,15.7251135 51.7470479,15.6509913 L52.0447707,15.4280913 Z M51.9704735,15.0574801 C52.0447707,15.1326688 52.0447707,15.2062579 52.0447707,15.2803801 L51.7470479,15.5774023 C51.6727512,15.50328 51.6727512,15.4286246 51.7470479,15.3545023 L51.9704735,15.0574801 Z M51.8213451,14.6868689 C51.8967112,14.7620576 51.9704735,14.8356466 51.8967112,14.9097689 L51.7475824,15.2067911 C51.6732857,15.2067911 51.5995234,15.0580134 51.5995234,14.9838911 L51.8213451,14.6868689 L51.8213451,14.6868689 Z M51.5989885,14.3157244 C51.7470479,14.3898467 51.7470479,14.4645021 51.7470479,14.5386244 L51.5989885,14.9092356 C51.5236228,14.8351134 51.4498601,14.7615244 51.4498601,14.6863357 L51.5989885,14.3157244 Z M51.3755633,14.0928244 C51.4498601,14.0928244 51.5236228,14.1680132 51.5236228,14.2416022 L51.4493256,14.6122134 C51.36991,14.6068017 51.3066907,14.5437311 51.3012661,14.4645021 L51.3755633,14.0928244 L51.3755633,14.0928244 Z M51.0783755,13.797402 C51.1526722,13.797402 51.2275039,13.9451132 51.2275039,13.9451132 L51.2275039,14.3157244 C51.1521377,14.3157244 51.0783755,14.2416022 51.0783755,14.1680132 L51.0783755,13.797402 Z M50.7063559,13.648091 C50.7806527,13.648091 50.8554844,13.7222132 50.8554844,13.7222132 L50.9297811,14.0928244 C50.8554844,14.0928244 50.7806527,14.0928244 50.7806527,14.0187022 L50.7063559,13.648091 Z M50.3348709,13.5003798 C50.4091681,13.5003798 50.4839993,13.5003798 50.5582965,13.574502 L50.6325932,13.9451132 C50.5582965,13.9451132 50.4845338,13.9451132 50.4091681,13.870991 L50.3348709,13.5003798 Z M49.8885546,13.4262575 C49.9628514,13.4262575 50.1114453,13.4262575 50.1114453,13.5003798 L50.3343364,13.797402 C50.2600393,13.8715242 50.1114453,13.8715242 50.1114453,13.797402 L49.8885546,13.4262575 Z" id="Shape" fill="#FFFFFF"></path>
            <path d="M52.8620376,16.6897692 C53.0854627,16.319158 53.2345915,16.096258 53.2345915,15.6515245 C53.2345915,15.1326688 53.011166,14.9097689 52.7877404,14.4650354 C52.5653842,13.9451132 52.5653842,13.6486243 52.1938991,13.2774798 C51.8213451,12.9068686 51.4493256,12.9068686 51.0035438,12.7586241 C50.4834648,12.5357241 50.2600393,12.3128241 49.7394258,12.3128241 C49.2188128,12.3128241 48.9959217,12.5357241 48.5496054,12.7586241 C48.028992,12.9804576 47.6575069,12.9804576 47.2854874,13.2774798 C46.9140023,13.648091 46.9140023,14.0192355 46.7648739,14.4650354 C46.5419833,14.9838911 46.3190921,15.2067911 46.3190921,15.7251135 C46.3190921,16.2450357 46.5419833,16.4679357 46.7648739,16.9126691 C46.9877651,17.3574026 46.9877651,17.7280138 47.2854874,18.0991583 C47.7312692,18.4697695 48.1032887,18.3961805 48.5496054,18.6190805 C49.0702184,18.7667917 49.2931095,19.0638139 49.813723,19.0638139 C50.3343364,19.0638139 50.557762,18.7667917 51.0035438,18.6190805 L51.0778406,18.6190805 L52.118533,19.8791586 L52.3419586,18.9155694 L52.7877404,19.1374029 L53.3088883,16.8385469 L52.8620376,16.6897692 Z M46.7659429,16.2450357 C46.6916461,16.096258 46.6173489,15.9480135 46.6173489,15.7251135 C46.6173489,15.2803801 46.9145372,15.0574801 47.0631312,14.6127466 C47.2117251,14.1680132 47.2117251,13.870991 47.5837446,13.5003798 C47.8809325,13.2033575 48.1786548,13.2774798 48.6244366,13.0545798 C49.0702184,12.9068686 49.293644,12.6839686 49.7394258,12.6839686 C50.1857425,12.6839686 50.4080987,12.9068686 50.8549499,13.0545798 C51.3007317,13.2033575 51.598454,13.2033575 51.8956419,13.4262575 L46.7659429,16.2450357 L46.7659429,16.2450357 Z M49.8142575,18.6921362 C49.293644,18.6921362 49.1450501,18.4692362 48.6244366,18.321525 C48.2524171,18.1738138 47.9557637,18.1738138 47.6580414,17.8767915 L52.7134436,15.0574801 C52.7877404,15.2062579 52.9368688,15.4280913 52.9368688,15.6509913 C52.9368688,16.0216025 52.7134436,16.2445025 52.5653842,16.5415247 C52.5653842,16.6156469 52.490018,16.6892359 52.490018,16.7633582 C52.4157209,16.9121359 52.4157209,16.9862581 52.4157209,17.0603804 C52.3414241,17.1345026 52.3414241,17.2091581 52.3414241,17.2091581 C52.2671269,17.4309916 52.1933646,17.6538916 51.9699391,17.8016028 C51.7465135,18.098625 51.4487911,18.098625 51.0773061,18.2474028 C51.0030093,18.2474028 50.9292466,18.2474028 50.9292466,18.321525 L50.8549499,18.321525 C50.4839993,18.4692362 50.2605737,18.6921362 49.8142575,18.6921362 L49.8142575,18.6921362 Z M51.9704735,19.3597696 L51.3012661,18.4692362 C51.6727512,18.395114 51.9704735,18.321525 52.2681959,18.0245028 C52.342493,17.9503805 52.4162553,17.8767915 52.4162553,17.8016028 L51.9704735,19.3597696 L51.9704735,19.3597696 Z M52.6396809,18.7662584 L52.4162553,18.6185472 L52.7877404,17.2832804 L52.6396809,17.2091581 C52.7139781,17.1339694 52.7139781,16.9862581 52.7877404,16.9121359 L53.011166,16.9862581 L52.6396809,18.7662584 L52.6396809,18.7662584 Z" id="Shape" fill="#FFFFFF"></path>
            <path d="M50.2752319,14.0928716 C49.177059,14.0928716 48.2784236,14.9904657 48.1786548,15.9861222 L51.1731495,14.2932913 C50.8937115,14.1572837 50.586146,14.0886335 50.2752319,14.0928716 L50.2752319,14.0928716 Z M49.3765961,18.0762135 C49.6759021,18.2759175 49.9752081,18.3754115 50.2752319,18.3754115 C51.4170377,18.3862799 52.3744101,17.5179676 52.4715774,16.3833827 L49.3765961,18.0762135 Z" id="Shape" fill="#000000"></path>
            <path d="M47.4351503,17.7280138 C47.2865563,17.4309916 47.2122596,17.1345026 47.0636656,16.7633582 C46.9893685,16.6892359 46.9893685,16.6156469 46.9150717,16.5415247 L52.0453052,13.648091 C52.2687303,13.9451132 52.2687303,14.1680132 52.491087,14.6127466 C52.491087,14.6868689 52.5664531,14.7615244 52.6402154,14.8356466 L47.4351503,17.7280138 L47.4351503,17.7280138 Z" id="Path" fill="#000000"></path>
            <path d="M48.6249711,15.4088704 L48.8478622,14.7711012 L48.922159,15.0445243 L49.4427724,14.3164862 L49.5170696,14.4976781 L49.7399607,14.2255632 L49.5170696,14.7711012 L49.4427724,14.5899093 L48.922159,15.2257162 L48.8478622,15.1354473 L48.6249711,15.4088704 L48.6249711,15.4088704 Z M49.8142575,17.9560225 L50.037683,17.3189075 L50.186277,17.5014076 L50.7063559,16.8636384 L50.7806527,17.0467926 L51.0040783,16.7733695 L50.7806527,17.3189075 L50.7063559,17.1370615 L50.186277,17.7735224 L50.037683,17.5923305 L49.8142575,17.9560225 L49.8142575,17.9560225 Z M48.1786548,16.4090233 L48.3277832,16.3181004 L48.3277832,16.9545613 L48.5506743,16.7733695 L48.5506743,16.1356003 L48.6992683,16.0446773 L48.6992683,17.5014076 L48.5506743,17.5923305 L48.5506743,16.9545613 L48.3277832,17.1370615 L48.3277832,17.7735224 L48.1786548,17.8644454 L48.1786548,16.4090233 L48.1786548,16.4090233 Z M48.9964561,16.5902152 L48.9964561,16.0446773 L49.0707533,15.9537543 C49.1450501,15.9537543 49.1450501,15.9537543 49.1450501,16.0446773 L49.1450501,16.3181004 C49.1450501,16.4090233 49.1450501,16.4090233 49.0707533,16.4992922 L48.9964561,16.5902152 Z M49.2193473,16.4999464 C49.293644,16.4090233 49.293644,16.4090233 49.293644,16.3187545 L49.293644,15.9544084 C49.293644,15.7719083 49.2193473,15.6809853 49.0707533,15.7719083 L48.8478622,15.9544084 L48.8478622,17.4098304 L48.9964561,17.3189075 L48.9964561,16.6824465 L49.0707533,16.6824465 L49.2193473,17.2279844 L49.3679412,17.0467926 L49.2193473,16.4999464 Z M49.5170696,16.3181004 L49.2941785,15.6809853 L49.4427724,15.5900623 L49.5913663,16.0446773 L49.7399607,15.3166392 L49.8885546,15.2257162 L49.6656635,16.2265232 L49.6656635,16.8636384 L49.5170696,16.9545613 L49.5170696,16.3181004 L49.5170696,16.3181004 Z M50.1114453,15.8634854 C50.0371486,15.9544084 49.9628514,15.8634854 49.9628514,15.7712541 L49.9628514,15.4082163 C49.9628514,15.2257162 49.9628514,15.2257162 50.1114453,15.1347932 L50.2600393,15.0438702 C50.3343364,14.9529472 50.4086332,14.9529472 50.4086332,15.1347932 L50.4086332,15.315985 L50.2600393,15.4082163 L50.2600393,15.1347932 L50.1114453,15.2257162 L50.1114453,15.7712541 L50.2600393,15.6803312 C50.3343364,15.5894081 50.4086332,15.5894081 50.4086332,15.7712541 L50.4086332,16.1356003 C50.4086332,16.3181004 50.4086332,16.4090233 50.2600393,16.4999464 L50.1114453,16.5908693 C50.0371486,16.5908693 49.9628514,16.5908693 49.9628514,16.4999464 L49.9628514,16.2265232 L50.0371486,16.1356003 L50.0371486,16.4090233 L50.3343364,16.3181004 L50.3343364,15.7712541 L50.1114453,15.8634854 L50.1114453,15.8634854 Z M50.5582965,14.7711012 L50.7063559,14.6801782 L50.7063559,16.0446773 L50.9297811,15.8634854 L50.9297811,16.0446773 L50.5582965,16.3181004 L50.5582965,14.7711012 L50.5582965,14.7711012 Z M51.0040783,14.4976781 L51.4498601,14.2255632 L51.4498601,14.3164862 L51.1521377,14.4976781 L51.1521377,15.0445243 L51.3755633,14.8620242 L51.3755633,15.0445243 L51.1521377,15.1354473 L51.1521377,15.6809853 L51.4498601,15.4991393 L51.4498601,15.6809853 L51.0040783,15.9544084 L51.0040783,14.4976781 Z M51.6732857,14.6801782 L51.6732857,14.2255632 L51.7475824,14.133332 C51.8218796,14.042409 51.8967112,14.133332 51.8967112,14.133332 L51.8967112,14.4976781 C51.8967112,14.5899093 51.8213451,14.5899093 51.8213451,14.5899093 L51.6732857,14.6801782 L51.6732857,14.6801782 Z M51.8967112,14.6801782 C51.971008,14.5892552 52.0447707,14.5892552 52.0447707,14.4067551 L52.0447707,14.042409 C52.0447707,13.951486 51.8967112,13.8612171 51.8213451,13.951486 L51.5236228,14.1326778 L51.5236228,15.5894081 L51.6727512,15.4984852 L51.6727512,14.860716 L51.7470479,14.7697929 L51.8961768,15.3153309 L52.0442362,15.2244079 L51.8967112,14.6801782 L51.8967112,14.6801782 Z M47.881467,17.1370615 L47.881467,16.7727153 L47.6585758,16.9539072 L47.6585758,18.0462914 L47.881467,17.8637913 L47.881467,17.5916764 L48.0300609,17.5007535 L48.0300609,17.7728683 C48.0300609,17.9553684 48.0300609,18.0462914 47.881467,18.0462914 L47.732873,18.1372144 C47.6585758,18.2281374 47.5099819,18.2281374 47.5099819,18.0462914 L47.5099819,17.0461385 C47.5099819,16.8636384 47.5842791,16.7727153 47.732873,16.6817924 L47.881467,16.5895611 C47.9562982,16.5895611 48.0300609,16.5895611 48.0300609,16.7720612 L48.0300609,17.0454843 L47.881467,17.1370615 L47.881467,17.1370615 Z" id="Shape" fill="#FFFFFF"></path>
            <path d="M93.0850351,11.3487018 C89.6652359,11.5716017 73.0114864,12.1651129 61.2640108,12.1651129 C59.405517,12.1651129 57.99334,11.6451907 56.5057968,11.0522128 C54.795897,10.3851126 52.7882748,9.6428237 49.7399607,9.6428237 C46.6916461,9.6428237 44.6845585,10.3845794 42.9741242,11.0522128 C41.4871155,11.6451907 40.0749383,12.1651129 38.2159102,12.1651129 C26.4684345,12.1651129 9.81468514,11.5716017 6.39435131,11.3487018 L5.79944089,11.2745795 L6.02233183,11.7945017 C6.54294524,12.7591574 7.88136,13.9451132 13.8288604,14.0933577 C15.7621855,15.7256468 20.1489147,15.9485468 22.6023187,15.8744245 C24.2379214,17.0609136 27.8068492,17.5803026 34.5726854,17.5803026 C38.5879296,17.5803026 40.2978293,18.7667917 42.0077289,20.0279363 C43.7919255,21.2144254 45.6504192,22.47557 49.7399607,22.47557 C53.8289673,22.47557 55.6879955,21.2144254 57.3984298,20.0279363 C59.1826263,18.7667917 60.8925257,17.5803026 64.90777,17.5803026 C71.5987749,17.5803026 75.2419997,17.0603804 76.80384,15.8744245 C79.3315407,15.9485468 83.71827,15.7256468 85.651595,14.0933577 C91.5990953,13.9456465 92.9375101,12.7591574 93.3832923,11.7945017 L93.6810146,11.2745795 L93.0850351,11.3487018 L93.0850351,11.3487018 Z M85.5019321,13.797402 C84.0892206,15.0574801 80.7437182,15.6515245 76.7295428,15.5774023 C74.9442773,16.9867914 70.1860629,17.2832804 64.90777,17.2832804 C56.6554597,17.2832804 57.7699144,22.1785478 49.7404952,22.1785478 C41.7110755,22.1785478 42.751768,17.2832804 34.5732199,17.2832804 C29.2943924,17.2832804 24.5361783,16.9862581 22.7519817,15.5774023 C18.7367374,15.6515245 15.3912351,15.0574801 13.9785234,13.797402 C8.25391394,13.6486243 6.84120221,12.5362574 6.32058881,11.645724 C9.81521965,11.9427462 26.6180975,12.5362574 38.2164447,12.5362574 C42.3054513,12.5362574 44.1644795,9.93984593 49.7404952,9.93984593 C55.3170449,9.93984593 57.1012415,12.5362574 61.2645452,12.5362574 C72.8628925,12.5362574 89.6657703,11.9427462 93.1609357,11.645724 C92.6392533,12.5357241 91.2270762,13.648091 85.5019321,13.797402 L85.5019321,13.797402 Z" id="Shape" fill="#000000"></path>
            <path d="M92.565491,11.7203795 L92.7889161,11.6451907 C92.7889161,11.6451907 92.7135505,11.7939685 92.565491,11.9422129 L92.1940059,11.9422129 C92.4168971,11.868624 92.565491,11.7203795 92.565491,11.7203795 Z" id="Path" fill="#000000"></path>
            <path d="M92.1934715,11.9422129 C90.3339088,12.6839686 84.0892206,13.4262575 62.0069808,13.4262575 C59.6278737,13.4262575 59.0340324,13.1292353 58.6609439,13.1292353 C58.2894589,13.1292353 58.2151617,13.4262575 58.3642905,13.72168 C58.51235,13.9445799 58.6609439,14.3151912 58.7357752,14.5380912 C58.6604095,14.018169 59.1072602,14.16748 60.965754,14.16748 C76.7284739,14.16748 80.1477386,13.8704577 84.9070219,13.3510688 C82.8993998,14.6863357 71.3753493,14.7615244 62.2298715,14.7615244 C61.1891791,14.8356466 60.0741899,14.8356466 59.2558541,14.8356466 C58.9581318,14.8356466 58.8100723,14.9097689 58.8843691,15.2062579 C58.8843691,15.4280913 58.9586663,15.8738912 58.8843691,16.1709135 C59.1820919,15.7992358 59.1077947,15.50328 60.9662884,15.50328 C70.3346569,15.50328 74.4979606,15.2062579 76.2083949,14.9833578 C74.7219207,15.7987025 72.4165762,16.1709135 61.9332181,16.1709135 C57.472192,16.1709135 56.9515786,21.0661809 49.7399607,21.0661809 C42.5283424,21.0661809 42.0077289,16.1709135 37.5467028,16.1709135 C27.0633448,16.1709135 24.7585348,15.7992358 23.2715261,14.9833578 C24.9814257,15.2062579 29.1447294,15.50328 38.5130982,15.50328 C40.3721263,15.50328 40.2978293,15.7992358 40.5950172,16.1709135 C40.5207203,15.8738912 40.5950172,15.4280913 40.5950172,15.2062579 C40.6693142,14.9092356 40.5207203,14.8356466 40.2229978,14.8356466 C39.4051965,14.8356466 38.2902072,14.8356466 37.2495149,14.7615244 C28.1045716,14.7615244 16.5805214,14.6863357 14.5728992,13.3510688 C19.3316478,13.870991 22.7514472,14.16748 38.5136327,14.16748 C40.3726608,14.16748 40.8184427,14.0187022 40.7441457,14.5380912 C40.8189772,14.3151912 40.9670367,13.9445799 41.1161652,13.72168 C41.2647591,13.4257243 41.1904622,13.1292353 40.8189772,13.1292353 C40.4469578,13.1292353 39.8520474,13.4262575 37.4729404,13.4262575 C15.3169381,13.4262575 9.14601227,12.6834353 7.28698414,11.9422129 L6.91549918,11.9422129 C7.80759755,12.5357241 9.36890321,12.9804576 14.2014143,13.351602 C15.3912351,14.4650354 18.4395495,14.7620576 22.8257441,14.9838911 C24.2384559,16.319158 28.0302747,16.5420579 36.2088226,16.5420579 C42.3797484,16.5420579 42.2311545,21.5109144 49.7404952,21.5109144 C57.2493009,21.5109144 57.1012415,16.5420579 63.2721674,16.5420579 C71.4507154,16.5420579 75.1682374,16.319158 76.6547112,14.9838911 C80.9671438,14.7620576 84.0897551,14.4650354 85.2801104,13.351602 C90.1126215,12.9809908 91.6733925,12.5362574 92.5660255,11.9422129 L92.1934715,11.9422129 L92.1934715,11.9422129 Z" id="Path" fill="#000000"></path>
            <path d="M6.91496471,11.7203795 L6.69207373,11.6451907 C6.69207373,11.6451907 6.76637074,11.7939685 6.91496471,11.9422129 L7.28644963,11.9422129 C7.06355864,11.868624 6.91496471,11.7203795 6.91496471,11.7203795 Z M65.1301266,5.48931189 L74.1270105,5.48931189 L74.1270105,4.52518952 L67.8817874,4.52518952 L67.8817874,0.22289998 L65.1301266,0.22289998 L65.1301266,5.48931189 L65.1301266,5.48931189 Z M13.1601875,0.22289998 L13.1601875,5.48931189 L15.9107795,5.48931189 L15.9107795,3.33816714 L20.743825,3.33816714 L20.743825,5.48931189 L23.494417,5.48931189 L23.494417,0.22289998 L20.743825,0.22289998 L20.743825,2.37404475 L15.9107795,2.37404475 L15.9107795,0.22289998 L13.1601875,0.22289998 Z M47.6585758,0.22289998 L45.0560435,2.44816699 L42.4535107,0.22289998 L39.2566025,0.22289998 L43.1227181,3.33816714 L43.1227181,5.48931189 L45.8738448,5.48931189 L45.8738448,3.33816714 C45.9481416,3.26404488 49.5165351,0.22289998 49.5165351,0.22289998 L47.6585758,0.22289998 L47.6585758,0.22289998 Z M77.1753246,5.48931189 L86.3202679,5.48931189 L86.3202679,4.59931175 L79.9259169,4.59931175 L79.9259169,3.26404488 L86.0968428,3.26404488 L86.0968428,2.37404475 L79.9259169,2.37404475 L79.9259169,1.11290013 L86.2454367,1.11290013 L86.2454367,0.22289998 L77.1753246,0.22289998 L77.1753246,5.48931189 L77.1753246,5.48931189 Z M51.8213451,1.63228907 C51.8213451,2.8187782 53.235126,3.11580043 55.2411443,3.33816714 C57.2487665,3.63518938 58.2151617,3.70877834 58.2151617,4.15404507 C58.2151617,4.52465627 57.6202515,4.74755624 55.9103517,4.74755624 C53.9037989,4.74755624 52.1938991,4.30282277 51.9704735,4.22816729 C51.9704735,4.30228951 51.7470479,5.34053415 51.7470479,5.34053415 C51.9704735,5.41465642 53.6066106,5.78526762 55.9857178,5.78526762 C58.6614784,5.78526762 61.189714,5.34053415 61.189714,3.9306118 C61.189714,2.96648943 60.1490216,2.44710048 57.1744697,2.15061151 C55.9851834,2.00236703 54.7210653,1.92824479 54.7210653,1.48297808 C54.7210653,1.11236688 55.0187881,0.963589142 56.8029847,0.963589142 C58.5128845,0.963589142 59.9993587,1.3347336 60.2227839,1.3347336 L60.4467439,0.371144461 C60.1490216,0.29702222 58.4391218,0 56.1343118,0 C54.275818,0.000533254637 51.8213451,0.22289998 51.8213451,1.63228907 L51.8213451,1.63228907 Z M0,2.89343367 C0,4.59931175 1.85902815,5.78580087 5.72514392,5.78580087 C7.21215262,5.78580087 8.77345833,5.56343416 9.07064628,5.48931189 L9.29353722,4.37694503 C8.99581476,4.45106726 7.65740004,4.59931175 6.31951978,4.59931175 C4.16383822,4.59931175 2.6768295,4.0799228 2.6768295,2.89343367 C2.6768295,1.63228907 4.08954121,1.11290013 6.31951978,1.11290013 C7.58363754,1.11290013 8.99634927,1.26114461 9.29353722,1.33526686 L9.07064628,0.22289998 C8.69916136,0.148244485 7.28644963,0.000533254637 5.79890638,0.000533254637 C1.85902815,0.000533254637 0,1.11290013 0,2.89343367 L0,2.89343367 Z M27.7325522,5.48931189 L30.4831442,5.48931189 L30.4831442,1.18702237 C30.8546291,1.11290013 31.3009455,1.11290013 31.8958559,1.11290013 C32.5645288,1.11290013 33.0851422,1.11290013 33.4571616,1.18702237 C34.2749629,1.26114461 34.5721509,1.55816683 34.5721509,1.92877804 C34.5721509,2.22526701 34.200666,2.59641147 33.3823301,2.67053371 C32.7874197,2.74518918 32.4159348,2.8187782 31.9696184,2.8187782 C31.671896,2.8187782 31.449005,2.8187782 31.07752,2.74465597 L34.2001315,5.48877864 L37.6947623,5.48877864 L34.5721509,3.33763389 C35.1670613,3.26351162 35.3899522,3.26351162 36.0591596,3.04114491 C36.8769609,2.8187782 37.2489804,2.37404475 37.3227429,1.92877804 C37.3227429,1.26114461 36.8769609,0.741755671 35.3156552,0.371144461 C34.4978539,0.22289998 33.3823301,0.148244485 31.9701529,0.148244485 C29.9625308,0.148244485 27.9554431,0.22289998 27.7320177,0.22289998 L27.7320177,5.48931189 L27.7325522,5.48931189 L27.7325522,5.48931189 Z M89.9629582,5.48931189 L92.7135505,5.48931189 L92.7135505,1.18702237 C93.1604012,1.11290013 93.5318862,1.11290013 94.2010936,1.11290013 C94.870301,1.11290013 95.3160828,1.11290013 95.7618646,1.18702237 C96.5802004,1.26114461 96.8779231,1.55816683 96.802557,1.92877804 C96.802557,2.22526701 96.431072,2.59641147 95.6132707,2.67053371 C95.0921227,2.74518918 94.7206377,2.8187782 94.2005591,2.8187782 C93.9028364,2.8187782 93.6794112,2.8187782 93.3822234,2.74465597 L96.5059036,5.48877864 L100,5.48877864 L96.802557,3.33763389 C97.4717644,3.26351162 97.69519,3.26351162 98.2901002,3.04114491 C99.107367,2.8187782 99.5531488,2.37404475 99.5531488,1.92877804 C99.5531488,1.26114461 99.1816642,0.741755671 97.6208928,0.371144461 C96.7282598,0.22289998 95.6875678,0.148244485 94.2010936,0.148244485 C92.2677682,0.148244485 90.1858493,0.22289998 89.9624237,0.22289998 L89.9624237,5.48931189 L89.9629582,5.48931189 L89.9629582,5.48931189 Z" id="Shape" fill="#000000"></path>
        </g>
    </g>
</svg>