<?xml version="1.0" encoding="UTF-8"?>
<svg width="100px" height="90px" viewBox="0 0 100 90" version="1.1" xmlns="http://www.w3.org/2000/svg" xmlns:xlink="http://www.w3.org/1999/xlink">
    <title>citreon</title>
    <g id="Page-1" stroke="none" stroke-width="1" fill="none" fill-rule="evenodd">
        <g id="Artboard" transform="translate(-1249.000000, -1401.000000)" fill="#000000" fill-rule="nonzero">
            <g id="citreon" transform="translate(1249.000000, 1401.000000)">
                <path d="M50,24.1208333 C37.2208333,24.1208333 6.37916667,50.6041667 2.5125,53.9666667 C2.17597918,54.3100808 1.6975362,54.4752208 1.22083333,54.4125 C0.254166667,54.3041667 0.225,52.8291667 0.225,52.8291667 C0.225,52.8291667 0,49.4583333 0,46.075 C0,41.8041667 3.33333333,38.0708333 3.33333333,38.0708333 C3.33333333,38.0708333 37.8958333,0 50,0 C62.1,0 96.6666667,38.075 96.6666667,38.075 C96.6666667,38.075 100,41.8083333 100,46.075 C100,49.4625 99.7708333,52.825 99.7708333,52.825 C99.7708333,52.825 99.7416667,54.3041667 98.7791667,54.4125 C98.3024638,54.4752208 97.8240208,54.3100808 97.4875,53.9666667 C93.6166667,50.6041667 62.7791667,24.125 50,24.125 L50,24.1208333 Z M50,59.15 C37.2208333,59.15 6.37916667,85.6333333 2.5125,89 C2.17597918,89.3434141 1.6975362,89.5085541 1.22083333,89.4458333 C0.254166667,89.3333333 0.225,87.8625 0.225,87.8625 C0.225,87.8625 0,84.4958333 0,81.1125 C0,76.8416667 3.33333333,73.1083333 3.33333333,73.1083333 C3.33333333,73.1083333 37.8958333,35.0333333 50,35.0333333 C62.1,35.0333333 96.6666667,73.1083333 96.6666667,73.1083333 C96.6666667,73.1083333 100,76.8416667 100,81.1083333 C100,84.4958333 99.7708333,87.8583333 99.7708333,87.8583333 C99.7708333,87.8583333 99.7416667,89.3333333 98.7791667,89.4416667 C98.3031427,89.5054561 97.8248058,89.3418957 97.4875,89 C93.6166667,85.6333333 62.7791667,59.15 50,59.15 L50,59.15 Z" id="Shape"></path>
            </g>
        </g>
    </g>
</svg>