<?xml version="1.0" encoding="UTF-8"?>
<svg width="100px" height="25px" viewBox="0 0 100 25" version="1.1" xmlns="http://www.w3.org/2000/svg" xmlns:xlink="http://www.w3.org/1999/xlink">
    <title>clarion-3 (1)</title>
    <g id="Page-1" stroke="none" stroke-width="1" fill="none" fill-rule="evenodd">
        <g id="Artboard" transform="translate(-284.000000, -1316.000000)" fill="#000000" fill-rule="nonzero">
            <g id="clarion-3-(1)" transform="translate(284.000000, 1316.000000)">
                <path d="M12.9464291,24.5535706 C19.2633932,24.278273 24.3117561,19.2020083 24.6651788,12.834821 C21.9196431,12.881324 17.9092266,12.444196 15.4017862,15.4017852 C12.9817714,18.2366065 12.9408488,21.8842999 12.9464291,24.5535706 Z M12.9464291,0 C19.2633932,0.264136896 24.3117561,5.33854149 24.6651788,11.6071425 C21.9196431,11.6610859 17.9092266,12.0963538 15.4017862,9.15178541 C12.9817714,6.30580336 12.9408488,2.65811003 12.9464291,0 Z M11.7187506,4.79910698 C7.88318526,5.14694923 4.86793239,8.35751461 4.91071512,12.2767853 C4.86793239,16.1848953 7.88318526,19.3954607 11.7187506,19.7544636 L11.7187506,24.5535706 C5.19159309,24.2689724 -0.00185912022,18.8746274 4.99248848e-07,12.2767853 C-0.00185912022,5.66592243 5.19159309,0.273437491 11.7187506,0 L11.7187506,4.79910698 Z" id="Shape"></path>
                <path d="M11.7187506,8.92857113 C10.1469501,9.2094491 8.8764888,10.6026782 8.92857213,12.2767853 C8.8764888,13.9694936 10.1041673,15.383184 11.7187506,15.6249995 L11.7187506,18.6383922 C8.43123431,18.3356413 5.91568519,15.5782125 5.91516303,12.2767853 C5.90776007,8.97229107 8.42745457,6.21031826 11.7187506,5.91517838 L11.7187506,8.92857113 L11.7187506,8.92857113 Z" id="Path"></path>
                <path d="M11.7187506,9.93303539 C10.6473221,10.1581098 9.86235186,11.1216514 9.82142925,12.2767853 C9.86235186,13.4226186 10.6529024,14.3898805 11.7187506,14.6205352 L11.7187506,9.93303539 L11.7187506,9.93303539 Z M44.9776781,3.90624987 L47.9910708,3.90624987 L47.9910708,20.2027523 L44.9776781,20.2027523 L44.9776781,3.90624987 Z M70.535713,8.03571402 L73.5491057,8.03571402 L73.5491057,20.2008922 L70.535713,20.2008922 L70.535713,8.03571402 Z M71.9866058,7.14285691 C72.4768541,7.16452111 72.9550269,6.98700356 73.3123742,6.65067674 C73.6697214,6.31434991 73.8758668,5.84780328 73.8839271,5.35714268 C73.8622181,4.31840608 73.0253424,3.48153037 71.9866058,3.45982131 C71.4977964,3.47341685 71.0345598,3.68125819 70.6994176,4.03734686 C70.3642753,4.39343553 70.1848645,4.86840695 70.2008915,5.35714268 C70.1823956,5.83617454 70.3645864,6.30120395 70.7035654,6.64018302 C71.0425445,6.97916209 71.5075739,7.16135289 71.9866058,7.14285691 L71.9866058,7.14285691 Z M39.1741068,8.92857113 C38.5174848,6.95126465 37.2433033,5.6138391 35.8258927,5.58035696 C33.6049106,5.6138391 31.8377976,8.59374972 31.8080357,12.2767853 C31.8396577,15.9505203 33.6049106,18.9304309 35.8258927,18.9750738 C37.3697914,18.932291 38.7369789,17.35305 39.3973211,15.0669638 L43.1919639,15.0669638 C42.6729907,18.7239577 39.3843003,21.1495529 35.8258927,21.0937493 C31.2909226,21.1495529 27.6469495,17.1744786 27.6785715,12.2767853 C27.6450894,7.3679313 31.2890625,3.39471715 35.8258927,3.34821418 C39.2038688,3.39285703 42.3232883,5.42596708 42.9687496,8.92857113 L39.1741068,8.92857113 L39.1741068,8.92857113 Z M94.8660693,7.36607119 C97.7492537,7.38839261 100.001858,8.52120508 99.9999989,11.2723211 L99.9999989,20.2027523 L96.9866049,20.2027523 L96.9866049,11.2723211 C96.9494026,10.2232139 96.1662925,9.13318422 94.642855,9.15178541 C93.2012628,9.1313241 92.1986587,10.1339282 92.187498,11.4955353 L92.187498,20.2027523 L89.1741052,20.2027523 L89.1741052,9.70982111 C89.4512629,9.65587766 89.843748,9.30617529 90.0669623,9.15178541 C90.9207569,8.58816936 92.8515604,7.38839261 94.8660693,7.36607119 Z M68.4151773,9.15178541 C66.9549839,9.1313241 65.9523798,10.1339282 65.9598203,11.4955353 L65.9598203,20.2027523 L62.9464275,20.2027523 L62.9464275,9.70982111 C63.2068442,9.65587766 63.5993293,9.30617529 63.8392846,9.15178541 C64.674478,8.58816936 66.4750732,7.43117535 68.4151773,7.47767832 L68.4151773,9.15178541 Z M81.3616055,7.47762098 C77.9501472,7.46279737 75.148808,10.3478419 75.1116057,13.9508924 C75.1506682,17.4646572 77.9501472,20.3478416 81.3616055,20.3124993 C84.8642095,20.3497017 87.6655487,17.4646572 87.6097451,13.9508924 C87.6655487,10.3459818 84.8642095,7.46279737 81.3616055,7.47762098 Z M60.3794633,20.2008922 L60.3794633,11.0491068 C60.4166657,8.65141341 57.8869039,7.91108605 55.8035706,7.92410688 C51.9140618,7.91108605 50.431547,9.96093717 50.3348208,11.6071425 L53.5714278,11.6071425 C53.9211302,9.69866039 55.184151,9.56659195 55.8035706,9.59821397 C56.404389,9.56659195 57.3642104,9.74144313 57.3660705,11.0491068 C57.3642104,12.2061008 53.9192701,13.0115323 53.1249992,13.2812496 C51.7540916,13.7946424 49.3861601,14.1889876 49.4438238,17.0758923 C49.3880202,20.0316214 52.9631689,20.6845231 54.0197165,20.6473207 C55.2752968,20.6863832 56.8433771,20.5115321 57.9259663,20.2027523 L60.3794633,20.2027523 L60.3794633,20.2008922 Z M81.3616055,9.04017827 C83.0245518,9.00297589 84.3359357,11.1979163 84.3749982,13.9508924 C84.3359357,16.6127227 83.0226917,18.805803 81.3616055,18.8616065 C79.7898049,18.8076631 78.478421,16.6127227 78.4579597,13.9508924 C78.478421,11.1997764 79.791665,9.00483601 81.3616055,9.04017827 Z M57.3660705,16.7410709 C57.3642104,17.7641363 56.6666658,19.2020083 55.2455349,19.1964279 C54.6765984,19.2169456 54.1247553,18.9999325 53.7221949,18.5973721 C53.3196346,18.1948118 53.1026214,17.6429686 53.1231391,17.0740322 C53.0691957,16.1718745 53.309151,15.4947912 54.1276034,14.9534965 C54.8772313,14.3619787 56.2295378,13.7072168 56.9177819,13.3909966 C57.0572908,13.3575144 57.3623503,13.2273061 57.3642104,13.6142109 L57.3642104,16.7410709 L57.3660705,16.7410709 Z" id="Shape"></path>
            </g>
        </g>
    </g>
</svg>