<?xml version="1.0" encoding="UTF-8"?>
<svg width="100px" height="89px" viewBox="0 0 100 89" version="1.1" xmlns="http://www.w3.org/2000/svg" xmlns:xlink="http://www.w3.org/1999/xlink">
    <title>dacia</title>
    <g id="Page-1" stroke="none" stroke-width="1" fill="none" fill-rule="evenodd">
        <g id="Artboard" transform="translate(-1941.000000, -1256.000000)" fill="#000000" fill-rule="nonzero">
            <g id="dacia" transform="translate(1941.000000, 1256.000000)">
                <path d="M4.93898543,1.2919281 L2.93858063,1.5419787 L2.10507863,1.5419787 C0.738172696,1.90586097 -0.151091535,3.22197203 0.0213236204,4.62593611 L0.438074622,6.70969112 C1.68832762,13.9055917 3.21641463,21.0459256 5.02233563,28.1306926 L6.77268984,34.548658 L9.27319584,43.3837792 L12.0654276,52.3439257 C13.1073051,55.5529084 16.2329376,64.8464558 16.9414143,66.3467594 C18.9352766,72.6204719 22.6108605,78.2275392 27.5685648,82.5583733 C32.8196274,86.7258833 38.4457659,88.1011616 49.9897687,88.1011616 C61.5337714,88.1011616 67.201585,86.6842082 72.4526476,82.5583733 C77.4201454,78.236077 81.0976715,72.626047 83.0797981,66.3467594 C83.6632495,64.8464558 86.9139073,55.5529084 87.9557848,52.3856008 L90.7063415,43.5921547 L93.2901977,34.7570335 L94.9572017,28.3390681 C96.749231,21.2543011 98.3328848,14.1278589 99.6248129,6.95974172 L99.9999448,4.75096141 L99.9999448,4.41756061 C100.007911,3.13475958 99.1532073,2.00655054 97.9161338,1.667004 L97.0826318,1.667004 L95.1239021,1.4169534 C88.3308608,0.708476702 67.1599099,0 49.9897687,0 C32.8196274,0 11.6903517,0.708476702 4.93898543,1.2919281 Z M28.5687672,81.0997448 C23.8451176,76.966878 20.3428802,71.6198406 18.4417179,65.6382827 C17.8582665,64.1379791 14.6076087,54.8861068 13.6074063,51.8021494 L10.8985247,43.1337286 L8.31466854,34.3819576 L6.64766454,28.1306926 C4.98066053,21.1292758 3.46646523,14.0722921 2.10507863,6.95974172 L1.68832762,5.00101201 C1.60978403,4.20521785 2.15262603,3.48142852 2.93858063,3.33400801 L3.56370713,3.33400801 L5.48076173,3.12563251 C12.1487778,2.33380561 33.069678,1.7086791 49.9897687,1.7086791 C66.9098593,1.7086791 87.8724346,2.37548071 94.5404507,2.95893211 L96.4575053,3.16730761 L97.1243069,3.16730761 C97.8714437,3.3521008 98.357565,4.0722805 98.2495346,4.83431161 L97.9161338,6.91806662 C96.5269638,14.0861838 94.9988768,21.1570592 93.3318728,28.1306926 L91.6648688,34.3819576 L89.1643628,43.1337286 L86.4138061,51.8021494 C85.4136037,54.8861068 82.2462961,64.3046795 81.6211696,65.5966076 C79.7093592,71.5952098 76.1928445,76.9564536 71.4524452,81.0997448 C67.2849352,84.5587781 62.5339738,86.3091323 49.9897687,86.3091323 C37.4455635,86.3091323 32.8613025,84.4754279 28.5687672,81.0997448 Z" id="Shape"></path>
                <path d="M94.1236997,2.33380561 C91.9038281,10.0855078 89.2604345,17.7096115 86.2054306,25.1717605 C82.9962602,32.4121094 78.633094,39.0835313 73.2861496,44.9257579 L72.5359978,44.9257579 C64.2009778,45.3425089 56.1576835,45.5925595 49.9897687,45.5925595 C43.8218538,45.5925595 35.8202346,45.384184 27.4852146,44.967433 L26.7767379,44.967433 C21.4028004,39.0205036 17.0132914,32.2533438 13.7741067,24.9217099 C10.7035548,17.5505427 8.05976083,10.0087725 5.85583764,2.33380561 L4.73060993,2.58385621 C5.27238623,5.58446341 6.27258864,9.00182162 7.02274044,11.7940533 L7.64786694,13.9611585 C11.0096583,26.1302878 14.8298759,38.1605 19.1085195,50.0517952 C20.7338484,54.2193052 22.234152,58.0117394 23.7344556,61.5124478 C25.0424909,64.990081 26.8690765,68.2498338 29.1522186,71.181071 C31.4537189,74.1068208 34.594713,76.2589834 38.1540402,77.3489858 C41.9985253,78.4492086 45.994217,78.9275661 49.9897687,78.7659392 C53.9856872,78.937025 57.9828882,78.4584869 61.8254971,77.3489858 C65.377899,76.2446471 68.5149492,74.0951868 70.8273187,71.181071 C73.1242657,68.2751423 74.9780893,65.0449952 76.3284319,61.595798 C81.2426655,50.0648288 85.4186031,38.2330055 88.830962,26.1719629 C90.081215,22.0044529 91.2481178,18.0453183 92.3733455,14.0445087 L92.3733455,13.5444075 L92.7484214,12.1691292 C93.5819234,9.21019712 94.4987756,5.87618912 95.082227,2.79223171 L95.082227,2.29213051 L94.1236997,2.33380561 Z M71.8691962,46.3010362 L71.8691962,46.7177872 L71.8691962,47.051188 L71.369095,48.4264663 L70.4939179,50.6352466 L70.2438673,51.218698 L67.9517368,56.8448365 L67.9517368,57.2199124 C67.2432601,58.8869165 66.4514332,60.6372707 65.5762561,62.2625996 C64.7347453,63.847665 63.6039315,65.2611822 62.2422481,66.4301096 C60.8607216,67.5654536 59.2102342,68.326113 57.4496116,68.6388899 C55.5242648,68.9844614 53.5711686,69.1518697 51.6150976,69.1389911 L49.1979417,69.1389911 C47.2408182,69.1813403 45.2847964,69.0136813 43.3634277,68.6388899 C41.5956958,68.3087731 39.9358274,67.5503849 38.5291161,66.4301096 C37.1952165,65.2557507 36.0927115,63.8422827 35.2784583,62.2625996 C34.4305146,60.6638076 33.6654582,59.0224139 32.9863278,57.3449377 L32.7362772,56.8448365 C31.5693744,54.0526048 30.4441467,51.218698 29.3605941,48.5098165 L29.3605941,48.1764157 L28.9855182,47.1762133 L28.9855182,46.8428125 L28.9855182,46.4260615 C37.0704876,46.8428125 44.8220562,47.051188 50.8232707,47.051188 C56.8244851,47.051188 63.7425517,46.7177872 71.8691962,46.3010362 Z" id="Shape"></path>
                <path d="M72.5776729,15.4614621 C72.1009566,15.5461039 71.6632861,15.7795281 71.3274199,16.1282637 C70.8147845,16.9090647 70.36868,17.7315699 69.9938167,18.5870946 L67.9517368,22.7546047 L66.6598087,25.6718617 L69.9938167,25.6718617 L70.8273187,23.7964822 L77.7870604,23.7964822 L78.7039126,25.6718617 L81.9545704,25.6718617 L80.7043174,22.87963 L78.7039126,18.7121199 C78.3031076,17.8560222 77.8579698,17.0213888 77.3703094,16.2116139 C77.0177812,15.9017966 76.5839492,15.6993417 76.1200564,15.6281625 C74.9204147,15.2940583 73.6522893,15.2940583 72.4526476,15.6281625 L72.5776729,15.4614621 Z M73.9112761,17.503542 C74.0632975,17.4046078 74.2593559,17.4046078 74.4113773,17.503542 C74.703103,17.503542 74.7864532,17.503542 74.8281283,17.503542 L77.0785837,22.2128284 L71.6608207,22.2128284 L73.9112761,17.503542 Z" id="Shape"></path>
                <path d="M37.7372892,15.4614621 C37.2673037,15.5649471 36.8348011,15.7956151 36.4870362,16.1282637 C35.9800252,16.905421 35.5474659,17.728679 35.1951081,18.5870946 L33.3197286,22.87963 L32.0694756,25.6718617 L35.4034836,25.6718617 L36.2786607,23.7964822 L43.1967273,23.7964822 L44.1135795,25.6718617 L47.3642373,25.6718617 L45.8222586,22.87963 L43.8218538,18.7121199 C43.4420002,17.853342 43.0105703,17.0183165 42.5299257,16.2116139 C42.1934848,15.8779715 41.7514921,15.6717083 41.2796727,15.6281625 C40.080031,15.2940583 38.8119056,15.2940583 37.6122639,15.6281625 L37.7372892,15.4614621 Z M39.1125675,17.503542 C39.2578479,17.4357072 39.4257132,17.4357072 39.5709936,17.503542 C39.8627193,17.503542 39.9877446,17.503542 39.9877446,17.503542 L42.2798751,22.2128284 L36.8621121,22.2128284 L39.1125675,17.503542 Z" id="Shape"></path>
                <polygon id="Path" points="61.7421469 25.6718617 64.7844292 25.6718617 64.7844292 15.2530866 61.7421469 15.2530866"></polygon>
                <path d="M53.1154012,15.2947617 C51.5505558,15.2217792 50.0307223,15.8297126 48.9478911,16.9617657 C48.0587787,17.9569711 47.5819433,19.2533674 47.6142879,20.5874995 C47.5702617,21.8862123 48.0509299,23.1479664 48.9478911,24.0882079 C50.0541737,25.1761293 51.5658069,25.7505499 53.1154012,25.6718617 L59.4500164,25.6718617 L59.4500164,23.713132 L53.6571775,23.713132 C52.8307592,23.7000663 52.0587366,23.2986145 51.5734225,22.6295794 C51.1254201,21.9633315 50.879401,21.1818589 50.8649458,20.379124 C50.8494072,19.5974471 51.099139,18.8335615 51.5734225,18.2120187 C52.0582457,17.5525853 52.8394141,17.1776245 53.6571775,17.2118163 L59.4500164,17.2118163 L59.4500164,15.2947617 L53.1154012,15.2947617 Z" id="Path"></path>
                <path d="M18.2750175,15.2947617 L18.2750175,25.7135368 L25.8598857,25.7135368 C27.4148383,25.7761017 28.9253701,25.1869943 30.0273957,24.0882079 C30.9203328,23.1454322 31.4003349,21.8854268 31.3609989,20.5874995 C31.4185486,19.2415646 30.9214194,17.9309512 29.9857206,16.9617657 C28.9194536,15.8054299 27.3878079,15.1927716 25.8182106,15.2947617 L18.2750175,15.2947617 Z M21.3172998,17.2118163 L25.4848098,17.2118163 C26.3025732,17.1776245 27.0837416,17.5525853 27.5685648,18.2120187 C28.0655473,18.821396 28.3180818,19.5938546 28.2770415,20.379124 C28.2983823,21.1872827 28.0490147,21.9793917 27.5685648,22.6295794 C27.0924501,23.3091992 26.3146098,23.7136762 25.4848098,23.7131325 L21.3172998,23.7131325 L21.3172998,17.2118163 Z" id="Shape"></path>
            </g>
        </g>
    </g>
</svg>