<?xml version="1.0" encoding="UTF-8"?>
<svg width="101px" height="17px" viewBox="0 0 101 17" version="1.1" xmlns="http://www.w3.org/2000/svg" xmlns:xlink="http://www.w3.org/1999/xlink">
    <title>dodge-3</title>
    <g id="Page-1" stroke="none" stroke-width="1" fill="none" fill-rule="evenodd">
        <g id="Artboard" transform="translate(-908.000000, -1378.000000)" fill-rule="nonzero">
            <g id="dodge-3" transform="translate(908.780535, 1378.878873)">
                <path d="M98.3921844,9.29625289 L87.5795177,9.29625289 L87.9082433,7.98188503 L98.6840286,7.98188503 L99.1955577,6.15545356 L85.7541552,6.15545356 L84.8770191,9.3694812 C84.6942156,10.173389 84.8406722,11.1232189 85.7905021,11.1232189 L97.8806553,11.1232189 L98.3921844,9.29625289 L98.3921844,9.29625289 Z M86.0818118,4.80366978 C86.3009622,3.96341509 86.556994,2.97723831 88.1279282,2.97723831 L100,2.97723831 L99.5248178,4.80366978 L86.0818118,4.80366978 Z M53.5716523,2.97723831 L53.0964701,4.80366978 L63.2885671,4.80366978 C64.9316605,4.84001667 64.7670305,6.11483056 64.6761633,6.59375435 C64.5302412,7.36078074 63.5435299,9.00494322 62.1559337,9.29625289 L54.5947105,9.29625289 L55.32539,6.41095085 L52.6581693,6.41095085 L51.4533767,11.1232189 L63.142645,11.1232189 C65.8820249,11.1232189 67.5251184,7.72638774 67.5983467,6.44729775 C67.671575,5.16820775 67.6346936,2.97723831 63.7626803,2.97723831 L53.5716523,2.97723831 L53.5716523,2.97723831 Z M48.3842021,2.97723831 C51.1241166,2.97723831 52.0375996,4.84001667 51.7815678,6.63010125 C51.1604635,10.2460828 48.0185951,11.1232189 46.8496148,11.1232189 L39.2156979,11.1232189 C36.4763179,11.1232189 35.5628349,9.26097502 35.8183322,7.47035594 C36.4394365,3.85383989 40.3483313,2.97723831 41.5173115,2.97723831 L42.8322139,4.58451938 C41.2612797,4.58451938 38.631475,5.35208028 38.4117901,7.28755243 C38.1926397,9.22409362 39.3247386,9.51647231 40.8229789,9.51647231 L45.5347125,9.51647231 C47.1051121,9.51647231 48.968425,8.74891142 49.1875754,6.81290475 C49.4067258,4.87689808 48.2746269,4.58451938 46.776921,4.58451938 L42.8322139,4.58451938 L41.5173115,2.97723831 L48.3842021,2.97723831 L48.3842021,2.97723831 Z M84.7305625,4.80366978 L74.393078,4.80366978 C72.8221438,4.80366978 70.9219495,5.82619345 70.8134434,7.28755243 C70.6675213,9.23050777 71.7258573,9.29625289 73.2240977,9.29625289 L78.2287444,9.29625289 C79.4062769,9.29625289 80.1118343,8.98837331 80.4838555,7.980816 L74.7212691,7.980816 L75.1964513,6.15491905 L84.3323502,6.15491905 C84.3280741,6.31313494 84.242552,6.47188535 84.219568,6.63010125 C83.5984637,10.2460828 80.4207829,11.1232189 79.2512681,11.1232189 L71.6162821,11.1232189 C68.8769022,11.1232189 67.9634192,9.26097502 68.219451,7.47035594 C68.8405553,3.85383989 72.74945,2.97723831 73.9184303,2.97723831 L82.8672497,2.97723831 C83.9635362,2.97723831 84.7674439,3.45188599 84.7305625,4.80366978 C84.7305625,4.80366978 84.7674439,3.45188599 84.7305625,4.80366978 Z M20.9877301,2.97723831 L20.5130824,4.80366978 L30.7046448,4.80366978 C32.3482728,4.84001667 32.1841772,6.11483056 32.0927755,6.59375435 C31.9468534,7.36078074 30.9606766,9.00494322 29.5725459,9.29625289 L22.0107882,9.29625289 L22.7409332,6.41095085 L20.0747816,6.41095085 L18.8689199,11.1232189 L30.5581882,11.1232189 C33.2975682,11.1232189 34.9417306,7.72638774 35.0149589,6.44729775 C35.0881872,5.16820775 35.0513058,2.97723831 31.1792925,2.97723831 L20.9877301,2.97723831 Z M7.61848688,0 C10.4310951,0 12.5680788,0.182803501 13.737059,0.292378699 C14.3945102,0.365072489 15.2529384,0.767026386 15.2347649,1.89965977 C15.2534729,2.70303305 15.1802446,7.89048328 15.0343225,9.49776435 C14.9979756,10.6303977 14.851519,11.634748 13.7375935,12.4023089 C12.335031,13.3681742 10.7421818,14.5029456 7.6190214,15.8360214 C4.495861,14.5029456 2.90301178,13.3681742 1.50044924,12.4023089 C0.386523817,11.634748 0.240067211,10.6309323 0.203720316,9.49776435 C0.0572637101,7.89048328 -0.0154300798,2.70356757 0.00274336766,1.89965977 C-0.015964593,0.767026386 0.842463543,0.365607002 1.49991473,0.292378699 C2.66889501,0.182803501 4.80587863,0 7.61848688,0 C7.61848688,0 4.80587863,0 7.61848688,0 Z" id="Shape" fill="#000000"></path>
                <path d="M7.61848688,0.584757398 C10.1574244,0.621104293 12.476677,0.730679491 13.4633883,0.877136097 C13.938036,0.913482992 14.5591403,0.986711295 14.5954872,1.93654118 C14.6687155,3.47112847 14.485912,8.51158757 14.3950447,9.8446634 C14.2854695,10.9960047 14.0983899,11.3145746 13.4997352,11.8175515 C12.6963619,12.4931761 9.37222456,14.5205845 7.6190214,15.1780357 C5.86581823,14.5205845 2.54114637,12.4931761 1.73777309,11.8175515 C1.13965286,11.3145746 0.952573254,10.9960047 0.842998056,9.8446634 C0.751596306,8.51158757 0.568792805,3.47112847 0.642021108,1.93654118 C0.678368003,0.986711295 1.2994723,0.913482992 1.7746545,0.877136097 C2.76029676,0.730679491 5.07954937,0.621104293 7.61848688,0.584757398 C7.61848688,0.584757398 5.07954937,0.621104293 7.61848688,0.584757398 Z" id="Path" fill="#FFFFFF"></path>
                <path d="M1.81046688,6.5386995 C1.62819789,6.48364464 1.44539439,6.5023526 1.37216609,6.86742509 C1.29893778,7.23249758 1.31711123,7.45164797 1.40851298,7.67079837 C1.31711123,7.81618595 1.38980502,8.43782476 1.53626163,8.54739995 C1.48174128,8.73020346 1.62766338,9.27807944 1.81046688,9.36894668 C1.77411998,9.58809708 2.10231106,10.0456403 2.30382252,10.1365076 C2.15736592,10.2097359 2.65873926,10.5299093 2.88804541,10.6116898 C3.19859756,10.721265 3.74647355,10.721265 3.96562394,10.6849181 C4.14842744,10.6849181 4.20294779,10.3925394 4.03885224,10.2653253 C3.8747567,10.1370421 2.13972698,8.73073797 2.08467213,6.94118791 C2.10231106,6.77655785 1.99273587,6.5755809 1.81046688,6.5386995 C1.81046688,6.5386995 1.99273587,6.5755809 1.81046688,6.5386995 Z M7.30793474,3.81749299 C7.16201264,3.6715709 7.034264,3.5251143 6.77823219,3.5251143 C6.668657,3.32413735 6.3399314,3.0868135 6.13895445,3.06864006 C6.02937926,2.88637107 5.62742536,2.63033926 5.39010152,2.64851271 C5.29869976,2.48388266 4.44027163,2.44753576 4.25746813,2.55711096 C4.09283807,2.46570921 3.39903999,2.61216582 3.32581169,2.83131621 C3.08848784,2.88637107 2.61330564,3.269617 2.3759818,3.83566644 C2.28458005,3.99976198 2.46738355,4.05481684 2.5587853,3.94524164 C2.65018705,3.83566644 3.32581169,3.5251143 3.70905762,3.65339745 C4.09283807,3.7811461 5.07901486,4.25579379 6.24799514,5.88124831 C6.44897209,6.17362701 7.12459672,6.37460396 7.25234537,5.75349966 C7.41109578,4.98486974 7.56343203,4.10987169 7.30793474,3.81749299 C7.30793474,3.81749299 7.56343203,4.10987169 7.30793474,3.81749299 Z M13.4265069,6.5386995 C13.6093104,6.48364464 13.7921139,6.5023526 13.8648077,6.86742509 C13.938036,7.23249758 13.9198625,7.45164797 13.8284608,7.67079837 C13.9198625,7.81618595 13.8466342,8.43782476 13.7007121,8.54739995 C13.755767,8.73020346 13.6093104,9.27807944 13.4265069,9.36894668 C13.4633883,9.58809708 13.1341282,10.0456403 12.9336858,10.1365076 C13.0796078,10.2097359 12.578769,10.5299093 12.3494629,10.6116898 C12.0389107,10.721265 11.4910347,10.721265 11.2718843,10.6849181 C11.0890808,10.6849181 11.034026,10.3925394 11.198656,10.2653253 C11.3632861,10.1370421 13.0983158,8.73073797 13.1528361,6.94118791 C13.1341282,6.77655785 13.2437034,6.5755809 13.4265069,6.5386995 C13.4265069,6.5386995 13.2437034,6.5755809 13.4265069,6.5386995 L13.4265069,6.5386995 Z" id="Shape" fill="#000000"></path>
                <path d="M7.61848688,12.1275691 C7.80129038,12.2007974 7.96538592,12.1462771 8.09313457,12.0543408 C7.87398417,12.0543408 7.72806208,11.9084187 7.72806208,11.6710949 C7.72806208,11.4332365 7.80129038,11.2867799 8.03861423,11.3247303 C8.27593807,11.3600082 8.42239468,11.2873144 8.34916637,10.9040685 C8.27593807,10.5208225 8.23959118,10.338019 8.27593807,10.1557501 L8.62283711,9.00547773 C8.89650785,8.96913084 9.20706,8.87719457 9.1707131,8.51158757 C9.00608305,8.47524068 8.73241231,8.62116277 8.67735745,8.76761938 C8.6223026,8.85955564 8.45820706,8.76761938 8.5127274,8.65804418 L8.60412915,8.40201237 C8.64047605,8.29243718 8.76822469,8.23791683 8.84145299,8.20156994 C8.9146813,8.16522304 9.0242565,8.09199474 9.33480864,8.05564785 C9.42621039,7.78090808 9.55395904,7.12399141 9.29846175,6.92301446 C9.20706,6.86849412 9.27975379,6.81343926 9.37169005,6.81343926 C9.4630918,6.81343926 9.59084045,6.7583844 9.6822422,6.59428886 C9.77310943,6.42965881 10.5224969,4.78603084 11.1436012,4.23815485 C11.764171,3.69027886 12.8604575,4.03771242 13.1341282,4.5123601 C13.4083334,4.9875423 13.5542555,5.69951383 13.4997352,6.21104293 C13.4997352,6.35696502 13.4265069,6.39384643 13.3356397,6.41201988 C13.2421886,6.43592825 13.154906,6.47947844 13.0796078,6.53976852 C12.9882061,6.61299683 12.9882061,6.70439858 12.9882061,6.77709237 C12.9882061,6.84978616 12.7690557,8.43889378 11.6182489,9.33366881 C11.3990985,9.48065993 11.1799481,9.35237677 11.1799481,9.16957327 C11.1799481,8.98676977 11.1799481,8.64040524 11.3627516,8.54846898 C11.2526419,8.45760174 11.3076967,7.89155231 11.4359799,7.78090808 C11.3445781,7.65315944 11.399633,7.03258966 11.581902,6.94118791 C11.4905002,6.88613305 11.4290312,6.6119278 11.4359799,6.53923401 C11.4723268,6.13728011 11.0527339,5.89995627 10.8881039,6.30191017 C11.0158525,6.35696502 11.1804826,6.50288711 11.0890808,7.21485864 L10.1029041,7.81725498 C10.1579589,8.00005848 10.0478492,8.58481588 9.938274,8.93224943 C9.8286988,9.27861396 9.7191236,9.82702446 9.44491835,10.1370421 C9.17124761,10.4481288 8.98844411,10.7944933 8.82434857,11.6529214 C8.78800168,11.9640081 8.53196987,12.0185284 8.36787433,12.0548753 C8.62390614,12.1468116 8.49562298,12.347254 8.33152744,12.4391903 C8.16689739,12.5300575 7.93010806,12.6759796 7.6190214,12.6759796 C7.30793474,12.6759796 7.07114541,12.5300575 6.90651535,12.4391903 C6.74241981,12.347254 6.61467117,12.1468116 6.87016846,12.0548753 C6.7055384,12.0185284 6.45004111,11.9640081 6.41369422,11.6529214 C6.24906416,10.7950278 6.06679518,10.4481288 5.79258993,10.1370421 C5.51838467,9.82702446 5.40880948,9.27914847 5.29923428,8.93224943 C5.18965908,8.58481588 5.08008388,8.00005848 5.13513874,7.81725498 L4.14842744,7.21485864 C4.05756021,6.5023526 4.22165575,6.35643051 4.34940439,6.30191017 C4.18477434,5.89995627 3.76518151,6.13728011 3.8015284,6.53923401 C3.80794256,6.6119278 3.74647355,6.88613305 3.65560631,6.94118791 C3.8378753,7.03258966 3.89293015,7.65315944 3.8015284,7.78090808 C3.92927705,7.89101779 3.98379739,8.45760174 3.8747567,8.54846898 C4.05756021,8.64040524 4.05756021,8.98676977 4.05756021,9.16957327 C4.05756021,9.35237677 3.8378753,9.48065993 3.61925941,9.33366881 C2.46845258,8.43889378 2.24930218,6.85032067 2.24930218,6.77709237 C2.24930218,6.70386406 2.24930218,6.61246231 2.15790043,6.53976852 C2.08285702,6.47908117 1.99548389,6.43548581 1.90186863,6.41201988 C1.81100139,6.39384643 1.73777309,6.35696502 1.73777309,6.21104293 C1.68271823,5.69951383 1.82917484,4.9875423 2.10284558,4.5123601 C2.37705083,4.03771242 3.47280281,3.69027886 4.0939071,4.23815485 C4.71501139,4.78603084 5.46386433,6.43019332 5.55526608,6.59428886 C5.64666783,6.7583844 5.77441648,6.81343926 5.86581823,6.81343926 C5.95668547,6.81343926 6.02991377,6.86849412 5.93851202,6.92301446 C5.68301473,7.12399141 5.81076337,7.78090808 5.90216512,8.05564785 C6.21271727,8.09199474 6.32229247,8.16522304 6.39498626,8.20156994 C6.46768005,8.23791683 6.59596321,8.29243718 6.6323101,8.40201237 L6.72371185,8.65804418 C6.77876671,8.76761938 6.61413665,8.85955564 6.5590818,8.76761938 C6.50402694,8.62169728 6.2303562,8.47524068 6.06572615,8.51158757 C6.02937926,8.87719457 6.3399314,8.96859632 6.61360214,9.00547773 L6.96050118,10.1557501 C6.99738259,10.3385536 6.96050118,10.5213571 6.88780739,10.9040685 C6.81457909,11.2873144 6.96050118,11.3605427 7.19835954,11.3247303 C7.43568338,11.2873144 7.50891168,11.4332365 7.50891168,11.6710949 C7.50891168,11.9078842 7.36298959,12.0543408 7.14330468,12.0543408 C7.27105333,12.1462771 7.43568338,12.2007974 7.61848688,12.1275691 C7.61848688,12.1275691 7.43568338,12.2007974 7.61848688,12.1275691 L7.61848688,12.1275691 Z" id="Path" fill="#000000"></path>
                <path d="M7.92903903,3.81749299 C8.07496112,3.6715709 8.20270977,3.5251143 8.45874157,3.5251143 C8.56831677,3.32413735 8.89704236,3.0868135 9.09801931,3.06864006 C9.20759451,2.88637107 9.60954841,2.63033926 9.84687225,2.64851271 C9.938274,2.48388266 10.7967021,2.44753576 10.9795056,2.55711096 C11.1441357,2.46570921 11.8373993,2.61216582 11.9106276,2.83131621 C12.1479514,2.88637107 12.6231336,3.269617 12.8604575,3.83566644 C12.9513247,3.99976198 12.7690557,4.05481684 12.6776539,3.94524164 C12.5862522,3.83566644 11.9100931,3.5251143 11.5268471,3.65339745 C11.1436012,3.78168061 10.1568899,4.25579379 8.9879096,5.88124831 C8.78693265,6.17362701 8.1107735,6.37460396 7.98302486,5.75349966 C7.82534348,4.98486974 7.67300722,4.10987169 7.92903903,3.81749299 C7.92903903,3.81749299 7.67300722,4.10987169 7.92903903,3.81749299 L7.92903903,3.81749299 Z" id="Path" fill="#000000"></path>
            </g>
        </g>
    </g>
</svg>