<?xml version="1.0" encoding="UTF-8"?>
<svg width="250px" height="30px" viewBox="0 0 250 30" version="1.1" xmlns="http://www.w3.org/2000/svg" xmlns:xlink="http://www.w3.org/1999/xlink">
    <title>evans-halshaw</title>
    <g id="Page-1" stroke="none" stroke-width="1" fill="none" fill-rule="evenodd">
        <g id="Group-21" transform="translate(-700.000000, -13.000000)" fill="#FFFFFF">
            <g id="evans-halshaw" transform="translate(700.000000, 13.000000)">
                <path d="M0,0 L16.5014081,0 L16.5014081,3.91633419 L4.40037549,3.91633419 L4.40037549,12.6290777 L16.0613706,12.6290777 L16.0613706,16.5454118 L4.40037549,16.5454118 L4.40037549,25.4341703 L16.8974419,25.4341703 L16.8974419,29.3505045 L0,29.3505045 L0,0 Z M36.704021,9.9888524 L28.2993038,29.3505045 L26.8911836,29.3505045 L18.3984589,9.9888524 L22.4908081,9.9888524 L27.6392475,21.8258624 L32.6116718,9.9888524 L36.704021,9.9888524 Z M54.9264649,25.6981929 L54.9264649,28.1624031 C53.3423218,29.1891625 52.0808934,29.7025346 51.1421419,29.7025346 C49.6460068,29.7025346 48.7072694,29.0278171 48.3259016,27.6783618 C46.7710945,29.0278171 45.1136363,29.7025346 43.3534773,29.7025346 C42.0040221,29.7025346 40.8819376,29.2331659 39.9871901,28.2944144 C39.0924426,27.3556629 38.6450755,26.1822412 38.6450755,24.774114 C38.6450755,21.9871956 40.7278991,19.9483753 44.8936087,18.6575921 L48.3259016,17.601502 L48.3259016,16.8534381 C48.3259016,15.7093348 48.1498884,14.9466107 47.7978566,14.5652429 C47.2404729,13.8318433 46.3164033,13.465149 45.02562,13.465149 C43.206789,13.465149 41.2413076,14.4772252 39.1291168,16.5014081 L39.1291168,12.1450364 C40.9186118,10.4728853 42.9867676,9.6368223 45.3336463,9.6368223 C48.1499007,9.6368223 50.1447176,10.5168886 51.318157,12.2770476 C51.8168687,13.0104472 52.1248919,14.1398656 52.2422358,15.6653367 C52.2715718,16.0467045 52.2862396,17.0294452 52.2862396,18.6135883 L52.2862396,25.0381365 C52.2862396,26.03556 52.4915884,26.5342642 52.9022921,26.5342642 C53.2543239,26.5342642 53.9290414,26.2555765 54.9264649,25.6981929 Z M48.3259016,19.8016897 L46.2137214,20.5057498 C43.7788348,21.3271573 42.5614097,22.5299146 42.5614097,24.1140577 C42.5614097,24.8474573 42.803428,25.441502 43.2874717,25.8962098 C43.7715154,26.3509175 44.3948957,26.578268 45.1576313,26.578268 C46.1843907,26.578268 47.2404702,26.1088993 48.3259016,25.1701478 L48.3259016,19.8016897 Z M58.011617,9.9888524 L61.971955,9.9888524 L61.971955,12.1890401 C63.9374659,10.4875531 65.8149406,9.6368223 67.6044356,9.6368223 C68.9538908,9.6368223 70.1493142,9.9888488 71.1907416,10.6929124 C72.232169,11.396976 72.9875593,12.3503812 73.456935,13.5531565 C73.8676388,14.6385879 74.0729876,16.237375 74.0729876,18.3495658 L74.0729876,29.3505045 L70.1126496,29.3505045 L70.1126496,18.5695846 C70.1126496,16.5454017 69.8486298,15.1519634 69.3205821,14.3892279 C68.6458544,13.3918044 67.6924493,12.8931002 66.460338,12.8931002 C65.0815468,12.8931002 63.5854341,13.7584987 61.971955,15.4893217 L61.971955,29.3505045 L58.011617,29.3505045 L58.011617,9.9888524 Z M90.9313151,11.2209575 L90.9313151,15.2693029 C88.8191243,13.8611758 86.9416495,13.1571227 85.2988344,13.1571227 C84.6534428,13.1571227 84.1180691,13.3038004 83.6926974,13.5971603 C83.2673256,13.8905201 83.0546429,14.2572144 83.0546429,14.6972541 C83.0546429,15.1372939 83.245324,15.5333237 83.6266917,15.8853555 C84.0080595,16.2373873 84.8441225,16.7654271 86.1349058,17.4694907 C87.7190489,18.3495702 88.8337995,19.0829588 89.4791911,19.6696784 C91.0339983,21.0778056 91.8113902,22.6179217 91.8113902,24.2900727 C91.8113902,25.8155438 91.1660082,27.0989738 89.8752249,28.1404013 C88.5844417,29.1818287 87.0149901,29.7025346 85.1668232,29.7025346 C83.3773282,29.7025346 81.2505013,29.0864881 78.7862787,27.8543768 L78.7862787,23.4540014 C81.1038214,25.1848244 83.1719772,26.0502229 84.9908081,26.0502229 C85.6948717,26.0502229 86.3109182,25.8595419 86.8389659,25.4781741 C87.3670136,25.0968063 87.6310334,24.6567732 87.6310334,24.1580614 C87.6310334,23.5420058 87.2350036,22.9406272 86.4429321,22.3539075 C86.1202362,22.1192196 84.917479,21.4004988 82.8346242,20.1977235 C80.1650497,18.6722524 78.8302825,16.7801098 78.8302825,14.5212391 C78.8302825,13.0837759 79.4096594,11.9103542 80.5684308,11.0009387 C81.7272021,10.0915232 83.2159809,9.6368223 85.0348119,9.6368223 C87.0589947,9.6368223 89.0244761,10.1648621 90.9313151,11.2209575 Z M111.710866,12.6290777 L127.728233,12.6290777 L127.728233,0 L132.128609,0 L132.128609,29.3505045 L127.728233,29.3505045 L127.728233,16.5454118 L111.710866,16.5454118 L111.710866,29.3505045 L107.310491,29.3505045 L107.310491,0 L111.710866,0 L111.710866,12.6290777 Z M153.519323,25.6981929 L153.519323,28.1624031 C151.93518,29.1891625 150.673751,29.7025346 149.735,29.7025346 C148.238865,29.7025346 147.300127,29.0278171 146.91876,27.6783618 C145.363952,29.0278171 143.706494,29.7025346 141.946335,29.7025346 C140.59688,29.7025346 139.474795,29.2331659 138.580048,28.2944144 C137.6853,27.3556629 137.237933,26.1822412 137.237933,24.774114 C137.237933,21.9871956 139.320757,19.9483753 143.486467,18.6575921 L146.91876,17.601502 L146.91876,16.8534381 C146.91876,15.7093348 146.742746,14.9466107 146.390714,14.5652429 C145.833331,13.8318433 144.909261,13.465149 143.618478,13.465149 C141.799647,13.465149 139.834166,14.4772252 137.721975,16.5014081 L137.721975,12.1450364 C139.51147,10.4728853 141.579626,9.6368223 143.926504,9.6368223 C146.742759,9.6368223 148.737576,10.5168886 149.911015,12.2770476 C150.409727,13.0104472 150.71775,14.1398656 150.835094,15.6653367 C150.86443,16.0467045 150.879097,17.0294452 150.879097,18.6135883 L150.879097,25.0381365 C150.879097,26.03556 151.084446,26.5342642 151.49515,26.5342642 C151.847182,26.5342642 152.521899,26.2555765 153.519323,25.6981929 Z M146.91876,19.8016897 L144.806579,20.5057498 C142.371693,21.3271573 141.154268,22.5299146 141.154268,24.1140577 C141.154268,24.8474573 141.396286,25.441502 141.88033,25.8962098 C142.364373,26.3509175 142.987754,26.578268 143.750489,26.578268 C144.777249,26.578268 145.833328,26.1088993 146.91876,25.1701478 L146.91876,19.8016897 Z M156.604475,0 L160.564813,0 L160.564813,29.3505045 L156.604475,29.3505045 L156.604475,0 Z M177.42314,11.2209575 L177.42314,15.2693029 C175.31095,13.8611758 173.433475,13.1571227 171.79066,13.1571227 C171.145268,13.1571227 170.609894,13.3038004 170.184523,13.5971603 C169.759151,13.8905201 169.546468,14.2572144 169.546468,14.6972541 C169.546468,15.1372939 169.737149,15.5333237 170.118517,15.8853555 C170.499885,16.2373873 171.335948,16.7654271 172.626731,17.4694907 C174.210874,18.3495702 175.325625,19.0829588 175.971016,19.6696784 C177.525824,21.0778056 178.303215,22.6179217 178.303215,24.2900727 C178.303215,25.8155438 177.657834,27.0989738 176.36705,28.1404013 C175.076267,29.1818287 173.506815,29.7025346 171.658648,29.7025346 C169.869154,29.7025346 167.742327,29.0864881 165.278104,27.8543768 L165.278104,23.4540014 C167.595647,25.1848244 169.663803,26.0502229 171.482633,26.0502229 C172.186697,26.0502229 172.802743,25.8595419 173.330791,25.4781741 C173.858839,25.0968063 174.122859,24.6567732 174.122859,24.1580614 C174.122859,23.5420058 173.726829,22.9406272 172.934757,22.3539075 C172.612062,22.1192196 171.409304,21.4004988 169.326449,20.1977235 C166.656875,18.6722524 165.322108,16.7801098 165.322108,14.5212391 C165.322108,13.0837759 165.901485,11.9103542 167.060256,11.0009387 C168.219027,10.0915232 169.707806,9.6368223 171.526637,9.6368223 C173.55082,9.6368223 175.516301,10.1648621 177.42314,11.2209575 Z M182.35645,0 L186.316788,0 L186.316788,12.1890401 C188.282299,10.4875531 190.159774,9.6368223 191.949269,9.6368223 C193.298724,9.6368223 194.494147,9.9888488 195.535575,10.6929124 C196.577002,11.396976 197.332393,12.3503812 197.801768,13.5531565 C198.212472,14.6385879 198.417821,16.237375 198.417821,18.3495658 L198.417821,29.3505045 L194.457483,29.3505045 L194.457483,18.5695846 C194.457483,16.5454017 194.193463,15.1519634 193.665415,14.3892279 C192.990688,13.3918044 192.037283,12.8931002 190.805171,12.8931002 C189.42638,12.8931002 187.930267,13.7584987 186.316788,15.4893217 L186.316788,29.3505045 L182.35645,29.3505045 L182.35645,0 Z M219.104475,25.6981929 L219.104475,28.1624031 C217.520332,29.1891625 216.258904,29.7025346 215.320152,29.7025346 C213.824017,29.7025346 212.88528,29.0278171 212.503912,27.6783618 C210.949105,29.0278171 209.291646,29.7025346 207.531487,29.7025346 C206.182032,29.7025346 205.059948,29.2331659 204.1652,28.2944144 C203.270453,27.3556629 202.823086,26.1822412 202.823086,24.774114 C202.823086,21.9871956 204.905909,19.9483753 209.071619,18.6575921 L212.503912,17.601502 L212.503912,16.8534381 C212.503912,15.7093348 212.327898,14.9466107 211.975867,14.5652429 C211.418483,13.8318433 210.494413,13.465149 209.20363,13.465149 C207.384799,13.465149 205.419318,14.4772252 203.307127,16.5014081 L203.307127,12.1450364 C205.096622,10.4728853 207.164778,9.6368223 209.511656,9.6368223 C212.327911,9.6368223 214.322728,10.5168886 215.496167,12.2770476 C215.994879,13.0104472 216.302902,14.1398656 216.420246,15.6653367 C216.449582,16.0467045 216.46425,17.0294452 216.46425,18.6135883 L216.46425,25.0381365 C216.46425,26.03556 216.669598,26.5342642 217.080302,26.5342642 C217.432334,26.5342642 218.107052,26.2555765 219.104475,25.6981929 Z M212.503912,19.8016897 L210.391731,20.5057498 C207.956845,21.3271573 206.73942,22.5299146 206.73942,24.1140577 C206.73942,24.8474573 206.981438,25.441502 207.465482,25.8962098 C207.949526,26.3509175 208.572906,26.578268 209.335641,26.578268 C210.362401,26.578268 211.41848,26.1088993 212.503912,25.1701478 L212.503912,19.8016897 Z M250,9.9888524 L241.771298,29.3505045 L240.495189,29.3505045 L234.818705,16.1933818 L229.450247,29.3505045 L228.218142,29.3505045 L219.549402,9.9888524 L223.641751,9.9888524 L228.658179,21.4738324 L233.322577,9.9888524 L236.270829,9.9888524 L241.111242,21.3858249 L245.863647,9.9888524 L250,9.9888524 Z" id="Shape"></path>
            </g>
        </g>
    </g>
</svg>