<?xml version="1.0" encoding="UTF-8"?>
<svg width="100px" height="100px" viewBox="0 0 100 100" version="1.1" xmlns="http://www.w3.org/2000/svg" xmlns:xlink="http://www.w3.org/1999/xlink">
    <title>fiat</title>
    <g id="Page-1" stroke="none" stroke-width="1" fill="none" fill-rule="evenodd">
        <g id="fiat" fill="#000000" fill-rule="nonzero">
            <path d="M91.3375,42.5291667 C91.3375,36.2166667 90.35,30.8208333 88.3041667,26.0458333 C86.7685717,22.4628051 84.173176,19.4355705 80.8666667,17.3708333 C72.6649606,12.195916 63.2983554,9.15631731 53.6208333,8.52916667 C52.4958333,8.4625 51.35,8.42083333 50.2125,8.42083333 L50.1291667,8.42083333 C48.9916667,8.42083333 47.8458333,8.4625 46.7208333,8.52916667 C37.0422481,9.15755677 27.6745923,12.1970316 19.4708333,17.3708333 C16.1630265,19.4377638 13.5674959,22.4680639 12.0333333,26.0541667 C10,30.8291667 9,36.2166667 9,42.5291667 C9,45.9333333 9.28333333,49.5666667 9.8625,53.6333333 C11,61.6583333 13.9791667,70.0416667 16.8208333,75.8125 C17.425,77.0458333 17.9041667,77.8791667 18.8666667,78.7291667 C20.2083333,79.9208333 21.3958333,80.2166667 21.8333333,79.9583333 C22.1791667,79.7583333 22.375,78.7083333 22.3083333,77.1666667 C22.2458333,75.825 21.9833333,74.95 21.5833333,73.6666667 C19.284209,66.1691685 17.5707256,58.5044648 16.4583333,50.7416667 C14.8541667,39.6416667 14.9166667,29.6541667 17.3,23.5666667 C17.6166667,22.7666667 17.9583333,22.175 18.225,21.7916667 C18.4791667,21.4166667 18.6666667,21.225 18.6666667,21.225 C23.5958333,16.2958333 36.9083333,13.8208333 50.225,13.8208333 C63.5416667,13.8208333 76.8583333,16.2958333 81.7875,21.225 C81.7875,21.225 81.9708333,21.4166667 82.2291667,21.7916667 C82.4875,22.175 82.8333333,22.7666667 83.15,23.5666667 C85.5375,29.65 85.6,39.6416667 83.9916667,50.7416667 C82.8989318,58.3803804 81.2246223,65.924524 78.9833333,73.3083333 C78.5,74.8708333 78.1916667,75.8375 78.1291667,77.1583333 C78.0583333,78.7 78.2541667,79.7541667 78.6083333,79.9583333 C79.0375,80.2166667 80.2208333,79.925 81.55,78.7458333 C82.3125,78.0708333 82.7,77.4541667 83.175,76.5291667 C86.1041667,70.7583333 89.2833333,62.0083333 90.4791667,53.6333333 C91.0625,49.5666667 91.3375,45.9333333 91.3375,42.5291667 M71.475,86.3 C71.3916667,85.9958333 70.0166667,86.2166667 68.4208333,86.5666667 C68.0541667,86.6416667 66.9125,86.9083333 65.7833333,87.2208333 C64.7666667,87.5 63.7666667,87.7208333 63.2916667,87.8166667 C59.375,88.5791667 54.95,89 50.2833333,89 L50.1666667,89 C45.5041667,89 41.0833333,88.5791667 37.1666667,87.8166667 C36.3798486,87.6578761 35.5988169,87.4716515 34.825,87.2583333 C33.7666667,86.9791667 32.6833333,86.7375 32.3041667,86.6416667 C30.5583333,86.2458333 28.9833333,85.9666667 28.8916667,86.3 C28.7875,86.6875 29.5666667,87.5 30.5666667,88.2625 C31.0348773,88.6129303 31.5341827,88.919766 32.0583333,89.1791667 C32.6833333,89.4916667 33.3958333,89.7166667 33.6708333,89.8041667 C38.2541667,91.2833333 43.4666667,91.9 50.1291667,91.9 L50.2166667,91.9 C56.7416667,91.9 61.8833333,91.3041667 66.4041667,89.8875 C67.9541667,89.4 68.8666667,89.0041667 69.9666667,88.1375 C70.8833333,87.4166667 71.575,86.6625 71.475,86.3041667" id="Shape"></path>
            <path d="M77.3416667,35.9833333 L73.2458333,35.9833333 L72.0958333,70.4041667 L67.3708333,70.4041667 L67.5375,36.0208333 L67.5375,35.9833333 L63.3791667,35.9833333 L63.3791667,31.4916667 L77.3375,31.4375 L77.3375,35.9833333 L77.3416667,35.9833333 Z M63.925,68.4125 L63.8833333,70.4041667 L59.45,70.4041667 L59.45,70.3458333 C59.45,70.2041667 59.4083333,56.1416667 58.8666667,52.825 L58.8666667,52.7916667 L52.9458333,52.7916667 L52.9041667,70.3833333 L48.35,70.3833333 L47.8916667,31.4916667 L59.3041667,31.4916667 C64.4666667,41.4583333 64.125,58.3333333 63.925,68.4166667 L63.925,68.4125 Z M44.7916667,70.4041667 L39.9583333,70.4041667 L39.2083333,31.45 L44.9083333,31.4375 L44.7958333,70.4041667 L44.7916667,70.4041667 Z M37.0708333,36.0833333 L31.6041667,36.0833333 L31.6041667,48.125 L35.8458333,48.125 L35.8458333,52.7083333 L31.6041667,52.7083333 L31.675,70.4083333 L26.9875,70.3583333 L25.875,31.45 L37.0708333,31.5208333 L37.0708333,36.0833333 Z M81.2375,24.7833333 C81.0317328,24.2429322 80.7661947,23.7272293 80.4458333,23.2458333 C80.2541667,22.9708333 80.125,22.8291667 80.125,22.8291667 C75.6666667,18.3625 63.175,15.9416667 50.225,15.9416667 C37.2833333,15.9416667 24.7875,18.3625 20.3291667,22.8291667 C20.3291667,22.8291667 20.1958333,22.9708333 20.0041667,23.2458333 C19.6835297,23.7285433 19.4179845,24.2456576 19.2125,24.7875 C16.9958333,30.4291667 16.9,39.8875 18.4583333,50.625 C19.8,59.9041667 22.125,69.8875 25.3916667,78.5458333 C25.9291667,79.9958333 26.4166667,80.5458333 27.5958333,81.4625 C30.6349896,83.6013888 34.0976089,85.0634467 37.75,85.75 C41.4875,86.475 45.7083333,86.8833333 50.1666667,86.8833333 L50.2791667,86.8833333 C54.7375,86.8833333 58.9583333,86.475 62.6958333,85.75 C66.3492715,85.0650249 69.8132926,83.6043958 72.8541667,81.4666667 C74.0333333,80.55 74.5208333,80 75.0625,78.55 C78.325,69.8916667 80.6458333,59.9083333 81.9958333,50.6333333 C83.55,39.8916667 83.4541667,30.4333333 81.2375,24.7875 L81.2375,24.7833333 Z" id="Shape"></path>
            <path d="M57.95,43.5958333 C57.3458333,40.2208333 56.6166667,37.6333333 55.7833333,35.8875 L55.7791667,35.875 L55.6916667,35.875 L52.8416667,35.8416667 L52.8083333,35.8416667 L52.6916667,48.3416667 L58.6458333,48.3416667 L58.6416667,48.3 C58.6375,48.2708333 58.4041667,46.1166667 57.95,43.5958333" id="Path"></path>
            <path d="M50,1.375 C76.7958333,1.375 98.6041667,23.1666667 98.6166667,49.9708333 C98.0444708,49.1551373 97.3353913,48.4446481 96.5208333,47.8708333 C93.9458333,46.0208333 92.6166667,39.5791667 92.3625,37.0958333 L92.3458333,37.0708333 C92.5208333,38.8166667 92.6083333,40.6333333 92.6083333,42.5291667 C92.6083333,45.9875 92.3166667,49.6875 91.7375,53.8125 C90.0125,65.8916667 84.1708333,78.8208333 80.725,82.7958333 L80.5041667,83.0333333 L79.7291667,83.8541667 L79.6916667,83.8791667 C71.3041667,90.7375 63.5916667,93.1708333 50.2125,93.1708333 L50.1291667,93.1708333 C36.7458333,93.1708333 29.0291667,90.7375 20.6416667,83.8791667 L20.6083333,83.8541667 L19.8083333,83.0083333 L19.6166667,82.8 C16.1791667,78.8375 10.325,65.8916667 8.60416667,53.8125 C8.04707299,50.0767547 7.75606278,46.3061535 7.73333333,42.5291667 C7.73333333,40.7458333 7.8625,39.0958333 8.025,37.4458333 L7.97083333,37.7083333 C7.725,40.1916667 6.97916667,44.3458333 4.24583333,45.9583333 C2.9799973,46.7201402 1.98140211,47.8555692 1.3875,49.2083333 C1.80833333,22.7708333 23.45,1.375 50,1.375 M50,0 C22.4291667,0 0,22.4333333 0,50 C0,77.5708333 22.4333333,100 50,100 C77.5708333,100 100,77.5708333 100,50 C100,22.4333333 77.5708333,0 50,0" id="Shape"></path>
        </g>
    </g>
</svg>