<?xml version="1.0" encoding="UTF-8"?>
<svg width="937px" height="815px" viewBox="0 0 937 815" version="1.1" xmlns="http://www.w3.org/2000/svg" xmlns:xlink="http://www.w3.org/1999/xlink">
    <title>Path</title>
    <g id="Page-1" stroke="none" stroke-width="1" fill="none" fill-rule="evenodd" opacity="0.0642249698">
        <path d="M258.082086,143.658469 C200.447301,125.945843 138.926334,100.839843 88.0030393,62.248051 L43.4244642,28.465803 C33.9804702,21.3087513 20.9234198,21.1688342 11.2271963,28.1142841 C1.56528079,35.0763456 -2.39537347,47.4863039 1.45932035,58.6781785 L138.765066,457.337259 C120.655029,453.781071 101.485986,454.360041 82.7836113,460.798077 C26.4038815,480.206026 -3.74368729,541.570502 15.5624537,597.624736 C34.8685947,653.67897 96.4143862,683.477369 152.794116,664.06942 C209.173846,644.661471 239.321414,583.296995 220.015274,527.242761 L81.306972,124.511444 C133.0514,157.464034 191.141259,179.413999 241.977081,195.054136 C266.950083,202.722299 286.132595,221.211531 294.592852,245.775384 C309.069978,287.80886 286.45454,333.841909 244.176984,348.395378 C230.050957,353.258069 222.534511,368.55757 227.371694,382.602043 C232.208877,396.646516 247.553729,404.076328 261.679756,399.213637 C332.136102,374.960006 369.832607,298.229896 345.706203,228.180313 C331.818336,187.857719 299.080659,156.273015 258.082086,143.658469 Z" id="Path" fill="#494949" fill-rule="nonzero"></path>
        <path d="M742.20279,4.78778328 L421.36669,228.716332 C411.625742,235.561065 407.603762,248.079503 411.500636,259.397135 L529.858523,603.142088 C511.982968,599.527094 493.079129,600.029035 474.658504,606.371925 C419.128131,625.49305 389.634424,686.530596 408.895286,742.469617 C428.156149,798.408638 488.975023,828.348282 544.505396,809.227158 C600.03577,790.106034 629.529477,729.068487 610.268614,673.129466 C608.277978,667.348092 503.356304,362.625724 503.356304,362.625724 L778.837886,170.521148 L850.694623,379.21354 C832.819068,375.598546 813.915229,376.100487 795.494604,382.443377 C739.96423,401.564501 710.470523,462.602047 729.731386,518.541068 C748.992248,574.480089 809.811123,604.419734 865.341496,585.298609 C920.871869,566.177485 950.365576,505.139939 931.104714,449.200918 C929.114077,443.419544 782.680068,18.1335486 782.680068,18.1335486 C776.905476,1.36249224 756.773673,-5.37081392 742.20279,4.78778328 Z" id="Path" fill="#494949" fill-rule="nonzero"></path>
    </g>
</svg>