<?xml version="1.0" encoding="UTF-8"?>
<svg width="100px" height="38px" viewBox="0 0 100 38" version="1.1" xmlns="http://www.w3.org/2000/svg" xmlns:xlink="http://www.w3.org/1999/xlink">
    <title>ford</title>
    <g id="Page-1" stroke="none" stroke-width="1" fill="none" fill-rule="evenodd">
        <g id="ford" fill="#000000" fill-rule="nonzero">
            <path d="M45.8333333,8.42962375 C48.3333333,9.09402759 52.9583333,11.1287644 57.5,11.1287644 C60.5416667,11.1287644 64.1666667,9.13555283 64.1666667,8.13894706 C64.1666667,7.88979562 64.1666667,7.59911894 63.5,7.59911894 C62.7916667,7.59911894 63.1666667,7.68216942 61.4166667,7.9728461 C59.75,8.22199754 57.6666667,8.13894706 56,8.13894706 C52.0006945,7.98467144 48.0179552,7.5405628 44.0833333,6.81013938 C42.25,6.47793746 40.5416667,6.39488698 39,6.39488698 C31,6.39488698 27.75,9.55080523 27.7083333,12.7482487 C27.6666667,14.4507836 28.9166667,16.1948436 30.7916667,16.1948436 C34.125,16.1948436 36.0833333,12.7067235 36.2083333,11.4609663 C36.2083333,11.4609663 36.2916667,11.2533401 36.125,11.0457139 C36,11.0457139 35.75,11.0457139 35.6666667,11.2533401 C35.2083333,12.3329963 33.4166667,13.5372283 32.125,13.7448545 C30.9166667,13.9940059 30.125,13.3296021 30.0416667,12.3745216 C29.9166667,9.92453239 32.7083333,7.26691702 38.9166667,7.26691702 C41.143205,7.39414739 43.3499591,7.75605157 45.5,8.34657326 C44.4583333,8.59572471 40.9583333,11.2533401 38.2083333,15.4889146 C37.5,15.571965 34.375,15.8211165 33.375,16.9838232 C33.2782507,17.1068752 33.207394,17.2481077 33.1666667,17.3990756 C33.2083333,17.6482271 33.4166667,17.814328 33.7083333,17.5651766 C34.3333333,16.8177223 36.9583333,16.5270456 37.5833333,16.4855203 C33.7916667,21.8422763 30.25,25.3303965 27.1666667,25.3303965 L26.125,25.2888712 C24.875,24.9981946 24.125,23.6693869 24.125,22.4651549 C24.125,20.8871958 25.625,19.1846609 26.5,18.8939843 C26.7916667,18.7694085 26.9166667,18.6033076 26.9166667,18.4787319 C26.9166667,18.2711057 26.7916667,18.1465299 26.4583333,18.1465299 C23.4583333,18.8939843 21.875,21.3439734 21.875,23.3371849 C21.9166667,26.5761537 24.4166667,28.4447895 27.2083333,28.4447895 C31.1666667,28.4447895 33.1666667,26.7422546 39.5833333,16.4024698 C42.0833333,16.1117932 43.375,15.9872174 44.6666667,15.738066 C44.6666667,15.738066 45.0833333,16.6516213 46,16.6516213 C46.1666667,16.6931465 46.1666667,16.5270456 46.25,16.1948436 C45.8333333,16.1948436 45.3333333,15.8626417 45.3333333,15.5304398 C45.75,15.3228136 46.0833333,15.1151874 46.3333333,14.866036 C46.75,14.4507836 47.1666667,13.661804 47.1666667,13.1219759 C47.1666667,12.623673 46.7916667,12.1253701 46.2083333,12.0423196 C45.2083333,11.8762187 44.375,12.7067235 44.2916667,14.1185816 C44.2916667,14.4507836 44.4166667,14.866036 44.4166667,14.866036 C44.4166667,14.866036 42.1666667,15.2812884 40.25,15.3643388 C42.625,11.3363906 44.8333333,9.92453239 45.4583333,9.34317903 L45.9166667,8.84487615 C45.9888377,8.71090056 45.9723621,8.54670357 45.875,8.42962375 L45.8333333,8.42962375 Z M50,37.6633928 C22.375,37.6633928 0,29.2752943 0,18.852459 C0,8.47114899 22.375,0 50,0 C77.625,0 100,8.47114899 100,18.852459 C100,29.233769 77.625,37.704918 50,37.704918 L50,37.6633928 Z M50,35.7532317 C76.5833333,35.7532317 98.0833333,28.2786885 98.0833333,18.852459 C98.0833333,9.50927999 76.5833333,1.91016105 50,1.91016105 C23.5,1.91016105 1.95833333,9.50927999 1.95833333,18.852459 C1.95833333,28.2371633 23.5,35.7532317 50,35.7532317 Z M96.5833333,18.852459 C96.5833333,27.4481837 75.75,34.4244241 50,34.4244241 C24.2916667,34.4244241 3.5,27.4481837 3.5,18.852459 C3.5,10.2982596 24.2916667,3.32201921 50,3.32201921 C75.7083333,3.32201921 96.5833333,10.2982596 96.5833333,18.852459 Z M62.2083333,21.966852 C61.5833333,22.5482054 60.7916667,23.2956597 59,23.2956597 C58,23.2956597 57.1666667,22.4651549 57.3333333,21.4270239 C57.5,20.5965191 57.75,20.1812667 58.4166667,19.9321153 C58.7083333,20.7626201 59.25,21.2193977 60.1666667,21.2193977 C61.25,21.2193977 61.8333333,20.2227919 61.875,19.3922871 C61.875,18.6863581 61.4583333,17.7728028 60.125,17.7312775 C58.9583333,17.6482271 58.0416667,18.1880552 56.7916667,19.6829638 C56.7916667,19.6829638 57.0833333,17.4821261 54.6666667,17.5651766 C54.4166667,17.5651766 54.125,17.5651766 53.875,17.6897523 C52.5833333,18.1050047 50.8333333,20.2227919 49.5,21.8422763 C49.5833333,21.5515996 49.5833333,21.2193977 49.5833333,20.8871958 C49.5833333,19.9736405 49.2083333,18.7694085 48.5833333,18.1050047 C48.4166667,17.980429 48.2916667,17.980429 48.1666667,17.980429 C47.75,17.980429 47.4166667,18.3541561 47.4166667,18.8939843 C47.7083333,19.1846609 48.1666667,20.0151657 48.1666667,20.7626201 C48.1666667,21.5515996 47.9166667,22.9634578 47.5833333,23.5032859 C46.3333333,25.5795479 44.8333333,26.9498808 42.9583333,26.6592042 C41.9583333,26.4100527 41.2916667,25.4549722 41.4583333,24.0015888 C41.5833333,23.171084 42.0833333,22.0083773 42.5833333,21.3024482 C43.375,20.2227919 44.6666667,19.1016105 46.625,18.8109338 C46.625,18.8109338 46.75,18.3956814 46.4583333,18.2295804 C46.375,18.0634795 46.25,17.8973785 45.7916667,17.8973785 C43.0416667,17.980429 41.375,19.9736405 40.375,21.8838015 L39.25,24.1261645 C39.25,24.1261645 39,24.8320936 37.7916667,25.7041236 C37.1666667,26.2024265 36.9583333,26.3685275 36.875,26.3270022 C36.9166667,26.5761537 37.0833333,26.8668304 37.375,27.157507 C37.4583333,27.1990323 37.7916667,26.9914061 37.9166667,26.9498808 C39.4166667,26.0778508 39.5833333,25.6625984 39.5833333,25.6625984 C39.9166667,27.4481837 41.4583333,28.4032642 43.1666667,28.4032642 C45.5416667,28.4032642 47.7083333,26.285477 48.9583333,24.4168412 C50.2916667,22.4236297 52.0833333,20.5134686 52.0833333,20.5134686 C52.7916667,19.8490648 53.5416667,19.3922871 54,19.3922871 C54.4166667,19.3922871 54.7083333,19.8075395 54.5833333,20.1812667 C54.4583333,20.8456705 54.2083333,21.4685491 53.75,22.2575287 L50.25,28.2371633 L53,28.2371633 L56.1666667,22.3405792 C56.5833333,23.9185383 57.4166667,24.5414169 58.7916667,24.5829422 C59.9583333,24.5829422 60.75,24.5414169 61.625,24.0846393 C61.424802,24.888293 61.4980816,25.7354522 61.8333333,26.4931032 C62.125,27.2405575 62.7916667,28.1541128 64.3333333,28.195638 C66.25,28.195638 68.125,27.3651332 68.6666667,26.8668304 C68.8333333,27.8219109 69.2916667,28.2786885 70.5,28.2786885 C72.9166667,28.2371633 75.0416667,25.7871741 76.3333333,24.1261645 C76.5481475,23.8656659 76.7171989,23.5708301 76.8333333,23.2541345 C76.8333333,23.0465083 76.5833333,22.9219325 76.4583333,22.9219325 C76.3333333,22.9219325 76.0833333,23.2126092 75.9583333,23.3787102 C75.375,24.043114 72.8333333,26.6592042 71.4166667,26.7007294 C71.7083333,26.7007294 70.9583333,26.8668304 70.875,26.285477 C70.875,25.8702246 71.1666667,25.413447 71.2916667,25.1642955 L78.2083333,12.9974002 L75.6666667,12.9974002 L71.5,19.9736405 C71.1666667,19.3507619 70.6666667,17.814328 68.7916667,17.814328 C65.625,17.7728028 64.4166667,19.89059 62.2083333,21.966852 L62.2083333,21.966852 Z M68.875,19.3092367 C70.2916667,19.4753376 70.4166667,20.8041453 69.7083333,22.0914277 L70.125,22.1744782 C70.125,22.1744782 69,24.0015888 67.875,25.1227703 C65.875,27.157507 64.5833333,26.451578 64.2916667,26.2439518 C64,26.0363256 63.7916667,25.2058208 63.9166667,24.4168412 C64,23.5863364 64.625,22.2575287 65.1666667,21.5515996 C66.375,20.1397415 67.7916667,19.1846609 68.9166667,19.3092367 L68.875,19.3092367 Z M45.2083333,14.7829855 C45.0803867,14.377522 45.0803867,13.9426918 45.2083333,13.5372283 C45.375,13.0389254 45.625,12.789774 46.125,12.7067235 C46.375,12.7067235 46.4583333,12.9143497 46.5,13.1219759 C46.5416667,13.495703 46.2083333,14.0770564 46.0416667,14.2431574 C45.5416667,14.7829855 45.2083333,14.7829855 45.2083333,14.7829855 L45.2083333,14.7829855 Z" id="Shape"></path>
        </g>
    </g>
</svg>