<?xml version="1.0" encoding="UTF-8"?>
<svg width="100px" height="10px" viewBox="0 0 100 10" version="1.1" xmlns="http://www.w3.org/2000/svg" xmlns:xlink="http://www.w3.org/1999/xlink">
    <title>grundig-1</title>
    <g id="Page-1" stroke="none" stroke-width="1" fill="none" fill-rule="evenodd">
        <g id="Artboard" transform="translate(-593.000000, -1096.000000)" fill="#000000" fill-rule="nonzero">
            <g id="grundig-1" transform="translate(593.000000, 1096.000000)">
                <path d="M12.5,0 L12.5,1.61764706 L7.20588235,1.61764706 C6.34542217,1.60971604 5.51789634,1.94802901 4.90943327,2.55649209 C4.30097019,3.16495516 3.96265722,3.99248099 3.97058824,4.85294118 C3.96797375,5.71179336 4.30799448,6.53622302 4.9152975,7.14352603 C5.52260051,7.75082905 6.34703017,8.09084978 7.20588235,8.08823529 L10.1470588,8.08823529 L10.1470588,4.70588235 L13.9705882,4.70588235 L13.9705882,9.70588235 L4.85294118,9.70588235 C2.19835777,9.6450122 0.06087015,7.50752458 0,4.85294118 C0.0496232935,2.1935616 2.1935616,0.0496232935 4.85294118,0 L12.5,0 Z M98.6764706,0 L98.6764706,1.61764706 L93.2352941,1.61764706 C91.5073529,1.59558824 90.0539216,3.05147059 90,4.85294118 C90.0539216,6.63970588 91.5073529,8.09313725 93.2352941,8.08823529 L96.3235294,8.08823529 L96.3235294,4.70588235 L100,4.70588235 L100,9.70588235 L90.8823529,9.70588235 C88.2794118,9.63970588 86.1348039,7.49264706 86.1764706,4.85539216 C86.1476878,2.22008757 88.2474369,0.053627756 90.8823529,0 L98.6764706,0 Z M83.6764706,0 L83.6764706,9.70588235 L79.8529412,9.70588235 L79.8529412,0 L83.6764706,0 Z M72.5,0 L63.3823529,0 L63.3823529,9.70588235 L72.5,9.70588235 C75.1151961,9.63970588 77.2622549,7.49264706 77.2058824,4.85539216 C77.2622549,2.19852941 75.1151961,0.0514705882 72.5,0 Z M70.1470588,8.08826302 L67.0588235,8.08826302 L67.0588235,1.61764706 L70.1470588,1.61764706 C71.8897059,1.59558824 73.3455882,3.05147059 73.3823529,4.85294118 C73.3455882,6.63970588 71.8897059,8.09558824 70.1470588,8.08826302 Z M58.0882353,0 L48.0882353,0 L48.0882353,9.70588235 L51.7647059,9.70588235 L51.7647059,1.61764706 L55.4411765,1.61764706 C56.0441176,1.59068627 56.5367647,2.08333333 56.4705882,2.64705882 L56.4705882,9.70588235 L60.2941176,9.70588235 L60.2941176,2.20588235 C60.2916667,1.04656863 59.3014706,0.0588235294 58.0882353,0 Z M41.1764706,8.08823529 L37.0588235,8.08823529 C36.4902951,8.08823529 36.0294118,7.62735195 36.0294118,7.05882353 L36.0294118,0 L32.2058824,0 L32.2058824,7.35294118 C32.2573529,8.64460784 33.247549,9.63235294 34.4117647,9.55882353 L45,9.55882353 L45,0 L41.1764706,0 L41.1764706,8.08823529 Z M27.7941176,5.58823529 C28.6960784,5.22794118 29.4632353,3.8872549 29.4117647,2.79411765 C29.4010789,1.25541702 28.1563477,0.0106858066 26.6176471,0 L16.9117647,0 L16.9117647,9.70588235 L20.5882353,9.70588235 L20.5882353,6.32352941 L23.5294118,6.32352941 C24.5220588,6.2622549 25.5955882,6.83578431 26.0318627,9.70588235 L30.2965686,9.70588235 C30.1519608,8.1004902 28.1985294,5.84068627 27.7941176,5.58823529 Z M23.9705882,4.70588235 L20.5882353,4.70588235 L20.5882353,1.61764706 L23.9705882,1.61764706 C24.8137255,1.58823529 25.5171569,2.29166667 25.5882353,3.08823529 C25.5171569,4.02941176 24.8161765,4.73284314 23.9705882,4.70588235 L23.9705882,4.70588235 Z" id="Shape"></path>
            </g>
        </g>
    </g>
</svg>