<?xml version="1.0" encoding="UTF-8"?>
<svg width="100px" height="82px" viewBox="0 0 100 82" version="1.1" xmlns="http://www.w3.org/2000/svg" xmlns:xlink="http://www.w3.org/1999/xlink">
    <title>honda</title>
    <g id="Page-1" stroke="none" stroke-width="1" fill="none" fill-rule="evenodd">
        <g id="Artboard" transform="translate(-1003.000000, -31.000000)" fill="#000000" fill-rule="nonzero">
            <g id="honda" transform="translate(1003.000000, 31.000000)">
                <path d="M72.0936765,73.6065364 L68.2591526,73.6065364 C65.4249392,73.6065364 65.9250945,74.1055784 65.2582208,71.3608472 L63.0908812,62.0869827 C60.8818619,56.8054544 62.2156094,53.9359627 55.4218332,53.9775495 L44.168339,54.10231 C37.4162425,54.1854837 37.9163978,58.8432094 36.6660095,61.9206353 L33.7484369,70.8202183 C32.8731652,73.5233627 33.3316408,73.1074944 30.4140683,73.2322549 C29.1220004,73.2738417 27.5798549,73.3154285 26.1210686,73.2322549 C24.1204474,73.190668 24.7039619,73.0659075 24.5372435,70.653871 C23.8703698,60.7977907 23.7036513,51.6902735 23.1618164,43.6224272 C22.1615058,27.4867346 21.3695933,16.2582887 21.1611952,11.101521 C21.1195156,9.18852653 20.6610399,9.31328704 22.5783019,9.2717002 L25.0790784,9.14693969 C27.3297773,8.93900551 26.8713016,8.64789765 27.3714569,11.0183473 L32.4146895,36.7605992 C34.3736311,42.4995826 34.915466,48.8207818 44.2100186,48.8207818 L54.7549595,48.8207818 C63.9244733,48.8207818 65.9250945,38.2577253 66.2585314,36.7605992 L71.8852785,11.101521 C72.3020746,9.35487387 71.8019193,9.2717002 73.5524628,9.18852653 L75.553084,9.18852653 C77.470346,9.14693969 77.2202684,8.85583183 77.1369091,10.7272395 C77.0535499,15.8840072 76.511715,27.653082 75.6781228,44.4957508 C75.2613268,52.3972497 75.0946083,61.3384196 74.4277346,70.9449788 L74.2610162,73.440189 L72.0936765,73.5649496 L72.0936765,73.6065364 Z M95.9344125,16.6325703 C96.2678493,8.64789765 96.6429658,5.52888491 79.6793652,4.86349552 C59.0479592,4.03175879 37.8747181,3.20002206 17.2849917,4.98825603 C3.65575976,6.15268745 3.73911898,9.93708958 3.98919663,17.963349 C4.23927428,25.6569138 4.3643131,33.3504786 4.82278879,41.0440433 C5.23958487,47.6979372 5.98981782,54.2686574 6.82340999,60.9225512 C7.9070798,70.2380026 8.69899236,77.0582438 22.0781466,77.1414175 L77.9288217,77.2252225 C92.6417234,77.3077648 93.1418787,69.1567449 93.3502768,62.1285695 C93.5586748,55.0588073 94.1838689,47.9890451 94.600665,41.0024565 C95.1424999,32.8930234 95.559296,24.7835902 95.8927329,16.6741571 L95.9344125,16.6325703 Z M97.3098395,62.25333 C97.0597619,71.0697394 96.4762474,81.3001012 77.8871421,81.1753406 L22.0781466,81.092167 C5.19790527,81.0089933 4.23927428,72.7747997 2.90552681,61.3800064 C2.07193465,54.7261126 1.3217017,48.0306319 0.904905614,41.2935644 C0.446429923,33.5584128 0.27971149,25.8232612 0.0713134486,18.0465227 C-0.220443809,7.48346623 -0.428841851,2.57621951 16.9515548,1.07909339 C37.6663201,-0.709140581 59.0479592,0.0810093141 79.8460837,0.912746046 C100.769247,1.74448278 100.352451,6.15268745 99.8522956,16.8405045 C99.5188588,24.8251771 99.1437423,32.7682629 98.6019074,40.7529355 C98.1851113,47.9058714 97.5182376,55.1003941 97.3515191,62.25333 L97.3098395,62.25333 Z" id="Shape"></path>
            </g>
        </g>
    </g>
</svg>