<?xml version="1.0" encoding="UTF-8"?>
<svg width="536px" height="332px" viewBox="0 0 536 332" version="1.1" xmlns="http://www.w3.org/2000/svg" xmlns:xlink="http://www.w3.org/1999/xlink">
    <title>Group 16</title>
    <g id="Page-1" stroke="none" stroke-width="1" fill="none" fill-rule="evenodd">
        <g id="Group-16">
            <g id="car-radio-(2)" fill-rule="nonzero">
                <path d="M496.666667,8 L465.333333,8 L434,166 L465.333333,324 L496.666667,324 C513.972067,324 528,309.946371 528,292.609272 L528,276.913907 L501.888889,158.152318 L528,39.3907285 C528,22.0536291 513.972067,8 496.666667,8 Z" id="Path" fill="#4F575B"></path>
                <path d="M8,39.3907285 L34.1777302,158.152318 L8,276.913907 L8,292.609272 C8,309.946371 22.0637238,324 39.4132762,324 L465.586724,324 C482.936276,324 497,309.946371 497,292.609272 L497,39.3907285 C497,22.0536291 482.936276,8 465.586724,8 L39.4132762,8 C22.0637238,8 8,22.0536291 8,39.3907285 Z" id="Path" fill="#697276"></path>
                <path d="M55,229.808989 L55,157.973783 L31.5,137 L8,157.973783 L8,277 C33.9575778,277 55,255.87206 55,229.808989 Z" id="Path" fill="#353A3D"></path>
                <path d="M55,86.1806167 C55,60.1232863 33.9575778,39 8,39 L8,158 L55,158 L55,86.1806167 Z" id="Path" fill="#4F575B"></path>
                <path d="M481,229.808989 L481,157.973783 L504.5,137 L528,157.973783 L528,277 C502.042422,277 481,255.87206 481,229.808989 Z" id="Path" fill="#012631"></path>
                <path d="M481,86.1806167 C481,60.1232863 502.042422,39 528,39 L528,158 L481,158 L481,86.1806167 Z" id="Path" fill="#353A3D"></path>
                <polygon id="Path" fill="#012631" points="386.666667 71 324 135 386.666667 199 418 199 418 71"></polygon>
                <polygon id="Path" fill="#353A3D" points="118 71 387 71 387 199 118 199"></polygon>
                <polygon id="Path" fill="#FF7C02" points="358.578947 246 327 261.5 358.578947 277 419 277 419 246"></polygon>
                <polygon id="Path" fill="#FF7C02" points="268 246 358 246 358 277 268 277"></polygon>
                <polygon id="Path" fill="#FF7C02" points="177.524548 246 146 261.5 177.524548 277 268 277 268 246"></polygon>
                <polygon id="Path" fill="#FF7C02" points="118 246 178 246 178 277 118 277"></polygon>
                <circle id="Oval" fill="#FF7C02" cx="268.5" cy="261.5" r="31.5"></circle>
                <path d="M418.152318,31 L117.847682,31 C113.513669,31 110,34.5808 110,39 C110,43.4192 113.513669,47 117.847682,47 L418.152318,47 C422.486331,47 426,43.4192 426,39 C426,34.5808 422.486331,31 418.152318,31 Z" id="Path" fill="#000000"></path>
                <path d="M418.152318,63 L117.847682,63 C113.513669,63 110,66.5040219 110,70.8284672 L110,198.171533 C110,202.495978 113.513669,206 117.847682,206 L418.152318,206 C422.486331,206 426,202.495978 426,198.171533 L426,70.8284672 C426,66.5040219 422.486331,63 418.152318,63 Z M410.304636,190.343066 L125.695364,190.343066 L125.695364,78.6569343 L410.304636,78.6569343 L410.304636,190.343066 Z" id="Shape" fill="#000000"></path>
                <path d="M418.152318,237.8 L299.369801,237.8 C292.204344,228.21256 280.810556,222 268,222 C255.189444,222 243.796702,228.21256 236.630199,237.8 L117.847682,237.8 C113.513669,237.8 110,241.33604 110,245.7 L110,277.3 C110,281.66396 113.513669,285.2 117.847682,285.2 L236.630199,285.2 C243.795656,294.78744 255.189444,301 268,301 C280.810556,301 292.203298,294.78744 299.369801,285.2 L418.152318,285.2 C422.486331,285.2 426,281.66396 426,277.3 L426,245.7 C426,241.33604 422.486331,237.8 418.152318,237.8 Z M125.695364,253.6 L170.060927,253.6 L170.060927,269.4 L125.695364,269.4 L125.695364,253.6 Z M185.756291,269.4 L185.756291,253.6 L229.551589,253.6 C229.034689,256.15328 228.761589,258.79504 228.761589,261.5 C228.761589,264.20496 229.034689,266.84672 229.551589,269.4 L185.756291,269.4 Z M268,285.2 C255.017841,285.2 244.456954,274.567653 244.456954,261.5 C244.456954,248.432347 255.017841,237.8 268,237.8 C280.982159,237.8 291.543046,248.432347 291.543046,261.5 C291.543046,274.567653 280.982159,285.2 268,285.2 Z M306.448411,253.6 L350.243709,253.6 L350.243709,269.4 L306.448411,269.4 C306.965311,266.84672 307.238411,264.20496 307.238411,261.5 C307.238411,258.79504 306.965311,256.15328 306.448411,253.6 Z M410.304636,269.4 L365.939073,269.4 L365.939073,253.6 L410.304636,253.6 L410.304636,269.4 Z" id="Shape" fill="#000000"></path>
                <path d="M496.742188,0 L39.2578125,0 C17.6105312,0 0,17.6179937 0,39.2744479 L0,292.725552 C0,314.382006 17.6105312,332 39.2578125,332 L496.742188,332 C518.389469,332 536,314.382006 536,292.725552 L536,39.2744479 C536,17.6179937 518.389469,0 496.742188,0 Z M488.890625,166 L520.296875,166 L520.296875,268.370158 C502.3995,264.7213 488.890625,248.853375 488.890625,229.886435 L488.890625,166 Z M488.890625,150.290221 L488.890625,86.4037855 C488.890625,67.4368454 502.3995,51.5689211 520.296875,47.9200631 L520.296875,150.290221 L488.890625,150.290221 Z M47.109375,150.290221 L15.703125,150.290221 L15.703125,47.9200631 C33.6005,51.5689211 47.109375,67.4368454 47.109375,86.4037855 L47.109375,150.290221 Z M496.742188,316.290221 L39.2578125,316.290221 C26.2692344,316.290221 15.703125,305.718587 15.703125,292.725552 L15.703125,284.300921 C42.3010781,280.477161 62.8125,257.537741 62.8125,229.886435 C62.8125,225.547394 59.2970938,222.031546 54.9609375,222.031546 C50.6247812,222.031546 47.109375,225.547394 47.109375,229.886435 C47.109375,248.853375 33.6005,264.7213 15.703125,268.370158 L15.703125,166 L47.109375,166 L47.109375,198.466877 C47.109375,202.805918 50.6247812,206.321767 54.9609375,206.321767 C59.2970938,206.321767 62.8125,202.805918 62.8125,198.466877 L62.8125,86.4037855 C62.8125,59.1357981 42.8642969,36.450877 16.8023437,32.1600126 C19.8246719,22.6336025 28.7471875,15.7097792 39.2578125,15.7097792 L496.742188,15.7097792 C507.252813,15.7097792 516.175328,22.6336025 519.197656,32.1600126 C493.135703,36.450877 473.1875,59.1357981 473.1875,86.4037855 L473.1875,229.886435 C473.1875,257.536694 493.698922,280.476114 520.296875,284.300921 L520.296875,292.725552 C520.296875,305.718587 509.730766,316.290221 496.742188,316.290221 Z" id="Shape" fill="#000000"></path>
            </g>
            <text id="CODE-____" font-family="SourceCodePro-Bold, Source Code Pro" font-size="41" font-weight="bold" letter-spacing="-1.60434845" fill="#FF7C02">
                <tspan x="164.519568" y="151">CODE ____</tspan>
            </text>
        </g>
    </g>
</svg>