<?xml version="1.0" encoding="UTF-8"?>
<svg width="236px" height="332px" viewBox="0 0 236 332" version="1.1" xmlns="http://www.w3.org/2000/svg" xmlns:xlink="http://www.w3.org/1999/xlink">
    <title>alert</title>
    <g id="Page-1" stroke="none" stroke-width="1" fill="none" fill-rule="evenodd">
        <g id="alert" fill-rule="nonzero">
            <g id="Group" transform="translate(5.354839, 5.354838)">
                <g>
                    <rect id="Rectangle" fill="#FF7C02" x="0" y="48.193549" width="224.903226" height="224.903226" rx="20"></rect>
                    <path d="M26.7741929,48.193549 L26.7741929,13.3870974 C26.7741929,9.83629196 28.1832078,6.43061227 30.6940065,3.91981357 C33.2048052,1.40901487 36.6104849,-0.00106511762 40.1612903,0 L184.741935,0 C188.292741,-0.00106511762 191.698421,1.40901487 194.209219,3.91981357 C196.720018,6.43061227 198.129033,9.83629196 198.129033,13.3870974 L198.129033,48.193549" id="Path" fill="#697276"></path>
                    <path d="M198.129033,273.096775 L198.129033,307.903226 C198.129033,311.454032 196.720018,314.859712 194.209219,317.37051 C191.698421,319.881309 188.292741,321.291389 184.741935,321.290324 L40.1612903,321.290324 C36.6104849,321.291389 33.2048052,319.881309 30.6940065,317.37051 C28.1832078,314.859712 26.7741929,311.454032 26.7741929,307.903226 L26.7741929,273.096775" id="Path" fill="#697276"></path>
                    <polygon id="Path" fill="#E0E0E2" points="139.225806 21.4193554 85.6774194 21.4193554 80.3225806 6.03654884e-07 144.580645 6.03654884e-07"></polygon>
                </g>
                <g transform="translate(53.548387, 69.612903)" fill="#FFB10A" id="Path">
                    <path d="M53.5483871,21.4193554 L64.2580645,21.4193554 C93.8320221,21.4193554 117.806452,45.393785 117.806452,74.9677425 L117.806452,139.225807 L0,139.225807 L0,74.9677425 C0,45.393785 23.9744295,21.4193554 53.5483871,21.4193554 Z"></path>
                    <path d="M42.8387091,22.4970167 L42.8387091,13.3870974 C42.837644,9.83629196 44.2477239,6.43061227 46.7585226,3.91981357 C49.2693213,1.40901487 52.675001,-0.00106511762 56.2258065,0 L61.5806452,0 C65.1314506,-0.00106511762 68.5371303,1.40901487 71.047929,3.91981357 C73.5587277,6.43061227 74.9688077,9.83629196 74.9677425,13.3870974 L74.9677425,22.4970167"></path>
                    <path d="M56.2258065,166.000001 L61.5806452,166.000001 C68.9741346,166.000001 74.9677419,171.993608 74.9677419,179.387097 L74.9677419,182.064517 L42.8387097,182.064517 L42.8387097,179.387097 C42.8387097,171.993608 48.8323171,166.000001 56.2258065,166.000001 L56.2258065,166.000001 Z" transform="translate(58.903226, 174.032259) rotate(-180.000000) translate(-58.903226, -174.032259) "></path>
                </g>
                <polygon id="Path" fill="#C25D00" points="192.774194 235.612904 32.1290323 235.612904 42.8387097 208.83871 182.064516 208.83871"></polygon>
            </g>
            <g id="Group" fill="#000000">
                <path d="M91.0322581,315.935484 L144.580645,315.935484 C147.538041,315.935484 149.935484,313.538041 149.935484,310.580645 C149.935484,307.623249 147.538041,305.225806 144.580645,305.225806 L91.0322581,305.225806 C88.0748623,305.225806 85.6774194,307.623249 85.6774194,310.580645 C85.6774194,313.538041 88.0748623,315.935484 91.0322581,315.935484 Z" id="Path"></path>
                <path d="M216.870968,48.1935484 L208.83871,48.1935484 L208.83871,18.7419355 C208.827274,8.39579085 200.442919,0.0114356792 190.096774,0 L45.516129,0 C35.1699844,0.0114356792 26.7856292,8.39579085 26.7741935,18.7419355 L26.7741935,48.1935484 L18.7419355,48.1935484 C8.39579085,48.2049841 0.0114356792,56.5893392 0,66.9354839 L0,265.064516 C0.0114356792,275.410661 8.39579085,283.795016 18.7419355,283.806452 L26.7741935,283.806452 L26.7741935,313.258065 C26.7856292,323.604209 35.1699844,331.988564 45.516129,332 L190.096774,332 C200.442919,331.988564 208.827274,323.604209 208.83871,313.258065 L208.83871,283.806452 L216.870968,283.806452 C227.217112,283.795016 235.601468,275.410661 235.612903,265.064516 L235.612903,66.9354839 C235.601468,56.5893392 227.217112,48.2049841 216.870968,48.1935484 L216.870968,48.1935484 Z M143.074597,10.7096774 L140.397177,21.4193548 L95.2157258,21.4193548 L92.5383065,10.7096774 L143.074597,10.7096774 Z M37.483871,18.7419355 C37.4875618,14.3073716 41.0815651,10.7133683 45.516129,10.7096774 L81.4939516,10.7096774 L85.8380645,28.0727419 C86.4338708,30.4563392 88.5753248,32.1286603 91.0322581,32.1290323 L144.580645,32.1290323 C147.037578,32.1286603 149.179032,30.4563392 149.774839,28.0727419 L154.118952,10.7096774 L190.096774,10.7096774 C194.531338,10.7133683 198.125341,14.3073716 198.129032,18.7419355 L198.129032,48.1935484 L37.483871,48.1935484 L37.483871,18.7419355 Z M198.129032,313.258065 C198.125341,317.692628 194.531338,321.286632 190.096774,321.290323 L45.516129,321.290323 C41.0815651,321.286632 37.4875618,317.692628 37.483871,313.258065 L37.483871,283.806452 L198.129032,283.806452 L198.129032,313.258065 Z M224.903226,265.064516 C224.899535,269.49908 221.305532,273.093083 216.870968,273.096774 L18.7419355,273.096774 C14.3073716,273.093083 10.7133683,269.49908 10.7096774,265.064516 L10.7096774,66.9354839 C10.7133683,62.5009199 14.3073716,58.9069167 18.7419355,58.9032258 L216.870968,58.9032258 C221.305532,58.9069167 224.899535,62.5009199 224.903226,66.9354839 L224.903226,265.064516 Z" id="Shape"></path>
                <path d="M203.102339,238.979758 L192.392661,212.205565 C191.578593,210.172493 189.609352,208.839346 187.419355,208.83871 L182.064516,208.83871 L182.064516,149.935484 C182.033564,123.600587 164.553454,100.474947 139.225806,93.2612097 L139.225806,88.3548387 C139.214371,78.0086941 130.830016,69.6243389 120.483871,69.6129032 L115.129032,69.6129032 C104.782888,69.6243389 96.3985325,78.0086941 96.3870968,88.3548387 L96.3870968,93.2612097 C71.0594492,100.474947 53.5793389,123.600587 53.5483871,149.935484 L53.5483871,208.83871 L48.1935484,208.83871 C46.0035514,208.839346 44.0343102,210.172493 43.2202419,212.205565 L32.5105645,238.979758 C31.850881,240.629692 32.0526289,242.499406 33.0490955,243.970636 C34.045562,245.441866 35.7069458,246.322966 37.483871,246.322581 L96.5812097,246.322581 C97.9236225,255.536595 105.817751,262.373805 115.129032,262.387097 L120.483871,262.387097 C129.795152,262.373805 137.689281,255.536595 139.031694,246.322581 L198.129032,246.322581 C199.905957,246.322966 201.567341,245.441866 202.563808,243.970636 C203.560274,242.499406 203.762022,240.629692 203.102339,238.979758 L203.102339,238.979758 Z M107.096774,88.3548387 C107.100465,83.9202748 110.694468,80.3262715 115.129032,80.3225806 L120.483871,80.3225806 C124.918435,80.3262715 128.512438,83.9202748 128.516129,88.3548387 L128.516129,91.2799194 C126.749032,91.1192742 124.968548,91.0322581 123.16129,91.0322581 L112.451613,91.0322581 C110.644355,91.0322581 108.863871,91.1192742 107.096774,91.2799194 L107.096774,88.3548387 Z M64.2580645,149.935484 C64.2893021,127.051641 80.3802309,107.332777 102.792823,102.7125 C102.806554,102.713555 102.820337,102.711258 102.832984,102.705806 C105.999023,102.064524 109.221281,101.741935 112.451613,101.741935 L123.16129,101.741935 C126.391622,101.741935 129.613881,102.064524 132.779919,102.705806 C132.792567,102.711258 132.806349,102.713555 132.820081,102.7125 C155.232672,107.332777 171.323601,127.051641 171.354839,149.935484 L171.354839,208.83871 L64.2580645,208.83871 L64.2580645,149.935484 Z M120.483871,251.677419 L115.129032,251.677419 C111.726901,251.673566 108.695314,249.529208 107.558629,246.322581 L128.054274,246.322581 C126.917589,249.529208 123.886003,251.673566 120.483871,251.677419 Z M45.3956452,235.612903 L51.8214516,219.548387 L183.791452,219.548387 L190.217258,235.612903 L45.3956452,235.612903 Z" id="Shape"></path>
            </g>
        </g>
    </g>
</svg>