<?xml version="1.0" encoding="UTF-8"?>
<svg width="132px" height="119px" viewBox="0 0 132 119" version="1.1" xmlns="http://www.w3.org/2000/svg" xmlns:xlink="http://www.w3.org/1999/xlink">
    <title>icon-email</title>
    <g id="Page-1" stroke="none" stroke-width="1" fill="none" fill-rule="evenodd">
        <g id="icon-email" fill="#FF7C02" fill-rule="nonzero">
            <path d="M130.664531,48.5783455 C129.857062,48.2308143 128.919914,48.3999261 128.281828,49.0073455 L92.9455313,82.6606424 C92.5054453,83.0808768 92.2569141,83.6661111 92.2633579,84.2753221 C92.2703203,84.8847908 92.5299375,85.4633221 92.9785313,85.8768533 L128.312766,118.223557 C128.728617,118.602026 129.261,118.800025 129.799828,118.800025 C130.099148,118.800025 130.400531,118.740729 130.686445,118.613111 C131.485148,118.261197 131.999742,117.47126 131.999742,116.600111 L131.999742,50.6001111 C131.999742,49.7222596 131.476383,48.9258768 130.664531,48.5783455 Z M127.599914,111.603963 L97.6887656,84.220408 L127.599914,55.7347049 L127.599914,111.603963 Z" id="Shape"></path>
            <path d="M94.5999141,2.52165985e-05 L2.19991406,2.52165985e-05 C0.985617187,2.52165985e-05 0,0.985642407 0,2.20019709 L0,68.2001971 C0,69.4144939 0.985617187,70.4001111 2.19991406,70.4001111 L94.5999141,70.4001111 C95.8142109,70.4001111 96.7998282,69.4168143 96.7998282,68.2001971 L96.7998282,2.2001971 C96.7998282,0.985642407 95.8144687,2.52165985e-05 94.5999141,2.52165985e-05 Z M92.4,66.0000252 L4.40008594,66.0000252 L4.40008594,4.40011116 L92.4,4.40011116 L92.4,66.0000252 Z" id="Shape"></path>
            <path d="M96.6415312,1.38164241 C96.3092109,0.547876779 95.4996797,2.52165985e-05 94.5999141,2.52165985e-05 L2.19991406,2.52165985e-05 C1.30014844,2.52165985e-05 0.490617187,0.549939279 0.158296875,1.38370491 C-0.176085938,2.21979084 0.0306796875,3.17240803 0.681914062,3.79270491 L46.8819141,47.7927908 C47.3065312,48.1975565 47.8543828,48.3999393 48.3999141,48.3999393 C48.9454453,48.3999393 49.4932969,48.1998768 49.9158516,47.7927908 L96.1158516,3.79270491 C96.7670859,3.17034553 96.9759141,2.21772834 96.6415312,1.38164241 Z M48.3999141,43.1640252 L7.70008594,4.40011116 L89.1,4.40011116 L48.3999141,43.1640252 Z" id="Shape"></path>
            <path d="M95.4666797,0.180493967 C94.6571484,-0.167037283 93.72,2.52165985e-05 93.0819141,0.607173655 L57.7456172,34.2607283 C57.3055313,34.6809627 57.057,35.2661971 57.0634438,35.875408 C57.0704062,36.4848768 57.3300234,37.063408 57.7786172,37.4769393 L93.1128516,69.8236424 C93.5287031,70.2021111 94.0610859,70.4001111 94.5999141,70.4001111 C94.8992344,70.4001111 95.2006172,70.3408143 95.4865312,70.2131971 C96.2852344,69.861283 96.7998282,69.0713455 96.7998282,68.2001971 L96.7998282,2.20019709 C96.7998282,1.32234553 96.2764687,0.525962717 95.4666797,0.180493967 Z M92.4,63.2040486 L62.4888516,35.8204939 L92.4,7.33504866 L92.4,63.2040486 Z" id="Shape"></path>
            <path d="M39.0521484,34.258408 L3.71791406,0.607431467 C3.07982813,1.20459677e-05 2.14061719,-0.169099783 1.33314844,0.178431467 C0.523617188,0.523642405 0,1.32002522 0,2.2001971 L0,68.2001971 C0,69.0736658 0.514851563,69.8633455 1.31329688,70.2131971 C1.59921094,70.338494 1.90059375,70.4001111 2.19991406,70.4001111 C2.739,70.4001111 3.27138281,70.2021111 3.68491406,69.8236424 L39.0191484,37.4748768 C39.4700625,37.063408 39.7276172,36.4825565 39.7343238,35.8733455 C39.7407656,35.2638768 39.4942969,34.6786424 39.0521484,34.258408 Z M4.40008594,63.2061111 L4.40008594,7.33504866 L34.3112344,35.8228143 L4.40008594,63.2061111 Z" id="Shape"></path>
            <path d="M131.841703,49.7818143 C131.509383,48.9480486 130.699852,48.4001971 129.800086,48.4001971 L94.5999141,48.4001971 C93.3856172,48.4001971 92.4,49.3858143 92.4,50.6001111 L92.4,66.0000252 L55.8800859,66.0000252 C54.9803203,66.0000252 54.1707891,66.5499393 53.8364063,67.3816424 C53.5020234,68.2177283 53.7111094,69.172408 54.3620859,69.7929627 L82.0820859,96.1929627 C82.5067031,96.5977283 83.0545547,96.8001111 83.6000859,96.8001111 C84.1456172,96.8001111 84.6934687,96.6000486 85.1160234,96.1929627 L131.316023,52.1928768 C131.967,51.5702596 132.176086,50.6176424 131.841703,49.7818143 Z M83.6000859,91.5641971 L61.38,70.4001111 L94.5999141,70.4001111 C95.8142109,70.4001111 96.7998281,69.4144939 96.7998281,68.2001971 L96.7998281,52.8000252 L124.299914,52.8000252 L83.6000859,91.5641971 Z" id="Shape"></path>
            <path d="M129.800086,48.4001971 L94.5999141,48.4001971 C93.3856172,48.4001971 92.4,49.3858143 92.4,50.6001111 L92.4,66.0000252 L37.4000859,66.0000252 C36.1857891,66.0000252 35.2001719,66.9856424 35.2001719,68.1999393 L35.2001719,116.599854 C35.2001719,117.814151 36.1857891,118.799768 37.4000859,118.799768 L129.800086,118.799768 C131.014383,118.799768 132,117.816471 132,116.599854 L132,50.5998533 C132,49.3858143 131.014383,48.4001971 129.800086,48.4001971 Z M127.599914,114.400197 L39.6,114.400197 L39.6,70.4001111 L94.5999141,70.4001111 C95.8142109,70.4001111 96.7998281,69.4144939 96.7998281,68.2001971 L96.7998281,52.8000252 L127.599914,52.8000252 L127.599914,114.400197 Z" id="Shape"></path>
            <path d="M74.2523203,82.6585799 L57.3980859,66.6074315 C56.9889375,66.2181346 56.4454688,66.000283 55.8800859,66.000283 L37.4000859,66.000283 C36.1857891,66.000283 35.2001719,66.9859002 35.2001719,68.2001971 L35.2001719,116.600111 C35.2001719,117.47358 35.7150234,118.26326 36.5134688,118.613111 C36.7993828,118.738408 37.1007656,118.800026 37.4000859,118.800026 C37.9391719,118.800026 38.4715547,118.602026 38.8850859,118.223557 L74.2193203,85.8747908 C74.6702344,85.4633221 74.9277891,84.8824705 74.9344957,84.2732596 C74.9409375,83.6640486 74.6944688,83.0788143 74.2523203,82.6585799 Z M39.6,111.603963 L39.6,70.4001111 L54.9999141,70.4001111 L69.5111484,84.220408 L39.6,111.603963 Z" id="Shape"></path>
            <path d="M129.800086,22.0001971 L110.000086,22.0001971 C108.785789,22.0001971 107.800172,22.9858143 107.800172,24.2001111 C107.800172,25.414408 108.785789,26.4000252 110.000086,26.4000252 L129.800086,26.4000252 C131.014383,26.4000252 132,25.414408 132,24.2001111 C132,22.9858143 131.014383,22.0001971 129.800086,22.0001971 Z" id="Path"></path>
            <path d="M123.200086,13.2000252 L103.400086,13.2000252 C102.185789,13.2000252 101.200172,14.1856424 101.200172,15.3999393 C101.200172,16.6142361 102.185789,17.5998533 103.400086,17.5998533 L123.200086,17.5998533 C124.414383,17.5998533 125.4,16.6142361 125.4,15.3999393 C125.4,14.1856424 124.414383,13.2000252 123.200086,13.2000252 Z" id="Path"></path>
            <path d="M123.200086,30.8001111 L103.400086,30.8001111 C102.185789,30.8001111 101.200172,31.7857283 101.200172,33.0000252 C101.200172,34.2143221 102.185789,35.1999393 103.400086,35.1999393 L123.200086,35.1999393 C124.414383,35.1999393 125.4,34.2143221 125.4,33.0000252 C125.4,31.7857283 124.414383,30.8001111 123.200086,30.8001111 Z" id="Path"></path>
            <path d="M21.9999141,92.4000252 L2.19991406,92.4000252 C0.985617187,92.4000252 0,93.3856424 0,94.6001971 C0,95.8147518 0.985617187,96.8001111 2.19991406,96.8001111 L21.9999141,96.8001111 C23.2142109,96.8001111 24.1998281,95.8144939 24.1998281,94.6001971 C24.1998281,93.3859002 23.2144687,92.4000252 21.9999141,92.4000252 Z" id="Path"></path>
            <path d="M28.5999141,101.200197 L8.79991406,101.200197 C7.58561719,101.200197 6.6,102.185815 6.6,103.400111 C6.6,104.614408 7.58561719,105.600026 8.79991406,105.600026 L28.5999141,105.600026 C29.8142109,105.600026 30.7998281,104.614408 30.7998281,103.400111 C30.7998281,102.185815 29.8144687,101.200197 28.5999141,101.200197 Z" id="Path"></path>
            <path d="M28.5999141,83.6001111 L8.79991406,83.6001111 C7.58561719,83.6001111 6.6,84.5857283 6.6,85.8000252 C6.6,87.0143221 7.58561719,87.9999393 8.79991406,87.9999393 L28.5999141,87.9999393 C29.8142109,87.9999393 30.7998281,87.0143221 30.7998281,85.8000252 C30.7998281,84.5857283 29.8144687,83.6001111 28.5999141,83.6001111 Z" id="Path"></path>
        </g>
    </g>
</svg>