<?xml version="1.0" encoding="UTF-8"?>
<svg width="132px" height="132px" viewBox="0 0 132 132" version="1.1" xmlns="http://www.w3.org/2000/svg" xmlns:xlink="http://www.w3.org/1999/xlink">
    <title>icon-phone</title>
    <g id="Page-1" stroke="none" stroke-width="1" fill="none" fill-rule="evenodd">
        <g id="icon-phone" fill="#FF7C02" fill-rule="nonzero">
            <path d="M83.5976258,0.000330773144 C82.383329,0.000330773144 81.3977118,0.98594796 81.3977118,2.20024483 C81.3977118,3.41454171 82.383329,4.40015889 83.5976258,4.40015889 C107.859329,4.40015889 127.597711,24.1385417 127.597711,48.4002449 C127.597711,49.6145417 128.583329,50.6001589 129.797625,50.6001589 C131.014243,50.6001589 131.99754,49.6145417 131.99754,48.4002449 C131.99754,21.7122683 110.28586,0.000330773144 83.5976258,0.000330773144 Z" id="Path"></path>
            <path d="M83.5976258,13.2003308 C82.383329,13.2003308 81.3977118,14.185948 81.3977118,15.4002449 C81.3977118,16.6145417 82.383329,17.6001589 83.5976258,17.6001589 C100.58154,17.6001589 114.397712,31.416073 114.397712,48.4002449 C114.397712,49.6145417 115.383329,50.6001589 116.597625,50.6001589 C117.814243,50.6001589 118.79754,49.6145417 118.79754,48.4002449 C118.79754,28.9921199 103.008071,13.2003308 83.5976258,13.2003308 Z" id="Path"></path>
            <path d="M83.5976258,26.4003308 C82.383329,26.4003308 81.3977118,27.385948 81.3977118,28.6002449 C81.3977118,29.8145417 82.383329,30.8001589 83.5976258,30.8001589 C93.3019462,30.8001589 101.197711,38.6959246 101.197711,48.4002449 C101.197711,49.6145417 102.183329,50.6001589 103.397625,50.6001589 C104.614243,50.6001589 105.59754,49.6145417 105.59754,48.4002449 C105.59754,36.2696511 95.7282196,26.4003308 83.5976258,26.4003308 Z" id="Path"></path>
            <path d="M119.048391,82.5555027 C113.062243,81.7678855 107.159625,80.2983542 101.505539,78.1927996 C96.0298602,76.1400964 89.8080711,77.4644792 85.6413055,81.5763308 L78.6870711,88.5150964 C64.105454,79.9175652 51.9240711,67.7604167 43.3066883,53.2074167 L50.2653055,46.2642683 C54.3792196,42.1129714 55.7079852,35.8978855 53.6511571,30.4353542 C51.5414774,24.7902917 50.0696258,18.900823 49.2776258,12.9056511 C48.2236883,5.47394796 41.7886883,-0.0282864144 34.2670086,0.000109405127 L15.019243,0.000109405127 C14.5703915,0.000109405127 14.1215399,0.0222448356 13.677329,0.0619479606 C9.67968834,0.422885461 6.06077428,2.3170339 3.48883678,5.39273702 C0.917157089,8.47050265 -0.301780411,12.3645027 0.0635399006,16.3925652 C2.19539146,36.4302683 9.12539146,55.9595652 20.0924774,72.8555652 C30.0497118,88.4931824 43.5951805,102.012097 59.2480086,111.938651 C76.113329,122.854948 95.5897743,129.769737 115.616391,131.941034 C116.069625,131.980737 116.524922,132.000331 116.982539,132.000331 C116.995688,132.000331 117.008836,132.000331 117.024305,132.000331 C125.314008,131.965011 132.028219,125.206714 131.995219,116.941245 L131.995219,97.7594792 C132.169243,90.1542683 126.616219,83.6202683 119.048391,82.5555027 Z M127.595391,97.6803308 C127.595391,97.697862 127.595391,97.7177136 127.595391,97.7352449 L127.595391,116.952331 C127.617305,122.800034 122.867625,127.578331 117.009094,127.602565 C116.665946,127.589417 116.335946,127.589417 116.045391,127.562862 C96.7427118,125.468394 77.9280711,118.789245 61.6196258,108.233628 C46.4924774,98.6393933 33.4157118,85.5889246 23.7928602,70.4749246 C13.1908368,54.1425027 6.4985399,35.2796511 4.44145396,15.9615027 C4.18621959,13.1410339 5.0465399,10.3912058 6.86592271,8.21526827 C8.68530553,6.03933077 11.2438368,4.69973702 14.0730712,4.44450265 C14.3876024,4.41588546 14.7023915,4.40041671 15.0189852,4.40041671 L34.2866024,4.40041671 C34.3219227,4.40041671 34.3569852,4.40041671 34.3923055,4.40041671 C39.6635399,4.40041671 44.1801571,8.30550265 44.9169852,13.5017136 C45.7507508,19.8047136 47.3017508,26.0218621 49.5302821,31.9817136 C50.9846024,35.8447761 50.0451337,40.2360964 47.147579,43.159948 L38.9988993,51.2910964 C38.2948133,51.9928621 38.1496649,53.0754167 38.6402821,53.9377996 C47.9638133,70.3057996 61.5621337,83.8755027 77.9587508,93.1791824 C78.8211337,93.6697996 79.8990477,93.5202683 80.5987508,92.8228855 L88.7386649,84.7005027 C91.6800477,81.798823 96.086579,80.8637371 99.9630477,82.3157371 C105.929344,84.537823 112.157579,86.088823 118.451813,86.9158855 C123.798071,87.6681824 127.729454,92.2948855 127.595391,97.6803308 Z" id="Shape"></path>
            <path d="M32.9998602,8.80050264 L15.019243,8.80050264 C14.8343915,8.80050264 14.6518602,8.80926827 14.469329,8.82679952 C12.2276493,9.02918233 10.8568602,10.3007136 10.2409461,11.0377995 C9.74594615,11.6294792 8.61518052,13.2444167 8.81318052,15.4621199 C9.64488365,23.2655886 11.1494774,30.8576511 13.2900946,38.029737 C13.5760086,38.9823542 14.4494774,39.6005886 15.3977118,39.6005886 C15.6067977,39.6005886 15.8179461,39.5719714 16.0290946,39.5082917 C17.1928602,39.1607605 17.8551805,37.9353777 17.5073915,36.771612 C15.4438602,29.8591433 13.9918602,22.5331433 13.1931571,15.0333777 C13.1426258,14.474698 13.5056258,13.9928464 13.6177743,13.8564636 C13.798243,13.6409324 14.2006883,13.2691667 15.019243,13.2008464 L32.9954774,13.2008464 C32.9977977,13.2008464 32.9977977,13.2008464 32.9977977,13.2008464 C34.2120946,13.2008464 35.1977182,12.2175495 35.1977182,11.0029949 C35.1997743,9.78818233 34.2141571,8.80050264 32.9998602,8.80050264 Z" id="Path"></path>
            <path d="M120.997454,96.8004167 C119.783157,96.8004167 118.797539,97.7860339 118.797539,99.0003308 L118.795219,116.950011 C118.797539,117.445011 118.608305,117.911393 118.262836,118.258925 C117.917368,118.606456 117.45975,118.798011 117.024305,118.800073 L116.821922,118.79569 C109.304625,117.979456 102.040243,116.531839 95.2311571,114.492542 C94.0717743,114.14269 92.8420086,114.805011 92.4921571,115.968776 C92.1423055,117.132542 92.8046258,118.357925 93.9683915,118.707776 C101.032711,120.824159 108.563157,122.324628 116.386477,123.173862 C116.566946,123.191394 116.934329,123.200159 116.98718,123.200159 C118.652649,123.193456 120.214477,122.540159 121.387266,121.358862 C122.559797,120.175245 123.202266,118.604393 123.195563,116.941245 L123.197625,99.0003308 C123.197625,97.7860339 122.212008,96.8004167 120.997454,96.8004167 Z" id="Path"></path>
        </g>
    </g>
</svg>