<?xml version="1.0" encoding="UTF-8"?>
<svg width="77px" height="74px" viewBox="0 0 77 74" version="1.1" xmlns="http://www.w3.org/2000/svg" xmlns:xlink="http://www.w3.org/1999/xlink">
    <title>cash-back</title>
    <g id="Page-1" stroke="none" stroke-width="1" fill="none" fill-rule="evenodd">
        <g id="cash-back" fill-rule="nonzero">
            <circle id="Oval" fill="#FFB01A" cx="40.3987437" cy="38.1156318" r="22.575453"></circle>
            <path d="M54.9900097,20.8906821 C58.3267738,24.8257872 60.340513,29.9182411 60.340513,35.4817991 C60.340513,47.9499678 50.2330796,58.0572522 37.76506,58.0572522 C32.201502,58.0572522 27.1090481,56.0435129 23.173943,52.7067488 C27.3149513,57.5904687 33.494431,60.6910848 40.3988926,60.6910848 C52.8670613,60.6910848 62.9743457,50.5836514 62.9743457,38.1156318 C62.9743457,31.2111702 59.8735806,25.0316904 54.9900097,20.8906821 Z" id="Path" fill="#DD9000"></path>
            <circle id="Oval" fill="#FFB01A" cx="40.3987437" cy="38.1156318" r="16.5553918"></circle>
            <path d="M40.3987437,72.8819844 C49.685097,72.8819844 58.4157204,69.2657164 64.9822743,62.6991624 C71.5486792,56.1326085 75.1650962,47.4019852 75.1650962,38.1156318 C75.1650962,28.8292784 71.5486792,20.0986551 64.9822743,13.5321012 C58.4157204,6.96569622 49.685246,3.3494282 40.3987437,3.3494282 L17.3717041,3.37565032 L17.3717041,2.19580414 C17.3717041,1.60059193 16.8892768,1.11816461 16.2940646,1.11816461 C16.0194773,1.11816461 15.7554683,1.22290408 15.5555247,1.41107755 L11.6812072,5.05744141 C11.1761335,5.53286623 11.1761335,6.33562052 11.6812072,6.81104534 L15.5555247,10.4574092 C15.7554683,10.6455827 16.0196263,10.7503221 16.2940646,10.7503221 C16.8892768,10.7503221 17.3717041,10.2678948 17.3717041,9.67268261 L17.3717041,8.49268744 L40.3987437,8.46646533 C56.7473383,8.46646533 70.0479101,21.7670371 70.0479101,38.1156318 C70.0479101,54.4642265 56.7473383,67.7647983 40.3987437,67.7647983 L40.3987437,72.8819844 Z" id="Path" fill="#7C02FF"></path>
            <path d="M64.9822743,60.0522187 C58.4157204,66.6186237 49.685097,70.2350407 40.3987437,70.2350407 L40.3987437,72.8819844 C49.685097,72.8819844 58.4157204,69.2657164 64.9822743,62.6991624 C71.5486792,56.1326085 75.1650962,47.4019852 75.1650962,38.1156318 C75.1650962,37.6729846 75.15422,37.2321253 75.1379802,36.7921599 C74.8110977,45.581932 71.2358017,53.7986913 64.9822743,60.0522187 Z" id="Path" fill="#95D6A4"></path>
            <path d="M20.3547677,19.4638117 C18.9113594,21.0140453 17.6456954,22.7296569 16.5907023,24.5824877 L11.8723605,24.5839776 L11.8723605,25.7639728 C11.8723605,26.0604615 11.7519771,26.331324 11.5563542,26.525457 C11.3622211,26.72108 11.0913586,26.8414633 10.7948699,26.8414633 C10.5193887,26.8414633 10.2561247,26.7361279 10.0558831,26.5479544 L6.18186357,22.9012926 C5.67619393,22.4257188 5.67619393,21.6235604 6.18186357,21.1479866 L10.0558831,17.5013248 C10.2559757,17.3131513 10.5193887,17.2093058 10.7948699,17.2093058 C11.3893372,17.2093058 11.8725095,17.6909882 11.8725095,18.2869453 L11.8725095,19.4669405 L20.3547677,19.4638117 Z" id="Path" fill="#02FF7C"></path>
            <path d="M20.3547677,56.7676009 L11.8723605,56.7646211 L11.8723605,57.9446163 C11.8723605,58.5405734 11.3891882,59.0222558 10.7947209,59.0222558 C10.5192398,59.0222558 10.2559757,58.9184102 10.0557341,58.7302368 L6.18171458,55.0835749 C5.67604494,54.6080011 5.67604494,53.8058428 6.18171458,53.33012 L10.0557341,49.6834582 C10.2558267,49.4952847 10.5192398,49.3899493 10.7947209,49.3899493 C11.0912096,49.3899493 11.3620722,49.5103326 11.5562052,49.7059555 C11.7518281,49.9000886 11.8722115,50.1709511 11.8722115,50.4674398 L11.8722115,51.647435 L16.5905533,51.6489249 C17.6456954,53.5016067 18.9115084,55.2173673 20.3547677,56.7676009 Z" id="Path" fill="#02FF7C"></path>
            <path d="M13.0072119,38.1156318 C13.0072119,38.9779818 13.047886,39.8313924 13.1261053,40.672735 L7.1872433,40.6742249 L7.1872433,41.854071 C7.1872433,42.1520496 7.06685995,42.4199324 6.87123701,42.6155553 C6.67710397,42.8111782 6.40624144,42.9315616 6.10975276,42.9315616 C5.83442055,42.9315616 5.57100749,42.8262261 5.37076589,42.6380527 L1.4967464,38.9928807 C0.99107675,38.5173069 0.99107675,37.7136587 1.4967464,37.2379359 L5.37076589,33.592764 C5.57100749,33.4045905 5.83427156,33.2992551 6.10975276,33.2992551 C6.70422002,33.2992551 7.18739228,33.7824273 7.18739228,34.3768946 L7.18739228,35.5568897 L13.1262543,35.5553999 C13.047886,36.3983813 13.0072119,37.2532818 13.0072119,38.1156318 L13.0072119,38.1156318 Z" id="Path" fill="#7C02FF"></path>
            <g id="Group" fill="#000000">
                <path d="M35.4737537,45.8337239 C36.9185029,46.778912 37.904514,47.0588628 39.1804582,47.1294838 L39.1804582,48.3610292 C39.1804582,48.9782919 39.6806153,49.4784489 40.2978779,49.4784489 C40.9151405,49.4784489 41.4152976,48.9782919 41.4152976,48.3610292 L41.4152976,47.0409841 C43.9481155,46.5482766 45.4274301,44.4619795 45.7550576,42.5130507 C46.1756543,40.0107755 44.8666345,37.835234 42.4202303,36.9703511 C42.0900701,36.8536925 41.7521624,36.7312233 41.4152976,36.6036885 L41.4152976,31.2437988 C42.2678143,31.4444874 42.7760168,31.8762584 42.8196706,31.9145486 C43.27379,32.325908 43.9749336,32.2949183 44.3910606,31.8437787 C44.8095716,31.3901063 44.7809656,30.6831521 44.3272932,30.2647902 C44.2630788,30.2056415 43.1832045,29.2327414 41.4152976,28.9703713 L41.4152976,27.8702344 C41.4152976,27.2529717 40.9151405,26.7528147 40.2978779,26.7528147 C39.6806153,26.7528147 39.1804582,27.2529717 39.1804582,27.8702344 L39.1804582,29.0560401 C39.0103125,29.0932874 38.8376339,29.1363453 38.6610816,29.1895345 C37.0503584,29.6747926 35.8469719,31.0533905 35.5202384,32.7871789 C35.2224088,34.3676572 35.7283764,35.8916687 36.8408794,36.76415 C37.4328139,37.2284006 38.1698639,37.653616 39.1804582,38.1029677 L39.1804582,44.8912177 C38.3020174,44.8278972 37.6930982,44.6148426 36.6971048,43.9633124 C36.1810059,43.6255537 35.4883547,43.7702223 35.150298,44.2867681 C34.8123903,44.803314 34.9572079,45.4958162 35.4737537,45.8337239 L35.4737537,45.8337239 Z M38.2200733,35.0057784 C37.7665499,34.6501409 37.5734598,33.9586816 37.7161915,33.2010711 C37.8447693,32.5189981 38.2972497,31.6988121 39.1803093,31.3731215 L39.1803093,35.6178264 C38.8187122,35.4225014 38.4915318,35.2186841 38.2200733,35.0057784 Z M41.6754329,39.0773577 C43.7696263,39.8176854 43.6404526,41.6104735 43.551059,42.1423653 C43.3761456,43.1836514 42.6487799,44.2875131 41.4152976,44.7216679 L41.4152976,38.9840904 C41.5015624,39.0152291 41.5863373,39.0459209 41.6754329,39.0773577 Z" id="Shape"></path>
                <path d="M64.0922123,38.1159298 C64.0922123,36.8255335 63.9876218,35.5311146 63.7811227,34.2690263 C63.6817468,33.6599581 63.1075421,33.2456189 62.4981759,33.3466336 C61.8891077,33.4461585 61.4761094,34.0205122 61.5757832,34.6295804 C61.703169,35.4087944 61.786752,36.2018644 61.8275751,36.9982121 L58.0353507,36.9982121 C57.8845736,34.593078 57.2507731,32.3171177 56.2296005,30.2661311 L59.5207739,28.3659217 C59.770629,28.8566924 60.0036482,29.3593823 60.2180438,29.8741403 C60.4550858,30.4438753 61.1097447,30.713397 61.6790328,30.476355 C62.2487678,30.239164 62.5184384,29.5852501 62.2812475,29.015366 C58.5912298,20.1503544 50.0019973,14.4221632 40.3987437,14.4221632 C27.3346179,14.4221632 16.706318,25.051208 16.706318,38.1159298 C16.706318,51.1799066 27.3346179,61.8082065 40.3987437,61.8082065 C53.4633164,61.8082065 64.0922123,51.1799066 64.0922123,38.1159298 Z M22.7622856,36.9982121 L18.9699122,36.9982121 C19.1293308,33.9051945 19.946686,30.9833655 21.2844608,28.3700934 L24.5681847,30.2659821 C23.5470122,32.3171177 22.9132117,34.593078 22.7622856,36.9982121 L22.7622856,36.9982121 Z M22.7622856,39.2330515 C22.9130627,41.6381856 23.5468632,43.9141459 24.5680358,45.9651325 L21.2843118,47.8610212 C19.946537,45.2477491 19.1291818,42.3259201 18.9697632,39.2330515 L22.7622856,39.2330515 Z M24.9607715,38.1156318 C24.9607715,29.6031288 31.8862406,22.6776597 40.3987437,22.6776597 C48.9112467,22.6776597 55.8367158,29.6031288 55.8367158,38.1156318 C55.8367158,46.6281348 48.9112467,53.5536039 40.3987437,53.5536039 C31.8862406,53.5536039 24.9607715,46.6281348 24.9607715,38.1156318 Z M41.5161633,20.4791737 L41.5161633,16.6891842 C44.5831078,16.8468149 47.5140251,17.6482282 50.1506886,18.9900258 L48.2482443,22.2849239 C46.1972578,21.2639003 43.9212974,20.6299509 41.5161633,20.4791737 Z M39.281324,20.4791737 C36.8761899,20.6299509 34.6002295,21.2637513 32.549243,22.2849239 L30.6530563,19.000753 C33.2663284,17.6628292 36.1883064,16.845325 39.281324,16.6859064 L39.281324,20.4791737 Z M41.5161633,55.7520899 C43.9212974,55.6013127 46.1972578,54.9675123 48.2483933,53.9463397 L50.144282,57.2299146 C47.5310099,58.5675405 44.609181,59.3848957 41.5163123,59.5443142 L41.5163123,55.7520899 L41.5161633,55.7520899 Z M39.281324,55.7520899 L39.281324,59.5444632 C36.1884553,59.3850447 33.2666264,58.5676895 30.6533543,57.2299146 L32.549094,53.9463397 C34.6002295,54.9675123 36.8761899,55.6013127 39.281324,55.7520899 Z M52.0772691,56.1084723 L50.1821253,52.8260892 C52.1313522,51.5254127 53.8085246,49.8482403 55.1092011,47.8990134 L58.3920311,49.7943062 C56.751212,52.3132681 54.596529,54.4678022 52.0772691,56.1084723 L52.0772691,56.1084723 Z M56.2294516,45.9651325 C57.2506241,43.9141459 57.8844246,41.6381856 58.0352017,39.2330515 L61.82832,39.2330515 C61.6689015,42.3260691 60.8513973,45.248047 59.5134735,47.8613192 L56.2294516,45.9651325 Z M58.4040992,26.4299549 L55.1092011,28.3323991 C53.8085246,26.3831723 52.1313522,24.7058508 50.1821253,23.4053233 L52.0865064,20.1071475 C54.5877386,21.7293428 56.7483813,23.8724048 58.4040992,26.4299549 Z M28.7200693,20.1223444 L30.615511,23.4053233 C28.6662841,24.7059998 26.9891117,26.3831723 25.6884352,28.3323991 L22.4059032,26.4371064 C24.0464243,23.9178465 26.2011074,21.7630144 28.7200693,20.1223444 Z M22.4059032,49.7941572 L25.6882862,47.8990134 C26.9889627,49.8482403 28.6661351,51.5254127 30.615362,52.8260892 L28.7202182,56.1084723 C26.2012563,54.4678022 24.0465732,52.3131191 22.4059032,49.7941572 Z" id="Shape"></path>
                <path d="M14.7903157,11.2713377 C15.1985463,11.6554321 15.732375,11.8669969 16.2936176,11.8669969 C17.5044536,11.8669969 18.4895707,10.8826246 18.4895707,9.67253362 L18.4895707,9.60876621 L40.3984457,9.58448095 C56.1308206,9.58448095 68.9298945,22.3835548 68.9298945,38.1159298 C68.9298945,47.9028872 63.984344,56.9018402 55.7003906,62.1876822 C55.18012,62.5196303 55.027406,63.2104937 55.3595031,63.7306153 C55.5727068,64.0646493 55.9337078,64.2471612 56.3024563,64.2471612 C56.5082105,64.2471612 56.7161996,64.1903962 56.9024362,64.0715028 C65.8330031,58.3729605 71.1647338,48.669884 71.1647338,38.1157808 C71.1647338,21.1512644 57.3629621,7.34949263 40.3972538,7.34949263 L17.3708102,7.37482081 C16.7539945,7.37556576 16.2545824,7.87557381 16.2545824,8.49224048 L16.2545824,9.58045824 L12.4465652,5.9965209 C12.4398607,5.99011436 12.4193002,5.97089474 12.4193002,5.93409439 C12.4193002,5.89610212 12.4407546,5.87583957 12.4464162,5.87047596 L16.2547314,2.28787952 L16.2547314,3.37624628 C16.2547314,3.67273496 16.3725819,3.95715551 16.5823589,4.16693243 C16.7919868,4.37611339 17.0759604,4.49366594 17.3721511,4.49366594 L17.373343,4.49366594 L24.2299791,4.48606749 C24.8472417,4.48532254 25.3469518,3.98456954 25.3462068,3.36745591 C25.3454619,2.75064025 24.8454538,2.25122815 24.2287871,2.25122815 C24.2283402,2.25122815 24.2278932,2.25122815 24.2275952,2.25122815 L18.4895707,2.25763469 L18.4895707,2.19610212 C18.4895707,0.985117178 17.5044536,6.08713727e-15 16.2936176,6.08713727e-15 C15.7337159,6.08713727e-15 15.1998873,0.212011758 14.7904647,0.597000081 L10.9137634,4.24410888 C10.4499597,4.6819884 10.1844606,5.29865507 10.1844606,5.93573327 C10.1844606,6.57221551 10.4511516,7.18769026 10.9148063,7.62407989 L14.7903157,11.2713377 Z" id="Path"></path>
                <path d="M65.7719175,12.7427559 C58.9954377,5.96463719 49.9842675,2.23185955 40.3972538,2.23185955 L29.4420714,2.24541757 C28.8248087,2.24616252 28.3252476,2.74706451 28.3259918,3.36417814 C28.3267375,3.9809938 28.8268946,4.48025691 29.4434123,4.48025691 L29.4447532,4.48025691 L40.3985947,4.46669888 C49.3872675,4.46669888 57.837195,7.96705323 64.1917371,14.3229363 C70.5474712,20.6770315 74.0476766,29.126959 74.0476766,38.1159298 C74.0476766,47.1047516 70.5474712,55.5546791 64.1915881,61.9089233 C58.0998631,68.0006483 50.0842393,71.4691189 41.5160143,71.746984 L41.5160143,68.8624024 C45.1747443,68.7321857 48.7323105,67.9616131 52.1067689,66.5670734 C52.6770999,66.3313723 52.9484094,65.6779053 52.7127084,65.1075743 C52.4768583,64.5372433 51.8235403,64.2663808 51.2532093,64.5016349 C47.807981,65.9255255 44.1559555,66.6473786 40.3985947,66.6473786 C39.781332,66.6473786 39.281175,67.1475356 39.281175,67.7647983 L39.281175,72.8825803 C39.281175,73.499843 39.781332,74 40.3985947,74 C49.9827776,74 58.9939478,70.2672224 65.7719175,63.4894016 C72.5497383,56.7130708 76.2825159,47.7019006 76.2825159,38.1159298 C76.2825159,28.5298099 72.5497383,19.5187888 65.7719175,12.7427559 Z" id="Path"></path>
                <path d="M9.29052509,27.3623299 C9.69979866,27.7468712 10.2339253,27.958734 10.7947209,27.958734 C11.3838246,27.958734 11.9361279,27.7291415 12.3431666,27.318676 C12.7601876,26.9050817 12.9899291,26.3529274 12.9899291,25.7636748 L12.9899291,25.7008013 L16.5910002,25.6996094 C16.9923774,25.6994604 17.3630627,25.4840219 17.5618144,25.135238 C18.5660023,23.3718008 19.7811589,21.7196585 21.1727189,20.225147 C21.4757631,19.8994564 21.5569622,19.4252235 21.379367,19.0175888 C21.2019208,18.6099541 20.7995007,18.3462431 20.3549166,18.3462431 C20.3547677,18.3462431 20.3546187,18.3462431 20.3544697,18.3462431 L12.9899291,18.3487759 L12.9899291,18.2867963 C12.9899291,17.0764073 12.0052589,16.0917371 10.7948699,16.0917371 C10.2331803,16.0917371 9.69920271,16.3031529 9.28992913,16.6875453 L5.4165056,20.3339092 C4.95180801,20.7710437 4.68526617,21.3871144 4.68526617,22.0246396 C4.68526617,22.6621648 4.95180801,23.2783845 5.41605863,23.7150721 L9.29052509,27.3623299 Z M6.94781751,21.9614681 L10.7550898,18.3773818 L10.7550898,19.4666425 C10.7550898,19.7629822 10.8729403,20.0472538 11.0824193,20.2568817 C11.2920472,20.4663606 11.5761698,20.5840622 11.8725095,20.5840622 L11.8729564,20.5840622 L17.9323508,20.5819763 C17.2122856,21.5027301 16.5497302,22.4662439 15.9497503,23.4650681 L11.8722115,23.466409 C11.2550978,23.4665579 10.7550898,23.966715 10.7550898,24.5838286 L10.7550898,25.6717484 L6.94737054,22.0872151 C6.94066602,22.0809576 6.91995651,22.06144 6.91995651,22.0244906 C6.91995651,21.9876903 6.94066602,21.9681727 6.94781751,21.9614681 L6.94781751,21.9614681 Z" id="Shape"></path>
                <path d="M17.5616655,51.0958766 C17.3629137,50.7470927 16.9925264,50.5316542 16.5910002,50.5315052 L12.9897801,50.5303133 L12.9897801,50.4674398 C12.9897801,49.8783362 12.7600387,49.3261818 12.3495732,48.9189941 C11.9359789,48.5019731 11.3838246,48.2722316 10.794572,48.2722316 C10.2339253,48.2722316 9.69979866,48.4840944 9.28963115,48.8695297 L5.41620762,52.5158935 C4.95151003,52.9530281 4.68496819,53.5690988 4.68496819,54.206773 C4.68496819,54.8441492 4.95151003,55.4603688 5.41576065,55.8970565 L9.2903761,59.5444632 C9.69860675,59.9281107 10.2328823,60.1393775 10.794572,60.1393775 C12.0049609,60.1393775 12.9896312,59.1547073 12.9896312,57.9444673 L12.9896312,57.8823387 L20.3541717,57.8850205 L20.3546187,57.8850205 C20.7992027,57.8850205 21.2016228,57.6213095 21.379069,57.2136748 C21.5566643,56.8060401 21.4754651,56.3316582 21.1724209,56.0062656 C19.7807119,54.5110091 18.5657043,52.8590159 17.5616655,51.0958766 Z M11.8728074,55.6470524 C11.8726585,55.6470524 11.8725095,55.6470524 11.8723605,55.6470524 C11.5761698,55.6470524 11.2918982,55.764754 11.0822703,55.9740839 C10.8727913,56.1837118 10.7549408,56.4679834 10.7549408,56.7644721 L10.7549408,57.8538818 L6.94737054,54.2693485 C6.94066602,54.2630909 6.91995651,54.2435733 6.91995651,54.206773 C6.91995651,54.1698236 6.94066602,54.150306 6.94781751,54.1436015 L10.7550898,50.5595152 L10.7550898,51.647286 C10.7550898,52.2643996 11.2550978,52.7645567 11.8720625,52.7647056 L15.9497503,52.7660465 C16.5495812,53.7648707 17.2122856,54.7282355 17.9323508,55.6492873 L11.8728074,55.6470524 Z" id="Shape"></path>
                <path d="M7.66132721,43.4059435 C8.07611339,42.9910083 8.30466296,42.4398969 8.30466296,41.854071 L8.30466296,41.7913465 L13.1262543,41.7900056 C13.4404727,41.7898566 13.7402392,41.6574052 13.951953,41.4251309 C14.1636667,41.1928566 14.2676613,40.8819159 14.2386084,40.5690384 C14.1629218,39.7557059 14.1244826,38.9301562 14.1244826,38.1156318 C14.1244826,37.3003624 14.1629218,36.4739188 14.2386084,35.6589474 C14.2676613,35.3459209 14.1635178,35.0351293 13.951804,34.802855 C13.7399412,34.5705807 13.4401748,34.4382782 13.1259564,34.4382782 C13.1259564,34.4382782 13.1258074,34.4382782 13.1256584,34.4382782 L8.30466296,34.4394701 L8.30466296,34.3771926 C8.30466296,33.1669526 7.31999275,32.1822824 6.10960377,32.1822824 C5.54895707,32.1822824 5.01483047,32.3941451 4.60481195,32.7794314 L0.73123943,36.4241564 C0.266541838,36.861142 -1.45561978e-15,37.4776597 -1.45561978e-15,38.1156318 C-1.45561978e-15,38.7536039 0.266541838,39.3701216 0.730941451,39.8069582 L4.60540791,43.4527261 C5.01483047,43.8374164 5.54895707,44.0492792 6.10960377,44.0492792 C6.69840944,44.0491302 7.25056374,43.8196867 7.66132721,43.4059435 L7.66132721,43.4059435 Z M6.06982363,41.7619957 L2.26210437,38.1791012 C2.25539986,38.1728437 2.23469034,38.1533261 2.23469034,38.1156318 C2.23469034,38.0779375 2.25539986,38.0584199 2.26240235,38.0518644 L6.06982363,34.4692679 L6.06982363,35.5570387 C6.06982363,35.8533784 6.18752517,36.13765 6.3971531,36.3472779 C6.60663204,36.5567569 6.89075461,36.6744584 7.1872433,36.6744584 L7.18754127,36.6744584 L11.9261456,36.6732665 C11.9020093,37.1549489 11.8897922,37.6370782 11.8897922,38.1156318 C11.8897922,38.5934404 11.9020093,39.0748248 11.9261456,39.5554643 L7.18694532,39.5568052 C6.56983168,39.5569542 6.06982363,40.0571112 6.06982363,40.6742249 L6.06982363,41.7619957 Z" id="Shape"></path>
            </g>
        </g>
    </g>
</svg>