<?xml version="1.0" encoding="UTF-8"?>
<svg width="66px" height="74px" viewBox="0 0 66 74" version="1.1" xmlns="http://www.w3.org/2000/svg" xmlns:xlink="http://www.w3.org/1999/xlink">
    <title>trophy</title>
    <g id="Page-1" stroke="none" stroke-width="1" fill="none" fill-rule="evenodd">
        <g id="trophy" fill-rule="nonzero">
            <g id="Group" transform="translate(0.891566, 10.698795)" fill="#FF7C02">
                <path d="M21.5940959,30.313253 C21.4117373,30.313253 21.2267695,30.293715 21.0413667,30.252915 C9.14312061,27.6323768 4.05317036,20.1336522 1.8783484,14.30428 C-0.437083926,8.09793864 0.0314240109,2.52500301 0.0525880452,2.29069032 C0.169280152,0.993997259 1.26560612,0 2.5793708,0 L15.1270339,0 C16.6428716,0 17.8673414,1.23075221 17.7400673,2.72785373 C17.6306232,4.01635805 16.5406754,5.0281694 15.2122698,5.0281694 L6.18957815,5.0281694 C5.59669527,5.0281694 5.13369578,5.53328493 5.18878026,6.11842018 C5.35910724,7.92798652 5.76658738,10.2831811 6.69881961,12.7238545 C9.24966557,19.4032747 14.4455809,23.6493483 22.1421864,25.344416 C23.5098759,25.6456752 24.3722378,26.9886274 24.0682585,28.3440782 C23.8054476,29.5156417 22.7569581,30.313253 21.5940959,30.313253 L21.5940959,30.313253 Z" id="Path"></path>
                <path d="M42.5986752,30.313253 C42.7810338,30.313253 42.9660016,30.293715 43.1514044,30.252915 C55.0497954,27.6325204 60.1397457,20.1336522 62.3144227,14.30428 C64.629855,8.09793864 64.1613471,2.52500301 64.140183,2.29069032 C64.0234909,0.993997259 62.927165,0 61.6134003,0 L49.0657372,0 C47.5498995,0 46.3254297,1.23075221 46.4527038,2.72785373 C46.5621479,4.01635805 47.6520957,5.0281694 48.9805012,5.0281694 L58.0031929,5.0281694 C58.5960758,5.0281694 59.0590753,5.53328493 59.0039908,6.11842018 C58.8336638,7.92798652 58.4261837,10.2831811 57.4939515,12.7238545 C54.9431055,19.4032747 49.7471901,23.6493483 42.0505847,25.344416 C40.6828952,25.6456752 39.8205333,26.9886274 40.1245126,28.3440782 C40.3874685,29.5156417 41.4359579,30.313253 42.5986752,30.313253 Z" id="Path"></path>
            </g>
            <path d="M49.8904863,73.1084337 L16.9769835,73.1084337 C16.4640671,73.1084337 16.0481928,72.679484 16.0481928,72.150441 L16.0481928,66.9338964 C16.0481928,66.4048534 16.4640671,65.9759036 16.9769835,65.9759036 L49.8904863,65.9759036 C50.4034028,65.9759036 50.8192771,66.4048534 50.8192771,66.9338964 L50.8192771,72.150441 C50.8192771,72.679484 50.4034028,73.1084337 49.8904863,73.1084337 Z" id="Path" fill="#5A5A5A"></path>
            <path d="M49.9277108,66.9339163 L49.9277108,72.1504211 C49.9277108,72.6805115 49.536998,73.1084337 49.056017,73.1084337 L46.3614458,73.1084337 C46.8424268,73.1084337 47.2331396,72.6805115 47.2331396,72.1504211 L47.2331396,66.9339163 C47.2331396,66.4053065 46.8424268,65.9759036 46.3614458,65.9759036 L49.056017,65.9759036 C49.536998,65.9759036 49.9277108,66.4053065 49.9277108,66.9339163 Z" id="Path" fill="#444444"></path>
            <path d="M44.5783133,65.9759036 L21.3975904,65.9759036 L21.3975904,62.539123 C21.3975904,60.498021 23.0198026,58.8433735 25.0208939,58.8433735 L40.9550097,58.8433735 C42.956101,58.8433735 44.5783133,60.498021 44.5783133,62.539123 L44.5783133,65.9759036 Z" id="Path" fill="#9C9C9C"></path>
            <path d="M44.5783133,62.5391998 L44.5783133,65.9759036 L41.8277025,65.9759036 L41.8277025,62.5391998 C41.8277025,60.4987957 40.2643152,58.8433735 38.3373494,58.8433735 L41.0879602,58.8433735 C43.0163243,58.8433735 44.5783133,60.4987957 44.5783133,62.5391998 Z" id="Path" fill="#838383"></path>
            <path d="M37.6315355,45.452589 L39.2289157,42.7951807 L26.746988,42.7951807 L28.3443681,45.452589 C29.4593315,47.3072851 30.0588495,49.5322863 30.0588495,51.8146345 C30.0588495,53.2088265 29.8349418,54.5901946 29.3992796,55.8839575 L28.4028472,58.8433735 L37.5727704,58.8433735 L36.576338,55.8839575 C36.1406759,54.5901946 35.9167681,53.2088265 35.9167681,51.8146345 C35.9170541,49.5322863 36.5165721,47.3072851 37.6315355,45.452589 L37.6315355,45.452589 Z" id="Path" fill="#FF7C02"></path>
            <path d="M36.3465947,48.4735725 C36.0567844,49.5470061 35.9061404,50.6737512 35.9061404,51.8149048 C35.9061404,53.2096481 36.1299543,54.5899828 36.5675391,55.8838666 L37.567528,58.8433735 L34.6493394,58.8433735 L33.6493505,55.8838666 C33.2132004,54.5899828 32.9879518,53.2096481 32.9879518,51.8149048 C32.9879518,50.6737512 33.1385958,49.5470061 33.428406,48.4735725 C33.719651,47.4001389 34.1486276,46.3814576 34.7081623,45.4535499 L36.3121618,42.7951807 L39.2289157,42.7951807 L37.6263509,45.4535499 C37.0668162,46.3814576 36.6364049,47.4001389 36.3465947,48.4735725 Z" id="Path" fill="#FE860A"></path>
            <path d="M33.4337349,45.4698795 C22.8470977,45.4698795 14.2650602,36.887842 14.2650602,26.3012048 L14.2650602,7.13253012 L52.6024096,7.13253012 L52.6024096,26.3012048 C52.6024096,36.8876962 44.0203721,45.4698795 33.4337349,45.4698795 Z" id="Path" fill="#FFB01A"></path>
            <path d="M51.7108434,7.13253012 L51.7108434,26.301934 C51.7108434,36.8877615 43.2451856,45.4698795 32.8030089,45.4698795 C32.2650045,45.4698795 31.7313156,45.4465467 31.2048193,45.4027975 C40.900407,44.5803142 48.5159027,36.3423558 48.5159027,26.301934 L48.5159027,7.13253012 L51.7108434,7.13253012 Z" id="Path" fill="#D38D07"></path>
            <path d="M53.9253074,7.13253012 L12.9421624,7.13253012 C12.1955953,7.13253012 11.5903614,6.51305623 11.5903614,5.74892374 L11.5903614,2.27517265 C11.5903614,1.51104016 12.1955953,0.891566265 12.9421624,0.891566265 L53.9253074,0.891566265 C54.6718746,0.891566265 55.2771084,1.51104016 55.2771084,2.27517265 L55.2771084,5.74892374 C55.2771084,6.51305623 54.6720207,7.13253012 53.9253074,7.13253012 Z" id="Path" fill="#FF7C02"></path>
            <path d="M54.3855422,2.27528908 L54.3855422,5.74880731 C54.3855422,6.51322067 53.7806447,7.13253012 53.0340201,7.13253012 L49.9277108,7.13253012 C50.6743355,7.13253012 51.279233,6.51322067 51.279233,5.74880731 L51.279233,2.27528908 C51.279233,1.51237163 50.6743355,0.891566265 49.9277108,0.891566265 L53.0340201,0.891566265 C53.7806447,0.891566265 54.3855422,1.51237163 54.3855422,2.27528908 Z" id="Path" fill="#FE860A"></path>
            <g id="Group">
                <path d="M34.3287646,18.0362526 L35.7148285,20.852773 C35.9325808,21.2953113 36.3536745,21.6021398 36.840627,21.673102 L39.9400317,22.1247454 C41.1664201,22.3035239 41.6561107,23.8148311 40.7686725,24.68242 L38.5260103,26.8748777 C38.1736578,27.2194274 38.0128295,27.7157293 38.0959818,28.2020589 L38.6254472,31.2978034 C38.8349852,32.5228048 37.5529699,33.4568756 36.4559936,32.878483 L33.6838659,31.4168927 C33.2482171,31.1872411 32.7279748,31.1872411 32.2923259,31.4168927 L29.5201983,32.878483 C28.423222,33.4568756 27.1412066,32.5226603 27.3507447,31.2978034 L27.8802101,28.2020589 C27.9633624,27.7155848 27.802534,27.2192829 27.4501816,26.8748777 L25.2075193,24.68242 C24.3200811,23.8149756 24.8097718,22.3035239 26.0361601,22.1247454 L29.1355648,21.673102 C29.6225174,21.6021398 30.043611,21.2954558 30.2613634,20.852773 L31.6474272,18.0362526 C32.1956271,16.9218134 33.7802765,16.9218134 34.3287646,18.0362526 L34.3287646,18.0362526 Z" id="Path" fill="#F9F7F8"></path>
                <path d="M38.5261544,26.8748777 C38.1730814,27.2188493 38.0131177,27.7160184 38.0952612,28.2016253 L38.6255913,31.2973698 C38.8345529,32.5229493 37.5534022,33.4565866 36.455273,32.878483 L35.3153515,32.2772553 C35.560341,31.9217217 35.6785124,31.4693556 35.5949277,30.9779676 L34.9694841,27.3200174 C34.8714883,26.7462497 35.0617154,26.1594746 35.4781975,25.7519116 L38.1284068,23.1620077 C38.4858032,22.812255 38.6544136,22.3728963 38.6630603,21.9378734 L39.9398876,22.1243118 C41.166276,22.3035239 41.6562548,23.8152647 40.7685284,24.68242 L38.5261544,26.8748777 Z" id="Path" fill="#EFEDEF"></path>
                <g fill="#000000" id="Shape">
                    <path d="M65.9210183,12.8671397 C65.7541373,10.9903265 64.2114243,9.57498452 62.3324994,9.57498452 L53.0113715,9.57498452 L53.0113715,8.19736377 L53.1928078,8.19736377 C54.5238211,8.19736377 55.6066744,7.11139626 55.6066744,5.77669969 L55.6066744,2.42066408 C55.6066744,1.08596751 54.5238211,0 53.1928078,0 L25.7583133,0 C25.1614037,0 24.6774775,0.485173402 24.6774775,1.08394415 C24.6774775,1.6827149 25.1614037,2.1678883 25.7583133,2.1678883 L53.1928078,2.1678883 C53.3318754,2.1678883 53.4450029,2.2811966 53.4450029,2.42066408 L53.4450029,5.77669969 C53.4450029,5.91616717 53.3318754,6.02947547 53.1928078,6.02947547 L12.7830958,6.02947547 C12.6440282,6.02947547 12.5309007,5.91616717 12.5309007,5.77669969 L12.5309007,2.42066408 C12.5309007,2.2811966 12.6440282,2.1678883 12.7830958,2.1678883 L20.6906345,2.1678883 C21.2875441,2.1678883 21.7714703,1.6827149 21.7714703,1.08394415 C21.7714703,0.485173402 21.2875441,0 20.6906345,0 L12.7830958,0 C11.4520825,0 10.3692292,1.08596751 10.3692292,2.42066408 L10.3692292,5.77669969 C10.3692292,7.11139626 11.4520825,8.19736377 12.7830958,8.19736377 L12.9645321,8.19736377 L12.9645321,9.57498452 L3.64340421,9.57498452 C1.76447927,9.57498452 0.22176632,10.9903265 0.0548852741,12.8671397 C0.0329803354,13.1125447 -0.452675213,18.9547146 1.93280143,25.4251385 C4.11536917,31.3452079 9.12266522,38.9042008 20.5953769,41.8707392 C22.4423091,43.3342083 24.5512359,44.4794314 26.8392932,45.2215719 L27.3833138,46.1221127 C28.411549,47.8244831 28.9549932,49.837006 28.9549932,51.9420256 C28.9549932,53.2278724 28.7506432,54.4840914 28.3477076,55.6754183 L27.5922754,57.9080542 L25.0788278,57.9080542 C22.4995213,57.9080542 20.4009705,60.0126402 20.4009705,62.599509 L20.4009705,64.8701552 L16.4673047,64.8701552 C15.3572143,64.8701552 14.4540679,65.7760435 14.4540679,66.8893264 L14.4540679,71.9809734 C14.4540679,73.0942563 15.3572143,74 16.4673047,74 L49.508743,74 C50.6188334,74 51.5219798,73.0942563 51.5219798,71.9809734 L51.5219798,66.8893264 C51.5219798,65.7760435 50.6188334,64.8701552 49.508743,64.8701552 L45.5750772,64.8701552 L45.5750772,62.599509 C45.5750772,60.0126402 43.4765264,57.9080542 40.8972199,57.9080542 L38.3837723,57.9080542 L37.6283401,55.6754183 C37.2252604,54.4842359 37.0209104,53.2280169 37.0209104,51.9420256 C37.0209104,49.8371506 37.5643547,47.8246276 38.5925898,46.1221127 L39.1366105,45.2215719 C41.4246678,44.4794314 43.5334504,43.3343528 45.3805268,41.8707392 C56.8532384,38.9042008 61.8605344,31.3452079 64.0431022,25.4251385 C66.4285788,18.9547146 65.9429233,13.1126892 65.9210183,12.8671397 Z M13.3647295,30.1125466 C11.3494752,28.2204137 9.80560933,25.8731688 8.74970482,23.0755812 C8.01603348,21.131708 7.53585417,19.0211965 7.32213691,16.8012789 L12.9645321,16.8012789 L12.9645321,26.1104803 C12.9645321,27.4805857 13.1027349,28.8188954 13.3647295,30.1125466 L13.3647295,30.1125466 Z M3.96044937,24.6734594 C1.74185378,18.6556905 2.18802279,13.2853976 2.20805428,13.0597927 C2.27477788,12.3091252 2.89186306,11.7430173 3.64340421,11.7430173 L12.9645321,11.7430173 L12.9645321,14.6335351 L7.2326437,14.6335351 C6.64870415,14.6335351 6.08839888,14.881686 5.69526287,15.3143965 C5.30169453,15.7476851 5.10714409,16.3309916 5.16147411,16.9148762 C5.38902607,19.3606878 5.9160416,21.6917458 6.72796544,23.8431582 C8.33149342,28.0919302 10.9270845,31.4095219 14.480008,33.771364 C15.1790925,35.463473 16.1024145,37.0396724 17.2129373,38.4625297 C9.38220992,35.2073732 5.69425409,29.3760427 3.96044937,24.6734594 Z M49.3603082,67.0380435 L49.3603082,71.8321117 L16.6155954,71.8321117 L16.6155954,67.0380435 L49.3603082,67.0380435 Z M40.8972199,60.0759425 C42.2845807,60.0759425 43.4134056,61.2080138 43.4134056,62.599509 L43.4134056,64.8701552 L22.5626421,64.8701552 L22.5626421,62.599509 C22.5626421,61.2080138 23.691467,60.0759425 25.0788278,60.0759425 L40.8972199,60.0759425 Z M35.5813813,56.3720331 L36.1010471,57.9080542 L29.8747124,57.9080542 L30.3945224,56.3718885 C30.8735488,54.9556794 31.1165207,53.4653284 31.1165207,51.9420256 C31.1165207,49.8098352 30.6413853,47.751353 29.7378065,45.9255575 C30.7960168,46.0995666 31.8813201,46.1914851 32.9879518,46.1914851 C34.0944394,46.1914851 35.1798868,46.0995666 36.237953,45.9255575 C35.3343743,47.751353 34.8592388,49.8098352 34.8592388,51.9420256 C34.859383,53.465473 35.1022107,54.9558239 35.5813813,56.3720331 L35.5813813,56.3720331 Z M32.9879518,44.0234523 C23.1389438,44.0234523 15.1262036,35.9876684 15.1262036,26.1104803 L15.1262036,8.19736377 L50.8497,8.19736377 L50.8497,26.1104803 C50.8497,35.987813 42.8369599,44.0234523 32.9879518,44.0234523 L32.9879518,44.0234523 Z M62.0155984,24.6734594 C60.2817936,29.3761872 56.5936937,35.2080958 48.762534,38.4632523 C49.8750743,37.0377935 50.7998374,35.4585592 51.4994984,33.7629815 C54.5501935,31.7313811 56.8996423,28.995217 58.5174373,25.5690863 C58.7729469,25.0281259 58.5426568,24.3816616 58.0032477,24.1255617 C57.4639827,23.8694619 56.8195163,24.1001252 56.5638626,24.6412301 C55.5622881,26.7624366 54.2413627,28.5899664 52.6103094,30.1191948 C52.8731687,28.8235202 53.0116598,27.4830426 53.0116598,26.1106248 L53.0116598,16.8014234 L58.6540549,16.8014234 C58.5465478,17.9167297 58.3678496,19.0227863 58.1227161,20.0905435 C57.9888365,20.6739945 58.3518532,21.2558557 58.9336311,21.3899758 C59.5148326,21.5249629 60.0954575,21.1603241 60.2293371,20.5768731 C60.5022841,19.3875696 60.6991404,18.1554864 60.8147177,16.9148762 C60.8690477,16.3309916 60.6744973,15.7476851 60.280929,15.3143965 C59.887793,14.881686 59.3274877,14.6335351 58.7435481,14.6335351 L53.0116598,14.6335351 L53.0116598,11.7430173 L62.3327876,11.7430173 C63.0843288,11.7430173 63.701414,12.3091252 63.7681376,13.0599372 C63.7878808,13.2853976 64.2340498,18.6556905 62.0155984,24.6734594 Z"></path>
                    <path d="M40.0953839,21.0520742 L36.9961233,20.6004308 C36.8610908,20.5806308 36.7445047,20.4956496 36.684122,20.3730916 L35.2980582,17.5565711 C34.8609682,16.668315 33.9758357,16.1165152 32.9880959,16.1165152 C32.0003561,16.1165152 31.1152237,16.668315 30.6781337,17.5565711 L29.2920698,20.3730916 C29.2316872,20.4957941 29.115101,20.5807753 28.9800686,20.6004308 L25.880808,21.0520742 C24.9033001,21.1944322 24.106508,21.8680674 23.8012799,22.8102317 C23.4960519,23.7523959 23.745797,24.7671122 24.453096,25.4586685 L26.6957582,27.6508372 C26.7934657,27.7463688 26.8379962,27.8838129 26.8149383,28.0188001 L26.2854729,31.1145446 C26.1184477,32.0908169 26.5111514,33.0588513 27.3102493,33.6411461 C28.1092032,34.2231519 29.1488231,34.2987389 30.0232913,33.8378459 L32.7952748,32.3762556 C32.9160402,32.3125197 33.0601516,32.3125197 33.180917,32.3762556 L35.9530447,33.8378459 C36.3333547,34.0383033 36.7447929,34.1373035 37.1540694,34.1373035 C37.6859847,34.1373035 38.2144414,33.970087 38.6659425,33.6410016 C39.4650404,33.0587068 39.8577441,32.0905279 39.6907189,31.1144001 L39.1612535,28.0186556 C39.1381957,27.8836684 39.1827261,27.7462243 39.2804337,27.6508372 L41.52324,25.4583795 C42.2305389,24.7669676 42.4802841,23.7521069 42.175056,22.8100871 C41.869828,21.8680674 41.0727476,21.1944322 40.0953839,21.0520742 Z M40.0142491,23.9061715 L37.7714428,26.0986292 C37.1643013,26.692197 36.8873191,27.5469231 37.0305659,28.3851732 L37.5600313,31.4809177 C37.5979326,31.7024759 37.472988,31.8306703 37.3951678,31.887469 C37.3174918,31.9442677 37.1572398,32.024046 36.9587984,31.9191202 L34.1866708,30.4575299 C33.8114046,30.259674 33.3996782,30.1606737 32.9879518,30.1606737 C32.5762254,30.1606737 32.164499,30.259674 31.7892329,30.4575299 L29.0172493,31.9191202 C28.818952,32.0239015 28.6587001,31.9441232 28.5807358,31.887469 C28.5029156,31.8306703 28.3781151,31.7026204 28.4158723,31.4809177 L28.9453377,28.3851732 C29.0887286,27.5469231 28.8117464,26.692197 28.2044608,26.0984846 L25.9617986,23.906316 C25.8012585,23.7493609 25.8270544,23.5720276 25.8568855,23.4802537 C25.8865724,23.3884797 25.9695806,23.2297903 26.1913681,23.1974165 L29.2906287,22.7457731 C30.1299338,22.6233597 30.8549584,22.0951176 31.2302246,21.332599 L32.6162884,18.5160785 C32.7154371,18.3144649 32.8916854,18.2844035 32.9878077,18.2844035 C33.08393,18.2844035 33.2601783,18.3144649 33.359327,18.5160785 L34.7453908,21.332599 C35.120657,22.0951176 35.8456816,22.6235042 36.6849867,22.7457731 L39.7843914,23.1974165 C40.0061789,23.2297903 40.0891871,23.3884797 40.118874,23.4802537 C40.1488492,23.5720276 40.1746451,23.7493609 40.0142491,23.9061715 L40.0142491,23.9061715 Z"></path>
                </g>
            </g>
        </g>
    </g>
</svg>