<?xml version="1.0" encoding="UTF-8"?>
<svg width="124px" height="132px" viewBox="0 0 124 132" version="1.1" xmlns="http://www.w3.org/2000/svg" xmlns:xlink="http://www.w3.org/1999/xlink">
    <title>icon-live-chat</title>
    <g id="Page-1" stroke="none" stroke-width="1" fill="none" fill-rule="evenodd">
        <g id="icon-live-chat" transform="translate(0.017016, 0.000000)" fill="#FF7C02" fill-rule="nonzero">
            <path d="M61.6001719,0 C32.9804063,0 8.80017188,23.1703828 8.80017188,50.6000859 L8.80017188,55.0001719 C8.80017188,56.2167891 9.78578907,57.2000859 11.000086,57.2000859 L19.8,57.2000859 C21.0142969,57.2000859 21.9999141,56.2167891 21.9999141,55.0001719 L21.9999141,50.6000859 C22.0001719,30.6768516 40.5044063,13.2 61.6001719,13.2 C82.6959375,13.2 101.200172,30.6768516 101.200172,50.6000859 L101.200172,55.0001719 C101.200172,56.2167891 102.185789,57.2000859 103.400086,57.2000859 L112.2,57.2000859 C113.414297,57.2000859 114.399914,56.2167891 114.399914,55.0001719 L114.399914,50.6000859 C114.399914,23.1703828 90.2199375,0 61.6001719,0 Z M110.000086,52.8 L105.6,52.8 L105.6,50.6000859 C105.6,27.9422344 85.4501485,8.80017188 61.5999141,8.80017188 C37.7496797,8.80017188 17.600086,27.9422344 17.600086,50.6000859 L17.600086,52.8 L13.2002578,52.8 L13.2002578,50.6000859 C13.2002578,25.5574687 35.3651719,4.40008594 61.6001719,4.40008594 C87.8351719,4.40008594 110.000086,25.5574687 110.000086,50.6000859 L110.000086,52.8 Z" id="Shape"></path>
            <path d="M66.0002578,114.399914 L57.2003438,114.399914 C52.3470235,114.399914 48.4004297,118.346766 48.4004297,123.199828 C48.4004297,128.052891 52.3470235,132 57.200086,132 L66,132 C70.8533203,132 74.7999141,128.053148 74.7999141,123.200086 C74.7999141,118.347023 70.8533203,114.399914 66.0002578,114.399914 Z M66.0002578,127.599914 L57.2003438,127.599914 C54.7738125,127.599914 52.8002578,125.626617 52.8002578,123.199828 C52.8002578,120.773039 54.7735547,118.799742 57.2003438,118.799742 L66.0002578,118.799742 C68.4267891,118.799742 70.4003438,120.773039 70.4003438,123.199828 C70.4003438,125.626617 68.4267891,127.599914 66.0002578,127.599914 Z" id="Shape"></path>
            <path d="M107.800171,101.199914 C106.585875,101.199914 105.600257,102.183211 105.600257,103.399828 L105.600257,107.799914 C105.600257,115.079766 99.6801094,120.999914 92.4002578,120.999914 L72.6002578,120.999914 C71.385961,120.999914 70.4003438,121.983211 70.4003438,123.199828 C70.4003438,124.416445 71.385961,125.399742 72.6002578,125.399742 L92.4002578,125.399742 C102.104578,125.399742 110.000343,117.503977 110.000343,107.799656 L110.000343,103.39957 C110.000343,102.183469 109.014468,101.199914 107.800171,101.199914 Z" id="Path"></path>
            <path d="M24.8580235,52.8 L5.94232032,52.8 C2.66655469,52.8 1.77635684e-15,55.4662969 1.77635684e-15,58.7423203 L1.77635684e-15,99.6579375 C1.77635684e-15,102.933703 2.66629688,105.600258 5.94232032,105.600258 L24.8580235,105.600258 C28.1337891,105.600258 30.8003438,102.933961 30.8003438,99.6579375 L30.8003438,58.7423203 C30.8003438,55.4662969 28.1337891,52.8 24.8580235,52.8 Z M26.4002578,99.6579375 C26.4002578,100.509234 25.7093203,101.200172 24.8580235,101.200172 L5.94232032,101.200172 C5.09102344,101.200172 4.40008594,100.509492 4.40008594,99.6579375 L4.40008594,58.7423203 C4.40008594,57.8910234 5.09102344,57.2000859 5.94232032,57.2000859 L24.8580235,57.2000859 C25.7093203,57.2000859 26.4002578,57.8907656 26.4002578,58.7423203 L26.4002578,99.6579375 Z" id="Shape"></path>
            <path d="M83.600086,61.5999141 L39.6002578,61.5999141 C38.385961,61.5999141 37.4003438,62.5832109 37.4003438,63.7998281 L37.4003438,103.399828 C37.4003438,104.288508 37.9371094,105.093914 38.7577266,105.43268 C39.0304922,105.547148 39.3164063,105.6 39.6002578,105.6 C40.1723438,105.6 40.7354063,105.375703 41.1556406,104.955469 L53.7111094,92.4 L83.6003438,92.4 C84.8146406,92.4 85.8002578,91.4167031 85.8002578,90.2000859 L85.8002578,63.8000859 C85.8002578,62.5834687 84.8146407,61.5999141 83.600086,61.5999141 Z M81.4001719,87.9999141 L52.8002578,87.9999141 C52.2173438,87.9999141 51.6563438,88.2309141 51.244875,88.6444453 L41.8001719,98.0891484 L41.8001719,66 L81.4001719,66 L81.4001719,87.9999141 L81.4001719,87.9999141 Z" id="Shape"></path>
            <path d="M70.400086,70.4000859 L52.8,70.4000859 C51.5857031,70.4000859 50.600086,71.3833828 50.600086,72.6 C50.600086,73.8166172 51.5857032,74.7999141 52.8,74.7999141 L70.400086,74.7999141 C71.6143828,74.7999141 72.6000001,73.8166172 72.6000001,72.6 C72.6002578,71.3833828 71.6146407,70.4000859 70.400086,70.4000859 Z" id="Path"></path>
            <path d="M74.8001719,79.2 L48.4001719,79.2 C47.185875,79.2 46.2002578,80.1832969 46.2002578,81.3999141 C46.2002578,82.6165312 47.185875,83.5998281 48.4001719,83.5998281 L74.8001719,83.5998281 C76.0144688,83.5998281 77.000086,82.6165312 77.000086,81.3999141 C77.000086,80.1832969 76.0144688,79.2 74.8001719,79.2 Z" id="Path"></path>
            <path d="M19.8002578,77.0000859 L11.000086,77.0000859 C9.78578907,77.0000859 8.80017188,77.9833828 8.80017188,79.2 C8.80017188,80.4166172 9.78578907,81.3999141 11.000086,81.3999141 L19.8,81.3999141 C21.0142969,81.3999141 21.9999141,80.4166172 21.9999141,79.2 C21.9999141,77.9833828 21.0145547,77.0000859 19.8002578,77.0000859 Z" id="Path"></path>
            <path d="M19.8002578,66 L11.000086,66 C9.78578907,66 8.80017188,66.9832969 8.80017188,68.1999141 C8.80017188,69.4165312 9.78578907,70.3998281 11.000086,70.3998281 L19.8,70.3998281 C21.0142969,70.3998281 21.9999141,69.4165312 21.9999141,68.1999141 C21.9999141,66.9832969 21.0145547,66 19.8002578,66 Z" id="Path"></path>
            <path d="M19.8002578,87.9999141 L11.000086,87.9999141 C9.78578907,87.9999141 8.80017188,88.9832109 8.80017188,90.1998281 C8.80017188,91.4164453 9.78578907,92.3997422 11.000086,92.3997422 L19.8,92.3997422 C21.0142969,92.3997422 21.9999141,91.4164453 21.9999141,90.1998281 C21.9999141,88.9832109 21.0145547,87.9999141 19.8002578,87.9999141 Z" id="Path"></path>
            <path d="M117.258023,52.8 L98.3423203,52.8 C95.0665547,52.8 92.4,55.4662969 92.4,58.7423203 L92.4,99.6579375 C92.4,102.933703 95.0662969,105.600258 98.3423203,105.600258 L117.258023,105.600258 C120.533789,105.600258 123.200343,102.933961 123.200343,99.6579375 L123.200343,58.7423203 C123.200343,55.4662969 120.533789,52.8 117.258023,52.8 Z M118.800257,99.6579375 C118.800257,100.509234 118.10932,101.200172 117.258023,101.200172 L98.3423203,101.200172 C97.4910235,101.200172 96.800086,100.509492 96.800086,99.6579375 L96.800086,58.7423203 C96.800086,57.8910234 97.4907656,57.2000859 98.3423203,57.2000859 L117.258023,57.2000859 C118.10932,57.2000859 118.800257,57.8907656 118.800257,58.7423203 L118.800257,99.6579375 Z" id="Shape"></path>
            <path d="M112.200257,77.0000859 L103.400343,77.0000859 C102.186047,77.0000859 101.200429,77.9833828 101.200429,79.2 C101.200429,80.4166172 102.186046,81.3999141 103.400343,81.3999141 L112.200257,81.3999141 C113.414554,81.3999141 114.400171,80.4166172 114.400171,79.2 C114.400171,77.9833828 113.414554,77.0000859 112.200257,77.0000859 Z" id="Path"></path>
            <path d="M112.200257,66 L103.400343,66 C102.186047,66 101.200429,66.9832969 101.200429,68.1999141 C101.200429,69.4165312 102.186046,70.3998281 103.400343,70.3998281 L112.200257,70.3998281 C113.414554,70.3998281 114.400171,69.4165312 114.400171,68.1999141 C114.400171,66.9832969 113.414554,66 112.200257,66 Z" id="Path"></path>
            <path d="M112.200257,87.9999141 L103.400343,87.9999141 C102.186047,87.9999141 101.200429,88.9832109 101.200429,90.1998281 C101.200429,91.4164453 102.186046,92.3997422 103.400343,92.3997422 L112.200257,92.3997422 C113.414554,92.3997422 114.400171,91.4164453 114.400171,90.1998281 C114.400171,88.9832109 113.414554,87.9999141 112.200257,87.9999141 Z" id="Path"></path>
        </g>
    </g>
</svg>