<?xml version="1.0" encoding="UTF-8"?>
<svg width="100px" height="50px" viewBox="0 0 100 50" version="1.1" xmlns="http://www.w3.org/2000/svg" xmlns:xlink="http://www.w3.org/1999/xlink">
    <title>jaguar</title>
    <g id="Page-1" stroke="none" stroke-width="1" fill="none" fill-rule="evenodd">
        <g id="Artboard" transform="translate(-1694.000000, -1250.000000)" fill="#000000" fill-rule="nonzero">
            <g id="jaguar" transform="translate(1694.000000, 1250.000000)">
                <path d="M62.4411253,41.749346 L62.4411253,45.570134 C62.4411253,46.5576223 62.3369598,47.3409463 61.8327992,47.9951052 C61.0244754,49.0617592 59.5369931,49.6700853 55.3870423,49.6700853 L55.3453761,49.6700853 C51.220425,49.6700853 49.7204428,49.0617592 48.9121191,47.9951052 C48.412125,47.3409463 48.303793,46.5617889 48.303793,45.570134 L48.303793,41.749346 L51.1620924,41.749346 L51.1620924,45.4618019 C51.1620924,46.4576234 51.2829243,47.0451165 51.6495866,47.5576104 C52.2704126,48.4284334 53.3329,48.7409297 55.2495439,48.7409297 L55.4953743,48.7409297 C57.4953506,48.7409297 58.4786723,48.4284334 59.0953316,47.5576104 C59.4619939,47.0409499 59.5869925,46.4326237 59.5869925,45.4659685 L59.5869925,41.749346 L62.4411253,41.749346 L62.4411253,41.749346 Z M90.8407884,42.7160012 C91.911609,42.7160012 92.3824367,42.816 92.7157661,43.0576638 C93.0240958,43.2909943 93.1324278,43.6451568 93.1324278,44.1951503 L93.1324278,44.3368153 C93.1324278,44.8368093 93.0157626,45.2409712 92.6491002,45.4909682 C92.2907712,45.7409653 91.7907771,45.7951313 90.8782879,45.7951313 L85.2116885,45.7951313 L85.2116885,42.7160012 L90.8366217,42.7160012 L90.8407884,42.7160012 Z M92.2324385,46.7076205 C93.3032591,46.6742875 94.2157483,46.5117895 94.91574,46.1326273 C95.6023924,45.7534532 96.0178679,45.0207347 95.9907273,44.2368165 C95.9907273,43.2118286 95.5282327,42.5535031 94.6949093,42.1868408 C93.9532514,41.8618446 93.0407623,41.749346 91.2157839,41.749346 L82.3617223,41.749346 L82.3617223,49.4200883 L85.2158551,49.4200883 L85.2158551,46.7617865 L88.9658106,46.7617865 L93.2490931,49.4200883 L96.7282185,49.4200883 L92.2282719,46.7076205 L92.2324385,46.7076205 Z M42.3121974,48.3951005 L42.3121974,45.8951301 L45.157997,45.8951301 L45.157997,49.4159217 L36.8914284,49.4159217 C35.3414468,49.4159217 34.1206279,49.2367571 33.1998055,48.8659282 C31.6581571,48.2492689 30.962332,47.115949 30.962332,45.570134 C30.962332,44.1076513 31.7289896,43.0951633 32.6998114,42.5493365 C33.7331325,41.9701767 34.9039519,41.749346 36.8372623,41.749346 L44.8621671,41.749346 L44.8621671,42.7743338 L37.7289184,42.7743338 C36.1997699,42.7743338 35.3706131,43.0034978 34.7372873,43.5201583 C34.1706273,43.9784862 33.8706309,44.665978 33.8706309,45.5826338 C33.8706309,46.5326226 34.1872938,47.2367809 34.7872867,47.6951088 C35.4247791,48.1784364 36.2831023,48.3909338 37.7539181,48.3909338 L42.3121974,48.3951005 L42.3121974,48.3951005 Z M12.4542183,41.749346 L12.4542183,45.4868016 C12.4542183,46.6992872 12.1792215,47.4326119 11.6042284,48.0201049 C10.6000736,49.0492594 8.67509644,49.4200883 5.95012876,49.4200883 L0.20853021,49.4200883 L0.20853021,48.3909338 L5.49596748,48.3909338 C7.11678159,48.3909338 8.21260192,48.1201037 8.87092745,47.4659448 C9.37092151,46.974284 9.59591885,46.2826255 9.59591885,45.2618043 L9.59591885,41.749346 L12.4542183,41.749346 L12.4542183,41.749346 Z M75.2159737,47.7826077 L66.7577407,47.7826077 L65.3535907,49.4200883 L63.7036103,49.4200883 L70.3535314,41.749346 L73.165998,41.749346 L79.828419,49.4200883 L76.6201237,49.4200883 L75.2159737,47.7826077 Z M67.6077306,46.7951194 L74.3659838,46.7951194 L70.9826906,42.8659994 L67.6077306,46.7951194 Z M25.2748995,47.7826077 L16.8166665,47.7826077 L15.4125165,49.4200883 L13.7542028,49.4200883 L20.4082906,41.749346 L23.2207572,41.749346 L29.8831782,49.4200883 L26.6748829,49.4200883 L25.2707329,47.7826077 L25.2748995,47.7826077 Z M17.6666564,46.7951194 L24.4165764,46.7951194 L21.0374498,42.8659994 L17.6624898,46.7951194 L17.6666564,46.7951194 Z M10.7334054,2.99147242 L11.1125675,2.99980566 C11.6674361,2.97173118 12.2106128,2.82990959 12.7083819,2.58314393 C13.2375423,2.32898028 13.3000416,2.25814779 13.262542,2.09981633 L13.2292091,1.94148488 L12.7167152,1.93315164 L11.8708919,1.92898503 C10.8292375,1.92898503 10.2167448,2.52064467 10.2000783,2.70397583 L10.1917451,2.80397465 L10.2500778,2.87480714 C10.3250769,2.96647272 10.4417421,2.97897257 10.7292387,2.99147242" id="Shape"></path>
                <path d="M5.01263988,10.724714 C4.88745571,10.4728618 4.79235784,10.2071472 4.72930991,9.93305674 C4.67931051,9.58722751 4.78347594,9.24556489 4.78347594,9.24139828 C4.90812664,8.79387282 5.12847976,8.37875599 5.42930161,8.02474604 C5.63346585,7.82474842 6.19179256,7.57058476 6.6126209,7.86641459 C6.98761646,8.12891147 7.4334445,9.03306742 7.03761586,10.3372186 C7.00011631,10.4830502 6.56678811,11.3288735 6.20429241,11.4413722 L6.12096007,11.4413722 C5.8161885,11.3883474 5.52380489,11.2795863 5.2584703,11.1205427 L5.16263811,11.0663766 C5.11503865,10.9514505 5.06502819,10.8375378 5.01263988,10.724714 M5.72096481,4.32895655 C5.50907524,4.61080182 5.1947476,4.79790161 4.8459752,4.84978371 C4.79362855,4.86403614 4.74082219,4.87654291 4.68764374,4.88728326 C4.77097608,4.68311902 4.95847386,4.37895596 5.27513677,4.34562302 C5.27930339,4.34562302 5.44180146,4.33312317 5.72513143,4.32895655 M78.0617733,24.9912114 C76.3034608,24.8537131 74.1076535,24.6870484 73.1076654,24.353719 C72.1493434,24.0328895 70.9410244,23.3745639 69.291044,20.9412595 C68.5202198,19.7912731 67.9327268,19.4246108 66.9660716,18.8079515 L66.7994069,18.6996194 L66.5494099,19.0329488 C66.5619097,19.041282 67.353567,19.6787745 67.799395,20.4662651 C68.1785572,21.1454237 68.4493873,21.7120837 68.6827179,22.2120777 C68.866049,22.5912399 69.0243805,22.9204027 69.1910452,23.2120659 C69.62854,23.9870567 70.0827013,24.5370502 70.6576945,24.9995447 C71.4910179,25.6745367 72.045178,25.7953686 72.8743348,25.9287003 C73.6868252,26.0661987 76.3284605,26.0536988 78.8117644,26.0120327 L78.9700958,26.0120327 C81.0575711,26.0120327 82.0325595,26.6786914 82.7825506,27.3161839 C83.1617128,27.6370134 83.7158729,28.316172 84.2450333,28.9703309 C84.6783615,29.5036579 85.0908566,30.0078186 85.4241859,30.3453146 C85.586684,30.503646 85.7408489,30.6661441 85.8950137,30.8286422 C86.5866722,31.5619668 87.2991637,32.3119579 88.7574797,33.0494492 C89.3491394,33.345279 90.1616297,34.0077711 90.1866295,34.5702645 C89.5199707,35.2077569 88.6574809,35.4452541 86.3533416,34.8202615 L85.6116837,34.641097 L86.1658438,35.1910904 C86.8380797,35.8594419 87.7470394,36.235305 88.6949805,36.2369114 L88.7783128,36.2369114 C88.534284,36.3335739 88.2741312,36.3827445 88.0116553,36.3827445 L87.8991566,36.3827445 C86.2825091,36.2910774 84.6450285,34.6869297 83.4408761,33.5161103 C82.9455869,33.0079831 82.4196061,32.5307043 81.8658948,32.0869606 C81.238056,31.5337222 80.5740969,31.0228774 79.8784184,30.5578121 C78.3242702,29.4744916 75.5951359,29.2828272 73.8076571,29.2828272 C72.8535017,29.2828272 72.1701765,29.3411598 72.0910108,29.3453264 L68.1993903,29.5494907 C61.311972,30.0494848 58.078677,24.3578856 57.0245229,22.4787412 C56.722253,21.9161456 56.3738406,21.3795904 55.9828685,20.8745936 C55.5828733,20.3412666 53.4828982,17.6246322 51.3537568,16.7204762 L51.1370927,17.0663054 C51.6287535,17.495467 52.8287393,18.703786 52.9870708,19.5787756 C52.5454093,19.4787768 51.6162537,19.3579449 50.0079394,19.5912755 C41.1997106,20.8454273 37.5539205,19.0079491 36.8997616,18.6162871 C37.1747583,17.1621376 36.5664322,15.7371546 36.1914367,15.0163298 C39.7705609,16.1079835 43.274686,16.3913135 46.1038191,15.8163203 L46.0621529,15.4038252 C45.8704885,15.4038252 38.4539098,15.362159 33.2956377,11.2372079 L33.0039745,11.5288711 C33.041474,11.5705373 36.2414361,15.6371557 35.491445,18.2412915 C35.4831117,18.2662912 35.34978,18.899617 34.5747892,19.4204442 C33.8206315,19.9204383 32.3164826,20.3870994 29.4248503,19.803773 C28.8915233,19.6954409 28.2581975,19.5246096 22.1916028,17.832963 L19.4749683,17.0829719 C17.2124952,16.3996467 16.4666707,17.6037991 16.1458411,18.1121264 L16.1125082,18.1621258 L16.1125082,18.224625 C16.1000084,18.9287834 15.2583517,19.8246061 14.754191,20.1704353 C14.0708658,20.0329369 13.6083712,19.7412737 13.3792073,19.3079455 C12.9542123,18.5287881 13.3792073,17.5163001 13.3792073,17.5038003 L13.0167116,17.3038026 C12.1042224,18.6121204 12.1917214,19.5246096 12.4292186,20.0579366 C12.6063524,20.4513443 12.9040337,20.77821 13.2792085,20.9912589 L12.9333793,21.1245906 C12.5583837,20.870427 11.1417338,19.7496069 12.1250555,18.0162942 C13.7167033,15.2329939 15.341684,14.1996728 18.5791456,13.903843 C19.9749624,13.7663446 21.1041157,13.674679 21.9541056,13.7913443 C22.9249274,13.9246761 23.7582508,14.2455056 24.6374071,14.5830016 C25.824893,15.0413295 27.1665437,15.5538234 29.1623534,15.7496544 L29.2373525,15.3413259 C22.9207608,13.478848 22.1207703,10.0705551 22.0291047,9.07056697 C22.0249381,9.0289008 22.0249381,9.00390109 22.0124382,8.97473477 L21.8874397,9.01640095 L21.6166096,8.97890139 C21.2457806,10.2622195 21.3916122,11.34554 21.6207762,12.1496971 C21.0111842,11.7584421 20.4000757,11.3695549 19.7874646,10.9830443 C17.1458293,9.36639679 15.0833537,9.07473359 14.9958548,9.06640035 C14.2625302,8.96640154 13.8958678,8.03307928 13.8708681,7.99141311 L13.7792026,7.83724827 C12.5292174,5.68727377 11.2500659,5.61644128 11.1958999,5.61644128 L10.7709049,5.60394143 L11.0209019,5.94977066 C11.6458945,6.79976058 11.6708942,8.04557913 11.6708942,8.08307869 C12.0042236,10.4497173 9.38342137,11.1997084 9.26675608,11.2330413 L9.20425683,11.2497078 L9.16259065,11.3038738 C8.68342967,11.9121999 8.33760044,12.3621946 8.07927017,12.695524 C7.41261141,13.5705136 7.4084448,13.5705136 7.20428055,13.6038465 C6.98761646,13.6371795 6.45428945,13.424682 6.12512669,13.2663505 C6.11679345,13.2121845 6.15429301,13.1580185 6.15012639,13.1580185 C6.36919522,12.9840598 6.58050796,12.8005514 6.78345221,12.608025 C8.72926246,10.616382 8.95425979,9.59139412 8.71676261,8.29140955 C8.21676854,5.61644128 6.22929212,5.89977125 6.22929212,5.89977125 C5.64629791,5.94840002 5.12666303,6.28647572 4.8459752,6.79976058 C4.54181214,7.27058832 3.91681955,8.64973863 3.88765323,8.70807127 C3.53349077,9.49972855 3.18349492,9.63722691 3.05432978,9.66639324 C2.97516406,9.67889309 2.83766569,9.67472647 2.78766628,9.67472647 C2.28767221,9.65389338 1.87101049,9.16639917 1.85434402,9.14556608 C1.82934432,9.12473299 1.81267785,9.09556667 1.78767814,9.07056697 C1.33768348,8.59557261 1.65434639,7.95808017 1.67101286,7.92058061 C2.37517117,6.26226695 3.75015486,6.03726962 3.89598646,6.01643654 C4.10431733,5.99143683 4.77097608,5.89143802 4.78347594,5.89143802 C6.71261972,5.56644187 7.61260904,3.61646501 7.65427521,3.53313266 L7.77927373,3.24146946 L7.46677744,3.24146946 C6.24179197,3.2289696 5.61263277,3.30813533 5.57513321,3.31230195 C4.45847979,3.50813296 3.95431911,4.60811991 3.81682074,4.99561531 C3.63348958,5.02061502 3.41682548,5.01228178 3.32099329,4.8706168 C3.21266124,4.71645196 3.25849403,4.45395507 3.33349314,4.34145641 C3.99181866,3.30813533 6.2001258,2.60814364 7.95843827,2.19981515 C7.97510474,2.19564853 9.80008309,1.64982167 13.7083701,1.79565327 L13.6958702,1.82481959 C13.404207,2.3831463 12.0042236,3.85396219 9.65008487,3.33730165 L9.39592122,3.27896901 L9.40008784,3.53729928 C9.40008784,3.67063103 9.50008665,4.81228415 12.2250543,5.21227941 C12.250054,5.21227941 14.6166926,5.67894054 18.5624791,8.85806949 L18.8791421,8.59973922 C18.7958097,8.44140777 16.8624993,4.65811932 13.5208723,3.64146471 C13.4954164,3.63456818 13.4703758,3.62622132 13.4458732,3.61646501 C13.7375364,3.36230136 15.6000143,1.80815313 17.9208201,1.74565387 C18.0124857,1.73732063 26.7040492,0.978996295 31.4831592,7.57475138 L31.8373217,7.35808729 C31.778989,7.25392185 30.6623356,5.09144751 29.6290145,3.70813059 C31.2331622,4.18312495 35.7831082,5.55810864 42.0038677,7.7247496 C42.0580337,7.74558269 47.4246367,9.65389338 50.8245964,10.9997108 L51.4704221,11.258041 C56.6495273,13.2996835 67.4243995,17.549633 74.5118154,21.4204205 C75.8159666,22.1370786 89.1241421,29.0911628 89.2699737,29.1661619 C93.0199292,30.8494753 95.6032319,29.8703202 95.7115639,29.828654 C95.9448945,29.7369885 96.2157246,29.5911569 96.5115544,29.436992 C97.2282126,29.0536632 98.1240353,28.5703356 98.5115307,28.9494978 C98.8656932,29.3078269 98.7740276,29.7536549 98.6865286,29.9869855 L98.682362,30.003652 C98.5240305,30.5453122 97.7032069,31.4203018 96.4823881,31.9577955 C95.2949022,32.4869558 92.7865986,32.6244542 91.3491157,32.3911236 C91.3199493,32.386957 88.5491489,32.082794 86.1241776,29.5453241 C85.6991827,29.099496 85.2241883,28.6286683 84.7366941,28.1328408 C84.3200324,27.7161791 83.8867042,27.2828509 83.4742091,26.857856 C82.6690489,25.9601463 81.5754502,25.3720791 80.3825791,25.1953757 C79.8159191,25.11621 78.9659292,25.0537107 78.0576067,24.9870448 M99.8781811,28.3370051 C99.3865203,27.249518 98.1698681,27.2536846 97.5990415,27.3995162 C97.1924334,27.5229495 96.8073391,27.7084693 96.4573884,27.9495097 C96.0073937,28.2245064 95.4865666,28.5370027 94.8657406,28.7203339 C92.4074364,29.4619917 90.3907937,28.6161684 90.365794,28.6078352 C88.2574857,27.6911794 83.6533736,25.1912091 78.7825981,22.5329073 C74.549315,20.2329345 70.1743669,17.8496295 67.1452361,16.3579805 C67.0660704,16.3246476 59.4703272,12.803856 48.6454556,8.50807364 C48.4287915,8.41640806 26.9290466,-0.720983538 12.7000487,0.0456740341 C12.3750525,0.0540072686 4.90847445,0.291504451 2.48766984,3.70396397 C2.46683675,3.72479705 1.98767577,4.27479053 2.27933898,4.8956165 C2.22100634,4.94561591 0.954354695,6.08726903 0.287695937,7.12892334 C-0.103966083,7.77474901 -0.0997994657,8.39140836 0.325195493,8.84556964 C0.419255773,8.91743513 0.503327039,9.00150639 0.575192527,9.09556667 C0.64602502,9.20806534 0.708524278,9.33723047 0.775190154,9.47056223 C0.900188671,9.72055926 1.02518719,9.97055629 1.19185188,10.1622207 C1.85851064,10.953878 2.59600189,11.2872073 3.35015961,11.1580422 C3.48851371,11.1403725 3.6225782,11.0980363 3.74598824,11.0330437 C4.20431614,11.3830395 4.77930932,11.4247057 4.94597401,11.4288723 C4.96595018,11.5568489 4.99378019,11.6834755 5.02930635,11.8080345 C5.07513914,11.987199 5.13347178,12.18303 5.18763781,12.3413615 L5.05013944,12.5830253 C4.91256733,12.7887271 4.85615406,13.0381331 4.89180798,13.283017 C4.9141425,13.447381 4.99925992,13.5967098 5.12930517,13.6996787 C5.17930457,13.7330117 6.30012461,14.491336 7.41677803,14.5538353 C7.88589688,14.6149771 8.3491681,14.4051329 8.61259718,14.012175 C8.71738463,13.8743878 8.81880236,13.7340701 8.91676024,13.5913467 C9.32092211,13.0246867 9.66675134,12.5371925 10.1125794,12.1330306 C11.6208948,10.7497137 13.7625361,10.3580517 13.8208687,10.3455518 C14.4250282,10.2288866 16.5458364,10.0747217 19.8499639,12.5830253 C19.0124738,12.6788575 18.1083179,12.8455222 17.2999941,12.9913538 L16.7333342,13.0955192 C13.0292114,13.7580114 11.1209008,17.6162989 11.041735,17.778797 C10.5709073,18.7662853 10.4875749,19.6537748 10.8084045,20.4329322 C11.3208984,21.6662509 12.641716,22.1412452 12.7000487,22.1620783 L12.8208806,22.2037445 L12.8625468,22.1579117 C13.7792026,22.0037469 16.016676,21.3662544 17.1999953,18.757952 C17.2166618,18.7121193 17.6791563,17.6079657 18.7791432,17.974628 C19.0041406,18.0454605 19.6707993,18.2746244 20.5707886,18.5871207 C23.2790899,19.520443 27.8082028,21.0745912 29.1081874,21.4204205 C29.3206848,21.4745865 34.2581263,22.7287383 36.328935,20.4287656 C39.6247293,21.4954196 42.6871929,21.8620819 49.9454402,20.9204264 C51.2370915,20.7537617 52.2704126,20.7870946 52.2704126,20.7870946 C53.9620592,20.9162598 55.5328739,22.0537463 56.0162015,22.8162372 C56.2370322,23.1745663 56.4661961,23.570395 56.7078599,23.9828901 C58.5370049,27.1495192 61.2453061,31.8244637 68.1493909,31.8244637 C68.6202186,31.8244637 69.1077128,31.8036306 69.6077069,31.7577978 L73.6034928,31.3953021 C75.9242986,31.2578038 77.9367748,31.1369719 79.936751,32.1952926 L80.2159144,32.3411242 C80.9284059,32.7077866 81.4408999,32.9744501 82.7450511,34.216102 L83.203379,34.6577634 C84.6533618,36.0577468 86.1408441,37.4993964 87.9033232,37.4993964 C88.4137696,37.4923791 88.9167619,37.3758668 89.3783057,37.1577338 C90.311628,36.7244056 91.3074495,35.1535909 91.3491157,35.0827584 L91.3907818,35.0202591 L91.378282,34.94526 C91.3072946,34.3408393 91.0561389,33.7717466 90.6574572,33.3119461 C93.3865915,33.7869404 97.6990403,33.628609 99.4906857,30.4911462 C99.9906798,29.7078221 100.128178,28.903665 99.8781811,28.3370051" id="Shape"></path>
            </g>
        </g>
    </g>
</svg>