<?xml version="1.0" encoding="UTF-8"?>
<svg width="100px" height="41px" viewBox="0 0 100 41" version="1.1" xmlns="http://www.w3.org/2000/svg" xmlns:xlink="http://www.w3.org/1999/xlink">
    <title>Shape</title>
    <g id="Page-1" stroke="none" stroke-width="1" fill="none" fill-rule="evenodd">
        <g id="Artboard" transform="translate(-509.000000, -319.000000)" fill="#000000" fill-rule="nonzero">
            <path d="M526.3125,319 L534.483333,319 L534.483333,340.416991 C534.483333,344.104409 532.904167,351.828842 521.566667,351.828842 C510.233333,351.828842 509,344.628804 509,340.591789 L509,336.638011 L516.908333,336.638011 L516.908333,340.491904 C516.908333,342.864171 518.491667,345.061639 521.479167,345.061639 C524.458333,345.061639 526.304167,343.392729 526.304167,340.583465 L526.304167,319 L526.3125,319 Z M547.1375,327.952186 C553.554167,327.952186 559.179167,330.40769 559.179167,341.732142 L543.970833,341.732142 C543.970833,345.327999 545.466667,346.822111 548.1,346.822111 C550.741667,346.822111 551.620833,344.720366 551.620833,344.720366 L559.095833,344.720366 C559.095833,347.966625 554.616667,352.353238 547.845833,352.265839 C540.116667,352.265839 536.3375,346.564075 536.3375,340.679188 C536.3375,334.798464 539.679167,327.952186 547.145833,327.952186 L547.1375,327.952186 L547.1375,327.952186 Z M571.566667,327.952186 C577.983333,327.952186 583.608333,330.40769 583.608333,341.732142 L568.4,341.732142 C568.4,345.327999 569.895833,346.822111 572.533333,346.822111 C574.017376,346.873365 575.39365,346.050831 576.05,344.720366 L583.516667,344.720366 C583.516667,347.966625 579.029167,352.353238 572.2625,352.265839 C564.529167,352.265839 560.75,346.564075 560.75,340.679188 C560.75,334.798464 564.083333,327.952186 571.554167,327.952186 L571.566667,327.952186 L571.566667,327.952186 Z M585.008333,359.112117 L585.008333,328.83034 L592.570833,328.83034 L592.570833,330.058092 C592.570833,331.901802 593.533333,330.848848 593.620833,330.58665 C593.716667,330.324452 595.5625,328.214383 599.341667,328.214383 C603.120833,328.214383 609,330.85301 609,340.163116 C609,347.350668 605.4875,352.615436 599.416667,352.615436 C596.083333,352.615436 594.15,351.300284 593.708333,350.771727 C593.270833,350.247331 592.658333,350.159932 592.658333,350.771727 L592.658333,359.112117 L585.008333,359.112117 L585.008333,359.116279 L585.008333,359.112117 Z M551.704167,337.170731 C551.704167,334.977425 550.479167,332.867356 547.6625,332.867356 C544.941667,332.867356 543.970833,334.798464 543.970833,337.170731 L551.704167,337.170731 Z M576.1375,337.170731 C576.1375,334.977425 574.908333,332.867356 572.095833,332.867356 C569.370833,332.867356 568.404167,334.798464 568.404167,337.170731 L576.1375,337.170731 Z M592.479167,340.416991 C592.395833,344.895164 593.358333,347.263269 597.05,347.263269 C600.741667,347.263269 601.270833,343.226254 601.270833,340.150631 C601.270833,337.07917 600.5625,334.09927 596.7,334.09927 C594.316667,334.09927 592.558333,335.938817 592.479167,340.416991 L592.479167,340.416991 Z" id="Shape"></path>
        </g>
    </g>
</svg>