<?xml version="1.0" encoding="UTF-8"?>
<svg width="100px" height="100px" viewBox="0 0 100 100" version="1.1" xmlns="http://www.w3.org/2000/svg" xmlns:xlink="http://www.w3.org/1999/xlink">
    <title>mercedes</title>
    <g id="Page-1" stroke="none" stroke-width="1" fill="none" fill-rule="evenodd">
        <g id="Artboard" transform="translate(-610.000000, -1286.000000)" fill="#000000" fill-rule="nonzero">
            <g id="mercedes" transform="translate(610.000000, 1286.000000)">
                <path d="M50,0 C22.3625,0 0,22.3625 0,50 C0,77.6375 22.3625,100 50,100 C77.6375,100 100,77.6375 100,50 C100,22.3625 77.6375,0 50,0 Z M11.4791667,27.8625 C19.3472895,14.2640212 33.7946509,5.81343877 49.5041667,5.62083333 L43.4458333,45.9291667 L11.2791667,71.9416667 C3.54166667,58.2416667 3.54166667,41.4583333 11.4791667,27.8583333 L11.4791667,27.8625 Z M50.2,94.675 C34.5125,94.775 19.9166667,86.5333333 11.7791667,72.9333333 L50,57.15 L88.4208333,72.7333333 C80.3997439,86.2334302 65.9027477,94.5558092 50.2,94.675 L50.2,94.675 Z M88.9166667,71.6416667 L56.3541667,46.425 L50.5958333,5.52083333 C66.2515457,5.71935333 80.6363689,14.1778449 88.4208333,27.7625 C96.3625,41.3625 96.5625,57.9416667 88.9208333,71.6416667 L88.9166667,71.6416667 Z" id="Shape"></path>
            </g>
        </g>
    </g>
</svg>