<?xml version="1.0" encoding="UTF-8"?>
<svg width="100px" height="84px" viewBox="0 0 100 84" version="1.1" xmlns="http://www.w3.org/2000/svg" xmlns:xlink="http://www.w3.org/1999/xlink">
    <title> </title>
    <g id="Page-1" stroke="none" stroke-width="1" fill="none" fill-rule="evenodd">
        <g id="Artboard" transform="translate(-286.000000, -190.000000)" fill="#000000" fill-rule="nonzero">
            <g id="-" transform="translate(286.000000, 190.000000)">
                <path d="M58.1891721,45.0155561 C58.1117428,45.0350013 57.8020254,45.0350013 57.666524,45.0350013 L47.6781384,45.0350013 L47.6781384,47.3684211 L57.8407401,47.3684211 C57.9181694,47.3684211 58.5182468,47.3684211 58.6343909,47.3489759 C60.7056259,47.1545242 61.6541353,45.4239046 61.6541353,43.9071817 C61.6541353,42.3515686 60.6669112,40.6792844 58.7892495,40.5042779 C58.4214602,40.4653876 58.1117428,40.4653876 57.9762414,40.4653876 L51.336675,40.4653876 C51.046315,40.4653876 50.7172403,40.4459424 50.6010962,40.4070521 C50.0784482,40.270936 49.8848748,39.804252 49.8848748,39.4153487 C49.8848748,39.0653358 50.0784482,38.5986518 50.6204536,38.4430905 C50.7753123,38.4042002 50.9495283,38.384755 51.3173177,38.384755 L60.8991992,38.384755 L60.8991992,36.0902256 L51.162459,36.0902256 C50.7559549,36.0902256 50.4462375,36.1096707 50.1945922,36.1485611 C48.5298612,36.381903 47.3684211,37.7236194 47.3684211,39.4347939 C47.3684211,40.8348457 48.2395012,42.4682396 50.1558775,42.7404719 C50.5043096,42.7793622 50.988243,42.7793622 51.2011737,42.7793622 L57.666524,42.7793622 C57.7826681,42.7793622 58.0730281,42.7793622 58.1311001,42.7988074 C58.8666789,42.8960332 59.1183243,43.4404978 59.1183243,43.9266269 C59.1183243,44.3933109 58.8279642,44.8988851 58.1891721,45.0155561 Z" id="path4"></path>
                <path d="M38.6402999,45.0155561 C38.5628706,45.0350013 38.2531532,45.0350013 38.1370092,45.0350013 L28.1292663,45.0350013 L28.1292663,47.3684211 L38.2918679,47.3684211 C38.3692972,47.3684211 38.9693747,47.3684211 39.0855187,47.3489759 C41.1567537,47.1545242 42.1052632,45.4239046 42.1052632,43.9071817 C42.1052632,42.3515686 41.118039,40.6792844 39.2403774,40.5042779 C38.872588,40.4653876 38.5628706,40.4653876 38.4273692,40.4653876 L31.7878028,40.4653876 C31.4974428,40.4653876 31.1683681,40.4459424 31.0522241,40.4070521 C30.529576,40.270936 30.3360026,39.804252 30.3360026,39.4153487 C30.3360026,39.0653358 30.529576,38.5986518 31.0715814,38.4430905 C31.2264401,38.4042002 31.4006561,38.384755 31.7684455,38.384755 L41.350327,38.384755 L41.350327,36.0902256 L31.6135868,36.0902256 C31.2070827,36.0902256 30.8973654,36.1096707 30.64572,36.1485611 C28.9809891,36.381903 27.8195489,37.7236194 27.8195489,39.4347939 C27.8195489,40.8348457 28.690629,42.4682396 30.6070053,42.7404719 C30.9554374,42.7793622 31.4393708,42.7793622 31.6523015,42.7793622 L38.1176519,42.7793622 C38.2337959,42.7793622 38.5241559,42.7793622 38.5822279,42.7988074 C39.3178067,42.8960332 39.5694521,43.4404978 39.5694521,43.9266269 C39.5694521,44.3933109 39.2984494,44.8988851 38.6402999,45.0155561 Z" id="path6"></path>
                <rect id="rect8" x="20.3007519" y="36.0902256" width="2.2556391" height="11.2781955"></rect>
                <polygon id="polygon10" points="14.2857143 47.3684211 14.2857143 36.0902256 11.741683 36.0902256 11.741683 44.5056423 3.26810176 36.0902256 0 36.0902256 0 47.3684211 2.54403131 47.3684211 2.54403131 38.9145778 11.0763209 47.3684211"></polygon>
                <polygon id="polygon12" points="97.4720752 36.0902256 97.4720752 44.5056423 88.9868705 36.0902256 85.7142857 36.0902256 85.7142857 47.3684211 88.2618068 47.3684211 88.2618068 38.9145778 96.7862042 47.3684211 100 47.3684211 100 36.0902256"></polygon>
                <path d="M71.9200524,36.0902256 L64.6616541,47.3684211 L67.795061,47.3684211 L69.0841209,45.3510266 L77.5522522,45.3510266 L78.841312,47.3684211 L81.9548872,47.3684211 L74.6964889,36.0902256 L71.9200524,36.0902256 L71.9200524,36.0902256 Z M76.223529,43.2183525 L70.412844,43.2183525 L73.3281024,38.6840184 L76.223529,43.2183525 Z" id="path14"></path>
                <path d="M14.3942346,29.165762 C19.5826165,14.1003954 33.880371,3.97804451 50,3.97804451 C66.119629,3.97804451 80.4371865,14.1003954 85.6057654,29.165762 L85.6453713,29.2839217 L96.9924812,29.2839217 L96.9924812,27.9250847 L92.279371,27.3736726 C89.3683323,27.0388867 88.7544398,25.7588228 87.9623205,24.1439731 L87.7642906,23.7501073 C80.9520641,9.33461929 66.119629,0 50,0 C33.860568,0 19.0479359,9.33461929 12.2357094,23.7894939 L12.0376795,24.1833597 C11.2455602,25.7982094 10.6316677,27.0782733 7.72062901,27.4130592 L3.0075188,27.9644713 L3.0075188,29.3233083 L14.3348257,29.3233083 L14.3942346,29.165762 Z" id="path16"></path>
                <path d="M85.6255683,54.1550316 L85.5859624,54.2731914 C80.3975806,69.3385579 66.0998261,79.4412155 49.980197,79.4412155 L49.980197,79.4412155 C33.860568,79.4412155 19.5430105,69.3188647 14.3744317,54.2534981 L14.3348257,54.1353383 L3.0075188,54.1353383 L3.0075188,55.4941753 L7.72062901,56.0455874 C10.6316677,56.3803734 11.2455602,57.6604372 12.0376795,59.2752869 L12.2357094,59.6691527 C19.0479359,74.1240273 33.880371,83.4586466 50,83.4586466 L50,83.4586466 C66.119629,83.4586466 80.9520641,74.1240273 87.7642906,59.688846 L87.9623205,59.2949802 C88.7544398,57.6801305 89.3683323,56.4000667 92.279371,56.0652807 L96.9924812,55.5138686 L96.9924812,54.1550316 L85.6255683,54.1550316 Z" id="path18"></path>
            </g>
        </g>
    </g>
</svg>