<?xml version="1.0" encoding="UTF-8"?>
<svg width="269px" height="61px" viewBox="0 0 269 61" version="1.1" xmlns="http://www.w3.org/2000/svg" xmlns:xlink="http://www.w3.org/1999/xlink">
    <title>Group</title>
    <g id="Page-1" stroke="none" stroke-width="1" fill="none" fill-rule="evenodd">
        <g id="Group" fill-rule="nonzero">
            <path d="M9.18425824,61 C14.4324058,61 18.3427903,57.3142077 18.3427903,52.045082 C18.3427903,46.7759563 14.4324058,43.0901639 9.18425824,43.0901639 C3.93611067,43.0901639 0,46.7759563 0,52.045082 C0,57.3142077 3.93611067,61 9.18425824,61 Z M9.18425824,57.0546448 C6.32864853,57.0546448 4.50208737,54.8483607 4.50208737,52.045082 C4.50208737,49.215847 6.32864853,47.0355191 9.18425824,47.0355191 C12.0141417,47.0355191 13.8407029,49.215847 13.8407029,52.045082 C13.8407029,54.8483607 12.0141417,57.0546448 9.18425824,57.0546448 Z M23.4332249,60.6885246 L23.4332249,52.5901639 C23.8962968,52.0191257 24.6680832,51.3702186 25.851489,51.3702186 C27.0863473,51.3702186 27.8838599,51.9153005 27.8838599,53.4467213 L27.8838599,60.6885246 L31.8456968,60.6885246 L31.8456968,51.8114754 C31.8456968,49.5013661 30.5593861,47.8401639 27.7295026,47.8401639 C25.6456793,47.8401639 24.1792851,48.8005464 23.4332249,49.6830601 L23.4332249,48.1516393 L19.4713881,48.1516393 L19.4713881,60.6885246 L23.4332249,60.6885246 Z M37.6821917,60.6885246 L37.6821917,43.3756831 L33.7203548,43.3756831 L33.7203548,60.6885246 L37.6821917,60.6885246 Z M41.5377681,46.568306 C42.7983526,46.568306 43.8016749,45.5560109 43.8016749,44.284153 C43.8016749,43.0122951 42.7983526,42 41.5377681,42 C40.2771836,42 39.2738613,43.0122951 39.2738613,44.284153 C39.2738613,45.5560109 40.2771836,46.568306 41.5377681,46.568306 Z M43.5186865,60.6885246 L43.5186865,48.1516393 L39.5568497,48.1516393 L39.5568497,60.6885246 L43.5186865,60.6885246 Z M49.3551814,60.6885246 L49.3551814,52.5901639 C49.8182533,52.0191257 50.5900397,51.3702186 51.7734455,51.3702186 C53.0083037,51.3702186 53.8058164,51.9153005 53.8058164,53.4467213 L53.8058164,60.6885246 L57.7676532,60.6885246 L57.7676532,51.8114754 C57.7676532,49.5013661 56.4813426,47.8401639 53.6514591,47.8401639 C51.5676358,47.8401639 50.1012416,48.8005464 49.3551814,49.6830601 L49.3551814,48.1516393 L45.3933445,48.1516393 L45.3933445,60.6885246 L49.3551814,60.6885246 Z M65.6107928,61 C67.5145326,61 69.5726297,60.454918 70.8074879,59.3387978 L69.135284,56.8469945 C68.4406763,57.4699454 67.205818,57.9112022 66.0995908,57.9112022 C64.2473035,57.9112022 63.1668025,56.8469945 62.9352666,55.6789617 L71.785084,55.6789617 L71.785084,54.8224044 C71.785084,50.5655738 69.1095578,47.8401639 65.4307093,47.8401639 C61.546051,47.8401639 58.8190724,50.773224 58.8190724,54.4071038 C58.8190724,58.4822404 61.777587,61 65.6107928,61 Z M68.0033306,53.0833333 L62.8838141,53.0833333 C63.0381714,52.1748634 63.707053,50.9289617 65.4307093,50.9289617 C67.2572705,50.9289617 67.9004258,52.2008197 68.0033306,53.0833333 Z M77.2614119,60.6885246 L77.2614119,54.8224044 L79.5253187,54.8224044 L82.4066546,60.6885246 L87.4747187,60.6885246 L83.9759537,54.329235 C85.5709789,53.7581967 87.3975401,52.1489071 87.3975401,49.1379781 C87.3975401,45.9193989 85.2365381,43.3756831 81.4290585,43.3756831 L72.8365032,43.3756831 L72.8365032,60.6885246 L77.2614119,60.6885246 Z M80.760177,51.0327869 L77.2614119,51.0327869 L77.2614119,47.1393443 L80.760177,47.1393443 C81.9178566,47.1393443 82.8954527,47.8920765 82.8954527,49.0860656 C82.8954527,50.2800546 81.9178566,51.0327869 80.760177,51.0327869 Z M91.6904621,61 C93.2854874,61 94.7776078,60.3770492 95.5493942,59.442623 L95.5493942,60.6885246 L99.511231,60.6885246 L99.511231,52.8497268 C99.511231,48.9562842 96.7070738,47.8401639 93.722833,47.8401639 C91.8190932,47.8401639 89.6838175,48.4112022 88.0887922,49.7868852 L89.503734,52.3046448 C90.5070563,51.4480874 91.793367,50.9808743 93.0282252,50.9808743 C94.6232505,50.9808743 95.5493942,51.7076503 95.5493942,52.7978142 L95.5493942,54.3811475 C94.803334,53.4467213 93.3369398,52.9275956 91.6904621,52.9275956 C89.7867223,52.9275956 87.4199107,53.8360656 87.4199107,56.8729508 C87.4199107,59.7021858 89.7867223,61 91.6904621,61 Z M93.3369398,58.3784153 C92.282165,58.3784153 91.3560214,57.9112022 91.3560214,56.9248634 C91.3560214,55.9385246 92.282165,55.4713115 93.3369398,55.4713115 C94.2116311,55.4713115 95.1377747,55.7827869 95.5493942,56.3538251 L95.5493942,57.4699454 C95.1377747,58.0669399 94.2116311,58.3784153 93.3369398,58.3784153 Z M106.06806,61 C107.457275,61 108.71786,60.4289617 109.746908,59.2349727 L109.746908,60.6885246 L113.683019,60.6885246 L113.683019,43.3756831 L109.746908,43.3756831 L109.746908,49.6311475 C108.743586,48.3852459 107.431549,47.8401639 106.06806,47.8401639 C102.955188,47.8401639 100.56265,50.3060109 100.56265,54.4071038 C100.56265,58.6639344 103.00664,61 106.06806,61 Z M107.354371,57.4699454 C105.785072,57.4699454 104.627392,56.2759563 104.627392,54.4071038 C104.627392,52.5382514 105.785072,51.3702186 107.354371,51.3702186 C108.203336,51.3702186 109.232384,51.8114754 109.746908,52.4863388 L109.746908,56.3278689 C109.232384,57.0027322 108.203336,57.4699454 107.354371,57.4699454 Z M127.362654,61 C131.633205,61 134.154374,57.9371585 134.154374,54.4071038 C134.154374,50.8770492 131.633205,47.8401639 127.362654,47.8401639 C123.143555,47.8401639 120.596659,50.8770492 120.596659,54.4071038 C120.596659,57.9371585 123.143555,61 127.362654,61 Z M127.362654,57.4699454 C125.638997,57.4699454 124.687127,56.0942623 124.687127,54.4071038 C124.687127,52.7459016 125.638997,51.3702186 127.362654,51.3702186 C129.112036,51.3702186 130.089632,52.7459016 130.089632,54.4071038 C130.089632,56.0942623 129.112036,57.4699454 127.362654,57.4699454 Z M143.618265,61 C147.888816,61 150.126997,58.5860656 151.233224,56.3538251 L147.425745,54.5368852 C146.859768,55.9125683 145.393374,57.0546448 143.618265,57.0546448 C140.942739,57.0546448 138.96182,54.8743169 138.96182,52.045082 C138.96182,49.215847 140.942739,47.0355191 143.618265,47.0355191 C145.393374,47.0355191 146.859768,48.1775956 147.425745,49.5532787 L151.233224,47.7363388 C150.101271,45.4521858 147.888816,43.0901639 143.618265,43.0901639 C138.473022,43.0901639 134.459733,46.6980874 134.459733,52.045082 C134.459733,57.3661202 138.473022,61 143.618265,61 Z M157.970136,61 C162.240688,61 164.761857,57.9371585 164.761857,54.4071038 C164.761857,50.8770492 162.240688,47.8401639 157.970136,47.8401639 C153.751037,47.8401639 151.204142,50.8770492 151.204142,54.4071038 C151.204142,57.9371585 153.751037,61 157.970136,61 Z M157.970136,57.4699454 C156.24648,57.4699454 155.29461,56.0942623 155.29461,54.4071038 C155.29461,52.7459016 156.24648,51.3702186 157.970136,51.3702186 C159.719519,51.3702186 160.697115,52.7459016 160.697115,54.4071038 C160.697115,56.0942623 159.719519,57.4699454 157.970136,57.4699454 Z M170.521173,61 C171.910389,61 173.170973,60.4289617 174.200022,59.2349727 L174.200022,60.6885246 L178.136132,60.6885246 L178.136132,43.3756831 L174.200022,43.3756831 L174.200022,49.6311475 C173.196699,48.3852459 171.884662,47.8401639 170.521173,47.8401639 C167.408301,47.8401639 165.015763,50.3060109 165.015763,54.4071038 C165.015763,58.6639344 167.459754,61 170.521173,61 Z M171.807484,57.4699454 C170.238185,57.4699454 169.080505,56.2759563 169.080505,54.4071038 C169.080505,52.5382514 170.238185,51.3702186 171.807484,51.3702186 C172.656449,51.3702186 173.685497,51.8114754 174.200022,52.4863388 L174.200022,56.3278689 C173.685497,57.0027322 172.656449,57.4699454 171.807484,57.4699454 Z M186.004998,61 C187.908738,61 189.966835,60.454918 191.201693,59.3387978 L189.529489,56.8469945 C188.834882,57.4699454 187.600023,57.9112022 186.493796,57.9112022 C184.641509,57.9112022 183.561008,56.8469945 183.329472,55.6789617 L192.179289,55.6789617 L192.179289,54.8224044 C192.179289,50.5655738 189.503763,47.8401639 185.824915,47.8401639 C181.940256,47.8401639 179.213278,50.773224 179.213278,54.4071038 C179.213278,58.4822404 182.171792,61 186.004998,61 Z M188.397536,53.0833333 L183.278019,53.0833333 C183.432377,52.1748634 184.101258,50.9289617 185.824915,50.9289617 C187.651476,50.9289617 188.294631,52.2008197 188.397536,53.0833333 Z M197.887153,61 C201.463097,61 203.54692,59.2349727 203.54692,56.8469945 C203.54692,53.5245902 200.408322,53.0054645 198.298773,52.6420765 C196.986736,52.4084699 196.317854,52.2008197 196.317854,51.6297814 C196.317854,51.0846995 196.961009,50.773224 197.887153,50.773224 C199.379273,50.773224 200.794215,51.4221311 201.540275,52.1489071 L203.058122,49.5013661 C201.720359,48.5150273 199.94525,47.8401639 197.861427,47.8401639 C194.414114,47.8401639 192.536101,49.760929 192.536101,51.9672131 C192.536101,54.6792262 194.689488,55.4058911 196.63089,55.7859559 L196.777892,55.8141817 L196.777892,55.8141817 L196.923849,55.8412342 C197.166111,55.8854326 197.403058,55.9254069 197.629891,55.9644809 C198.916202,56.1721311 199.765167,56.4057377 199.765167,57.0546448 C199.765167,57.5997268 199.276369,57.989071 198.092963,57.989071 C196.626569,57.989071 194.64565,57.1584699 193.719507,56.3278689 L192.073029,59.079235 C193.385066,60.2472678 195.674699,61 197.887153,61 Z M206.579258,61 C207.891295,61 208.997522,59.8838798 208.997522,58.5601093 C208.997522,57.2363388 207.891295,56.1202186 206.579258,56.1202186 C205.267221,56.1202186 204.160994,57.2363388 204.160994,58.5601093 C204.160994,59.8838798 205.267221,61 206.579258,61 Z M216.429042,61 C219.104568,61 220.776772,59.7800546 221.522832,58.6898907 L218.950211,56.25 C218.461413,56.9508197 217.6639,57.4699454 216.609125,57.4699454 C214.962648,57.4699454 213.702063,56.3019126 213.702063,54.4071038 C213.702063,52.5122951 214.962648,51.3702186 216.609125,51.3702186 C217.6639,51.3702186 218.461413,51.8374317 218.950211,52.5642077 L221.522832,50.1502732 C220.776772,49.034153 219.104568,47.8401639 216.429042,47.8401639 C212.544384,47.8401639 209.637322,50.4877049 209.637322,54.4071038 C209.637322,58.352459 212.544384,61 216.429042,61 Z M228.259745,61 C232.530296,61 235.051465,57.9371585 235.051465,54.4071038 C235.051465,50.8770492 232.530296,47.8401639 228.259745,47.8401639 C224.040646,47.8401639 221.49375,50.8770492 221.49375,54.4071038 C221.49375,57.9371585 224.040646,61 228.259745,61 Z M228.259745,57.4699454 C226.536088,57.4699454 225.584218,56.0942623 225.584218,54.4071038 C225.584218,52.7459016 226.536088,51.3702186 228.259745,51.3702186 C230.009127,51.3702186 230.986723,52.7459016 230.986723,54.4071038 C230.986723,56.0942623 230.009127,57.4699454 228.259745,57.4699454 Z M238.083803,61 C239.395839,61 240.502067,59.8838798 240.502067,58.5601093 C240.502067,57.2363388 239.395839,56.1202186 238.083803,56.1202186 C236.771766,56.1202186 235.665538,57.2363388 235.665538,58.5601093 C235.665538,59.8838798 236.771766,61 238.083803,61 Z M246.107026,61 C248.190849,61 249.631517,60.0655738 250.403303,59.1830601 L250.403303,60.6885246 L254.36514,60.6885246 L254.36514,48.1516393 L250.403303,48.1516393 L250.403303,56.25 C249.940231,56.8469945 249.168445,57.4699454 248.036492,57.4699454 C246.750181,57.4699454 245.978394,56.9508197 245.978394,55.4453552 L245.978394,48.1516393 L242.016558,48.1516393 L242.016558,57.0806011 C242.016558,59.3907104 243.277142,61 246.107026,61 Z M260.201635,60.6885246 L260.201635,57.6775956 L261.385041,56.25 L264.112019,60.6885246 L269,60.6885246 L264.189198,53.8620219 L268.768464,48.1516393 L263.983388,48.1516393 L260.201635,53.1612022 L260.201635,43.3756831 L256.239798,43.3756831 L256.239798,60.6885246 L260.201635,60.6885246 Z" id="OnlineRadioCodes.co.uk" fill="#FFFFFF"></path>
            <g id="radio" transform="translate(90.000000, 0.000000)">
                <path d="M12.6083125,41.3115294 C6.67939326,36.6233873 3.27908815,29.6229548 3.27908815,22.1053536 C3.27908815,14.5879694 6.67917465,7.58764535 12.6078753,2.89950319 C13.3160491,2.33949028 13.432566,1.31578278 12.8682349,0.613136331 C12.3040132,-0.089618586 11.272412,-0.205352418 10.5642383,0.354660491 C3.85052391,5.66377377 0,13.5915955 0,22.1053536 C0,30.6194371 3.85063321,38.5473673 10.5647848,43.8563721 C11.2725213,44.4161681 12.3042318,44.3008681 12.8687814,43.5978963 C13.4330032,42.8951414 13.3164863,41.8715423 12.6083125,41.3115294 Z" id="Path" fill="#FF7C02"></path>
                <path d="M45.4355273,0.354620011 C44.7272139,-0.205292604 43.6957871,-0.0896655511 43.1314319,0.613099624 C42.5670766,1.3158648 42.6835985,2.33947878 43.3918026,2.89949986 C49.3205389,7.58781892 52.7207712,14.5881367 52.7207712,22.1055222 C52.7207712,29.6230161 49.3205389,36.6233339 43.3916933,41.3115445 C42.6834892,41.8715656 42.5669673,42.895288 43.1313225,43.5979447 C43.6958964,44.3010353 44.7276511,44.4160115 45.435418,43.8564243 C52.149311,38.5472335 56,30.6192961 56,22.1055222 C56,13.5917482 52.149311,5.66381079 45.4355273,0.354620011 Z" id="Path" fill="#FF7C02"></path>
                <path d="M18.2412408,35.1140125 C14.4350562,32.0376209 12.2520688,27.4491549 12.2520688,22.5253445 C12.2520688,17.6014242 14.4350562,13.0129582 18.2413491,9.93645657 C18.9430352,9.3692637 19.0594958,8.33144484 18.5012208,7.61830183 C17.9429457,6.90515881 16.9216423,6.78692489 16.2199561,7.35411776 C11.6348058,11.0602837 9.00502513,16.5898917 9.00502513,22.5253445 C9.00502513,28.4606873 11.6348058,33.9902953 16.2198479,37.6963513 C16.9220752,38.2637641 17.9431622,38.1449803 18.5011125,37.4321672 C19.0592793,36.7191342 18.942927,35.6812054 18.2412408,35.1140125 Z" id="Path" fill="#FF7C02"></path>
                <path d="M40.3429662,7.35407353 C39.6411718,6.78698733 38.6199766,6.90511196 38.0617015,7.61825915 C37.5035347,8.33129635 37.6198871,9.36923128 38.3215733,9.93642746 C42.1277578,13.0128371 44.3107453,17.60122 44.3107453,22.5251692 C44.3107453,27.4491184 42.1277578,32.0376112 38.321465,35.1140209 C37.6197789,35.681217 37.5033183,36.719042 38.0615933,37.4321892 C38.6200848,38.1456663 39.6416047,38.263241 40.3428579,37.6963748 C44.9280083,33.9901871 47.5577889,28.4605467 47.5577889,22.5251692 C47.5577889,16.5897916 44.9280083,11.0601512 40.3429662,7.35407353 Z" id="Path" fill="#FF7C02"></path>
                <path d="M28.281407,12.8715596 C22.7729487,12.8715596 18.2914573,17.2784652 18.2914573,22.6952456 C18.2914573,27.4393 21.7290656,31.4084621 26.2834171,32.321279 L26.3190569,61 L30.279397,61 L30.279397,32.321279 C34.8337485,31.4085931 38.2713568,27.439431 38.2713568,22.6952456 C38.2713568,17.2784652 33.7898653,12.8715596 28.281407,12.8715596 Z M28.281407,28.7084595 C24.9763321,28.7084595 22.2874372,26.044297 22.2874372,22.769622 C22.2874372,19.4949471 24.9763321,16.8307846 28.281407,16.8307846 C31.586482,16.8307846 34.2753769,19.4949471 34.2753769,22.769622 C34.2753769,26.044297 31.586482,28.7084595 28.281407,28.7084595 Z" id="Shape" fill="#FFFFFF"></path>
                <path d="M28.281407,28.7084595 C24.9763321,28.7084595 22.2874372,26.044297 22.2874372,22.769622 C22.2874372,19.4949471 24.9763321,16.8307846 28.281407,16.8307846 C31.586482,16.8307846 34.2753769,19.4949471 34.2753769,22.769622 C34.2753769,26.044297 31.586482,28.7084595 28.281407,28.7084595 Z" id="Path" fill="#FF7C02"></path>
            </g>
        </g>
    </g>
</svg>