<?xml version="1.0" encoding="UTF-8"?>
<svg width="100px" height="111px" viewBox="0 0 100 111" version="1.1" xmlns="http://www.w3.org/2000/svg" xmlns:xlink="http://www.w3.org/1999/xlink">
    <title>peugeot-9</title>
    <g id="Page-1" stroke="none" stroke-width="1" fill="none" fill-rule="evenodd">
        <g id="peugeot-9">
            <path d="M50.0008047,0 C66.0709792,0 82.751061,1.37295446 99.6817352,4.29741595 C99.9343164,11.0897065 100.22115,21.588731 99.7394112,30.4980188 C98.6603614,50.3617727 94.2922315,65.7793905 85.9871056,79.0187994 C77.7082764,92.2197576 64.8887313,103.570664 50.0008047,110.311907 C35.1126572,103.570664 22.2920071,92.2197576 14.0131779,79.0187994 C5.70937789,65.7793905 1.33992216,50.3617727 0.261977228,30.4980188 C-0.221970987,21.588731 0.0657461706,11.0897065 0.318769324,4.29741595 C17.2492225,1.37295446 33.9304092,0 50.0008047,0 Z M50.0008047,2.75032853 C34.731907,2.75032853 18.8822715,4.0547789 2.79596544,6.83317201 C2.66022002,10.4806199 2.51385148,15.2527154 2.49525624,20.241387 L2.49344256,20.9911986 L2.49344256,21.5761351 C2.49675727,24.9925001 2.56526136,28.4718447 2.74204609,31.7275566 C3.76651364,50.600874 7.91808219,65.2496992 15.807764,77.8290381 C23.6738008,90.3714732 35.8551531,101.156668 50.0005837,107.5618 C64.1464563,101.156668 76.3267037,90.3716942 84.1929615,77.8290381 C92.0835272,65.2496992 96.2342118,50.600874 97.2595633,31.7275566 C97.7172148,23.2626615 97.4447453,13.2869198 97.2045391,6.83317201 C81.118012,4.0547789 65.2697024,2.75032853 50.0008047,2.75032853 Z M50.0008047,4.56833856 C65.0522571,4.56833856 80.3352976,5.84914398 95.444868,8.37738668 C95.7763394,17.951606 95.7763394,25.5694813 95.4470778,31.6292201 C94.4400677,50.1810103 90.3766706,64.5549352 82.6569231,76.8622466 C74.9385015,89.168674 63.3635209,99.3342383 50.0008047,105.562365 C36.6367626,99.3342383 25.0628869,89.168674 17.3442443,76.8622466 C9.62471783,64.5549352 5.56043675,50.1812313 4.55431062,31.6292201 C4.22504905,25.5697023 4.22504905,17.951606 4.55652043,8.37738668 C19.6663118,5.84914398 34.9480264,4.56833856 50.0008047,4.56833856 Z M49.8691001,59.68098 C48.8654047,62.009456 45.2930272,71.6303023 43.9728872,77.2918335 C43.7251675,78.3591713 43.7680378,78.6448997 43.9921125,79.2254166 C45.8907806,84.1535121 50.7242962,93.0519717 51.6137444,94.3977455 L51.6137444,94.3977455 L51.4135357,92.8460175 C51.3960782,92.7023799 51.3607213,92.5631619 51.3014984,92.4305734 C50.7684924,91.230647 47.9920881,84.6507191 47.241195,82.1324206 C46.9764598,81.2409835 46.9430917,81.0005563 47.0454059,79.995977 C47.2259473,78.2281297 47.5359835,76.1617371 47.8946355,74.0798758 L47.8946355,74.0798758 L48.0316437,73.2991502 C48.9102639,68.356912 50.0074341,63.5284788 50.2449886,62.6127339 C50.3181333,62.3276685 50.3075262,62.2501042 50.2569216,61.9599563 C50.1663194,61.4472805 49.8691001,59.68098 49.8691001,59.68098 Z M42.8204717,46.0042499 L42.7214722,47.2603055 C42.7142484,47.3463732 42.7178118,47.4330064 42.7320793,47.5181902 C42.7372355,47.5484032 42.7431918,47.5835787 42.7498412,47.6232616 L42.7972022,47.9118053 C42.9321284,48.7501772 43.1749619,50.3978662 43.1652019,51.3186201 C43.1607823,51.6995912 43.1435458,51.8396931 42.9380335,52.2432042 C42.0386412,54.0161342 39.6308331,57.4968046 37.0166288,60.9739394 L37.0166288,60.9739394 L36.4102571,61.7756582 C34.685501,64.0422595 32.9152229,66.2514057 31.4640412,67.9248943 C31.0320235,68.4232062 30.9082742,68.7544566 30.7889445,69.3188419 C30.5916085,70.2542541 30.366429,72.3889298 30.2212445,74.0860633 C30.1436802,74.9978306 30.2029031,75.3096346 30.7812101,76.2733324 C33.099742,80.1318803 40.9841202,89.3737443 43.557222,91.5146075 C43.7262725,91.6558143 43.9081397,91.7789007 44.10194,91.8832037 C44.5724084,92.1373317 45.4671601,92.5910055 46.2176113,92.96822 L46.2176113,92.96822 L46.7073051,93.2137298 L47.2160031,93.4678578 L47.4802963,93.5993415 L47.0991042,92.9268965 C47.0721446,92.8827004 47.0367876,92.8438077 46.9948012,92.8148592 C46.9948012,92.8148592 45.9413852,92.1307023 45.6183111,91.9148039 C45.2824201,91.6913922 45.1659631,91.5943816 45.0066359,91.4496391 C42.8096436,89.4557282 35.0976305,79.9601781 32.7877169,75.8329175 C32.3987905,75.1412472 32.2856483,74.8144164 32.323215,74.1163377 C32.3665273,73.3221322 32.5216559,71.784326 32.6776684,70.8833868 C32.774679,70.3223163 32.902848,69.9521732 33.3788409,69.5183877 C34.6894787,68.3259746 36.8066969,66.1950556 37.9127064,65.067611 C38.3975385,64.5743815 38.6397336,64.2594837 38.8971764,63.7757565 C39.4195753,62.7948222 40.4959734,60.5282209 41.5591126,58.1820665 L41.5591126,58.1820665 L41.9325703,57.3527251 C42.7990365,55.4187001 43.6111414,53.5271034 44.0526613,52.3512639 C44.2345286,51.8602443 44.2464615,51.7221312 44.1764106,51.2094555 C44.1032659,50.6768915 43.9015103,49.8353961 43.6752259,48.9824098 L43.6752259,48.9824098 L43.5501507,48.5181289 C43.1917196,47.2092589 42.8204717,46.0042499 42.8204717,46.0042499 L42.8204717,46.0042499 Z M64.3384888,43.930565 C64.3384888,43.930565 64.8797408,46.3001133 65.3956851,48.7168433 L65.5018853,49.2167679 C65.71282,50.2149163 65.9127311,51.1937196 66.061477,51.9886342 C66.129,52.3508956 66.305197,52.6840205 66.5666394,52.9437138 C68.3941516,54.7575251 69.5993815,56.1700352 70.6072755,57.6620984 C71.0465856,58.3106774 71.2996087,59.0659901 71.3524232,59.8473787 C71.6304172,63.9854674 71.4969447,69.6717484 71.0359785,72.8399519 C70.9431665,73.4827854 70.787154,73.7095118 70.3692791,74.0482756 C68.7625268,75.3507371 66.7283974,77.0551629 64.6909533,78.8070997 L64.6909533,78.8070997 L63.7517844,79.6176577 C61.0995714,81.9163012 58.5529873,84.2023488 57.0602612,85.6813741 C56.7650307,85.9748368 56.656529,86.1065414 56.4755457,86.3805578 C56.1071705,86.9394185 55.7120566,87.7658872 55.7120566,87.7658872 C55.7120566,87.7658872 55.0453571,85.7182779 54.896858,84.6012194 C54.8279119,84.0790415 54.8215035,83.9354039 54.896858,83.4035028 C55.2360637,81.0113843 56.9051326,75.4952586 57.177823,74.6676851 C57.201468,74.5965292 57.21318,74.5220586 57.21318,74.4464832 L57.21318,74.4464832 L57.2120751,73.9285039 C56.6079132,75.1945036 53.5031313,82.1929693 52.846155,84.6001145 C52.707379,85.1072657 52.731024,85.3059275 52.8622866,85.6844679 C53.2651349,86.8457226 54.4389855,89.7180326 54.977516,90.895198 L54.977516,90.895198 L55.1061269,90.6549917 L55.2194901,90.4441759 C55.6254321,89.6910729 56.4521217,88.1740389 56.9935249,87.292325 C57.2008294,86.9557829 57.4530025,86.6490418 57.7430922,86.3805578 C58.8977175,85.3105681 61.6186556,82.9849649 64.4830103,80.6094201 L64.4830103,80.6094201 L65.2321356,79.9895686 L65.2321356,79.9895686 L66.0241103,79.3378707 C68.1314789,77.6087147 70.1788426,75.9690908 71.6023526,74.8964003 C72.1000016,74.5220586 72.2518155,74.2566606 72.3874978,73.7386813 C73.8875163,67.9960501 74.5188588,61.3946871 73.7843182,55.1630251 C73.7529389,54.9064663 73.6669773,54.6819497 73.5410182,54.4574331 C72.8860308,53.2899909 69.6177229,48.8595444 65.5304598,44.5866573 C65.3815082,44.4308873 65.2029179,44.3064676 65.0051882,44.2207129 L65.0051882,44.2207129 Z M30.5595663,50.4923724 C30.3009454,50.4294345 30.0299439,50.4393781 29.7766309,50.5210999 L29.7766309,50.5210999 L29.5633843,50.5891621 C31.3204043,51.186533 33.066091,51.8167336 34.7995272,52.4794328 C34.9654839,52.5432963 35.1453623,52.7353287 35.1968509,52.905926 L35.1968509,52.905926 L35.3736356,53.4884317 C35.4447915,53.7257652 35.4231354,53.9796723 35.3099931,54.2006532 C34.4905959,55.8074055 33.0710144,57.9374406 31.9391502,59.3066384 C31.7699841,59.5123904 31.5497654,59.670125 31.3005153,59.7640689 C30.2062178,60.1742095 28.2127489,60.8347214 27.3460617,61.0579122 C27.1714868,61.1021083 27.0864092,61.0815571 26.9443184,60.9812318 C26.3131969,60.538828 25.0089675,59.3141517 25.0089675,59.3141517 L25.0089675,59.3141517 L25.004754,59.3660792 C24.9845534,59.6173039 24.8983538,60.7159767 24.8924573,61.2424312 C24.8915159,61.3084044 24.9044682,61.3738436 24.9305193,61.4344637 C25.1521632,61.9568625 25.5455092,62.9537075 25.7090351,63.4608587 C25.7496643,63.5867571 25.7866572,63.7138002 25.8199675,63.8418298 C26.0385176,64.7180191 26.6426795,67.2946567 26.6426795,67.2946567 C26.7310718,67.6853509 26.9507269,67.8212542 27.2954571,67.7467836 C27.4992355,67.7019075 27.9108406,67.5929181 28.352098,67.469481 L28.7966404,67.3430675 C29.1643307,67.2367754 29.5113688,67.1319467 29.7346445,67.0573232 C29.8234968,67.0284435 29.9047985,66.9801305 29.972641,66.9158954 C30.3485295,66.572933 30.9763363,65.9913112 30.9763363,65.9913112 C30.9763363,65.9913112 28.8460802,66.5134891 28.0459083,66.665745 C27.7422805,66.7240839 27.5787547,66.560779 27.5345585,66.3559297 C27.431897,65.8805051 27.1879882,64.4158616 27.0591647,63.6543239 L27.0055301,63.3399821 C26.9518318,63.0325977 27.0455277,62.8644312 27.3221958,62.7747129 C27.5929416,62.6868951 27.9006531,62.58573 28.2343874,62.4748984 L28.9333104,62.2414369 C29.4180672,62.0786574 29.9361172,61.9030552 30.4615215,61.7233547 L31.2519011,61.4518208 C31.7781749,61.2702031 32.2988334,61.0888495 32.7879379,60.9164844 C33.2595112,60.7492018 33.4069054,60.56181 33.6718616,60.1375266 C34.0742678,59.4953561 34.7827327,58.2750994 35.4942912,57.0104256 L35.4942912,57.0104256 L35.8810078,56.3191973 C36.3919157,55.4001377 36.875201,54.5093636 37.2139647,53.8510614 C37.3401573,53.6057161 37.3304604,53.3125514 37.1883309,53.0760813 L37.1883309,53.0760813 L36.782389,52.3998797 C36.643171,52.1678497 36.3170032,51.9227819 36.0553618,51.8558247 C34.1909457,51.377843 31.7247987,50.7727972 30.5595663,50.4923724 Z M69.2294595,33.9671982 C68.8137103,33.7911733 68.3464769,33.780346 67.9230203,33.9369238 C66.3799105,34.502414 63.9144264,35.5423502 61.3525946,36.7475802 L61.3525946,36.7475802 L61.4087237,36.7517788 C61.5349038,36.761502 61.856873,36.7864728 62.2002774,36.8158633 L62.2002774,36.8158633 L62.4955079,36.841939 C62.6704345,36.8572865 62.8451695,36.8747452 63.0196746,36.8943115 C63.2952378,36.9267957 63.4006457,36.9201663 63.6680326,36.8479055 C64.4540618,36.6342169 65.8508822,36.2870559 66.9484944,36.0375685 C67.4846063,35.9158491 68.0471286,36.0353972 68.4874055,36.3646202 C69.9938325,37.4889711 72.4151204,39.4431054 73.9635337,40.7466719 C74.2338144,40.9735368 74.5384455,41.1559873 74.8660198,41.2871912 C77.2278639,42.2356413 78.2649273,42.7094244 78.7937347,42.9812309 C79.1652036,43.1721584 79.4323695,43.5144579 79.5368935,43.918853 C80.1496736,46.292851 80.5609191,49.9301969 80.7743867,52.5554503 C80.8137956,53.04101 80.7499307,53.5294111 80.5869948,53.9885115 C79.9211793,55.8723739 78.2693469,59.0038945 77.3452047,60.4992724 C77.2621159,60.6329659 77.1739445,60.7366059 77.0146173,60.87494 C76.6871236,61.1584585 76.1088165,61.6247282 75.6878478,61.9528849 C75.60498,62.0163064 75.5563642,62.1124331 75.5552593,62.2171781 C75.54642,63.1419832 75.3837781,64.8519336 75.3541666,65.1551194 L75.3541666,65.1551194 L75.349747,65.2017464 C77.6176742,62.3541862 79.7726801,58.6629209 81.6877008,54.7405096 C81.8445973,54.4178775 81.904925,54.2366731 81.9374092,53.9343712 C82.3842327,49.7273365 82.1150779,44.7305159 81.4052872,41.497565 C81.3288278,41.1459844 81.2123708,40.9959383 80.920676,40.7778302 C77.8987619,38.5249297 72.4624103,35.3266728 69.2294595,33.9671982 Z M33.7403657,55.1566167 L27.8116685,60.0533329 C28.7831007,59.7565555 30.1023568,59.3099531 30.8941314,59.0129547 C31.0371061,58.9592564 31.1630652,58.870643 31.258087,58.7563959 C31.9817995,57.8799855 32.9390888,56.4771987 33.7403657,55.1566167 L33.7403657,55.1566167 Z M23.150739,53.4225794 C22.2190834,53.5651121 21.3630033,54.1650753 21.0699826,54.8003954 L21.0699826,54.8003954 L22.6778398,56.6908872 Z M31.8112022,34.9185211 C30.6537042,35.5929548 28.5870906,36.8207248 27.5197527,37.4942747 C27.0621013,37.7833177 26.8391315,37.9377834 26.3878885,38.2948886 C26.3372838,38.3346651 26.2930877,38.3810711 26.2533111,38.4307918 C25.9711185,38.7836984 24.8286471,40.2684692 24.4257989,40.8120822 C24.3729844,40.884343 24.3071321,40.9448918 24.2350924,40.9968223 C20.4043881,43.7354388 18.2591053,45.4789783 17.4094337,46.1953984 C17.0624936,46.5343831 16.7332321,46.8643077 16.4304882,47.1785425 C16.1602285,47.4589673 16.096586,47.5648172 16.0793495,47.786903 C16.0654277,47.9747368 16.0515059,48.227097 16.0523346,48.3707346 C16.0510514,48.4471219 16.0740358,48.5219564 16.1180212,48.5844231 C16.1719405,48.6653022 16.4744634,49.0095904 16.5467242,49.0818512 C16.5800923,49.1143354 16.629592,49.1260474 16.6684847,49.0990877 C17.2348588,48.6999962 18.030832,48.1073253 18.7514508,47.5561989 C18.8082429,47.5117818 18.9149767,47.405048 18.9547533,47.3361019 C19.0873796,47.1051529 19.2120854,46.8697449 19.328653,46.6302889 C19.3887598,46.5030039 19.4285364,46.4630063 19.5739418,46.3701943 L19.5739418,46.3701943 L20.0362339,46.0789415 L20.139432,46.0139731 L20.1544587,46.0042499 L20.150923,46.0197186 L20.0881023,46.2675319 C19.980945,46.6824595 19.7645256,47.4759828 19.5955979,47.8118738 C19.5149399,47.9716431 19.4384805,48.0827965 19.3779317,48.146439 C19.152266,48.382093 18.8531639,48.7068112 18.542882,49.0518314 L18.0768562,49.5759928 C17.7709585,49.9241244 17.4850092,50.2581768 17.2812648,50.5093879 C17.1088996,50.7199828 17.1672386,50.9820661 17.3049097,51.1880203 C17.7744942,51.8860991 18.7512298,53.0904451 19.3456685,53.7195778 C19.5286407,53.913599 19.6139393,53.9935941 19.7810009,54.0897208 C20.0240799,54.2300437 20.1986549,54.2859519 20.1986549,54.2859519 C20.1986549,54.2859519 20.6887905,51.93361 20.8965126,51.2021631 C20.9665636,50.9528966 21.1216922,50.7555607 21.4319494,50.6788803 C22.249918,50.4754854 23.3763664,50.2425753 24.5237166,50.0209298 L25.0158795,49.9267474 C27.2288252,49.5071002 29.3667113,49.1510182 29.3667113,49.1510182 C28.7959176,48.4679662 26.8886312,46.500794 26.312755,46.0044709 C26.139064,45.8544249 25.976422,45.7801753 25.7492536,45.7540995 C25.6577963,45.7435501 25.539206,45.7315306 25.4021169,45.7186042 L25.1058316,45.6917086 C24.8952757,45.6731944 24.662066,45.6537348 24.4266688,45.6346644 L24.0744904,45.6065174 C23.3770853,45.5514742 22.7520894,45.5059379 22.7520894,45.5059379 C22.7520894,45.5059379 22.829519,45.4199626 22.9238999,45.3185789 L23.0414229,45.1940389 L23.0414229,45.1940389 L23.0990294,45.13469 C23.2355956,44.9945881 23.3153698,44.9415527 23.4994469,44.8770262 C26.3158487,43.9002906 30.0700935,42.4760685 32.2670859,41.5587767 C32.7441837,41.359231 32.971352,41.2189081 33.3514392,40.8251201 C33.5891081,40.5733204 33.8193224,40.3145872 34.0417836,40.0492561 C34.0804553,40.0028501 34.1021114,39.969703 34.1118346,39.9100381 C34.1246515,39.8408711 34.141888,39.7171218 34.141888,39.7171218 C34.141888,39.7171218 33.203824,40.4216089 32.83346,40.6794937 C32.4931493,40.9179321 32.2734943,41.0270967 31.871751,41.1316206 C31.0985387,41.3333762 29.6455892,41.6787694 28.7819958,41.8716857 C28.5462091,41.9236162 28.4330669,41.926931 28.2198203,41.8480408 C28.0810443,41.7974361 27.8169721,41.6926912 27.6589707,41.6193255 C27.4896993,41.5395514 27.4110301,41.5287233 27.2280579,41.5696048 C26.9613436,41.6300959 26.534487,41.7319193 26.0911593,41.8390036 L25.7578201,41.9197396 C25.0386216,42.0943626 24.3707746,42.2590653 24.3707746,42.2590653 C24.3707746,42.2590653 25.3324836,41.3992285 25.4047444,41.3430994 C25.4962305,41.2730484 25.5393217,41.2491825 25.6944503,41.1877498 C26.4181629,40.8973809 27.3129146,40.5738648 28.0677854,40.2662593 C28.2412555,40.1962084 28.3146211,40.1120147 28.3285429,39.9414174 C28.3769377,39.3597956 28.5417895,38.3099153 28.6410099,37.757463 C28.6699584,37.6010085 28.7194582,37.5148259 28.8443124,37.4153845 C29.2849483,37.0657927 30.9120309,35.8174715 31.2987475,35.5315222 C31.3234973,35.5067723 31.3471423,35.4840113 31.3721131,35.4603663 L31.3721131,35.4603663 Z M55.2809222,33.6924462 L55.1600462,33.7040099 C52.4589965,34.1811077 49.6189497,34.7441671 47.4714571,35.2343028 C47.2956982,35.2739318 47.144603,35.3854296 47.0549081,35.5416873 L47.0549081,35.5416873 L46.3871037,36.7005112 C46.3624982,36.742431 46.3596895,36.7936635 46.3795652,36.8380218 C46.3994409,36.8823801 46.4395456,36.9143844 46.4872081,36.9239229 C47.0502675,37.0297728 48.1984843,37.235727 48.5927143,37.294287 C48.8340254,37.3307488 48.9157884,37.3241194 49.1151132,37.2412515 C50.4761347,36.6757614 52.7011915,35.8092952 54.3554547,35.2082271 C54.4862413,35.1610449 54.6289537,35.1584036 54.7613967,35.2007137 L54.7613967,35.2007137 L55.5206871,35.4446766 C55.6313794,35.48047 55.7244969,35.5567001 55.7814446,35.6581442 C55.9900506,36.0240886 56.2079378,36.4278208 56.3369906,36.6929979 C56.4295816,36.8819366 56.3778721,37.1342968 56.2207547,37.363233 C55.6585792,38.1768847 54.6968702,39.4607839 54.0368002,40.2636076 C53.8918696,40.4404486 53.843125,40.6772319 53.9064215,40.8969389 C54.294022,42.2380721 55.1361803,44.9950301 55.5863184,46.3147281 C55.6402378,46.4756022 55.7231056,46.5984676 55.8490647,46.7151455 L55.8490647,46.7151455 L56.4823961,47.2923477 C56.4823961,47.2923477 55.4764909,42.6276615 55.2354007,41.2918318 C55.1984969,41.0836678 55.2128607,40.871968 55.3310855,40.6973931 C55.8629865,39.9182144 56.8140884,38.4681376 57.2772644,37.6619992 C57.4291788,37.3987569 57.4847294,37.090846 57.4343819,36.7911134 C57.3095277,36.0693897 57.1232407,35.2199391 56.9714268,34.5790944 C56.9422574,34.4582178 56.8615993,34.3581135 56.7517718,34.305078 L56.7517718,34.305078 L55.6327244,33.7687574 C55.485708,33.6986256 55.3205066,33.6759963 55.1600462,33.7040099 Z M31.396863,39.0261144 L30.3370385,39.1167166 C30.2520184,39.1236936 30.1845704,39.1912351 30.1777113,39.2762648 L30.1777113,39.2762648 L30.0776069,40.536519 C30.0754001,40.5675426 30.0879009,40.5977998 30.1113613,40.618219 C30.1348216,40.6386382 30.1665141,40.6468454 30.1969366,40.64038 L30.1969366,40.64038 L31.2686941,40.4017207 C31.396863,40.3738771 31.5528755,40.2552103 31.6034802,40.1330079 C31.7338589,39.8331367 31.7705417,39.482661 31.6359643,39.1684261 C31.5959668,39.0747302 31.4991772,39.0172752 31.396863,39.0261144 L31.396863,39.0261144 Z M43.5894853,30.9280408 L41.357136,30.9592059 C41.1642197,30.9614157 40.9178259,31.0000874 40.7346328,31.0617411 C38.7939783,31.711204 36.0228776,32.9447195 34.4647411,33.7656636 C34.2890613,33.8584756 34.1244305,34.0074167 33.9984714,34.1627663 L33.9984714,34.1627663 L31.639721,37.0722011 C31.5632616,37.1681068 31.4631573,37.2423564 31.3489101,37.2909722 L31.3489101,37.2909722 L29.821711,37.9406561 C29.7487873,37.9720354 29.6895644,38.0290485 29.6559753,38.1015303 L29.6559753,38.1015303 L29.5848194,38.25467 C29.5848194,38.25467 30.6387451,38.22155 31.7448918,38.177864 L32.1601883,38.1610306 C32.8499072,38.1322962 33.5111137,38.1005358 33.8992509,38.0712559 C34.4914798,38.0259548 34.9716713,37.9331428 35.5404762,37.7603357 L35.5404762,37.7603357 L40.4396232,36.2249603 C40.72869,36.1372302 40.9718513,35.9396864 41.1169297,35.6747178 L41.1169297,35.6747178 L43.7295872,31.1675909 C43.7907989,31.0606362 43.7134556,30.9269427 43.5894853,30.9280408 L43.5894853,30.9280408 Z M40.9704194,25.6941145 C40.5848077,25.7288085 40.2758764,25.9153164 40.094893,26.1818194 C39.8827513,26.4894249 39.5380211,27.043866 39.2224603,27.5554368 C39.0686576,27.8055872 38.8812658,28.0303248 38.6602849,28.2232412 C37.6846541,29.0791003 36.0478484,30.460231 35.010564,31.2433874 C34.9210667,31.3103446 34.8759866,31.3450386 34.8048307,31.3936544 L34.4629531,31.6254772 L34.4629531,31.6254772 L34.1195689,31.8550626 L33.7666624,32.0899653 C33.2900065,32.40641 32.8175493,32.7182141 32.6789943,32.8092582 C32.5799948,32.8740056 32.5574548,32.8912421 32.4840891,32.985159 C32.4012213,33.0929977 31.9714134,33.6465549 31.9714134,33.6465549 C32.5990544,33.2930407 33.2516802,32.9265991 33.9145608,32.5557137 L34.5803141,32.1836612 L35.3451291,31.757389 C38.7902216,29.8406005 42.2251491,27.9746376 43.6336814,27.3547861 C43.9129356,27.2313743 44.2113393,27.1569229 44.5158373,27.1346891 C47.7704443,26.889253 51.2814598,26.8099434 54.1243244,26.7957884 L54.722946,26.7937156 L55.3858887,26.7937156 C56.7550018,26.7949585 58.1240603,26.8111648 59.4928191,26.8423314 C59.6851177,26.8467473 59.8761245,26.872567 60.0623304,26.9191836 L60.246806,26.9727101 L61.5068392,27.3947837 C58.5174398,27.5520307 51.4409287,28.1802019 48.232313,28.6933379 L47.9036958,28.7478499 L48.9710336,28.9151324 C49.0466091,28.9268444 49.1206377,28.9301591 49.198423,28.9257395 C51.4371807,28.7867425 55.8214421,28.6464196 57.7461859,28.618355 C58.2155494,28.6108417 58.4601753,28.653933 58.9392619,28.8373471 C60.0594142,29.2658291 62.3081161,30.2876449 63.2364569,30.7589972 C63.722173,31.0060539 64.0602738,31.0893637 64.5568179,31.1099149 C65.563607,31.1507964 67.1027391,31.2577512 68.2407908,31.3795116 C68.5499204,31.4124547 68.8505624,31.5009405 69.1282502,31.6407111 C71.4686591,32.8220751 74.261195,34.4979944 76.1737849,35.7852082 C76.2479248,35.8354502 76.3283287,35.8753491 76.4127636,35.9039765 L76.5421601,35.938348 L77.4877374,36.1261818 C77.4877374,36.1261818 76.7750661,35.3956404 75.9044373,34.5225685 L75.5716306,34.1896339 L75.358995,33.977826 L75.358995,33.977826 L74.930336,33.5533558 C74.288721,32.9208429 73.66757,32.3223368 73.2597095,31.9622383 C73.0873444,31.8102035 72.8999525,31.676289 72.7006278,31.5618209 C68.1837778,28.9732504 64.1214855,26.8626616 61.8321232,25.8980799 C61.4661093,25.742907 61.0772314,25.6484866 60.6808126,25.6185391 C53.692291,25.0886268 46.3767176,25.2183426 40.9704194,25.6941145 Z M17.9479642,13.2486901 C16.4575624,13.4046934 14.9683189,13.5714804 13.4803507,13.7490375 L11.2493696,14.0234492 L11.2493696,20.638955 L11.8298864,20.5657827 L12.4104033,20.4944335 L12.4104033,18.4474872 C14.2540471,18.2209818 16.1010057,18.0114919 17.9481852,17.8183545 C19.2253012,17.6851895 19.9638019,17.1672704 20.0256051,15.9099156 L20.0298254,15.7338415 L20.0296045,14.9847162 C20.0296045,13.6305451 19.2833519,13.110577 17.9479642,13.2486901 Z M79.9280297,13.0343386 L79.9280297,14.1012345 L81.8521935,14.2948414 L83.7748656,14.500547 L83.7748656,20.0502618 L84.3566807,20.114954 L84.9370043,20.1806406 L84.9370043,14.6311467 L86.8454231,14.8544756 L88.7513559,15.0899031 L88.7513559,14.0225653 C85.8150942,13.6512317 82.8736864,13.3217893 79.9280297,13.0343386 Z M31.015008,12.1647787 C28.9134645,12.2941799 26.8133187,12.4450836 24.7149003,12.6174652 L22.6170701,12.7970051 L22.6170701,19.4136158 C24.7142916,19.2265855 26.8133576,19.0610672 28.9139367,18.9170859 L31.015008,18.7802845 L31.015008,17.7140515 C29.3999411,17.8133782 27.7857075,17.9256203 26.1724619,18.0507665 L23.7533539,18.2481624 L23.7533539,16.4604268 C25.1876674,16.3380034 26.6225702,16.2257942 28.0580623,16.1237337 L30.2117423,15.9782464 L30.2117423,14.9109086 C28.775661,15.002984 27.3402671,15.1050771 25.9053644,15.217581 L23.7533539,15.3941938 L23.7533539,13.7649015 C25.3657781,13.6274514 26.9792825,13.5025726 28.593409,13.3901342 L31.015008,13.2307906 L31.015008,12.1647787 Z M68.6891158,13.8108403 L68.6858464,13.9768222 L68.6858464,16.9313371 C68.6858464,18.5033954 69.4924268,18.8098959 71.0755341,18.9166297 C72.5293675,19.0160711 73.9812122,19.1261196 75.4339408,19.2458913 C76.9406482,19.3704055 77.7563816,19.127776 77.8169014,17.7879899 L77.8205347,17.6219025 L77.8205347,14.6676086 C77.8205347,13.1536683 76.8716426,12.7490522 75.4339408,12.6303855 C73.9812122,12.5095089 72.5293675,12.4005653 71.0755341,12.300019 C69.483834,12.1922908 68.743695,12.4705028 68.6891158,13.8108403 Z M57.421786,11.6693395 L57.421786,18.2848453 C59.5255012,18.3358312 61.6286307,18.4080408 63.7308533,18.5014618 L65.8327617,18.6019529 L65.8327617,17.5359409 C64.2173912,17.4525575 62.6015296,17.38204 60.985177,17.3245195 L58.5602797,17.2480028 L58.5602797,15.4609301 C59.9982762,15.5005593 61.4358798,15.5506974 62.8730251,15.6107551 L65.0283912,15.7082077 L65.0283912,14.6408699 C63.5917206,14.5711872 62.1545589,14.5115224 60.7169716,14.461548 L58.5602797,14.3938132 L58.5602797,12.7656258 C60.1771308,12.8103878 61.7935934,12.8678379 63.409518,12.9379704 L65.8329827,13.05268 L65.8329827,11.9866681 C63.0296188,11.8419255 60.2262548,11.7362967 57.421786,11.6693395 Z M42.8293109,11.6635939 L42.2452583,11.67735 L41.6618687,11.6927634 L41.6618687,16.6800818 C41.6618687,16.9834886 41.4316066,17.2488867 41.0846665,17.2586099 C39.2591431,17.3114243 37.4347247,17.3803704 35.6094223,17.465669 C35.2993639,17.4801874 35.0580395,17.2815234 35.0128752,17.0206229 L35.0052604,16.9315581 L35.0052604,11.9442397 L33.8680926,12.0025787 L33.8680926,16.7876995 C33.8680926,18.2866131 34.7747773,18.5692477 36.2586642,18.5025115 C37.651286,18.4399739 39.0436868,18.3880433 40.4363085,18.3449521 C41.9715779,18.2972202 42.7645211,17.9888086 42.8255001,16.6249701 L42.8293109,16.4489358 L42.8293109,11.6635939 Z M70.4285019,13.3240446 C72.3140265,13.4484222 74.1983404,13.5905192 76.0811939,13.7503168 C76.3524701,13.7735861 76.6241042,14.0077109 76.6757183,14.3059337 L76.6844718,14.407514 L76.6844718,17.6802415 C76.6844718,17.9823224 76.3826119,18.2596534 76.0811939,18.2337987 C74.1975525,18.0738085 72.3141321,17.9314968 70.4285019,17.8064216 C70.1170514,17.7851411 69.8757668,17.5250819 69.8306244,17.2522604 L69.8230142,17.1611573 L69.8230142,13.8897557 C69.8230142,13.5430367 70.0824458,13.3003996 70.4285019,13.3240446 Z M49.9487678,11.579924 L47.8583947,11.5875765 C46.4628081,11.5977416 45.7430433,12.0332889 45.6854858,13.3374684 L45.6817326,13.5125413 L45.6817326,16.3956794 C45.6817326,17.9387891 46.488313,18.2130265 48.074956,18.2019774 C49.5194346,18.1932855 50.9639132,18.1942185 52.4084573,18.2054313 L54.5753307,18.230042 L54.5753307,14.3098405 C53.5471802,14.2948138 52.5190296,14.2845013 51.490879,14.279296 L49.9486532,14.2753674 L49.9486532,15.3424843 L51.6924136,15.3463791 L53.436837,15.3610467 L53.436837,17.1490033 C51.4327611,17.1262423 49.42979,17.1229276 47.4254931,17.1403851 C47.1530236,17.1431694 46.8805541,16.9005523 46.8287849,16.6308174 L46.8200053,16.5402009 L46.8200053,13.2254871 C46.8200053,12.9223013 47.1227492,12.6599969 47.4252721,12.6569032 C48.9151254,12.6448229 50.4049788,12.6435461 51.8944393,12.65268 L54.1282863,12.6741397 L54.1282863,11.6081277 L52.0387971,11.586979 L49.9487678,11.579924 Z M18.3260625,14.2777982 C18.5860024,14.2672574 18.8386035,14.4466299 18.8865243,14.6955775 L18.8946465,14.7809718 L18.8946465,16.1210001 C18.8946465,16.4091592 18.5932285,16.6845014 18.2926944,16.7167646 C16.9844874,16.8512684 15.6767714,16.994906 14.3698739,17.1466298 L12.4101823,17.3801494 L12.4101823,14.9449396 C13.7161796,14.7846548 15.0231589,14.6328164 16.3307931,14.4892933 L18.2926944,14.280229 L18.3260625,14.2777982 Z" id="Combined-Shape" fill="#010101" fill-rule="nonzero"></path>
            <g id="Group" transform="translate(16.052284, 30.928034)"></g>
        </g>
    </g>
</svg>