<?xml version="1.0" encoding="UTF-8"?>
<svg width="100px" height="129px" viewBox="0 0 100 129" version="1.1" xmlns="http://www.w3.org/2000/svg" xmlns:xlink="http://www.w3.org/1999/xlink">
    <title>porsche</title>
    <g id="Page-1" stroke="none" stroke-width="1" fill="none" fill-rule="evenodd">
        <g id="porsche" fill="#000000" fill-rule="nonzero">
            <path d="M0.0107140944,6.70166604 L5.53382975,78.6843092 C6.53024053,99.2821557 26.1263192,116.413993 50.0026785,128.57449 C73.8790379,116.413993 93.4751165,99.2821557 94.4822414,78.6843092 L100,6.70702309 C79.6485777,2.1106766 67.3380832,0 50.0026785,0 C32.6619168,0 20.3567793,2.1106766 0.0107140944,6.70166604 Z M2.15353297,8.44270638 C10.8212353,6.33202979 29.4155462,1.98746451 50.0187497,1.98746451 L50.0026785,1.98210746 C70.605882,1.98210746 89.1948358,6.33202979 97.8678952,8.44270638 L96.9411261,20.7478438 C74.7575936,15.2675845 61.5631864,14.3943858 50.0080356,14.3943858 C38.4475277,14.3943858 25.2584775,15.2675845 3.06958804,20.7478438 L2.15353297,8.44270638 Z M3.2463706,22.9549472 C25.4888306,17.2014785 39.04216,16.6604168 48.9955537,16.5211336 L48.9955537,40.9599829 L31.1565865,40.9599829 L31.1512294,40.9867681 L31.1512294,43.0599454 C30.6262673,42.9342319 30.0891917,42.8659748 29.5494723,42.8563776 C29.8816093,40.6064177 31.558365,39.4707237 31.7244335,39.2939412 C31.895859,39.1225157 32.0619275,38.7207371 31.670863,38.7207371 C28.5048481,39.0046606 26.9995179,42.3313869 26.7798789,43.1724433 C26.4959554,43.2260138 24.749558,43.6277924 24.1924251,43.7992179 C24.5299191,40.2742808 26.8870199,38.6403814 27.2245138,38.4207425 C27.5566508,38.1957465 27.6745058,37.8582525 27.2245138,37.8582525 C23.3567258,37.9332512 21.224621,43.7242192 21.0049821,44.6670595 C20.2710666,44.945626 18.5407403,45.7759683 17.9836074,46.1081052 C17.6996839,41.6510419 21.4442599,38.6135962 21.6638989,38.3939573 C21.8835378,38.1689613 22.0710344,37.7778968 21.5514009,37.8903948 C16.7568436,38.5493116 15.321155,46.2634596 15.2300852,47.1848717 C15.1175872,48.0634274 14.3193872,47.7259335 14.1318905,47.6241496 C13.6539124,47.3352536 13.0576459,47.3251573 12.5701611,47.5977056 C12.0826764,47.8702539 11.7790045,48.3834975 11.7747897,48.9419832 C11.7747897,49.0919805 11.801575,49.1937644 11.8444313,49.3223335 C11.2498488,49.5745952 10.8522133,50.1450251 10.8212353,50.7901645 C10.8212353,51.641935 11.5176515,52.32228 12.3801361,52.32228 C12.7121716,52.3340633 13.0379525,52.2298892 13.3015482,52.0276424 C13.5908287,52.3490652 14.0140355,52.552633 14.4747415,52.552633 C15.3372261,52.552633 16.3389939,51.8990732 16.3979215,50.174104 C22.1085338,46.4884556 26.2495313,45.4706166 28.71913,45.4706166 C30.2994589,45.4866877 30.8083784,45.8027535 31.1405153,46.0973911 L31.1405153,53.4419028 C29.4262602,54.1543901 27.4066535,56.3400654 27.1548722,56.6614882 C26.5896731,56.5740626 26.0164129,56.5507009 25.4459742,56.5918466 C25.7031124,54.9043767 26.9566615,53.1794075 27.0798736,53.0561954 C27.2191568,52.9276263 27.3423689,52.6222746 27.0423742,52.6222746 C24.6638453,52.8365565 23.4210103,56.4579204 23.2495848,57.0793379 C23.0353029,57.1168372 21.9799646,57.2989768 21.5514009,57.4221889 C21.8085391,54.7811646 23.0728023,53.3133337 23.3245835,53.1472652 C23.5763647,52.9758397 23.6620775,52.7187015 23.3245835,52.7187015 C20.4210639,52.782986 19.2103712,58.1828896 19.0389457,58.8900198 C18.4871699,59.1043017 17.5711148,59.7846467 17.1479081,60.0257138 C16.9389832,56.6882734 18.4871699,54.0418921 18.6585954,53.8758236 C18.8246638,53.7043981 18.953233,53.4151176 18.5728826,53.4954733 C15.0640167,54.48117 15.1550865,60.9631971 15.0908019,61.6542562 C15.0050892,62.3024589 14.5390261,61.9917501 14.3890288,61.9167515 C14.2091908,61.8099375 14.0035569,61.7543608 13.7943965,61.7560401 C13.4851615,61.7517517 13.1869642,61.8708619 12.965782,62.0870173 C12.7445998,62.3031726 12.6186668,62.5985533 12.6158461,62.9078052 C12.6158461,63.0149462 12.6319173,63.0899448 12.6694166,63.1756576 C12.2206404,63.3635434 11.9202972,63.7932009 11.8980018,64.2792093 C11.8980018,64.9166979 12.4229924,65.4256174 13.0604811,65.4256174 C13.3283334,65.4256174 13.5586865,65.3559758 13.7568972,65.2059785 C13.9711791,65.4577597 14.2872449,65.6024 14.6354529,65.6024 C15.2836556,65.6024 16.0389993,65.1149087 16.0764986,63.8185032 C19.1407296,60.1167836 24.406707,58.3811003 26.2602454,58.3811003 C29.399475,58.3811003 30.4494563,59.2382279 31.1351583,59.7632185 L31.1351583,68.1416403 L6.73916537,68.1416403 L3.2463706,22.9549472 L3.2463706,22.9549472 Z M51.0044463,26.6138105 L96.3839931,26.8763058 L95.2857985,41.1153372 L68.8434135,41.1153372 L68.8434135,40.5099909 L51.0044463,40.5099909 L51.0044463,26.6138105 Z M33.1708362,71.2380136 L33.1708362,42.9474474 L66.8398779,42.9474474 L66.8398779,71.2380136 C66.8398779,78.9307334 60.3042803,87.743076 50.0026785,87.743076 C39.7010768,87.743076 33.1708362,78.9307334 33.1708362,71.2380136 L33.1708362,71.2380136 Z M68.8005571,68.0827128 L68.8434135,54.4115284 L94.2733165,54.3418868 L93.1804789,68.1523544 L68.8005571,68.0827128 Z M61.2685488,86.5645256 L61.5685434,85.9859645 L61.5792575,85.9859645 C66.4809557,82.2574597 68.8434135,76.5200621 68.8434135,72.4754915 L68.8434135,70.0541062 L93.1054803,69.9737505 L92.2162104,81.6467563 C89.1841217,101.264263 68.5862752,116.526491 50.9990893,125.708469 L50.9990893,89.7091123 C53.6790184,89.6090526 56.3076685,88.9445882 58.7132373,87.7591472 L58.6650238,88.2519955 C58.0650346,89.9608936 58.1025339,90.6787379 58.0650346,91.0430171 C57.9846788,91.8144319 57.0257674,91.8894305 56.8329137,91.8037178 C56.4069703,91.5552306 55.8808997,91.5525074 55.4524067,91.7965717 C55.0239137,92.040636 54.757916,92.4945115 54.7543794,92.9876252 C54.7543794,93.1161944 54.7704505,93.2072642 54.8025928,93.3197621 C54.3097445,93.534044 54.0901055,93.9304655 54.0901055,94.4983125 C54.0901055,95.2590132 54.5883109,95.8750737 55.3543687,95.8750737 C55.6704345,95.8750737 55.8740022,95.9072159 56.1097123,95.7304334 C56.3760915,96.0262164 56.756294,96.1938955 57.1543365,96.1911394 C57.9203943,96.1911394 58.3007446,95.9929287 58.3543151,94.4500991 C63.4756522,91.7715755 71.2540847,89.7305405 74.7147372,89.9180372 C78.6146676,90.1162479 81.4485456,93.984036 81.7431832,94.2304602 C82.0485348,94.4822414 82.3056731,94.4822414 82.2521026,94.0858199 C82.0003214,92.4947769 81.5128301,90.1001768 77.7039696,88.0484277 C77.9503937,86.9930894 79.798575,86.8002357 80.1574972,86.6555954 C80.4146355,86.5430974 80.5003482,86.2109605 80.1574972,86.2109605 C77.6075427,85.8841806 75.7861467,86.9930894 75.4379386,87.4430814 C74.5844035,87.306119 73.7199919,87.2487307 72.8558419,87.2716559 C73.1344083,85.9966786 73.8843949,85.0752665 75.0040178,84.1324262 C74.8808057,84.2288531 75.2986554,83.7306477 74.9611614,83.7306477 C72.1487116,83.9824289 70.4023142,86.8538062 70.2041035,87.6037928 C69.9469652,87.6520062 66.8934483,88.1502116 66.3952429,88.3002089 C66.8452349,85.3752612 70.2041035,83.3824396 70.5094552,83.1842289 C70.8094498,82.9913752 70.9058767,82.6913805 70.5094552,82.6913805 C66.2773879,82.8360208 63.1863717,88.2305673 63.0363744,89.3769754 C62.3774575,89.6341137 61.3756897,89.9769647 60.8774843,90.2716023 C60.6953447,88.3269942 60.7328441,87.7270049 61.2685488,86.5645256 L61.2685488,86.5645256 Z M7.81593186,81.83961 L34.4136712,81.8128248 C37.3011196,85.9163229 42.1171051,89.3930466 48.9955537,89.7091123 L48.9955537,95.4840092 L13.0069106,95.4947233 C10.4194568,91.2197996 8.58198961,86.6663095 7.81593186,81.83961 L7.81593186,81.83961 Z M48.9955537,109.449831 L48.9955537,125.687041 C40.976054,121.49783 32.3190657,116.05507 25.0066963,109.498045 L25.0013393,109.498045 L48.9955537,109.449831 Z M46.7188086,4.07135587 C46.2152462,4.07135587 44.5277763,4.17849681 44.5331206,6.70702309 C44.5492045,9.23554937 46.3384582,9.27840574 46.7134515,9.27840574 L53.6508277,9.27840574 C53.8515863,9.27553747 54.0451124,9.35328564 54.188088,9.49424749 C54.3310636,9.63520935 54.4115489,9.82761321 54.4115284,10.0283924 C54.4115284,10.4301709 54.0793914,10.6980232 53.6508277,10.6980232 L44.7849146,10.6980232 L44.7849146,12.5569186 L54.6525955,12.5569186 C55.2847271,12.5569186 56.9239835,12.6479884 56.9239835,9.96946483 C56.9239835,7.28558419 55.0758022,7.40343922 54.6525955,7.40343922 L47.7312905,7.40343922 L47.7420046,7.42486741 C47.5421692,7.42629485 47.3500281,7.34790923 47.2082176,7.20710445 C47.066407,7.06629966 46.9866559,6.87472128 46.986661,6.67488081 C46.986661,6.26238817 47.334869,5.93025125 47.7527187,5.93025125 L56.6132748,5.93025125 L56.6132748,4.07135587 L46.7188086,4.07135587 L46.7188086,4.07135587 Z M39.7385761,4.26420957 L30.7440939,4.85348476 L30.985161,13.4194032 L33.138694,13.3176193 L33.0797664,9.88910912 L39.0796593,9.50340172 C40.2528526,9.42304602 40.9599829,10.215889 40.9599829,11.464081 L40.9599829,12.7229871 L43.1349937,12.6212032 L43.1349937,11.1855145 C43.1403011,9.8408957 42.7117373,8.90876949 42.2563883,8.55520437 C42.6161463,7.99807862 42.8179585,7.35376076 42.8403064,6.69095195 C42.8403064,4.73562972 41.7206836,4.23742433 40.3332083,4.23742433 C40.1403546,4.23742433 39.9421439,4.24813843 39.7385761,4.26420957 L39.7385761,4.26420957 Z M32.9940537,6.62666738 L39.502866,6.28917341 C40.0010714,6.3106016 40.2099963,6.48202711 40.2260674,6.93737612 C40.2474956,7.38736808 39.8832164,7.60164997 39.4385815,7.63379225 L39.4546526,7.63379225 L33.0208389,7.98735737 L32.9940537,6.62666738 L32.9940537,6.62666738 Z M58.6221675,6.69095195 L58.4346708,10.3766004 C58.3971715,11.2497991 58.9328762,12.712273 60.5935608,12.830128 L69.7648256,13.5211871 L69.8612525,11.5926501 L62.200675,11.0355172 C61.4828307,11.008732 60.6953447,10.7890931 60.7489152,9.49268763 L60.8239139,7.62307816 C60.8506991,6.8784486 61.1024803,6.19274656 62.2971018,6.28917341 L70.150533,6.91594793 L70.1344619,6.89451974 L70.2255317,4.96598275 L61.0381957,4.26420957 C60.9063602,4.25295681 60.7740881,4.24759443 60.6417743,4.24810085 C59.8328601,4.24810085 58.7239514,4.52670488 58.6221675,6.69095195 L58.6221675,6.69095195 Z M71.5808646,13.9336798 L73.6540419,14.2122462 L73.9004661,10.4301709 L81.1914073,11.7855038 L80.9396261,15.3854395 L83.0074463,15.7657899 L83.5324369,6.99094659 L81.4860449,6.61595329 L81.271763,10.0337494 L73.9808218,8.67841646 L74.1683184,5.448117 L72.1165693,5.12133712 L71.5808646,13.9336798 L71.5808646,13.9336798 Z M26.5709541,5.53382975 L19.3175122,6.70702309 C17.0889806,7.04987411 17.1210976,8.22306745 17.1210976,9.03198157 L17.1210976,9.04805271 L17.2175497,12.9586972 C17.2764772,15.1925858 19.2264424,15.3800825 20.4210639,15.1604436 L27.1388011,14.1051053 C29.4905448,13.7676113 29.5548294,12.6158461 29.5226871,11.7480045 L29.4369743,7.57486473 C29.4369743,6.12846199 27.8405743,5.50704452 26.8816628,5.50704452 C26.7775168,5.50704452 26.673564,5.51600861 26.5709541,5.53382975 L26.5709541,5.53382975 Z M19.3175122,9.99625007 C19.3175122,9.34269031 19.2853699,8.72662988 20.4478491,8.50699095 L26.0084641,7.57486473 C26.6030964,7.48379493 27.2352279,7.91771576 27.2352279,8.50699095 L27.2941555,11.0515884 C27.2941555,11.458724 27.1066588,12.1015696 26.1959608,12.262281 L20.6942733,13.1301227 C19.9442867,13.2533348 19.4407243,13.285477 19.3764397,12.3212085 L19.3175122,9.99625007 L19.3175122,9.99625007 L19.3175122,9.99625007 Z M5.28740558,75.705791 L0,6.70702309 L5.28740558,75.705791 Z M84.9574115,16.0443564 L94.7715219,18.1336048 L94.9322334,16.3711362 L87.1377297,14.7158086 L87.2555847,12.9586972 L95.0715166,14.5925966 L95.2000857,12.824771 L87.3787968,11.1748004 L87.4430814,9.5569722 L95.3232978,11.1962286 L95.4518669,9.43376011 L85.4609739,7.3552258 L84.9574115,16.0443564 L84.9574115,16.0443564 Z M12.9747683,8.06771308 L4.0177854,10.0498205 L4.64991697,18.6639524 L6.81416403,18.165747 L6.53024053,14.7640221 L14.0408207,13.0926233 C15.4604382,12.7819146 15.8354315,11.9408582 15.7711469,9.95875074 C15.7229335,8.41592114 14.7479509,7.97128623 13.7836824,7.97128623 C13.5112616,7.97267185 13.2398812,8.00502182 12.9747683,8.06771308 L12.9747683,8.06771308 Z M6.34810093,11.5122944 L6.34810093,11.4908662 C6.34810093,11.4908662 11.7480045,10.2855306 12.3801361,10.1623185 C13.0069106,10.0337494 13.2319066,10.3444581 13.2479777,10.5640971 C13.2908341,10.8426635 13.1997643,11.2765843 12.6587025,11.3997964 L6.40702845,12.7819146 L6.34810093,11.5122944 L6.34810093,11.5122944 Z M21.1228371,30.2994589 C19.8795325,30.8149899 18.6636525,31.394321 17.480045,32.0351422 C16.9764826,26.4530991 21.11748,23.1638721 21.3639042,22.9120909 C21.6210425,22.6603096 21.8031821,22.2317459 21.2514062,22.3549579 C15.9050731,23.0995875 14.5229549,32.2172818 14.4318851,33.2458349 C14.3086731,34.2101034 13.4301173,33.8458242 13.2211925,33.7333262 C12.6896447,33.4108869 12.0257116,33.3994249 11.4833508,33.7033244 C10.94099,34.0072239 10.6041205,34.5794628 10.6015964,35.2011571 C10.6015964,35.3404403 10.6283816,35.4529383 10.665881,35.5975786 C10.0048409,35.8758715 9.56287443,36.5096347 9.53017842,37.226121 C9.52814273,37.876509 9.89321131,38.4723994 10.4735723,38.7659805 C11.0539334,39.0595616 11.7502689,39.0005923 12.2729951,38.6135962 C12.6041384,38.9838364 13.07804,39.1944593 13.5747576,39.192176 C14.528312,39.192176 15.6425778,38.47967 15.7068624,36.551133 L15.7068624,36.5779183 C22.0549633,32.4797771 28.9066267,30.7440939 32.5547758,30.7440939 C36.1975679,30.7440939 39.0850163,33.0422671 39.4600096,33.3476188 C39.8296459,33.6583275 40.1510687,33.6583275 40.0974983,33.1654792 C39.7867895,31.1726576 37.0761236,29.3726898 36.1439974,28.8798414 C36.4439921,27.578079 38.0778915,26.1477474 38.3350297,25.9013232 C38.5868109,25.654899 38.7743076,25.3388332 38.3350297,25.3388332 C35.6350779,25.5316869 33.7493973,27.578079 33.3047624,28.1298548 C32.8708416,28.0066427 31.1083731,28.0066427 30.4762415,28.0655703 C30.4762415,25.5852574 32.9940537,23.4745808 33.1815503,23.2870842 C33.369047,23.0995875 33.5511866,22.7942358 33.1172658,22.7942358 C29.5923287,23.1049446 27.6530776,27.6316494 27.4012964,28.5584186 C27.0852306,28.6227032 25.0763379,28.9334119 24.4495634,29.1262656 C24.7263368,26.5960499 26.020027,24.2871319 28.033428,22.7299513 C28.4030642,22.4674559 28.5316334,22.1031767 28.033428,22.1031767 C23.383511,22.2317459 21.3103337,28.8637703 21.1228371,30.2994589 L21.1228371,30.2994589 Z M51.3365833,47.5920073 C51.3365833,48.9419832 52.0544276,49.9008946 53.0669095,49.9008946 C53.5329726,49.9008946 53.8865377,49.7026839 54.1865324,49.263406 L54.261531,49.831253 L54.8025928,49.831253 L54.8025928,47.3777254 L53.2544062,47.3777254 L53.2544062,48.1330691 L54.0901055,48.1330691 C53.9936787,48.7437724 53.6776129,49.0812664 53.1901216,49.0812664 C52.55799,49.0812664 52.1508544,48.470563 52.1508544,47.5491509 C52.1508544,46.6116676 52.5472759,46.0223925 53.2008357,46.0223925 C53.6079713,46.0223925 53.8704666,46.2420314 54.0204639,46.7295227 L54.8133069,46.7295227 C54.6954519,45.7706112 54.0901055,45.2081213 53.1954787,45.2081213 C52.0812128,45.2081213 51.3365833,46.1509616 51.3365833,47.5920073 L51.3365833,47.5920073 Z M34.8154497,46.5902395 C34.8154497,47.1473724 35.0404457,47.4902234 35.5440081,47.7152194 L36.6957733,48.24021 C36.9368404,48.352708 37.0332673,48.4598489 37.0332673,48.6312744 C37.0332673,48.9419832 36.7332726,49.1616221 36.326137,49.1616221 C35.8225746,49.1616221 35.5815075,48.9419832 35.4904377,48.4169926 L35.4743665,48.4009214 L34.7243799,48.4009214 C34.7458081,48.813414 34.7993786,49.0276959 34.9493759,49.2419778 C35.2065142,49.6758986 35.6511491,49.8955376 36.2779236,49.8955376 C36.7332726,49.8955376 37.0171961,49.7991107 37.2796914,49.5741147 C37.5877719,49.3044349 37.7604261,48.912039 37.7511116,48.5027053 C37.7511116,47.8866449 37.5207586,47.6027214 36.9904109,47.3616543 L35.8011464,46.8205925 C35.6350779,46.7455938 35.5440081,46.6223817 35.5440081,46.4830985 C35.5440081,46.1777468 35.8118605,45.9634649 36.1868538,45.9634649 C36.6100605,45.9634649 36.8189854,46.1670327 36.893984,46.6652381 L37.6439706,46.6652381 C37.6064713,45.7331119 37.0868377,45.2188354 36.1922109,45.2188354 C35.3511544,45.2188354 34.8154497,45.7598971 34.8154497,46.5902395 L34.8154497,46.5902395 Z M62.6292388,45.3099052 L62.6292388,46.1295334 L63.7702898,46.1295334 L63.7702898,49.831253 L64.5417046,49.831253 L64.5417046,46.1295334 L65.6506134,46.1295334 L65.6506134,45.3099052 L62.6292388,45.3099052 Z M60.845342,45.3099052 L59.1900145,45.3099052 L59.1900145,49.831253 L59.9667863,49.831253 L59.9667863,48.0419993 L60.6739165,48.0419993 C61.3864038,48.0419993 61.295334,48.4544919 61.3114052,49.1187657 C61.2967239,49.3607041 61.3313523,49.6031029 61.4131891,49.831253 L62.2649596,49.831253 C62.1417475,49.6973268 62.1256763,49.5794718 62.0988911,48.8455563 C62.0721059,47.9723576 62.0292495,47.8491456 61.6596132,47.6616489 C62.0667488,47.3991536 62.1953179,47.1313012 62.1953179,46.6116676 C62.2168313,46.224086 62.0749978,45.8452158 61.8042535,45.5670434 C61.5846146,45.3634757 61.3810468,45.3099052 60.8506991,45.3099052 L60.845342,45.3099052 L60.845342,45.3099052 Z M59.9828574,46.1295334 L60.7060588,46.1295334 C61.2578347,46.1295334 61.4131891,46.2527455 61.4131891,46.6920234 C61.4131891,47.1313012 61.2471206,47.2812985 60.7060588,47.2812985 L59.9828574,47.2812985 L59.9828574,46.1295334 Z M56.5704184,45.3099052 L55.2097284,49.831253 L56.0239996,49.831253 L56.2918519,48.8830557 L57.6525419,48.8830557 L57.9096802,49.825896 L58.7614507,49.825896 L57.4436171,45.3099052 L56.5704184,45.3099052 Z M56.982911,46.3438153 L57.4596882,48.1062838 L56.527562,48.1062838 L56.982911,46.3438153 L56.982911,46.3438153 Z M48.4223496,45.3099052 L48.4223496,46.1295334 L49.5580436,46.1295334 L49.5580436,49.831253 L50.3241014,49.831253 L50.3241014,46.1295334 L51.4437242,46.1295334 L51.4437242,45.3099052 L48.4223496,45.3099052 Z M45.0420528,45.3099052 L45.0420528,46.1295334 L46.1670327,46.1295334 L46.1670327,49.831253 L46.9330905,49.831253 L46.9330905,46.1295334 L48.0527133,46.1295334 L48.0527133,45.3099052 L45.0420528,45.3099052 L45.0420528,45.3099052 Z M43.8635024,45.3099052 L43.8635024,48.0794986 C43.8635024,48.8241281 43.6706487,49.0973375 43.1081588,49.0973375 C42.5885252,49.0973375 42.3688863,48.813414 42.3688863,48.0794986 L42.3688863,45.3099052 L41.5921144,45.3099052 L41.5921144,48.1009268 C41.5921144,49.145551 41.9028232,49.9169658 43.1028017,49.9169658 C44.3081374,49.9169658 44.6188461,49.1294798 44.6188461,48.1009268 L44.6188461,45.3099052 L44.6349172,45.3099052 L43.8635024,45.3099052 Z M38.0511062,45.3099052 L38.0511062,46.1295334 L39.1760861,46.1295334 L39.1760861,49.831253 L39.9475009,49.831253 L39.9475009,46.1295334 L41.0617668,46.1295334 L41.0617668,45.3099052 L38.0511062,45.3099052 L38.0511062,45.3099052 Z M46.0545347,52.0597846 C45.6848985,52.2794236 45.3313334,52.6490598 45.51883,53.2115498 C45.1116944,53.238335 44.0670702,53.4847592 44.040285,53.800825 C44.0027857,54.1008196 44.15814,54.4436706 44.0992125,54.5722398 C44.0349279,54.6954519 43.6867199,54.6954519 43.5045803,54.818664 C42.9688756,55.3490116 42.0528205,55.847217 41.8331816,56.0668559 C41.6135426,56.2811378 41.4635453,56.4954197 41.1796218,56.8382707 C40.9010553,57.1436224 40.8742701,57.5025446 40.9921251,57.6793272 C41.3403332,58.1721755 41.6242567,57.8239674 41.8117534,58.1078909 C41.99925,58.3864574 41.99925,58.4453849 41.9671077,58.6007393 C41.9296084,58.7560936 42.3099588,59.1043017 42.8724487,58.6328816 C43.4402957,58.1668184 43.8420742,57.6686131 44.2867092,58.1989607 C44.725987,58.7293084 44.3134944,59.0400171 44.1259978,59.3775111 C43.7563615,59.7525044 42.8724487,60.8989125 42.4599561,61.2417635 C42.0528205,61.5792575 41.7367547,62.3881716 41.5814003,63.1328012 C41.431403,63.8827878 41.2331923,64.0381422 41.0778379,64.2256388 C40.3224942,63.9470724 39.4760808,63.6042214 39.0100177,63.2345851 C38.6939519,62.9881609 38.0028928,62.6774522 37.5529008,63.2988697 C37.3332619,63.5452938 36.213639,65.0613382 35.9190014,65.720255 C35.6297209,66.3898859 35.2065142,66.1273906 35.2065142,67.3648685 C35.2065142,67.8041464 34.8583061,67.991643 34.6708094,68.666631 C34.6440242,68.8541276 34.1351047,70.0005357 34.6440242,70.2148176 C35.1422296,70.4398136 35.7422189,70.150533 35.870788,69.8505384 C35.977929,69.5237585 36.0154283,68.5648471 36.0475706,68.221996 L36.0582847,68.1684256 C36.213639,67.6970054 36.7172015,67.1398725 36.776129,66.861306 C36.8404136,66.5934537 36.7493438,66.3898859 36.9368404,66.0952483 C37.11898,65.8220389 37.6439706,65.2863342 37.8314673,65.0988375 C38.0136069,64.9166979 38.6832378,64.6434885 39.0207318,65.3934751 C39.3742969,66.1327476 39.9635721,67.7827182 41.1635507,68.2702095 C40.6814164,68.5273477 39.5564365,68.9291263 38.9564472,69.0469813 C38.361815,69.1755504 37.8903948,69.2719773 38.136819,70.7290941 C38.3939573,72.186211 38.4582418,72.8076284 38.361815,73.2790486 C38.1880843,74.1056649 38.4774258,74.961377 39.1171586,75.5129373 L39.8939305,76.6004178 C40.2099963,76.8789843 40.970697,77.189693 41.0296245,76.5682756 C41.0992661,75.936144 41.2921198,75.3254406 40.6599882,75.2665131 C40.4349922,75.2343708 39.84036,74.7361654 39.9046446,74.1790325 C39.9529023,73.6597023 39.8306658,73.1387868 39.5564365,72.6951304 C39.3034865,72.25408 39.2233066,71.7348197 39.3314405,71.2380136 C39.4653667,70.7665935 39.8135748,70.493384 40.5957036,70.6487384 C41.2224782,70.8737344 44.1152837,71.6397921 44.9884823,70.6755237 C45.5831146,71.1094445 49.1348369,72.416564 51.2080141,72.1969251 C51.5883645,72.8504848 52.3758504,74.2808164 52.8794129,74.682595 C53.2919055,75.0522312 53.4419028,76.2307816 52.7508437,76.8521991 C52.3437081,77.1629078 51.2776558,78.2503884 50.3991,78.5021696 C49.5151872,78.7485938 49.1669792,78.9093052 48.7652006,79.3164408 C48.3473509,79.7128623 48.1062838,79.7128623 47.8491456,80.2378529 C47.5973643,80.7574865 47.0348744,81.6896127 47.9455724,81.6896127 C48.8562704,81.6896127 49.1134087,81.2610489 49.1669792,81.0092677 C49.2312637,80.7574865 49.1669792,80.2378529 49.5151872,80.1467831 C49.8633953,80.0503562 50.9294477,79.9914287 51.6526491,79.11823 C52.3651363,78.2557454 53.806182,77.7843253 54.374029,77.6878984 C54.941876,77.5968286 55.0061606,77.0450528 54.941876,76.7611293 C54.8775915,76.4825628 54.8508062,75.7700755 55.1936573,75.4004393 C55.6972197,75.5236514 57.2989768,75.8665024 58.0596775,76.8896984 C58.1828896,77.1682649 58.2096748,77.3289763 58.3328869,77.5111159 C58.113248,77.8753951 57.6739701,78.2236031 57.5186157,78.5985965 C57.3579043,78.9682327 57.1650506,79.5896502 56.4472063,80.1574972 C55.7240049,80.7146301 55.0972304,81.0574811 54.7543794,81.5503295 C54.3863243,82.0403655 54.2109502,82.6484563 54.261531,83.2592275 C54.3258156,83.9449296 54.5133123,83.6020785 54.824021,83.6020785 C55.1293727,83.6020785 55.8632882,83.2645846 55.8847163,82.7931644 C55.9115016,82.3324583 55.6972197,82.1128194 56.3561365,81.83961 C57.0204103,81.5556865 58.1775325,80.6289173 58.4293138,80.0396421 C58.681095,79.450367 59.4310816,78.2986018 60.0257138,77.9611078 C60.6257031,77.6182568 60.502491,77.1200514 60.2239246,76.621846 C59.9400011,76.1289977 58.9650185,74.7897359 59.1525151,73.9218943 C59.3400118,73.0540526 60.3739219,72.5237049 60.6899877,71.1951572 C61.0060535,69.8612525 60.8239139,69.234478 60.6310602,68.7684148 C61.1667649,68.6184175 61.4774736,68.7416296 62.1738898,69.0469813 C62.8595918,69.35769 64.4292066,69.2987625 64.6274174,68.8648417 C64.779969,68.3801419 64.779969,67.8602824 64.6274174,67.3755826 C65.0613382,67.0113034 65.3720469,66.2023892 65.1202657,65.8220389 C64.8738415,65.4577597 64.7506295,64.9595543 64.8738415,64.466706 C64.4292066,64.4024214 63.9631435,64.0274281 64.2738523,63.7488616 C64.589918,63.4756522 65.2166926,62.8167354 64.9327691,61.9917501 C65.0291959,61.4506884 65.0613382,60.7971286 64.1559972,60.834628 C64.1131408,60.4917769 63.8345744,59.3775111 62.4203139,60.4007071 C62.1953179,60.5560615 61.9488938,60.2185675 62.2649596,60.1221407 C62.5756683,60.0257138 64.2095677,59.4953662 64.4559919,58.9489473 C64.7184872,58.3864574 64.6167033,58.0971768 64.5256335,57.888252 C64.6542026,57.6311137 64.7881288,57.1382654 64.6542026,56.9561258 C64.5309905,56.7739862 64.022071,56.8061285 63.67922,57.6418278 C63.341726,58.4828842 63.4327958,58.4828842 62.5220978,58.6328816 C61.6167568,58.7882359 60.9310548,58.6328816 60.3364226,59.6292923 C60.1489259,59.8757165 60.047142,60.154283 59.6078641,60.4007071 C59.2286877,60.6084511 58.9545066,60.9662477 58.8525205,61.3864038 C58.793593,61.7346119 59.1043017,62.3506723 59.0400171,62.7845931 C58.9810896,63.223871 58.7293084,64.1559972 59.8971447,65.1470509 C60.4489206,65.7684684 61.3114052,66.5827396 60.6739165,67.193443 C60.047142,67.8202175 59.4846521,67.1613007 59.0078749,66.850592 C58.0750567,66.3782077 57.0427942,66.1357546 55.9972143,66.1434617 C54.9954465,66.2023892 51.6901484,65.3934751 50.8973054,64.7452724 C50.1258906,64.0917126 50.6080249,63.7595757 50.9990893,63.566722 C51.2737305,63.4694243 51.5001918,63.2698313 51.6312209,63.0095891 C51.7812182,62.6988804 52.0383565,62.6345958 52.32228,62.6345958 C52.6062035,62.6345958 52.8794129,62.5703112 53.1419082,61.9810361 C53.3347619,61.5471152 53.5115444,61.5524723 53.7097552,61.5578293 C53.7793968,61.5578293 53.8490384,61.5631864 53.9240371,61.5417582 C54.2079606,61.4774736 54.3954572,60.8935555 53.8918948,60.7060588 C53.3883324,60.5239192 53.1151229,60.3364226 53.1311941,60.1489259 C53.1633364,59.9667863 53.5061874,59.5596507 53.9829646,59.5328655 C54.4543847,59.5007232 54.48117,59.1900145 54.4543847,58.9435903 C54.4275995,58.6918091 54.4543847,58.5364547 54.7704505,58.3864574 C55.0811593,58.231103 55.049017,57.8561097 54.5133123,57.7007553 C53.9776075,57.545401 53.1954787,57.3579043 53.1954787,57.1114802 C53.1954787,56.865056 53.5436867,56.4311352 53.8865377,56.3079231 C54.2347458,56.1793539 54.3954572,55.6543633 53.6079713,55.6811486 C52.8258424,55.7186479 52.3865645,55.8097177 52.2365672,55.3115123 C52.0758558,54.818664 52.0490706,54.5400975 52.8686988,54.2293888 C53.2008357,54.1329619 53.2972625,53.6668988 52.670488,53.6990411 C52.0383565,53.7258263 51.3205121,54.0418921 51.1008732,53.8222532 C50.8758772,53.6026142 50.9455188,53.4204746 51.0687309,53.3294048 C51.1973,53.232978 51.2294423,52.9222692 50.9133765,52.9222692 C50.6026678,52.9222692 49.375904,53.3883324 49.0651953,53.0454813 C48.7491295,52.7026303 48.245567,52.5151337 47.8384315,52.7669149 C47.4259388,53.0186961 47.4259388,53.3936894 47.6509348,53.6133283 C47.7112223,53.669788 47.7368093,53.754122 47.7180575,53.8345623 C47.6993057,53.9150027 47.6390639,53.9793287 47.5600246,54.0033093 C47.4809854,54.02729 47.3951565,54.007282 47.334869,53.9508223 C47.0830878,53.7311834 47.1795147,53.5865431 47.1795147,53.4847592 C47.1795147,53.3829753 46.997375,53.0829807 46.7723791,52.9544115 C46.5527401,52.8419135 46.5527401,52.4990625 46.6223817,52.2794236 C46.6652381,52.1240692 46.5527401,51.9687148 46.3491723,51.9687148 C46.24466,51.9726323 46.1430295,52.0040454 46.0545347,52.0597846 L46.0545347,52.0597846 Z M61.5899716,100.112498 C61.070338,100.310709 59.8864306,100.712487 59.4900091,100.948197 C59.2328708,98.1946751 62.3078159,95.7250763 62.1792468,95.8643596 C62.3346012,95.7036481 62.4363851,95.4411528 62.0828199,95.5215085 C58.6650238,95.9982857 57.2936198,100.916055 57.2293352,101.569615 C57.1543365,102.191032 56.3882788,102.244603 56.2543526,102.191032 C56.0799583,102.090492 55.8824447,102.03696 55.6811486,102.035678 C55.3425243,102.035362 55.0226905,102.191281 54.8143606,102.458236 C54.6060308,102.725192 54.5325047,103.073327 54.6150962,103.401725 C54.2186747,103.57315 54.0472492,103.894573 54.0472492,104.344565 C54.0472492,104.955269 54.4329566,105.437403 55.049017,105.437403 C55.3061552,105.437403 55.4722237,105.474902 55.6543633,105.324905 C55.8658788,105.561403 56.1674281,105.697587 56.4847056,105.699898 C57.1007661,105.699898 57.4114748,105.539187 57.4543312,104.307066 L57.43826,104.307066 C61.5310441,102.164247 67.5095088,100.717844 70.2844592,100.862485 C73.4076177,101.017839 75.7325762,103.251728 75.9736433,103.444581 C76.2147105,103.648149 76.4075642,103.648149 76.3700648,103.332083 C76.166497,102.062463 75.3093695,100.723201 73.1076231,99.4428671 C73.3111909,98.6018107 74.6022392,98.2000321 74.8754487,98.0821771 C75.0843735,97.9857503 75.1593722,97.7178979 74.8754487,97.7178979 C72.8451278,97.4500455 71.2647988,98.4732415 70.9915894,98.8321637 C70.3097653,98.723135 69.6194186,98.6765142 68.9291263,98.6928805 C69.1594793,97.6750415 70.8094498,96.7482724 71.7147908,96.0036428 C71.6130069,96.0786415 71.9558579,95.68222 71.6826485,95.68222 C69.2184068,95.6286495 67.0916591,98.2482456 66.9255906,98.8428778 C66.7273799,98.8803771 64.7292013,99.2767986 64.3220657,99.3946537 C64.6917019,97.0589811 67.6273638,95.5215085 67.873788,95.3661542 C68.109498,95.2054428 68.1952108,94.9590186 67.873788,94.9590186 C64.4934912,95.0715166 61.7024696,99.1964429 61.5899716,100.112498 L61.5899716,100.112498 Z M58.686452,110.001607 C58.3221728,110.135533 57.8025392,110.317673 57.5346869,110.483741 C57.1650506,108.437349 58.6114534,106.792736 58.4239567,106.980232 C58.5364547,106.867735 58.6168104,106.680238 58.3703862,106.739165 C56.2650667,107.103445 56.0347137,110.553383 55.9972143,110.998018 C55.9436439,111.421225 55.4186532,111.464081 55.3275834,111.421225 C55.2102591,111.35383 55.0771778,111.318711 54.941876,111.319441 C54.5258683,111.316418 54.1845964,111.648144 54.1758183,112.06407 C54.1758183,112.144426 54.1972465,112.187282 54.2186747,112.251567 C53.9401082,112.364065 53.8168961,112.589061 53.8168961,112.89977 C53.8168961,113.312262 54.0847485,113.639042 54.5079552,113.639042 C54.6740237,113.639042 54.7918787,113.665827 54.936519,113.569401 C55.0824611,113.727487 55.2892679,113.815282 55.504366,113.810468 C55.9168586,113.810468 56.3239942,113.639042 56.3507795,112.792629 L56.3239942,112.792629 C59.1793004,111.06766 62.8703059,110.055178 64.7559865,110.151604 C66.8880913,110.269459 68.3559222,111.255156 68.5166336,111.383725 C68.6880591,111.528366 68.8219853,111.528366 68.7952001,111.308727 C68.6559169,110.440885 67.9648578,109.765897 66.3416725,108.994482 C66.4611324,108.556121 66.7665034,108.192025 67.1773718,107.998071 C67.3166551,107.92843 67.3702255,107.74629 67.1773718,107.74629 C65.7791825,107.564151 65.0827664,108.421278 64.8845556,108.662345 C64.5140852,108.624746 64.1407602,108.624746 63.7702898,108.662345 C63.9202871,107.965929 64.7452724,107.140944 65.3666899,106.642739 C65.2756201,106.71238 65.5381154,106.4231 65.3399046,106.4231 C63.6631489,106.3856 61.9917501,108.614132 61.8792522,109.01591 C61.5631864,109.117694 60.7810575,109.240906 60.4703487,109.401618 C60.6202863,108.36792 61.1081477,107.412917 61.857824,106.685595 C62.0238924,106.56774 62.0828199,106.412385 61.857824,106.412385 C59.5382225,106.487384 58.7614507,109.38019 58.686452,110.001607 L58.686452,110.001607 Z" id="Shape"></path>
        </g>
    </g>
</svg>