<?xml version="1.0" encoding="UTF-8"?>
<svg width="84px" height="106px" viewBox="0 0 84 106" version="1.1" xmlns="http://www.w3.org/2000/svg" xmlns:xlink="http://www.w3.org/1999/xlink">
    <title>renault</title>
    <g id="Page-1" stroke="none" stroke-width="1" fill="none" fill-rule="evenodd">
        <g id="Artboard" transform="translate(-755.000000, -12.000000)" fill="#000000" fill-rule="nonzero">
            <g id="Group-9" transform="translate(754.000000, 12.000000)">
                <g id="renault" transform="translate(1.000000, 0.000000)">
                    <path d="M0,52.8498333 L29.3820598,0 L54.675526,0 L84,52.8498333 L54.3433001,106 L29.6877076,106 L0,52.8498333 Z M42.1395349,76.33325 L55.2513843,52.8675 L60.4252492,52.8675 L82.1749723,52.8498333 L53.820598,1.99191667 L30.2369878,1.99191667 L1.85160576,52.8498333 L24.2790698,52.8675 L40.482835,81.1253333 L32.3898117,99.3838333 L33.683278,99.3838333 L60.4252492,52.8675 L43.9512735,24.4683333 C46.6223699,18.43075 49.4219269,12.402 51.9911406,6.307 L50.7419712,6.307 L24.3100775,52.8675 L29.0498339,52.8675 L42.1395349,76.33325 Z M53.5326689,52.8675 L42.1705426,32.5375833 L30.7641196,52.8675 L42.1395349,73.2371667 L53.5326689,52.8675 L53.5326689,52.8675 Z" id="Shape"></path>
                </g>
            </g>
        </g>
    </g>
</svg>