<?xml version="1.0" encoding="UTF-8"?>
<svg width="240px" height="45px" viewBox="0 0 240 45" version="1.1" xmlns="http://www.w3.org/2000/svg" xmlns:xlink="http://www.w3.org/1999/xlink">
    <title>reviews-stars</title>
    <g id="Page-1" stroke="none" stroke-width="1" fill="none" fill-rule="evenodd">
        <g id="reviews-stars" fill-rule="nonzero">
            <polygon id="Path" fill="#FFFFFF" points="22.96875 33.75 10.2946875 40.1235937 12.7153125 26.6240625 2.46140625 17.0639062 16.6317188 15.0946875 22.96875 2.8125 29.3057813 15.0946875 43.4760937 17.0639062 33.2221875 26.6240625 35.6428125 40.1235937"></polygon>
            <polygon id="Path" fill="#FFFFFF" points="71.71875 33.75 59.0446875 40.1235937 61.4653125 26.6240625 51.2114063 17.0639062 65.3817188 15.0946875 71.71875 2.8125 78.0557813 15.0946875 92.2260938 17.0639062 81.9721875 26.6240625 84.3928125 40.1235937"></polygon>
            <polygon id="Path" fill="#FFFFFF" points="120 34.21875 107.325937 40.5923437 109.746562 27.0928125 99.4926562 17.5326562 113.662969 15.5634375 120 3.28125 126.337031 15.5634375 140.507344 17.5326562 130.253438 27.0928125 132.674062 40.5923437"></polygon>
            <polygon id="Path" fill="#FFFFFF" points="169.21875 33.75 156.544687 40.1235937 158.965312 26.6240625 148.711406 17.0639062 162.881719 15.0946875 169.21875 2.8125 175.555781 15.0946875 189.726094 17.0639062 179.472188 26.6240625 181.892812 40.1235937"></polygon>
            <polygon id="Path" fill="#FFFFFF" points="218.086406 33.75 205.412344 40.1235937 207.832969 26.6240625 197.579531 17.0639062 211.749375 15.0946875 218.086406 2.8125 224.423437 15.0946875 238.59375 17.0639062 228.340312 26.6240625 230.760937 40.1235937"></polygon>
            <path d="M22.5,0 C10.073571,0 0,10.073571 0,22.5 C0,34.926429 10.073571,45 22.5,45 C34.926429,45 45,34.926429 45,22.5 C45,10.073571 34.926429,0 22.5,0 Z M33.0632908,38.4375 L22.4809365,30.2169942 L11.9744126,38.4375 L16.0561173,25.132375 L5.625,17.027156 L18.2861218,17.027156 L22.4809365,4.21875 L26.7138782,17.027156 L39.375,17.027156 L28.9815861,25.1705183 L33.0632908,38.4375 Z M71.25,0 C58.8235711,0 48.75,10.073571 48.75,22.5 C48.75,34.926429 58.8235711,45 71.25,45 C83.6764289,45 93.75,34.926429 93.75,22.5 C93.75,10.073571 83.6764289,0 71.25,0 Z M81.8132906,38.4375 L71.2309364,30.2169942 L60.7244123,38.4375 L64.8061172,25.132375 L54.375,17.027156 L67.0361217,17.027156 L71.2309364,4.21875 L75.4638783,17.027156 L88.125,17.027156 L77.7315862,25.1705183 L81.8132906,38.4375 Z M120,0 C107.573571,0 97.5,10.073571 97.5,22.5 C97.5,34.926429 107.573571,45 120,45 C132.426429,45 142.5,34.926429 142.5,22.5 C142.5,10.073571 132.426429,0 120,0 Z M130.563291,38.4375 L119.980936,30.2169942 L109.474412,38.4375 L113.556117,25.132375 L103.125,17.027156 L115.786122,17.027156 L119.980936,4.21875 L124.213878,17.027156 L136.875,17.027156 L126.481586,25.1705183 L130.563291,38.4375 Z M168.75,0 C156.323571,0 146.25,10.073571 146.25,22.5 C146.25,34.926429 156.323571,45 168.75,45 C181.176429,45 191.25,34.926429 191.25,22.5 C191.25,10.073571 181.176429,0 168.75,0 Z M179.313291,38.4375 L168.730936,30.2169942 L158.224412,38.4375 L162.306117,25.132375 L151.875,17.027156 L164.536122,17.027156 L168.730936,4.21875 L172.963878,17.027156 L185.625,17.027156 L175.231586,25.1705183 L179.313291,38.4375 Z M217.5,0 C205.073571,0 195,10.073571 195,22.5 C195,34.926429 205.073571,45 217.5,45 C229.926429,45 240,34.926429 240,22.5 C240,10.073571 229.926429,0 217.5,0 Z M228.063291,38.4375 L217.480936,30.2169942 L206.974412,38.4375 L211.056117,25.132375 L200.625,17.027156 L213.286122,17.027156 L217.480936,4.21875 L221.713878,17.027156 L234.375,17.027156 L223.981586,25.1705183 L228.063291,38.4375 Z" id="Shape" fill="#12CF6C"></path>
        </g>
    </g>
</svg>