<?xml version="1.0" encoding="UTF-8"?>
<svg width="141px" height="23px" viewBox="0 0 141 23" version="1.1" xmlns="http://www.w3.org/2000/svg" xmlns:xlink="http://www.w3.org/1999/xlink">
    <title>reviews-logo--white</title>
    <g id="Page-1" stroke="none" stroke-width="1" fill="none" fill-rule="evenodd">
        <g id="reviews-logo--white" transform="translate(0.500000, 0.667000)" fill-rule="nonzero">
            <circle id="Oval" fill="#FFFFFF" cx="10.7176777" cy="10.8965025" r="10.180666"></circle>
            <path d="M10.7402321,0 C4.80840193,0 0,4.80840193 0,10.7402321 C0,16.6720624 4.80840193,21.4804643 10.7402321,21.4804643 C16.6720624,21.4804643 21.4804643,16.6720624 21.4804643,10.7402321 C21.4804643,4.80840193 16.6720624,0 10.7402321,0 Z M15.7827711,18.2583946 L10.73164,14.3795598 L5.71648856,18.2583946 L7.66476667,11.9297129 L2.68505804,8.05517411 L8.72858666,8.05517411 L10.7311029,2.01164548 L12.7518776,8.05517411 L18.7954062,8.05517411 L13.833956,11.9479712 L15.7827711,18.2583946 Z" id="Shape" fill="#12CF6C"></path>
            <g id="Group" transform="translate(26.343104, 1.791471)" fill="#FFFFFF">
                <path d="M-7.63139393e-15,1.2351267 C-7.63139393e-15,0.69167095 0.444645611,0.247025339 0.963398823,0.247025339 L7.43653674,0.247025339 C9.56095465,0.247025339 11.2659665,0.889291221 12.352878,1.97620271 C13.1922271,2.81608887 13.6862778,4.02651303 13.6862778,5.38568941 L13.6862778,5.43509448 C13.6862778,8.27642289 11.7594802,9.93149266 9.06636696,10.4507829 L13.3651449,15.9846875 C13.5627651,16.2070103 13.6862778,16.4293331 13.6862778,16.701061 C13.6862778,17.2203512 13.1922271,17.6649968 12.6981765,17.6649968 C12.3029359,17.6649968 12.0065055,17.442674 11.7841827,17.1457066 L6.91724651,10.8213209 L1.95150018,10.8213209 L1.95150018,16.6763584 C1.95150018,17.2203512 1.50685457,17.6649968 0.963398823,17.6649968 C0.444645611,17.6649968 -7.63139393e-15,17.2203512 -7.63139393e-15,16.6763584 L-7.63139393e-15,1.2351267 L-7.63139393e-15,1.2351267 Z M7.26308199,9.06690397 C9.85684805,9.06690397 11.7100751,7.73296714 11.7100751,5.50920208 L11.7100751,5.45979701 C11.7100751,3.33484208 10.0791709,2.0497733 7.28778452,2.0497733 L1.95150018,2.0497733 L1.95150018,9.06636696 L7.26308199,9.06636696 L7.26308199,9.06690397 Z" id="Shape"></path>
                <path d="M17.6129067,16.5528458 L17.6129067,1.2351267 C17.6129067,0.69167095 18.0575523,0.247025339 18.5763055,0.247025339 L29.3235188,0.247025339 C29.8175695,0.247025339 30.21281,0.642265882 30.21281,1.13685357 C30.21281,1.63090425 29.8175695,2.02614479 29.3235188,2.02614479 L19.5638699,2.02614479 L19.5638699,7.9300504 L28.2113678,7.9300504 C28.7054184,7.9300504 29.100659,8.35053049 29.100659,8.81934162 C29.100659,9.3133923 28.7054184,9.70863285 28.2113678,9.70863285 L19.5638699,9.70863285 L19.5638699,15.7612907 L29.4459575,15.7612907 C29.9400081,15.7612907 30.3352487,16.1565312 30.3352487,16.6505819 C30.3352487,17.1446326 29.9400081,17.5398751 29.4459575,17.5398751 L18.5757685,17.5398751 C18.0575523,17.5409471 17.6129067,17.0963015 17.6129067,16.5528458 Z" id="Path"></path>
                <path d="M39.4741122,16.9228468 L32.803891,1.5315571 C32.7297834,1.3833419 32.7045439,1.25982923 32.7045439,1.08691149 C32.7045439,0.592860814 33.1491895,0.12351267 33.6931823,0.12351267 C34.1872329,0.12351267 34.5330684,0.444645611 34.7059861,0.864588687 L40.6850734,15.1936694 L46.6883261,0.815720631 C46.8612439,0.469885156 47.2076164,0.124049681 47.652262,0.124049681 C48.1957177,0.124049681 48.6156608,0.568695292 48.6156608,1.06274597 C48.6156608,1.21042416 48.5909583,1.33447384 48.5415532,1.45798651 L41.8460925,16.9233838 C41.6237697,17.4174345 41.2773972,17.7391044 40.7097759,17.7391044 L40.6104288,17.7391044 C40.0428075,17.7385674 39.6722695,17.4168975 39.4741122,16.9228468 Z" id="Path"></path>
                <path d="M52.2206197,1.11161403 C52.2206197,0.56815828 52.6652653,0.12351267 53.1840185,0.12351267 C53.7274743,0.12351267 54.1721199,0.56815828 54.1721199,1.11161403 L54.1721199,16.6758214 C54.1721199,17.2198142 53.7274743,17.6644598 53.1840185,17.6644598 C52.6652653,17.6644598 52.2206197,17.2198142 52.2206197,16.6758214 L52.2206197,1.11161403 Z" id="Path"></path>
                <path d="M58.988577,16.5528458 L58.988577,1.2351267 C58.988577,0.69167095 59.4332226,0.247025339 59.9519758,0.247025339 L70.6991891,0.247025339 C71.1932398,0.247025339 71.5884803,0.642265882 71.5884803,1.13685357 C71.5884803,1.63090425 71.1932398,2.02614479 70.6991891,2.02614479 L60.9400772,2.02614479 L60.9400772,7.9300504 L69.5875751,7.9300504 C70.0816258,7.9300504 70.4768663,8.35053049 70.4768663,8.81934162 C70.4768663,9.3133923 70.0816258,9.70863285 69.5875751,9.70863285 L60.9400772,9.70863285 L60.9400772,15.7612907 L70.8221648,15.7612907 C71.3162154,15.7612907 71.711456,16.1565312 71.711456,16.6505819 C71.711456,17.1446326 71.3162154,17.5398751 70.8221648,17.5398751 L59.9519758,17.5398751 C59.4332226,17.5409471 58.988577,17.0963015 58.988577,16.5528458 Z" id="Path"></path>
                <path d="M74.254206,1.55625964 C74.2048009,1.40858145 74.1553958,1.25982923 74.1553958,1.11161403 C74.1553958,0.592860814 74.624744,0.12351267 75.1681997,0.12351267 C75.6622504,0.12351267 76.0327884,0.494050679 76.1815406,0.938696289 L80.9496667,14.6754532 L85.4707674,0.889828233 C85.6189826,0.445182622 85.915413,0.124049681 86.4341662,0.124049681 L86.5576789,0.124049681 C87.0517296,0.124049681 87.3728625,0.445182622 87.5210777,0.889828233 L92.0421784,14.6754532 L96.835007,0.889828233 C96.9832222,0.445182622 97.3043552,0.124049681 97.7737033,0.124049681 C98.2929935,0.124049681 98.7623417,0.593397826 98.7623417,1.0874485 C98.7623417,1.23566371 98.6876971,1.40911846 98.638829,1.55679665 L93.1049244,16.9233838 C92.9320067,17.4174345 92.5856342,17.7632699 92.0915835,17.7632699 L91.9439053,17.7632699 C91.4493176,17.7632699 91.1040191,17.4168975 90.9305644,16.9233838 L86.4341662,3.63234651 L81.9624706,16.9233838 C81.7900898,17.4174345 81.4437173,17.7632699 80.9496667,17.7632699 L80.8014515,17.7632699 C80.3074008,17.7632699 79.9615653,17.442137 79.7886476,16.9233838 L74.254206,1.55625964 Z" id="Path"></path>
                <path d="M101.205207,15.4653973 C100.982885,15.3171821 100.834669,15.0454542 100.834669,14.7243213 C100.834669,14.1803285 101.254613,13.7603854 101.773903,13.7603854 C102.020928,13.7603854 102.243251,13.8591956 102.366764,13.9827082 C103.997131,15.3660501 105.628035,16.0330185 107.826561,16.0330185 C110.149136,16.0330185 111.680693,14.7978918 111.680693,13.09288 L111.680693,13.0434749 C111.680693,11.4378102 110.816641,10.5238165 107.184832,9.7575009 C103.207187,8.89344923 101.378662,7.60838045 101.378662,4.76705204 L101.378662,4.71872099 C101.378662,2.00090525 103.774808,9.53924241e-16 107.060782,9.53924241e-16 C109.333415,9.53924241e-16 110.988485,0.56815828 112.569984,1.70447484 C112.767604,1.85269004 112.989927,2.12441792 112.989927,2.49495593 C112.989927,3.01424615 112.569984,3.43365222 112.051231,3.43365222 C111.828908,3.43365222 111.65599,3.38424715 111.483073,3.26127149 C110.025086,2.19852552 108.617042,1.75387991 107.011377,1.75387991 C104.762909,1.75387991 103.330162,2.98900661 103.330162,4.54526624 L103.330162,4.59467131 C103.330162,6.22557556 104.219454,7.13956932 108.024181,7.95528995 C111.878313,8.7951761 113.656896,10.2032205 113.656896,12.8463917 L113.656896,12.8963337 C113.656896,15.8606378 111.186105,17.7874357 107.752453,17.7874357 C105.232258,17.7879725 103.132542,16.9974914 101.205207,15.4653973 Z" id="Path"></path>
            </g>
        </g>
    </g>
</svg>