<?xml version="1.0" encoding="UTF-8"?>
<svg width="100px" height="90px" viewBox="0 0 100 90" version="1.1" xmlns="http://www.w3.org/2000/svg" xmlns:xlink="http://www.w3.org/1999/xlink">
    <title>seat</title>
    <g id="Page-1" stroke="none" stroke-width="1" fill="none" fill-rule="evenodd">
        <g id="Artboard" transform="translate(-789.000000, -273.000000)" fill="#000000" fill-rule="nonzero">
            <g id="seat" transform="translate(789.000000, 273.000000)">
                <path d="M33.0875,0.263035377 C51.8875,-0.399464623 70.7041667,0.25886871 89.4666667,1.46303538 C91.4416667,1.63386871 93.4416667,1.62136871 95.3875,2.03803538 C96.4416667,2.28803538 97.5791667,2.69220204 98.1916667,3.65053538 C98.7541667,4.69220204 98.7666667,5.90053538 98.9125,7.05053538 C99.3583333,12.679702 99.4916667,18.3338687 99.9125,23.967202 C99.1,24.0630354 98.2875,23.9380354 97.4708333,23.9130354 C83,23.1630354 68.5125,22.542202 54.0208333,22.5213687 C46.5125,22.5463687 38.9958333,22.4713687 31.4958333,22.8338687 C29.675,23.104702 27.6208333,23.7088687 26.5666667,25.3338687 C32.2416667,26.342202 37.9083333,27.429702 43.5791667,28.454702 C62.3833333,31.9755354 81.2,35.4130354 100,38.929702 C99.9833333,42.4963687 99.9916667,46.0630354 100,49.6255354 C89.425,47.8755354 78.8708333,45.9880354 68.3041667,44.1838687 C45.5708333,40.267202 22.8458333,36.292202 0.108333333,32.4088687 C0.15,28.4505354 0.320833333,24.4963687 0.404166667,20.5338687 C0.545833333,17.4005354 0.458333333,14.2213687 1.16666667,11.142202 C1.64583333,8.96720204 2.52916667,6.78386871 4.175,5.23386871 C7.01666667,2.41720204 11.1291667,1.62553538 14.9541667,1.22970204 C20.9833333,0.67136871 27.0375,0.488035377 33.0875,0.263035377 Z M0,37.617202 C32.5666667,43.6255354 65.125,49.7380354 97.6875,55.7838687 C98.3958333,55.954702 99.1583333,55.9713687 99.8416667,56.229702 L99.925,56.417202 C99.7458333,61.7588687 99.6416667,67.104702 99.45,72.4463687 C99.325,75.742202 98.9791667,79.1963687 97.2833333,82.0963687 C95.4625,85.0963687 92.075,86.7588687 88.725,87.3880354 C83.7833333,88.3130354 78.7375,88.3755354 73.7333333,88.6505354 C52.2041667,89.6255354 30.6333333,89.0880354 9.1375,87.6088687 C7.42083333,87.4838687 5.675,87.454702 4.00416667,86.979702 C3.14166667,86.7088687 2.25,86.2713687 1.75833333,85.467202 C1.2375,84.4213687 1.20416667,83.2255354 1.075,82.0838687 C0.616666667,75.8505354 0.366666667,69.6088687 0.0416666667,63.367202 C11.1291667,64.0755354 22.2375,64.467202 33.3458333,64.7130354 C44.0708333,64.8880354 54.7958333,64.8880354 65.5208333,64.992202 C67.8375,65.0880354 70.3375,64.6463687 72.0916667,63.0213687 C72.35,62.729702 72.7666667,62.454702 72.7208333,62.017202 C67.8875,61.292202 63.0833333,60.3880354 58.2583333,59.592202 C38.8416667,56.2755354 19.425,52.9880354 0.00833333333,49.6463687 C-0.0125,45.6380354 0.0166666667,41.629702 0,37.617202 Z" id="Shape"></path>
            </g>
        </g>
    </g>
</svg>