<?xml version="1.0" encoding="UTF-8"?>
<svg width="100px" height="100px" viewBox="0 0 100 100" version="1.1" xmlns="http://www.w3.org/2000/svg" xmlns:xlink="http://www.w3.org/1999/xlink">
    <title>skoda</title>
    <g id="Page-1" stroke="none" stroke-width="1" fill="none" fill-rule="evenodd">
        <g id="Artboard" transform="translate(-1003.000000, -259.000000)" fill="#000000" fill-rule="nonzero">
            <g id="skoda" transform="translate(1003.000000, 259.000000)">
                <path d="M95.2916667,50 C95.2916667,75.0138968 75.0138968,95.2916667 50,95.2916667 C24.9861032,95.2916667 4.70833333,75.0138968 4.70833333,50 C4.70833333,24.9861032 24.9861032,4.70833333 50,4.70833333 C75.0138968,4.70833333 95.2916667,24.9861032 95.2916667,50 Z M91.2916667,50 C91.7701606,34.9426389 84.0103128,20.8196909 71.0441654,13.1494823 C58.078018,5.47927361 41.9636487,5.47927361 28.9975013,13.1494823 C16.0313538,20.8196909 8.27150608,34.9426389 8.75,50 C8.75,72.8047578 27.2369089,91.2916667 50.0416667,91.2916667 C72.8464245,91.2916667 91.3333333,72.8047578 91.3333333,50 L91.2916667,50 Z M81.4166667,69.75 C81.875,70.2083333 81.875,71 81.4166667,71.4166667 C78.308052,74.3514221 74.3879724,76.2824243 70.1666667,76.9583333 C69.8805548,76.9943891 69.592806,76.9051755 69.377272,76.7135898 C69.1617381,76.522004 69.0394038,76.2466992 69.0416667,75.9583333 L69.0416667,74.2916667 C69.0416667,73.8333333 68.6666667,73.5416667 68.2083333,73.5416667 L34.0416667,73.5416667 C33.7083333,73.5416667 33.4583333,73.5416667 33.2083333,73.7083333 L28.9166667,76.2083333 C28.6633929,76.3532397 28.3750014,76.4253376 28.0833333,76.4166667 L23.5,76.4166667 C23.1666667,76.4166667 23,76.3333333 22.7916667,76 C20.8194419,72.7232507 18.5605996,69.6278002 16.0416667,66.75 C15.0833333,65.6666667 15.7083333,64.25 17.1666667,64.25 L27.5833333,64.25 C27.8333333,64.25 28.0833333,64.3333333 28.3333333,64.4166667 L34.9166667,67.5416667 C36.5,68.2916667 37.7083333,67.125 37.5416667,65.7916667 C35.3333333,50.75 22.2916667,47.2916667 14.9583333,46 C14.5697934,45.9485344 14.2183234,45.7428411 13.9831632,45.4292942 C13.7480031,45.1157473 13.6489491,44.720742 13.7083333,44.3333333 C14.319679,40.135217 15.689169,36.0832206 17.75,32.375 C18.125,31.7916667 18.8333333,31.5833333 19.5,31.75 C22.6666667,32.5833333 26.7916667,33.8333333 31.0833333,36.125 C33.2916667,37.2916667 34.8333333,37.5833333 35.7916667,36.75 C31.7627215,33.0866347 27.3152572,29.9118724 22.5416667,27.2916667 C22,27.0416667 21.7083333,26.5833333 22.2083333,25.9583333 C24.8418215,22.7933781 28.033525,20.1383327 31.625,18.125 C32.25,17.7916667 32.8333333,17.9166667 33.4583333,18.25 C36.9166667,20.2083333 41.2916667,23.0833333 45.4583333,27.0416667 C46.75,28.2916667 48.2916667,29.375 50.25,29.2083333 C47.2840154,24.4370463 43.5537038,20.1858987 39.2083333,16.625 C38.5,16 38.3333333,15.125 39.625,14.75 C43.8635159,13.4839561 48.2950718,12.9899929 52.7083333,13.2916667 C53.5416667,13.375 54.125,13.625 54.7083333,14.1666667 C63.625,22.2083333 65.2916667,27.5 67.125,32.875 C69.0416667,38.4583333 69.1666667,42.6666667 69.2083333,46.9166667 C69.2083333,50.9166667 68.5833333,56.375 66.0833333,65.4166667 C65.8333333,66.25 66.0833333,67.75 67.25,67.75 L68.25,67.75 C68.6666667,67.75 69.0416667,67.25 69.0416667,66.7916667 L69.0416667,65.25 C69.0416667,64.625 69.5833333,64.1666667 70.2083333,64.25 C74.4108823,64.9196727 78.3155594,66.8357225 81.4166667,69.75 L81.4166667,69.75 Z M61.2916667,58.875 C61.2916667,56.332189 59.230311,54.2708333 56.6875,54.2708333 C54.144689,54.2708333 52.0833333,56.332189 52.0833333,58.875 C52.0833333,61.4063051 54.1353616,63.4583333 56.6666667,63.4583333 C59.1979718,63.4583333 61.25,61.4063051 61.25,58.875 L61.2916667,58.875 Z M49.9999993,98 C32.8512515,98 17.0051543,88.851252 8.43078002,74 C-0.143594294,59.1487484 -0.143594294,40.8512516 8.43078002,26 C17.0051543,11.148748 32.8512515,2 49.9999993,2 C76.509668,2 97.9999993,23.490332 97.9999993,50 C97.9999993,76.509668 76.509668,98 49.9999993,98 M50,0 C22.3857625,0 0,22.3857625 0,50 C0,77.6142375 22.3857625,100 50,100 C77.6142375,100 100,77.6142375 100,50 C100,22.3857625 77.6142375,0 50,0" id="Shape"></path>
            </g>
        </g>
    </g>
</svg>