<?xml version="1.0" encoding="UTF-8"?>
<svg width="101px" height="19px" viewBox="0 0 101 19" version="1.1" xmlns="http://www.w3.org/2000/svg" xmlns:xlink="http://www.w3.org/1999/xlink">
    <title>sony-2</title>
    <g id="Page-1" stroke="none" stroke-width="1" fill="none" fill-rule="evenodd">
        <g id="sony-2" transform="translate(0.226809, 0.877994)" fill="#000000" fill-rule="nonzero">
            <path d="M98.4798212,14.082825 C97.9284861,14.0724998 97.4145548,14.3607247 97.1358635,14.8365484 C96.8571722,15.3123721 96.8571722,15.901608 97.1358635,16.3774317 C97.4145548,16.8532554 97.9284861,17.1414803 98.4798212,17.1311551 C98.8841598,17.130732 99.2717065,16.9694094 99.5569144,16.6827976 C99.8421223,16.3961857 100.00154,16.0078515 99.9999888,15.6035157 C100.000119,15.2002526 99.840023,14.8134576 99.554923,14.5282574 C99.269823,14.2430572 98.8830844,14.082825 98.4798212,14.082825 L98.4798212,14.082825 Z M98.4798212,16.9478179 C98.1235022,16.9482465 97.781708,16.8066331 97.5301036,16.5543264 C97.2784991,16.3020197 97.1378389,15.9598322 97.1392509,15.6035157 C97.1394025,15.248364 97.2808046,14.9078537 97.5322854,14.6570747 C97.7837663,14.4062957 98.1246706,14.2658459 98.4798212,14.2666938 C98.8343183,14.2666938 99.1742883,14.4075576 99.4249054,14.658275 C99.6755226,14.9089924 99.8162466,15.2490187 99.8161202,15.6035157 C99.8178102,15.9591777 99.677828,16.300881 99.4270875,16.553126 C99.1763469,16.805371 98.8354871,16.9473948 98.4798212,16.9478179 L98.4798212,16.9478179 Z" id="Shape"></path>
            <path d="M99.2618144,15.2042342 C99.2618144,15.0604501 99.1982073,14.9091828 99.0709931,14.8370235 C98.9427099,14.7611226 98.7994603,14.7536394 98.6556762,14.7536394 L97.913237,14.7536394 L97.913237,16.4571336 L98.1211627,16.4571336 L98.1211627,15.6713989 L98.5044089,15.6713989 L98.9908161,16.4571336 L99.2382958,16.4571336 L98.7235594,15.6713989 C99.027163,15.6628467 99.2618144,15.5393741 99.2618144,15.2042342 L99.2618144,15.2042342 Z M98.4402673,15.5073033 L98.1206282,15.5073033 L98.1206282,14.9049067 L98.6070354,14.9049067 C98.8187028,14.9049067 99.0506822,14.9369775 99.0506822,15.2004926 C99.0512161,15.5473918 98.6791948,15.5073033 98.4402673,15.5073033 Z M89.5454295,6.96845144 L92.6616427,3.64110541 C92.8423082,3.39683277 92.9321065,3.22578848 92.9321065,3.0793318 C92.9321065,2.83505917 92.7220427,2.73724322 92.0613841,2.73724322 L91.2751149,2.73724322 L91.2751149,0.636605481 L99.7856375,0.636605481 L99.7856375,2.73724322 L98.6674355,2.73724322 C97.376051,2.73724322 97.1360545,2.93234061 95.3342098,5.20402264 L90.4043925,10.5277763 L90.4043925,13.7765488 C90.4043925,14.6077172 90.8239856,14.9000961 92.0255717,14.9000961 L93.8867474,14.9000961 L93.8867474,16.9269709 L81.9665637,16.9269709 L81.9665637,14.9000961 L83.8277394,14.9000961 C85.0282566,14.9000961 85.4489186,14.6077172 85.4489186,13.7765488 L85.4489186,10.5277763 L79.6424994,4.10452854 C78.6830478,2.98151585 78.8156071,2.73724322 76.144109,2.73724322 L76.144109,0.636605481 L86.9241757,0.636605481 L86.9241757,2.73724322 L86.1566144,2.73724322 C85.3756903,2.73724322 85.0448265,2.88369989 85.0448265,3.17661325 C85.0448265,3.42142039 85.284823,3.61651779 85.4350213,3.81161519 L88.372707,7.01335056 C88.7217443,7.37628517 89.1477515,7.42332236 89.5454295,6.96845144 L89.5454295,6.96845144 Z M17.2166772,0.636070968 L19.817085,0.636070968 L19.817085,6.49754511 L17.4155162,6.49754511 C17.2027799,5.3258917 16.4694274,4.86995176 15.8007512,4.25526132 C14.5943544,3.14668049 11.9816528,2.22357582 9.78426813,2.22357582 C6.94813993,2.22357582 4.55458884,3.10338491 4.55458884,4.39690738 C4.55458884,7.98776853 20.7743985,5.13025979 20.7743985,11.9196492 C20.7743985,15.4608006 17.3000613,17.4390348 11.0606862,17.4390348 C8.90071744,17.4390348 5.63216789,16.768755 3.70364348,15.7446273 C3.0991088,15.39559 2.84254236,16.0749565 2.72922551,16.9264364 L0.0630725834,16.9264364 L0.0630725834,10.8693304 L2.47479713,10.8693304 C3.00663798,12.4081945 3.73945588,12.725161 4.4134773,13.3361098 C5.58299266,14.4110163 8.36673854,15.1930094 10.9195746,15.1678873 C14.7686058,15.1299368 16.092061,14.2886127 16.092061,13.0672495 C16.092061,11.8464209 14.7830376,11.552973 10.5651922,10.893918 L6.98395233,10.3075568 C2.94249637,9.69660792 0,8.79328025 0,5.56962982 C0,2.22357582 3.72235145,0.122938086 9.6078787,0.122938086 C12.088021,0.122938086 14.163002,0.454336406 16.154599,1.58002167 C16.7062169,1.93868017 17.2236259,1.98144124 17.2166772,0.636070968 Z M67.9655192,10.4497373 L68.0168325,3.93508779 C68.0168325,3.08040083 67.5721173,2.78748748 66.3015789,2.78748748 L64.808683,2.78748748 L64.808683,0.760612594 L74.3069864,0.760612594 L74.3069864,2.78748748 L73.0690533,2.78748748 C71.7974459,2.78748748 71.3527307,3.08093534 71.3527307,3.93508779 L71.3527307,17.0504435 L67.6351899,17.0210453 L55.5958097,5.6204086 L55.5958097,13.9000214 C55.5958097,14.7306553 56.0405248,15.0476218 57.3110632,15.0476218 L58.9637787,15.0476218 L58.9637787,17.0504435 L49.0993336,17.0504435 L49.0993336,15.0476218 L50.7338756,15.0476218 C52.004414,15.0476218 52.4491292,14.7301208 52.4491292,13.9000214 L52.4491292,3.93508779 C52.4491292,3.08040083 52.004414,2.78748748 50.7338756,2.78748748 L49.0993336,2.78748748 L49.0993336,0.760612594 L57.6280297,0.760612594 L67.9655192,10.4497373 L67.9655192,10.4497373 Z M36.149677,0 C28.579898,0 23.8414365,3.34658851 23.8414365,8.71898288 C23.8414365,13.9951648 28.5141528,17.3160967 35.9187672,17.3160967 C43.7835976,17.3160967 48.358498,14.0438056 48.358498,8.45065715 C48.3590325,3.41981685 43.4222666,0 36.149677,0 Z M35.9775637,15.1919404 C31.787513,15.1919404 29.3789955,12.7738017 29.3789955,8.59711382 C29.3789955,4.51877644 31.8922776,2.10063773 36.1870929,2.10063773 C40.3071224,2.10063773 42.7156398,4.56795167 42.7156398,8.76869263 C42.7156398,12.8716176 40.2718445,15.1919404 35.9775637,15.1919404 Z" id="Shape"></path>
        </g>
    </g>
</svg>