<?xml version="1.0" encoding="UTF-8"?>
<svg width="100px" height="100px" viewBox="0 0 100 100" version="1.1" xmlns="http://www.w3.org/2000/svg" xmlns:xlink="http://www.w3.org/1999/xlink">
    <title>vauxhall</title>
    <g id="Page-1" stroke="none" stroke-width="1" fill="none" fill-rule="evenodd">
        <g id="vauxhall" fill="#000000" fill-rule="nonzero">
            <path d="M33.5541667,62.375 C29.2416667,62.375 24.9375,62.4416667 21.625,62.4416667 C21.2625,62.4416667 20.4583333,61.5208333 19.4666667,61.0541667 C18.3583333,60.5333333 17.1916667,60.5041667 16.3458333,60.5041667 C16.2375,60.5041667 16.2208333,60.4916667 16.1666667,60.3541667 C15.4708333,58.2416667 14.55,53.5375 14.55,50.1583333 C14.55,45.5 15.1625,42.8666667 15.6291667,40.5458333 C15.6416667,40.4708333 15.6291667,40.4 15.8083333,40.4 C15.6208333,40.4 21.0583333,40.3791667 32.8625,40.3791667 C33.0125,40.3791667 33.0291667,40.3375 33.125,40.1666667 C34.9583333,36.8625 40.125,27.6666667 41.2583333,25.6541667 C41.3,25.5708333 41.4166667,25.45 41.1833333,25.45 L22.6375,25.4833333 C22.4166667,25.3666667 22.1708333,25.1875 21.9083333,25.0458333 C21.4083333,25.1291667 20.35,25.3541667 19.725,25.5125 C19.1833333,26.2208333 17.7125,28.325 16.8291667,29.6583333 C13.480398,34.8556926 11.5484764,40.8381856 11.225,47.0125 C11.0375,50.6875 11.0666667,53.8875 12.6791667,60.5458333 C11.6083333,60.7791667 10.975,61.0541667 10.4791667,61.3791667 C10.275,60.8375 8.7375,55.8166667 8.7375,49.1458333 C8.7375,45.1208333 9.2875,38.2083333 13.7208333,30.0875 C16.45,25.0875 20.7208333,19.8208333 27.6208333,15.2916667 C36.6801924,9.50205617 47.6963378,7.62345021 58.1625,10.0833333 C55.125,10.2166667 51.3416667,10.3875 45.0583333,13.3 C42.5,14.4833333 39.65,16.925 38.9458333,17.5916667 C38.625,17.9958333 38.8041667,18.2541667 39,18.2041667 C42.4083333,17.1208333 57.2416667,13.4541667 68.8166667,22.7583333 C72.3583333,25.6041667 73.3833333,26.8375 75.4583333,29.8 C77.2041667,32.2875 77.9291667,33.95 78.9333333,36.7708333 C80.475,41.0916667 81.2916667,48.2458333 79.1375,53.6875 C76.0125,61.55 71.6916667,63.975 67.6041667,66.1875 C64.2708333,65.3416667 58.6875,59.9208333 57.2458333,53.2208333 C56.4125,49.3333333 56.2041667,44.2125 58.9125,42.9625 C60.325,42.3041667 61.7875,42.4166667 63.6833333,42.4208333 C63.725,42.4208333 64.15,42.4875 64.2125,42.0416667 C64.1708333,41.125 61.8958333,40 60.0916667,39.4041667 C60.3125,39.3541667 61.4166667,39.1 62.0416667,39.0541667 C65.125,38.8416667 66.125,39.4916667 66.5583333,39.8708333 C66.9416667,40.2083333 67.3833333,41.1208333 67.6208333,41.5875 C67.7625,41.8625 67.7666667,41.8958333 67.9708333,41.5875 C68.4375,40.6541667 68.8166667,39.7041667 69.0208333,39.1416667 C69.325,38.2875 69.4125,37.3708333 69.4125,37.025 C69.4125,33.4 67.2541667,32.8166667 63.7583333,32.1916667 C63.5,32.1291667 63.2291667,31.9333333 63.2291667,31.8958333 C63.0458333,31.6166667 62.9541667,31.0791667 62.8541667,30.7291667 C62.6458333,30.0541667 62.3041667,29.8666667 61.6875,29.6041667 C60.4628778,29.1863152 59.1772741,28.9750989 57.8833333,28.9791667 C56.1208333,28.9625 54.8833333,28.8125 54.3583333,28.2708333 C54.0333333,27.9375 53.7333333,27.5291667 53.9375,26.3875 C54.1375,25.2541667 54.4125,24.3666667 54.55,23.9541667 C54.625,23.7083333 54.5916667,23.6125 54.3166667,23.7208333 C53.3416667,24.1875 51.4791667,25.2041667 50.15,26.0833333 C49.4833333,26.5166667 48.1791667,27.6666667 47.7416667,28.3708333 C47.5125,28.7458333 47.175,29.7958333 46.4208333,30.25 C43.0125,32.8333333 42.225,33.6041667 39.2541667,37.175 C39.1791667,37.2458333 39.1958333,37.8 39.2958333,37.7875 C39.6110893,37.7259103 39.9250447,37.6578403 40.2375,37.5833333 C38.925,38.875 37.2375,40.5416667 35.5791667,43.4958333 C34.8716534,44.7547064 34.2046447,46.0359188 33.5791667,47.3375 C33.5125,47.5291667 33.5,48.075 33.6291667,48.0625 C34.4083333,47.8583333 34.7875,47.7916667 34.7875,47.825 C32.8083333,51.6666667 31.7291667,55.5333333 30.6791667,60.2958333 C30.6083333,60.6 30.6208333,61.2541667 30.7708333,61.1833333 C31.8291667,60.7958333 32.7583333,60.4541667 33.5625,60.1916667 C33.7208333,60.1041667 33.8958333,60.075 33.8375,60.3375 C33.6583333,62.6708333 33.6833333,62.3791667 33.5541667,62.3791667 L33.5541667,62.375 Z M16.9666667,74.0166667 C21.5916667,80.2666667 28.9375,85.2666667 35.1208333,87.75 C37.6083333,86.075 38.3,85.5416667 38.3,85.5416667 C36.8783751,82.7593263 35.6518097,79.8815617 34.6291667,76.9291667 C34.5458333,76.6791667 33.475,76.0041667 32.4416667,75.2833333 C32.5333333,76.1416667 32.6416667,76.9083333 32.7541667,77.675 C28.5333333,76.2791667 26.6458333,75.0833333 25.7875,74.6125 C24.1875,73.7375 24.1208333,73.0791667 21.1833333,73.1083333 C18.1958333,73.1375 19.7666667,73.1333333 19.4,73.1333333 C19.0333333,73.1333333 18.7125,73.325 18.3458333,73.5458333 C17.975,73.7458333 17.7791667,73.9041667 16.9666667,74.0166667 L16.9666667,74.0166667 Z M30.8458333,38.2666667 L25.9583333,38.2666667 C25.9083333,38.2666667 25.8666667,38.225 25.8666667,38.2166667 C25.8416667,38.15 23.55,28.1791667 23.4916667,27.9666667 C23.4625,27.8541667 23.5,27.8583333 23.5958333,27.8583333 L26.8041667,27.85 L28.6166667,35.6833333 C28.6791667,35.7333333 29.0541667,35.7208333 29.1625,35.6833333 C29.4208333,35.2 31.6625,31.1666667 33.4666667,27.9416667 C33.525,27.8375 33.5541667,27.8166667 33.7,27.8166667 L36.7375,27.8166667 C36.8416667,27.8166667 36.8083333,27.8583333 36.775,27.9208333 L30.95,38.2083333 C30.9583333,38.2125 30.9208333,38.2708333 30.8458333,38.2708333 L30.8458333,38.2666667 Z M50,100 C22.3875,100 0,77.6125 0,50 C0,22.3875 22.3875,0 50,0 C77.6125,0 100,22.3875 100,50 C100,77.6125 77.6125,100 50,100 Z M50,95.0958333 C74.9041667,95.0958333 95.0958333,74.9041667 95.0958333,50 C95.0958333,25.0958333 74.9041667,4.90416667 50,4.90416667 C25.0958333,4.90416667 4.90416667,25.0958333 4.90416667,50 C4.90416667,74.9041667 25.0958333,95.0958333 50,95.0958333 Z" id="Shape"></path>
        </g>
    </g>
</svg>