<?xml version="1.0" encoding="UTF-8"?>
<svg width="100px" height="100px" viewBox="0 0 100 100" version="1.1" xmlns="http://www.w3.org/2000/svg" xmlns:xlink="http://www.w3.org/1999/xlink">
    <title>vw</title>
    <g id="Page-1" stroke="none" stroke-width="1" fill="none" fill-rule="evenodd">
        <g id="Artboard" transform="translate(-260.000000, -12.000000)" fill="#000000" fill-rule="nonzero">
            <g id="vw" transform="translate(260.000000, 12.000000)">
                <path d="M50,94.0833333 C35.7963862,94.0619085 22.4801342,87.1724358 14.2573414,75.5910376 C6.03454872,64.0096394 3.92064548,49.166499 8.58333333,35.75 L34.2916667,85.75 C34.6666667,86.4583333 35,87 35.9166667,87 C36.8333333,87 37.1666667,86.4583333 37.5,85.75 L49.4583333,59.125 C49.6666667,58.75 49.8333333,58.5833333 50,58.5833333 C50.1666667,58.5833333 50.375,58.9583333 50.5416667,59.125 L62.7083333,85.75 C63.0416667,86.4583333 63.4166667,87 64.2916667,87 C65.1666667,87 65.5416667,86.4583333 65.9166667,85.75 L91.6666667,35.5416667 C93.3203277,40.1804243 94.1385431,45.0756098 94.0833333,50 C93.8572953,74.2523077 74.2523077,93.8572953 50,94.0833333 L50,94.0833333 Z M50,38.5416667 C49.625,38.5416667 49.625,38.2083333 49.4583333,38.0416667 L35.7083333,8.33333333 C44.9443152,4.99856723 55.0556848,4.99856723 64.2916667,8.33333333 L50.5416667,37.9583333 C50.375,38.2083333 50.375,38.5833333 50,38.5416667 Z M35.5416667,70.8333333 C35.1666667,70.8333333 35.1666667,70.5 35,70.2916667 L12.5,26.9583333 C16.5421414,20.5088329 22.1268674,15.1675437 28.75,11.4166667 L44.6666667,45.8333333 C45,46.5833333 45.375,46.75 45.9166667,46.75 L54.25,46.75 C54.7916667,46.75 55.1666667,46.75 55.5,45.8333333 L71.1666667,11.5416667 C77.8191459,15.2276946 83.4362993,20.5295996 87.5,26.9583333 L65,70.1666667 C65,70.5416667 64.6666667,70.7083333 64.4583333,70.7083333 C64.25,70.7083333 64.125,70.375 63.9583333,70.1666667 L55.3333333,51.25 C55.1767947,50.698877 54.6547474,50.3334439 54.0833333,50.375 L45.8333333,50.375 C45.2619193,50.3334439 44.739872,50.698877 44.5833333,51.25 L36,70.2083333 C36,70.2083333 35.875,70.8333333 35.5416667,70.8333333 Z M50,100 C77.6142375,100 100,77.6142375 100,50 C100,22.3857625 77.6142375,0 50,0 C22.3857625,0 0,22.3857625 0,50 C0,77.6142375 22.3857625,100 50,100 Z" id="Shape"></path>
            </g>
        </g>
    </g>
</svg>