<?xml version="1.0" standalone="no"?>
<!DOCTYPE svg PUBLIC "-//W3C//DTD SVG 20010904//EN"
 "http://www.w3.org/TR/2001/REC-SVG-20010904/DTD/svg10.dtd">
<svg version="1.0" xmlns="http://www.w3.org/2000/svg"
 width="120.000000pt" height="120.000000pt" viewBox="0 0 120.000000 120.000000"
 preserveAspectRatio="xMidYMid meet">
<metadata>
Created by potrace 1.14, written by Peter Selinger 2001-2017
</metadata>
<g transform="translate(0.000000,120.000000) scale(0.100000,-0.100000)"
fill="#000000" stroke="none">
<path d="M384 760 c-28 -10 -62 -25 -75 -33 -32 -21 -135 -44 -179 -40 -35 3
-36 2 -38 -34 0 -21 -4 -61 -7 -89 l-7 -52 37 -4 c39 -4 65 11 65 38 0 17 12
31 50 57 l25 18 -30 -6 c-16 -4 -46 -8 -66 -10 -34 -4 -36 -3 -31 20 2 13 13
27 23 30 30 10 94 8 130 -3 58 -19 137 -30 262 -36 58 -3 63 11 5 17 -24 2 65
3 197 3 132 0 254 -4 270 -9 41 -13 65 -35 87 -82 l19 -40 -6 40 c-14 93 -72
127 -213 127 -196 0 -470 -10 -481 -16 -6 -4 -11 -2 -11 5 0 8 -5 7 -17 -2
-11 -9 -14 -10 -9 -2 5 9 2 11 -8 7 -8 -3 -29 2 -48 12 l-33 17 44 19 c66 28
178 38 260 23 50 -9 73 -14 91 -20 86 -27 69 -7 -25 31 -88 35 -203 41 -281
14z m111 -120 c3 -6 -1 -7 -9 -4 -18 7 -21 14 -7 14 6 0 13 -4 16 -10z"/>
<path d="M878 602 c-16 -9 -35 -31 -43 -49 l-16 -33 -125 1 c-70 0 -129 -2
-131 -5 -3 -3 -14 -1 -24 4 -10 6 -20 7 -23 2 -2 -4 -23 -6 -46 -4 -34 3 -45
10 -63 38 -12 18 -32 38 -44 43 -28 13 -28 10 -3 -19 11 -12 22 -37 26 -55 l6
-32 232 1 233 0 11 43 c9 31 21 49 45 63 25 16 28 20 12 20 -11 0 -32 -8 -47
-18z"/>
<path d="M269 592 c-15 -2 -36 -13 -48 -25 -37 -41 -33 -90 12 -129 56 -49
146 16 128 91 -9 32 -60 68 -92 63z"/>
<path d="M910 568 c-21 -23 -23 -28 -24 -68 -1 -34 46 -80 81 -80 55 1 99 61
81 111 -20 59 -98 80 -138 37z"/>
</g>
</svg>
