<svg xmlns="http://www.w3.org/2000/svg" xmlns:xlink="http://www.w3.org/1999/xlink" width="33" height="34" viewBox="0 0 33 34">
  <defs>
    <path id="close-icon-b" d="M12,2 C17.514,2 22,6.486 22,12 C22,17.514 17.514,22 12,22 C6.486,22 2,17.514 2,12 C2,6.486 6.486,2 12,2 Z M12,0 C5.373,0 0,5.373 0,12 C0,18.627 5.373,24 12,24 C18.627,24 24,18.627 24,12 C24,5.373 18.627,0 12,0 Z M17,15.538 L13.408,11.99 L16.954,8.403 L15.538,7 L11.993,10.589 L8.405,7.046 L7,8.451 L10.593,12.003 L7.046,15.595 L8.451,17 L12.006,13.404 L15.597,16.954 L17,15.538 Z"/>
    <filter id="close-icon-a" width="141.7%" height="141.7%" x="-16.7%" y="-16.7%" filterUnits="objectBoundingBox">
      <feOffset dx="1" dy="1" in="SourceAlpha" result="shadowOffsetOuter1"/>
      <feGaussianBlur in="shadowOffsetOuter1" result="shadowBlurOuter1" stdDeviation="1.5"/>
      <feColorMatrix in="shadowBlurOuter1" values="0 0 0 0 0   0 0 0 0 0   0 0 0 0 0  0 0 0 0.303045743 0"/>
    </filter>
  </defs>
  <g fill="none" transform="translate(4 5)">
    <use fill="#000" filter="url(#close-icon-a)" xlink:href="#close-icon-b"/>
    <use fill="#FFF" fill-rule="evenodd" xlink:href="#close-icon-b"/>
  </g>
</svg>
