<?xml version="1.0" encoding="UTF-8"?>
<svg width="250px" height="51px" viewBox="0 0 250 51" version="1.1" xmlns="http://www.w3.org/2000/svg" xmlns:xlink="http://www.w3.org/1999/xlink">
    <title>fords-of-winsford</title>
    <g id="Page-1" stroke="none" stroke-width="1" fill="none" fill-rule="evenodd">
        <g id="Group-21" transform="translate(-1400.000000, -3.000000)" fill="#FFFFFF">
            <g id="fords-of-winsford" transform="translate(1400.000000, 3.000000)">
                <g id="Group" transform="translate(125.000000, 25.257047) scale(-1, 1) rotate(-180.000000) translate(-125.000000, -25.257047) translate(0.000000, 0.000000)">
                    <path d="M22.246696,50.3359727 C22.0088106,50.2388263 21.6299559,50.0975225 21.4096916,50.0180392 C20.5374449,49.7177686 19.5154185,49.161385 19.1101322,48.7551366 C18.7136564,48.3753827 18.6784141,48.3135623 18.6784141,47.9161454 C18.6784141,47.509897 18.7048458,47.4569081 19.1101322,47.0771541 C19.5066079,46.6974002 20.3436123,46.2293314 21.2334802,45.8849035 C21.4537445,45.7965886 21.7092511,45.6994422 21.8061674,45.6641163 C22.7929515,45.2755309 23.1453744,45.222542 23.2334802,45.4433291 C23.3039648,45.6376218 23.0660793,45.8672405 22.6696035,46.0085443 C22.0088106,46.2293314 20.845815,46.8651985 20.5286344,47.165469 C19.8854626,47.7748416 19.876652,48.0486177 20.4845815,48.6226643 C20.8193833,48.9405978 21.2422907,49.1790479 22.8193833,49.9385558 C23.092511,50.0621966 23.2246696,50.1858374 23.2422907,50.3271412 C23.2687225,50.4949394 23.2334802,50.5214339 22.9779736,50.5126024 C22.8193833,50.5126024 22.4933921,50.4242875 22.246696,50.3359727 Z M15.7268722,49.6736112 C13.9735683,48.3577197 12.9515419,47.1743005 12.9515419,46.4501186 C12.9515419,46.1498481 13.5506608,45.6464533 14.0969163,45.4698236 C14.784141,45.2490364 15.1101322,45.2137105 16.722467,45.1607216 C18.0792952,45.1253956 18.1497797,45.1253956 18.1497797,45.2843624 C18.1497797,45.549307 17.9735683,45.6641163 17.5682819,45.6641163 C17.1453744,45.6641163 15.814978,45.876072 15.2599119,46.0350387 C15.0572687,46.0968591 14.7665198,46.2558259 14.6167401,46.3971297 C14.3700441,46.6179168 14.3436123,46.6885687 14.3876652,46.9888393 C14.4493392,47.4657395 14.8370044,47.9956287 15.814978,48.9052718 C16.3700441,49.435161 16.6519824,49.761926 16.6519824,49.8855669 C16.6519824,50.1946689 16.3171806,50.124017 15.7268722,49.6736112 Z M26.8281938,48.799294 C25.4889868,48.6226643 25.1101322,48.4990235 24.6519824,48.0662806 C23.9735683,47.4392451 24.7753304,46.167511 26.8105727,44.6220009 C27.6740088,43.9596394 28.0440529,43.8183356 28.0881057,44.1186062 C28.1057269,44.242247 27.8942731,44.4983601 27.3480176,45.0017548 C26.5022026,45.7700941 25.8590308,46.5825909 25.7709251,46.9800078 C25.6211454,47.6776952 26.4493392,48.0839436 28.4581498,48.3135623 C28.969163,48.3753827 29.4361233,48.4372031 29.4977974,48.454866 C29.6828194,48.507855 29.6211454,48.816957 29.4096916,48.8787774 C29.092511,48.9582608 27.7973568,48.9141033 26.8281938,48.799294 Z" id="Shape"></path>
                    <path d="M22.4229075,48.5431809 C22.1938326,48.3577197 22.1585903,48.2694048 22.1585903,47.9161454 C22.1585903,47.5717174 22.2026432,47.4657395 22.4052863,47.2891098 C22.6960352,47.0418282 23.0484581,47.0153337 23.3480176,47.2272894 C23.6563877,47.4392451 23.7004405,47.5187285 23.7004405,47.9338083 C23.7004405,48.2517418 23.6563877,48.3400567 23.4096916,48.5255179 C23.0396476,48.8081255 22.7665198,48.816957 22.4229075,48.5431809 Z M16.7753304,48.3223937 C16.5374449,48.2164159 16.2995595,47.8454935 16.2995595,47.5717174 C16.2995595,47.2626154 16.7488987,46.8122095 17.0660793,46.8122095 C17.4801762,46.8122095 17.6740088,46.9005244 17.8237885,47.165469 C18.0264317,47.509897 18.0088106,47.818999 17.7797357,48.0927751 C17.5594714,48.3400567 17.0837004,48.4460346 16.7753304,48.3223937 Z M10.1409692,47.52756 C9.85022026,47.2361209 9.27753304,46.4236241 8.98678414,45.8849035 C8.82819383,45.5934644 8.62555066,45.2402049 8.54625551,45.0900697 C8.26431718,44.5601805 8.10572687,44.0126283 8.10572687,43.5268966 C8.10572687,43.1029852 8.14096916,43.0058389 8.32599119,42.8557036 C8.8722467,42.4229607 9.77973568,42.4229607 11.4977974,42.8557036 C13.2511013,43.2972779 13.4713656,43.4032557 13.3303965,43.7741782 C13.2687225,43.9331449 13.092511,43.915482 12.1585903,43.6770318 C11.277533,43.4562447 9.96475771,43.4032557 9.62114537,43.5798855 C9.11894273,43.8448301 9.14537445,44.5601805 9.70044053,45.7082737 C9.89427313,46.0880276 10.0792952,46.4324556 10.1145374,46.4589501 C10.2643172,46.5649279 10.6696035,47.4480766 10.6255507,47.5628859 C10.5638767,47.7483471 10.3436123,47.7306841 10.1409692,47.52756 Z M28,47.0153337 C27.7004405,46.7062317 27.6563877,46.1321851 27.9118943,45.9113979 C28.3700441,45.5051495 28.7577093,45.5051495 29.1277533,45.9025664 C29.5770925,46.3882982 29.277533,47.1301431 28.5903084,47.2184579 C28.2819383,47.2626154 28.2026432,47.2361209 28,47.0153337 Z" id="Shape"></path>
                    <path d="M11.154185,46.0615332 C10.6343612,45.5758014 10.9955947,44.6926528 11.7092511,44.6926528 C12.2114537,44.7014843 12.4493392,44.9664289 12.4581498,45.4963181 C12.4669604,45.8672405 12.4317181,45.9643868 12.246696,46.1056906 C11.9295154,46.3529722 11.4449339,46.3353093 11.154185,46.0615332 Z M30.3964758,46.1321851 C30.1409692,46.0791962 29.8854626,45.8054201 29.8061674,45.513981 C29.6740088,44.9487659 30.0969163,43.8536616 31.0220264,42.3788033 C31.7356828,41.248373 32.1674009,40.8509561 32.2995595,41.2042156 C32.3524229,41.3366879 32.2819383,41.4956547 31.8061674,42.3523089 C31.1718062,43.4915706 30.9251101,44.1009432 30.9251101,44.5601805 C30.9251101,44.7986306 30.9867841,44.9046085 31.215859,45.0812382 C31.4801762,45.2843624 31.5947137,45.3108568 32.2290749,45.3108568 C32.9339207,45.3108568 33.277533,45.2578679 34.2995595,44.9752603 C34.6696035,44.878114 34.8546256,44.860451 34.9603524,44.9311029 C35.3568282,45.1783845 34.9515419,45.4521606 33.7004405,45.7877571 C33.4096916,45.8672405 33.0484581,45.9732183 32.8898678,46.0262072 C32.5814978,46.1233536 30.7312775,46.202837 30.3964758,46.1321851 Z" id="Shape"></path>
                    <path d="M32.9867841,43.9684709 C32.5550661,43.7653467 32.4757709,43.0764907 32.8281938,42.7143998 C33.4361233,42.1138587 34.5022026,42.7673887 34.185022,43.5445595 C33.9911894,44.0126283 33.4537445,44.1980895 32.9867841,43.9684709 Z M5.2246696,43.4827391 C5.14537445,43.4562447 4.81938326,42.5201071 4.49339207,41.3808453 C4.29955947,40.7008209 4.21145374,39.5174017 4.30837004,39.0228384 C4.44933921,38.3516455 4.63436123,38.2015102 5.29515419,38.2103417 C6.04405286,38.2191732 6.85462555,38.5812641 8.30837004,39.5527276 C9.18061674,40.1267742 9.49779736,40.4447078 9.38325991,40.630169 C9.30396476,40.7538098 8.81938326,40.6566634 8.62555066,40.4888652 C8.55506608,40.4182133 8.44933921,40.3652244 8.39647577,40.3652244 C8.34361233,40.3652244 8.28193833,40.3387299 8.26431718,40.2945725 C8.22907489,40.2062576 6.82819383,39.5262332 6.42290749,39.4025924 C5.89427313,39.2436256 5.67400881,39.2789515 5.4185022,39.5880536 C5.18942731,39.8618297 5.18061674,39.8883241 5.2246696,40.7979672 C5.25110132,41.3101934 5.31277533,41.937229 5.36563877,42.1756791 C5.6123348,43.2796149 5.57709251,43.6063799 5.2246696,43.4827391 Z" id="Shape"></path>
                    <path d="M7.00440529,42.5995905 C6.75770925,42.5377701 6.55506608,42.3434774 6.43171806,42.0343753 C6.1938326,41.4691602 6.85462555,40.8509561 7.45374449,41.0717433 C7.85903084,41.2307101 8.01762115,41.4250028 8.01762115,41.7694307 C8.01762115,42.3169829 7.52422907,42.7143998 7.00440529,42.5995905 Z M34.5991189,42.2993199 C34.30837,42.1315217 34.1497797,41.6811159 34.1497797,41.0275859 C34.1585903,40.4270448 34.2995595,39.4025924 34.4493392,38.9521865 C34.4845815,38.8285457 34.5903084,38.4752863 34.6784141,38.1573528 C35.0660793,36.7531464 35.5947137,36.6295056 35.3303965,37.998386 C34.9603524,39.958976 34.9603524,40.647832 35.3303965,41.0275859 C35.6299559,41.3278564 36.2995595,41.248373 37.2334802,40.7979672 C37.6651982,40.594843 38.0352423,40.4005503 38.061674,40.3740559 C38.1321586,40.285741 38.4493392,40.1002798 38.6167401,40.0472909 C38.6960352,40.0119649 38.7665198,39.958976 38.7665198,39.9148186 C38.7665198,39.8706611 38.8898678,39.8353352 39.030837,39.8353352 C39.3920705,39.8353352 39.3832599,40.0914483 38.9955947,40.4270448 C38.6431718,40.7449783 37.3656388,41.592801 36.8634361,41.8489141 C35.876652,42.3523089 34.9955947,42.5289386 34.5991189,42.2993199 Z M140.396476,40.1356057 C140.299559,40.1179428 140,40.0561224 139.735683,39.994302 C138.784141,39.8000092 137.753304,39.1464792 137.180617,38.3869714 C136.325991,37.2388782 136.123348,36.4793703 136.123348,34.386308 C136.123348,33.5208223 136.088106,32.7613145 136.044053,32.6906626 C135.982379,32.5935162 135.735683,32.5670218 134.898678,32.5846848 C133.559471,32.6111792 133.480176,32.5670218 133.480176,31.9311548 L133.480176,31.445423 L134.696035,31.445423 C135.524229,31.445423 135.947137,31.4100971 136.017621,31.3394452 C136.096916,31.2599618 136.123348,29.7144516 136.123348,24.9366174 L136.123348,18.6309361 L136.810573,18.6574305 L137.488987,18.683925 L137.53304,25.0425953 L137.577093,31.4012656 L138.92511,31.42776 L140.264317,31.4542545 L140.264317,31.9134918 C140.264317,32.1607734 140.229075,32.4168865 140.193833,32.4698754 C140.15859,32.5316958 139.69163,32.5670218 138.92511,32.5670218 C138.264317,32.5758533 137.674009,32.6023477 137.629956,32.6376737 C137.436123,32.752483 137.54185,35.3401086 137.779736,36.346898 C138.035242,37.4684968 138.757709,38.2280046 139.920705,38.5900956 C140.431718,38.7490624 141.638767,38.7049049 142.334802,38.5017807 C142.678414,38.3958029 143.048458,38.307488 143.171806,38.307488 C143.38326,38.2898251 143.392113,38.307488 143.392113,38.9080291 C143.392113,39.5703906 143.409692,39.5527276 142.731278,39.8176722 C142.105727,40.0649538 140.837004,40.2415836 140.396476,40.1356057 Z M211.894273,40.1356057 C210.519824,39.9059871 209.735683,39.5174017 208.969163,38.7049049 C207.885463,37.5479802 207.577093,36.5323592 207.577093,34.1301949 C207.577093,33.406013 207.54185,32.7613145 207.497797,32.6906626 C207.436123,32.5935162 207.189427,32.5670218 206.352423,32.5846848 C205.770925,32.5935162 205.22467,32.5670218 205.136564,32.5140329 C205.013216,32.4522125 204.977974,32.3374031 204.986784,31.9576492 L205.004405,31.4895804 L206.193833,31.463086 C207.048458,31.445423 207.409692,31.4100971 207.480176,31.3217822 C207.550661,31.2422988 207.585903,29.3170347 207.594714,24.9454489 L207.621145,18.683925 L208.281938,18.683925 L208.942731,18.683925 L208.969163,24.9454489 C208.977974,29.3965181 209.013216,31.2422988 209.0837,31.3306137 C209.162996,31.4189285 209.497797,31.445423 210.449339,31.445423 L211.718062,31.445423 L211.718062,31.9223233 C211.718062,32.2225938 211.674009,32.4345495 211.594714,32.4963699 C211.506608,32.5670218 211.092511,32.5935162 210.30837,32.5846848 C209.39207,32.5670218 209.127753,32.5935162 209.066079,32.6906626 C208.960352,32.8672923 208.969163,34.7042415 209.0837,35.4107604 C209.39207,37.3360245 209.929515,38.0867009 211.303965,38.5547696 C211.85022,38.7402309 213.22467,38.6960734 213.964758,38.4752863 C214.969163,38.1661842 214.889868,38.1308583 214.889868,38.8991976 C214.889868,39.6410425 214.933921,39.5703906 214.229075,39.8353352 C213.647577,40.0472909 212.361233,40.2150891 211.894273,40.1356057 Z M45.9559471,39.7823463 C45.8854626,39.6057165 45.8854626,18.9665325 45.9559471,18.7810713 C46,18.6574305 46.2114537,18.6397675 47.4096916,18.6397675 C48.1762115,18.6397675 48.8193833,18.648599 48.8281938,18.666262 C48.845815,18.6750935 48.8722467,20.8917966 48.8986784,23.5854 L48.9427313,28.486875 L53.0396476,28.5310324 L57.1365639,28.5751899 L57.1629956,29.7232831 C57.1718062,30.3591502 57.1629956,30.9596912 57.1365639,31.0745006 L57.092511,31.2687933 L53.0484581,31.2687933 C49.4449339,31.2687933 48.9955947,31.2864562 48.9515419,31.4100971 C48.9251101,31.4895804 48.8986784,32.770146 48.8986784,34.2626672 C48.8986784,36.2497517 48.9251101,37.000428 49.0044053,37.0799114 C49.0837004,37.1593948 50.123348,37.1858892 53.1453744,37.1858892 L57.1894273,37.1858892 L57.1629956,38.5371067 L57.1365639,39.8794926 L51.5770925,39.9059871 C46.5550661,39.9236501 46.0088106,39.9148186 45.9559471,39.7823463 Z" id="Shape"></path>
                    <path d="M95.1101322,39.6851999 C95.0837004,39.5615591 95.0572687,37.9189026 95.0660793,36.0466275 C95.0748899,34.1743523 95.0748899,32.5846848 95.0748899,32.5316958 C95.0660793,32.3815606 94.7929515,32.3903921 94.2378855,32.5405273 C93.3039648,32.8054719 92.9251101,32.8584608 92.1321586,32.8584608 C90.9251101,32.8584608 89.938326,32.6288422 88.8105727,32.0901215 C86.1321586,30.8007245 84.7665198,27.7715246 85.339207,24.3714023 C85.5154185,23.3027924 85.6828194,22.7817347 86.061674,22.0398899 C86.1585903,21.8455972 86.30837,21.5541581 86.3964758,21.4040228 C86.6519824,20.8917966 87.9295154,19.7701978 88.6431718,19.4169384 C90.0881057,18.7104194 90.7753304,18.6221046 94.6255507,18.6574305 L97.753304,18.683925 L97.753304,29.2817088 L97.753304,39.8794926 L96.4669604,39.9059871 L95.1718062,39.9324815 L95.1101322,39.6851999 Z M94.0969163,30.2001834 C94.9779736,29.8999129 95.0660793,29.8380925 95.0660793,29.5554849 C95.0748899,29.4053496 95.0660793,27.4359281 95.0660793,25.1750676 C95.0572687,22.0663843 95.030837,21.0595949 94.9515419,21.0066059 C94.8898678,20.97128 94.1145374,20.935954 93.2246696,20.935954 C91.5330396,20.935954 90.907489,21.0242689 90.0528634,21.3951913 C89.6299559,21.5718211 88.7400881,22.4284753 88.5550661,22.8347236 C88.4933921,22.9848589 88.4052863,23.1614886 88.3700441,23.240972 C88.0088106,23.9563224 87.9030837,25.9434069 88.1585903,26.9590278 C88.6255507,28.795977 89.9118943,30.0588796 91.5859031,30.3238242 C92.0352423,30.4033076 93.7709251,30.3149927 94.0969163,30.2001834 Z" id="Shape"></path>
                    <path d="M144.317181,39.7911778 C144.317181,39.7205259 144.361233,39.5527276 144.414097,39.4202553 C144.475771,39.287783 144.572687,39.0316699 144.643172,38.8638717 C144.713656,38.6960734 144.801762,38.4752863 144.845815,38.3781399 C144.881057,38.2809936 145.022026,37.9277341 145.154185,37.5833061 C145.286344,37.2477096 145.427313,36.8856187 145.471366,36.7884723 C145.515419,36.691326 145.665198,36.2939091 145.814978,35.9053237 C145.964758,35.5167383 146.132159,35.1016584 146.185022,34.9780176 C146.343612,34.6070952 146.414097,34.4304654 146.696035,33.6974521 C146.845815,33.3088667 147.004405,32.9114498 147.039648,32.8143034 C147.0837,32.7171571 147.171806,32.4963699 147.22467,32.3285717 C147.330396,32.0547956 147.444934,31.7456935 147.665198,31.2246358 C147.709251,31.1274895 147.867841,30.7300726 148.017621,30.3414872 C148.176211,29.9529018 148.334802,29.5378219 148.387665,29.4141811 C148.440529,29.2905403 148.511013,29.1139106 148.555066,29.0167642 C148.599119,28.9196179 148.748899,28.522201 148.898678,28.1336156 C149.048458,27.7450301 149.207048,27.3476133 149.242291,27.2504669 C149.286344,27.1533206 149.427313,26.8000611 149.559471,26.4556331 C149.788546,25.8815865 149.938326,25.4930011 150.132159,25.0425953 C150.167401,24.9454489 150.30837,24.5921895 150.440529,24.2477615 C150.572687,23.912165 150.740088,23.4882536 150.810573,23.3204554 C151.030837,22.7729032 151.07489,22.6669254 151.23348,22.260677 C151.497797,21.5806526 151.524229,21.5188322 151.674009,21.1567412 C151.876652,20.662178 151.938326,20.5032112 152.114537,20.0528054 C152.202643,19.8320182 152.299559,19.5759051 152.334802,19.4787588 C152.378855,19.3816124 152.475771,19.1166678 152.572687,18.8870492 C152.704846,18.5249582 152.76652,18.4631378 152.977974,18.4631378 C153.110132,18.4631378 153.215859,18.4984638 153.215859,18.5514527 C153.215859,18.5956101 153.312775,18.8428917 153.427313,19.0990048 C153.621145,19.5405792 153.753304,19.8585127 154.325991,21.3510339 C154.537445,21.8985861 154.696035,22.27834 154.889868,22.7464088 C154.92511,22.8435551 155.066079,23.2056461 155.198238,23.5412426 C155.330396,23.8856705 155.488987,24.2830874 155.550661,24.4243912 C155.674009,24.7158303 155.753304,24.9189545 155.991189,25.528327 C156.255507,26.2083515 156.281938,26.2701719 156.431718,26.6322628 C156.511013,26.8265555 156.60793,27.0650057 156.651982,27.162152 C156.687225,27.2592984 156.828194,27.6213893 156.960352,27.9569858 C157.092511,28.3014138 157.259912,28.7164937 157.330396,28.8842919 C157.550661,29.4318441 157.594714,29.5378219 157.753304,29.9440703 C157.84141,30.1648575 157.938326,30.4209706 157.973568,30.5181169 C158.017621,30.6152633 158.211454,31.1098265 158.414097,31.6220527 C158.60793,32.1342789 158.810573,32.6288422 158.854626,32.7259885 C158.889868,32.8231349 159.030837,33.1852258 159.162996,33.5208223 C159.295154,33.8652503 159.453744,34.2626672 159.506608,34.403971 C159.762115,35.0045121 160.035242,35.7021995 160.123348,35.9759756 C160.167401,36.1084479 160.202643,36.1172794 160.352423,36.037796 C160.449339,35.9848071 160.528634,35.9053237 160.528634,35.8523348 C160.528634,35.7993459 160.581498,35.6315476 160.651982,35.4814123 C160.713656,35.3224456 160.819383,35.057501 160.881057,34.8897027 C160.942731,34.7219045 161.048458,34.4657914 161.101322,34.3156561 C161.162996,34.1743523 161.38326,33.6356317 161.585903,33.1234054 C161.788546,32.6111792 161.991189,32.116616 162.026432,32.0194696 C162.061674,31.9223233 162.202643,31.5690638 162.334802,31.2246358 C162.46696,30.8890393 162.60793,30.5269484 162.651982,30.429802 C162.713656,30.2796668 163.0837,29.3346977 163.348018,28.6635047 C163.38326,28.5663584 163.453744,28.3897287 163.506608,28.2660879 C163.559471,28.142447 163.726872,27.7273672 163.876652,27.3387818 C164.035242,26.9501964 164.185022,26.5527795 164.229075,26.4556331 C164.273128,26.3584868 164.46696,25.8639235 164.669604,25.3516973 C164.863436,24.8394711 165.066079,24.3449078 165.110132,24.2477615 C165.145374,24.1506151 165.286344,23.7973557 165.418502,23.4529277 C165.550661,23.1173312 165.718062,22.6934199 165.788546,22.5256216 C166.008811,21.9780694 166.052863,21.8720916 166.211454,21.4658432 C166.475771,20.7858188 166.502203,20.7239984 166.651982,20.3619074 C166.854626,19.8673442 166.9163,19.7083774 167.092511,19.2579716 C167.356828,18.5779471 167.427313,18.4631378 167.585903,18.4631378 C167.779736,18.4631378 167.955947,18.7192509 168.140969,19.2756346 C168.211454,19.5052532 168.352423,19.8585127 168.449339,20.0704684 C168.537445,20.282424 168.722467,20.7328298 168.854626,21.0684263 C168.986784,21.4128543 169.154185,21.8279342 169.22467,21.9957324 C169.444934,22.5432846 169.488987,22.6492624 169.647577,23.0555108 C169.735683,23.276298 169.832599,23.5324111 169.867841,23.6295574 C170,23.9651539 170.678414,25.6607993 170.748899,25.8374291 C170.792952,25.9345754 170.986784,26.4291387 171.189427,26.9413649 C171.38326,27.4535911 171.585903,27.9481543 171.629956,28.0453007 C171.665198,28.142447 171.806167,28.504538 171.938326,28.8401345 C172.167401,29.4141811 172.317181,29.8027665 172.511013,30.2531723 C172.546256,30.3503187 172.687225,30.7124096 172.819383,31.0480061 C172.951542,31.3924341 173.092511,31.7456935 173.136564,31.8428399 C173.171806,31.9399862 173.330396,32.3374031 173.480176,32.7259885 C173.638767,33.114574 173.788546,33.5119908 173.832599,33.6091372 C173.911894,33.8122614 174.60793,35.5432327 174.713656,35.8170088 C174.748899,35.9141552 174.845815,36.1702683 174.933921,36.3910555 C175.092511,36.8061353 175.198238,37.0534169 175.374449,37.4949913 C175.506608,37.8129248 175.612335,38.0602064 175.814978,38.5989271 C175.894273,38.8197142 176,39.0581644 176.035242,39.1376478 C176.079295,39.2171311 176.140969,39.4290868 176.176211,39.6057165 L176.229075,39.9324815 L175.471366,39.9059871 C174.572687,39.8794926 174.669604,39.9678075 174.140969,38.5989271 C174.052863,38.3781399 173.955947,38.1220268 173.920705,38.0248805 C173.876652,37.9277341 173.726872,37.5303172 173.568282,37.1417318 C173.418502,36.7531464 173.259912,36.346898 173.207048,36.2409202 C173.110132,36.00247 173.07489,35.9141552 172.599119,34.713073 C172.396476,34.2008468 172.193833,33.7062835 172.15859,33.6091372 C172.123348,33.5119908 171.920705,33.0174276 171.718062,32.5052014 C171.515419,31.9929752 171.312775,31.4984119 171.277533,31.4012656 C171.23348,31.3041192 171.030837,30.809556 170.837004,30.2973298 C170.634361,29.7851035 170.440529,29.2905403 170.396476,29.1933939 C170.352423,29.0962476 170.14978,28.6016843 169.955947,28.0894581 C169.753304,27.5772319 169.559471,27.0826687 169.515419,26.9855223 C169.480176,26.888376 169.374449,26.6322628 169.295154,26.4114757 C169.207048,26.1906885 169.0837,25.872755 169.013216,25.7049568 C168.942731,25.5371585 168.854626,25.3163714 168.810573,25.219225 C168.77533,25.1220787 168.634361,24.7688192 168.502203,24.4243912 C168.281938,23.8680076 168.14978,23.5412426 167.929515,23.0113534 C167.894273,22.914207 167.832599,22.7640717 167.806167,22.6757569 C167.700441,22.3401604 167.506608,22.5521161 167.180617,23.3646128 C167.101322,23.5589055 166.995595,23.8061872 166.951542,23.9209965 C166.907489,24.0269743 166.828194,24.221267 166.77533,24.3625708 C166.722467,24.4950431 166.625551,24.7246618 166.563877,24.8659655 C166.502203,25.0161008 166.343612,25.4135177 166.211454,25.7491142 C166.079295,26.0935422 165.911894,26.508622 165.84141,26.6764203 C165.638767,27.179815 165.585903,27.3034558 165.330396,27.9569858 C165.198238,28.3014138 164.995595,28.7871456 164.881057,29.0432587 C164.76652,29.2993718 164.669604,29.5466534 164.669604,29.5908108 C164.669604,29.6437997 164.634361,29.7497776 164.590308,29.8380925 C164.546256,29.9175758 164.343612,30.4033076 164.140969,30.9155338 C163.938326,31.42776 163.735683,31.9134918 163.69163,31.9929752 C163.647577,32.08129 163.612335,32.1872679 163.612335,32.2402568 C163.612335,32.2844142 163.515419,32.5316958 163.400881,32.787809 C163.286344,33.0439221 163.127753,33.4325075 163.039648,33.6532946 C162.872247,34.077206 162.77533,34.3333191 162.599119,34.7572304 C162.475771,35.057501 162.378855,35.2782881 162.15859,35.8611663 C161.920705,36.4793703 161.814978,36.7354834 161.418502,37.636295 C161.321586,37.8659137 161.154185,38.2809936 161.048458,38.5636011 C160.951542,38.8550402 160.819383,39.2082997 160.757709,39.3584349 C160.440529,40.2062576 160.140969,40.1091113 159.700441,38.996344 C159.559471,38.6607475 159.39207,38.2368361 159.321586,38.0690379 C159.110132,37.5568117 159.066079,37.4508338 158.590308,36.2585832 C158.334802,35.6315476 158.070485,34.9691861 158,34.8013879 C157.665198,33.9888911 157.612335,33.8564188 157.268722,32.9909331 C157.118943,32.6023477 156.960352,32.2049308 156.9163,32.1077845 C156.581498,31.3041192 156.45815,30.9950172 156.167401,30.2531723 C156.035242,29.9175758 155.867841,29.4936645 155.797357,29.3258662 C155.726872,29.158068 155.629956,28.9284493 155.585903,28.8224715 C155.54185,28.7076622 155.471366,28.5310324 155.418502,28.4250546 C155.374449,28.3102453 155.215859,27.9039969 155.066079,27.5154115 C154.9163,27.1268261 154.713656,26.6410943 154.625551,26.4379701 C154.528634,26.2260145 154.449339,26.0317218 154.449339,26.0052273 C154.449339,25.9787328 154.387665,25.8109346 154.30837,25.6343049 C154.14978,25.2722139 154.176211,25.3252028 153.656388,24.0269743 C153.189427,22.8523866 153.004405,22.4814642 152.9163,22.4991272 C152.872247,22.5079586 152.722467,22.8082292 152.572687,23.1614886 C152.431718,23.5147481 152.220264,24.0181428 152.105727,24.2742559 C151.991189,24.5303691 151.894273,24.7776507 151.894273,24.8218081 C151.894273,24.874797 151.859031,24.9807749 151.814978,25.0690897 C151.770925,25.1485731 151.665198,25.3958547 151.585903,25.6166419 C151.497797,25.8374291 151.339207,26.2260145 151.22467,26.4821276 C151.110132,26.7382407 151.013216,26.9855223 151.013216,27.0296797 C151.013216,27.0826687 150.977974,27.1886465 150.933921,27.2769614 C150.889868,27.3564447 150.784141,27.6037264 150.704846,27.8245135 C150.61674,28.0453007 150.502203,28.3455712 150.440529,28.486875 C150.378855,28.6370103 150.281938,28.8931234 150.220264,29.0609216 C150.15859,29.2287199 150.017621,29.5819793 149.903084,29.8380925 C149.788546,30.0942056 149.69163,30.3414872 149.69163,30.3856446 C149.69163,30.4386335 149.656388,30.5446114 149.603524,30.6329262 C149.559471,30.7124096 149.356828,31.1981414 149.162996,31.7103676 C148.960352,32.2225938 148.76652,32.7171571 148.722467,32.8143034 C148.678414,32.9114498 148.475771,33.406013 148.281938,33.9182392 C148.079295,34.4304654 147.885463,34.9250287 147.84141,35.022175 C147.797357,35.1193214 147.594714,35.6138846 147.400881,36.1261109 C147.198238,36.6383371 147.004405,37.1329003 146.960352,37.2300467 C146.9163,37.327193 146.713656,37.8217563 146.511013,38.3339825 C146.317181,38.8462087 146.088106,39.4114238 146.008811,39.5968851 L145.867841,39.9236501 L145.092511,39.9236501 C144.475771,39.9236501 144.317181,39.8971556 144.317181,39.7911778 Z" id="Path"></path>
                    <path d="M248.722467,36.0113015 C248.722467,33.0174276 248.696035,32.0636271 248.61674,31.9488177 C248.511013,31.8163454 248.46696,31.8251769 248.105727,32.0018066 C247.656388,32.2225938 246.519824,32.6111792 245.876652,32.7613145 C244.986784,32.9732702 243.444934,32.8761238 242.370044,32.5405273 C242.140969,32.4698754 241.894273,32.4168865 241.814978,32.4168865 C241.735683,32.4168865 241.674009,32.3815606 241.674009,32.3285717 C241.674009,32.2844142 241.612335,32.2402568 241.54185,32.2402568 C241.462555,32.2402568 241.251101,32.1431104 241.057269,32.0194696 C240.863436,31.8958288 240.687225,31.7986825 240.651982,31.7986825 C240.625551,31.7986825 240.343612,31.5955583 240.035242,31.3571081 C238.334802,29.9970592 237.348018,27.6655468 237.471366,25.3075399 C237.488987,24.8218081 237.559471,24.2477615 237.621145,24.0269743 C237.876652,23.0555108 237.929515,22.896544 238.15859,22.4373067 C238.678414,21.3775284 238.889868,21.0684263 239.585903,20.3707389 C240.325991,19.646557 241.07489,19.1784882 242.246696,18.7280824 C243.154185,18.3748229 244.969163,18.2688451 245.982379,18.5161267 C246.713656,18.683925 246.969163,18.7987343 248.176211,19.4346013 C248.387665,19.5405792 248.581498,19.6112311 248.60793,19.5759051 C248.634361,19.5494107 248.678414,19.3286235 248.704846,19.0813419 L248.748899,18.6309361 L249.374449,18.6574305 L250,18.683925 L250,29.2817088 L250,39.8794926 L249.365639,39.9059871 L248.722467,39.9324815 L248.722467,36.0113015 Z M245.797357,31.3129507 C246.167401,31.2334673 246.555066,31.136321 246.651982,31.100995 C246.748899,31.0568376 247.004405,30.9508598 247.22467,30.8625449 C247.69163,30.6770837 248.45815,30.2090149 248.61674,30.0147222 C248.704846,29.9087443 248.722467,28.9549438 248.704846,25.528327 L248.678414,21.1832357 L248.414097,20.97128 C248.070485,20.6886724 247.215859,20.2735926 246.519824,20.0439739 C246.052863,19.8938386 245.744493,19.8585127 244.819383,19.8673442 C244.202643,19.8673442 243.612335,19.9115016 243.524229,19.9644905 C243.436123,20.008648 243.295154,20.0528054 243.215859,20.0528054 C243.057269,20.0528054 242.740088,20.1764462 241.938326,20.5738631 C241.22467,20.9094596 240.132159,22.0487213 239.709251,22.8700496 C239.53304,23.223309 239.38326,23.5854 239.38326,23.6648834 C239.38326,23.7443668 239.348018,23.8503446 239.303965,23.894502 C239.251101,23.9474909 239.162996,24.3714023 239.092511,24.8483026 C238.819383,26.6322628 239.356828,28.4780435 240.502203,29.7321146 C240.819383,30.0853741 241.762115,30.77423 242.079295,30.8890393 C242.220264,30.9420283 242.414097,31.0215116 242.511013,31.0568376 C243.444934,31.42776 244.722467,31.5249064 245.797357,31.3129507 Z" id="Shape"></path>
                    <path d="M177.682819,39.7823463 C177.647577,39.7470203 177.621145,39.1906367 177.621145,38.5371067 L177.621145,37.362519 L178.325991,37.362519 L179.039648,37.362519 L179.013216,38.5812641 L178.986784,39.7911778 L178.370044,39.8176722 C178.026432,39.8265037 177.718062,39.8176722 177.682819,39.7823463 Z M36.7929515,39.5085702 C36.2995595,39.3760979 36.1321586,38.5812641 36.5198238,38.2015102 C36.6696035,38.0425434 36.8281938,37.980723 37.0748899,37.980723 C37.5418502,37.980723 37.7973568,38.2015102 37.8590308,38.651916 C37.8942731,38.9433551 37.8678414,39.0493329 37.7004405,39.2436256 C37.4889868,39.4820757 37.1013216,39.5968851 36.7929515,39.5085702 Z M14.5374449,39.0493329 C14.5374449,38.8020513 14.5638767,38.7843883 14.9603524,38.7225679 C15.5859031,38.6254215 15.8942731,38.4046344 16.1674009,37.8482507 C16.3348018,37.5038228 16.3436123,37.2565411 16.3436123,28.8842919 L16.3436123,20.2735926 L16.1497797,19.9026701 C15.938326,19.5140847 15.5682819,19.1696567 15.3480176,19.1696567 C15.277533,19.1696567 15.0660793,19.1254993 14.8810573,19.0636789 C14.6079295,18.9841955 14.5374449,18.9223751 14.5374449,18.7545769 L14.5374449,18.5514527 L17.9559471,18.5426212 C22.3700441,18.5249582 22.2995595,18.5249582 22.4052863,18.6309361 C22.5814978,18.8075658 22.3788546,18.9841955 21.8854626,19.0901734 C21.3303965,19.2138142 20.9779736,19.4699273 20.7312775,19.9026701 C20.5903084,20.1587832 20.5726872,20.5473686 20.5462555,24.1859411 C20.5286344,27.2857928 20.5462555,28.2219304 20.6255507,28.3279083 C20.7577093,28.486875 21.5859031,28.4250546 22.2026432,28.2042674 C23.0044053,27.9128284 23.8678414,27.1091631 24.1409692,26.3938127 C24.1938326,26.234846 24.2819383,26.0228903 24.3171806,25.9257439 C24.4229075,25.6784623 24.5814978,24.7599877 24.6079295,24.2919189 C24.6255507,23.912165 24.6343612,23.894502 24.8898678,23.894502 L25.154185,23.894502 L25.154185,28.8842919 L25.154185,33.8740818 L24.8898678,33.8740818 C24.6431718,33.8740818 24.6255507,33.8475873 24.6079295,33.5208223 C24.4933921,31.6838731 23.8237885,30.482791 22.6343612,29.9705648 C22.185022,29.776272 21.2422907,29.5819793 20.907489,29.6084738 L20.5726872,29.6349683 L20.5462555,33.768104 C20.5374449,36.5146963 20.5550661,37.9542286 20.6167401,38.0690379 C20.7048458,38.2280046 20.8105727,38.2456676 21.8678414,38.2456676 C23.0484581,38.2456676 23.814978,38.1573528 24.6696035,37.9277341 C25.2863436,37.7599359 25.5154185,37.653958 25.9471366,37.3183615 C26.8193833,36.656 27.2422907,35.8346718 27.5770925,34.1655208 C27.6740088,33.6797891 27.69163,33.6532946 27.938326,33.6532946 L28.1938326,33.6532946 L28.1762115,36.4617073 L28.1497797,39.2612886 L21.3480176,39.287783 L14.5374449,39.305446 L14.5374449,39.0493329 Z M1.59471366,37.7069469 C1.47136564,37.3360245 1.47136564,37.018091 1.62995595,35.6403791 C1.8061674,34.04188 1.99118943,33.441339 2.44933921,32.9909331 C2.88986784,32.5405273 3.65638767,32.8231349 4.62555066,33.7769354 C5.40088106,34.5541063 5.68281938,34.8808713 6.14096916,35.5520642 C6.59030837,36.1967627 6.64317181,36.4263814 6.36123348,36.4617073 C6.22026432,36.4882018 6.07048458,36.3910555 5.83259912,36.1084479 C5.21585903,35.3930975 4.44933921,34.6512526 4.07929515,34.4128025 C3.67400881,34.1390264 3.18061674,34.077206 2.95154185,34.2714987 C2.61674009,34.5452748 2.34361233,35.4637494 2.20264317,36.7443149 C2.14977974,37.2565411 2.07048458,37.7334414 2.03524229,37.8040933 C1.9030837,38.0513749 1.70044053,37.998386 1.59471366,37.7069469 Z" id="Shape"></path>
                    <path d="M3.48898678,37.4861598 C3.3215859,37.3183615 3.25991189,37.1593948 3.25991189,36.9297761 C3.26872247,36.0466275 4.37004405,35.8170088 4.80176211,36.6118426 C4.9339207,36.8679557 4.94273128,36.9562706 4.84581498,37.1770578 C4.61674009,37.7422729 3.91189427,37.9012396 3.48898678,37.4861598 Z M37.6563877,37.3536875 C37.4977974,37.2653726 37.3744493,37.0799114 37.1101322,36.4793703 C36.8986784,36.00247 36.7400881,34.748399 36.7400881,33.5561483 L36.7400881,32.3285717 L36.9603524,32.3285717 C37.215859,32.3285717 37.2246696,32.3727291 37.3480176,33.5208223 C37.4977974,34.9073657 37.7004405,35.5873902 38.061674,35.9494811 C38.2819383,36.1702683 38.5022026,36.1702683 39.0044053,35.9406496 C39.3656388,35.7728514 40.5726872,34.6777471 40.8898678,34.2185098 C41.0660793,33.9623967 41.4096916,33.750441 41.5506608,33.8034299 C41.8678414,33.9270707 41.6035242,34.3951395 40.4317181,35.7640199 C39.2334802,37.1770578 38.3436123,37.6804525 37.6563877,37.3536875 Z" id="Shape"></path>
                    <path d="M38.7929515,34.0507115 C38.6872247,33.9800596 38.5374449,33.7945984 38.4669604,33.6356317 C38.2026432,33.1234054 38.6343612,32.5052014 39.2511013,32.5052014 C39.5947137,32.5052014 40,32.9467757 40,33.3176981 C39.9911894,33.9535652 39.277533,34.386308 38.7929515,34.0507115 Z" id="Path"></path>
                    <path d="M63.7885463,32.752483 C61.4361233,32.2667512 59.5418502,30.9243653 58.6519824,29.1050791 C57.9911894,27.7626931 57.8678414,27.215141 57.8678414,25.7049568 C57.876652,24.2742559 58.0440529,23.4617592 58.5814978,22.3489919 C58.907489,21.6601359 59.2599119,21.1390782 59.7797357,20.5915261 C60.246696,20.0881313 61.3568282,19.2579716 61.5594714,19.2579716 C61.6211454,19.2579716 61.6740088,19.2226457 61.6740088,19.1696567 C61.6740088,19.1254993 61.7268722,19.0813419 61.7973568,19.0813419 C61.8590308,19.0813419 62.0352423,19.0195215 62.1674009,18.9488696 C62.30837,18.8782177 62.4933921,18.8163973 62.5726872,18.8163973 C62.6519824,18.8163973 62.7400881,18.7810713 62.7665198,18.7369139 C62.7929515,18.701588 62.9867841,18.6397675 63.1894273,18.6132731 C63.4008811,18.5779471 63.7444934,18.5161267 63.9647577,18.4719693 C64.4669604,18.35716 65.9030837,18.35716 66.4757709,18.4719693 C66.722467,18.5161267 67.0837004,18.5779471 67.2951542,18.6044416 C67.4977974,18.6397675 67.69163,18.701588 67.7180617,18.7369139 C67.7444934,18.7810713 67.8237885,18.8163973 67.9030837,18.8163973 C67.9735683,18.8163973 68.1762115,18.8782177 68.3524229,18.9577011 C68.5374449,19.0371844 68.7753304,19.1431623 68.8986784,19.1961512 C69.4008811,19.4169384 70.2995595,20.0704684 70.7577093,20.5562001 C71.5330396,21.3598654 71.9911894,22.1723622 72.3964758,23.4087703 C72.6167401,24.1064577 72.6343612,24.2742559 72.6431718,25.6607993 C72.6431718,27.162152 72.5903084,27.524243 72.2202643,28.4427176 C71.5154185,30.2090149 70.123348,31.5778953 68.2819383,32.3109087 C68.0176211,32.4168865 67.1806167,32.6288422 66.5374449,32.7613145 C65.9823789,32.8761238 64.3524229,32.8672923 63.7885463,32.752483 Z M66.5550661,30.2090149 C66.5991189,30.1648575 66.7136564,30.1207 66.8017621,30.1207 C66.8986784,30.1207 67.215859,29.9970592 67.5154185,29.8380925 C68.4317181,29.3611922 69.2246696,28.4250546 69.7004405,27.2504669 C69.7797357,27.0473427 69.938326,26.1288681 69.938326,25.7932716 C69.9471366,25.3781918 69.753304,24.0181428 69.6828194,23.9739854 C69.6387665,23.9474909 69.6035242,23.8591761 69.6035242,23.7796927 C69.6035242,23.4794222 69.1013216,22.6580939 68.6167401,22.1723622 C67.8414097,21.3863599 66.8546256,20.97128 65.6211454,20.8829651 C64.061674,20.7769873 62.969163,21.1479097 62,22.1017103 C61.4449339,22.6492624 61.154185,23.1349942 60.8105727,24.1152892 C60.6343612,24.6275154 60.5991189,26.9590278 60.7753304,27.1356576 C60.8281938,27.1886465 60.8810573,27.3034558 60.8810573,27.3741077 C60.8810573,27.6655468 61.3656388,28.4603806 61.876652,28.9991012 C62.5638767,29.7232831 63.3832599,30.1825204 64.2731278,30.3326557 C64.7048458,30.3944761 66.4581498,30.3061612 66.5550661,30.2090149 Z" id="Shape"></path>
                    <path d="M81.1013216,32.73482 C80.1321586,32.3727291 79.0660793,31.3482766 78.246696,30.0058907 C77.938326,29.502496 77.8414097,29.6879572 77.8325991,30.809556 C77.8237885,31.3306137 77.814978,31.9399862 77.8061674,32.1784364 L77.7973568,32.6023477 L76.4581498,32.5758533 L75.1101322,32.5493588 L75.0837004,25.7932716 C75.0748899,22.0752158 75.0837004,18.9488696 75.1101322,18.8340602 C75.154185,18.6397675 75.1718062,18.6309361 76.4581498,18.6574305 L77.753304,18.683925 L77.8061674,22.8788811 C77.8502203,26.835387 77.8678414,27.1003316 78.0352423,27.524243 C78.4493392,28.5663584 78.8105727,29.0962476 79.4713656,29.6349683 C80,30.0588796 81.0220264,30.3503187 81.4889868,30.2090149 C82.123348,30.0147222 82.5198238,29.811598 83.1013216,29.3965181 C83.4273128,29.1668995 83.7356828,28.9726068 83.7709251,28.9726068 C83.8590308,28.9726068 84.9339207,30.6947466 84.9339207,30.8360504 C84.9339207,30.8802079 84.969163,30.9155338 85.0132159,30.9155338 C85.0572687,30.9155338 85.1101322,31.0038487 85.1365639,31.100995 C85.1718062,31.2334673 85.1101322,31.3659396 84.907489,31.5514008 C84.3964758,32.0371326 83.8061674,32.3638976 82.7488987,32.7789775 C82.4757709,32.8849553 81.4273128,32.8584608 81.1013216,32.73482 Z M103.682819,32.8143034 C103.656388,32.787809 103.444934,32.7259885 103.207048,32.6818311 C101.832599,32.4345495 100.696035,31.5072434 100.317181,30.3238242 C100.070485,29.5201589 100.140969,28.3014138 100.475771,27.6302208 C100.907489,26.7647351 102.114537,25.7137882 103.603524,24.89246 C104.422907,24.4420542 105.638767,23.6913778 105.788546,23.5324111 C105.859031,23.4617592 105.955947,23.4087703 106,23.4087703 C106.044053,23.4087703 106.193833,23.240972 106.343612,23.0378478 C106.845815,22.3489919 106.599119,21.5011692 105.797357,21.1302467 C104.872247,20.7063354 104.519824,20.662178 103.638767,20.8917966 C103.171806,21.0154374 102.951542,21.0860893 102.422907,21.2892135 C101.920705,21.4746747 100.572687,22.1900251 100.405286,22.3578234 C100.352423,22.4019808 100.246696,22.4373067 100.15859,22.4373067 C100.008811,22.4373067 100,22.3401604 100.017621,21.0507634 L100.044053,19.6553885 L100.572687,19.3904439 C101.832599,18.7545769 102.951542,18.4631378 104.378855,18.4013174 C106.052863,18.321834 107.348018,18.7457454 108.273128,19.681883 C109.057269,20.4855482 109.339207,21.2097301 109.339207,22.4284753 C109.339207,23.1349942 109.303965,23.3027924 109.101322,23.7355353 C108.960352,24.0093113 108.660793,24.4420542 108.414097,24.6893358 C107.832599,25.2722139 106.290749,26.4379701 105.726872,26.7117462 C105.198238,26.9678593 103.938326,27.851008 103.462555,28.3014138 C103.013216,28.7164937 102.995595,28.7606511 102.995595,29.1845624 C102.995595,29.4760015 103.057269,29.6967887 103.154185,29.8204295 C103.444934,30.1825204 104.15859,30.4739595 104.792952,30.4739595 C105.189427,30.4739595 105.374449,30.4386335 106.299559,30.1913519 C106.651982,30.0942056 107.674009,29.6173053 108.30837,29.2552143 C108.493392,29.1492365 108.660793,29.0609216 108.678414,29.0609216 C108.704846,29.0609216 108.722467,29.6702942 108.722467,30.4121391 L108.713656,31.754525 L108.167401,32.0106381 C107.303965,32.408055 107.039648,32.4963699 105.876652,32.7613145 C105.453744,32.8584608 103.770925,32.8937868 103.682819,32.8143034 Z" id="Shape"></path>
                    <path d="M124.493392,32.752483 C121.982379,32.0724585 120.484581,30.9067023 119.53304,28.8842919 C118.977974,27.6920412 118.907489,27.3387818 118.907489,25.6166419 C118.907489,23.9033335 118.977974,23.550074 119.53304,22.3489919 C120.704846,19.8408497 123.295154,18.2600136 126.017621,18.4013174 C126.881057,18.4366434 127.621145,18.5691157 127.947137,18.7369139 C128.035242,18.7810713 128.14978,18.8163973 128.211454,18.8163973 C128.528634,18.8163973 129.84141,19.6112311 130.449339,20.1676147 C131.07489,20.7504928 132.070485,22.0928788 132.070485,22.3666549 C132.070485,22.4373067 132.105727,22.5256216 132.140969,22.5786105 C132.246696,22.6934199 132.46696,23.3557813 132.60793,23.9828169 C132.76652,24.6628414 132.76652,26.4644646 132.60793,27.2063095 C132.475771,27.8421765 132.255507,28.5310324 132.140969,28.6546733 C132.105727,28.7076622 132.070485,28.795977 132.070485,28.8577974 C132.070485,29.1139106 131.295154,30.2001834 130.669604,30.8272189 C129.603524,31.8958288 128.678414,32.3815606 127.022026,32.7613145 C126.519824,32.8761238 124.92511,32.8761238 124.493392,32.752483 Z M126.76652,31.3041192 C127.356828,31.1628154 127.53304,31.100995 128.105727,30.8448819 C128.46696,30.6859152 129.69163,29.793935 129.69163,29.6967887 C129.69163,29.6614627 129.779736,29.5378219 129.894273,29.4141811 C130.281938,28.9726068 130.546256,28.486875 130.933921,27.488917 C130.977974,27.3829392 131.07489,26.9060389 131.145374,26.4291387 C131.268722,25.6431364 131.268722,25.4841696 131.145374,24.7776507 C130.986784,23.8680076 130.898678,23.550074 130.581498,22.8788811 C130.370044,22.4108123 129.488987,21.2008986 129.356828,21.2008986 C129.321586,21.2008986 129.145374,21.0684263 128.969163,20.9094596 C128.792952,20.7593243 128.511013,20.5650316 128.352423,20.4855482 C127.788546,20.2029407 127.418502,20.0528054 127.268722,20.0528054 C127.189427,20.0528054 127.048458,20.008648 126.951542,19.9644905 C126.669604,19.8055238 125.039648,19.8408497 124.45815,20.008648 C122.933921,20.4590538 121.665198,21.5188322 120.986784,22.896544 C120.784141,23.3204554 120.61674,23.7178723 120.61674,23.7973557 C120.61674,23.8680076 120.555066,24.1771096 120.475771,24.4862116 C120.317181,25.0955842 120.343612,26.4379701 120.528634,27.0296797 C120.581498,27.197478 120.669604,27.4800856 120.713656,27.6478838 C120.960352,28.4427176 121.38326,29.122742 122.088106,29.8380925 C122.484581,30.2355093 122.872247,30.5622743 122.942731,30.5622743 C123.022026,30.5622743 123.0837,30.5887688 123.0837,30.6329262 C123.0837,30.6859152 123.53304,30.9155338 124.008811,31.0921635 C124.995595,31.463086 125.823789,31.5249064 126.76652,31.3041192 Z" id="Shape"></path>
                    <path d="M187.092511,32.752483 C185.938326,32.4610439 185.171806,31.9311548 184.070485,30.6505892 C183.920705,30.482791 183.779736,30.3679816 183.744493,30.4033076 C183.709251,30.4386335 183.682819,30.8978708 183.69163,31.4189285 C183.700441,31.9399862 183.665198,32.425718 183.629956,32.4875384 C183.577093,32.5670218 183.365639,32.5935162 182.898678,32.5758533 L182.246696,32.5493588 L182.246696,25.6166419 L182.246696,18.683925 L182.898678,18.6574305 C183.365639,18.6397675 183.577093,18.666262 183.621145,18.7457454 C183.665198,18.8075658 183.700441,21.0242689 183.700441,23.6648834 L183.700441,28.4603806 L184.088106,29.0079327 C184.61674,29.7497776 185.585903,30.6417577 186.167401,30.9420283 C187.127753,31.4189285 188.255507,31.5602323 189.207048,31.3129507 C190.484581,30.9861857 191.23348,30.2973298 191.726872,29.0167642 C191.973568,28.3720657 192.017621,27.7361987 192.061674,23.3204554 L192.114537,18.683925 L192.819383,18.683925 L193.524229,18.683925 L193.524229,23.4087703 C193.524229,28.0629637 193.488987,28.7783141 193.215859,29.4583385 C193.180617,29.5554849 193.07489,29.811598 192.986784,30.0323852 C192.819383,30.465128 192.299559,31.2158043 191.911894,31.5867268 C191.629956,31.8605029 190.863436,32.3638976 190.61674,32.443381 C189.427313,32.8054719 189.154185,32.8496294 188.325991,32.8407979 C187.84141,32.8407979 187.286344,32.7966404 187.092511,32.752483 Z M199.339207,32.7613145 C199.198238,32.7171571 198.933921,32.6376737 198.76652,32.5846848 C197.629956,32.2314253 196.801762,31.5249064 196.290749,30.482791 C196.044053,29.9529018 196.017621,29.8380925 196.017621,29.0432587 C196.017621,28.2749193 196.044053,28.1159526 196.264317,27.6655468 C196.784141,26.5792739 197.603524,26.0140588 200.132159,24.9984378 C201.770925,24.3360764 202.387665,23.9563224 202.819383,23.3469499 C203.101322,22.9583645 203.118943,22.896544 203.118943,22.1900251 C203.118943,21.7837767 203.0837,21.4305173 203.039648,21.3951913 C202.986784,21.3598654 202.889868,21.2185616 202.819383,21.0684263 C202.634361,20.7151669 201.911894,20.1852777 201.374449,20.008648 C200.528634,19.7260404 198.933921,19.8320182 197.84141,20.2382666 C197.339207,20.4237278 196.643172,20.7151669 196.370044,20.8564707 C196.281938,20.9006281 196.132159,20.935954 196.035242,20.935954 C195.876652,20.935954 195.859031,20.8829651 195.859031,20.3442444 C195.859031,20.008648 195.894273,19.6995459 195.929515,19.646557 C196,19.5405792 197.453744,18.8163973 197.603524,18.8163973 C197.665198,18.8163973 197.779736,18.7810713 197.867841,18.7369139 C198.193833,18.5602842 199.312775,18.3748229 200.008811,18.3748229 C201.647577,18.3748229 203.365639,19.2049827 204.035242,20.3265815 C204.872247,21.7131249 204.713656,23.5589055 203.674009,24.6540099 C203.101322,25.2633824 201.964758,25.890418 200.528634,26.4114757 C199.488987,26.7823981 198.370044,27.3652762 197.991189,27.7450301 C197.744493,27.9834803 197.577093,28.2484249 197.488987,28.5486954 C197.330396,29.1050791 197.321586,29.2817088 197.471366,29.6791257 C197.682819,30.2443408 197.806167,30.429802 198.229075,30.77423 C198.898678,31.3217822 199.365639,31.4719175 200.440529,31.463086 C201.462555,31.463086 201.682819,31.4012656 202.889868,30.8007245 C203.955947,30.2620038 203.964758,30.2620038 203.964758,30.1913519 C203.964758,30.1471945 204.008811,30.1207 204.052863,30.1207 C204.114537,30.1207 204.140969,30.4121391 204.123348,30.9243653 L204.096916,31.7280306 L203.700441,31.9488177 C203.251101,32.2049308 202.185022,32.6111792 201.559471,32.7613145 C201.066079,32.8761238 199.709251,32.8761238 199.339207,32.7613145 Z" id="Shape"></path>
                    <path d="M217.929515,32.752483 C216.863436,32.5052014 216.352423,32.3109087 215.594714,31.8781658 C215.180617,31.6397157 214.299559,30.9155338 214.070485,30.6329262 C213.947137,30.4739595 213.779736,30.2620038 213.69163,30.1648575 C213.515419,29.9793962 213.039648,29.2728773 213.039648,29.1933939 C213.039648,29.175731 212.942731,28.9461123 212.828194,28.6899992 C211.779736,26.3496553 212,23.6118945 213.409692,21.4393488 C214.193833,20.2294351 215.497797,19.2226457 216.828194,18.7899028 C217.832599,18.4631378 218.140969,18.4189804 219.295154,18.4189804 C220.528634,18.4189804 220.863436,18.4808008 221.982379,18.8782177 C223.84141,19.5582421 225.488987,21.3598654 226.008811,23.276298 C226.088106,23.567737 226.193833,23.9739854 226.246696,24.1682781 C226.387665,24.6893358 226.361233,26.4379701 226.211454,27.162152 C225.700441,29.6173053 224.202643,31.4807489 222.070485,32.3285717 C221.973568,32.3638976 221.779736,32.443381 221.647577,32.4963699 C220.837004,32.8231349 218.819383,32.9644387 217.929515,32.752483 Z M220.352423,31.3041192 C221.189427,31.1098265 221.480176,31.0038487 222.114537,30.6240948 C223.938326,29.5378219 225.057269,27.1268261 224.757709,24.89246 C224.502203,22.9671959 223.647577,21.5629896 222.185022,20.6356835 C221.911894,20.4590538 221.647577,20.31775 221.603524,20.31775 C221.550661,20.31775 221.400881,20.2559296 221.268723,20.1852777 C221.127753,20.1146258 220.942731,20.0528054 220.854626,20.0528054 C220.76652,20.0528054 220.61674,20.008648 220.519824,19.9644905 C220.431718,19.9115016 219.885463,19.8673442 219.321586,19.8673442 C218.440529,19.8673442 218.176211,19.9026701 217.594714,20.0881313 C216.193833,20.5562001 215.013216,21.5718211 214.396476,22.8523866 C214,23.6825463 213.929515,23.9386595 213.814978,24.9277859 C213.753304,25.4488437 213.753304,25.9257439 213.814978,26.3849812 C213.938326,27.3122873 214.008811,27.5772319 214.405286,28.3985601 C214.837004,29.2993718 215.885463,30.3856446 216.696035,30.77423 C217.480176,31.1451525 217.647577,31.1981414 218.546256,31.3924341 C218.951542,31.4719175 219.814978,31.4365915 220.352423,31.3041192 Z" id="Shape"></path>
                    <path d="M234.185022,32.6906626 C233.964758,32.6023477 233.612335,32.4345495 233.400881,32.3197402 C232.889868,32.0547956 231.515419,30.6947466 230.933921,29.8822499 C230.678414,29.5289904 230.414097,29.2375514 230.343612,29.2375514 C230.246696,29.2375514 230.220264,29.5466534 230.202643,30.8978708 L230.176211,32.5493588 L229.488987,32.5758533 L228.810573,32.6023477 L228.828194,25.6431364 L228.854626,18.683925 L229.462555,18.6574305 C229.894273,18.6397675 230.096916,18.666262 230.140969,18.7457454 C230.185022,18.8075658 230.220264,20.7593243 230.220264,23.0731738 C230.220264,25.8109346 230.255507,27.3652762 230.317181,27.524243 C230.46696,27.9304914 231.568282,29.4230126 232.167401,30.0235537 C233.101322,30.9685227 234.123348,31.5072434 234.828194,31.42776 C235.444934,31.3571081 236.678414,30.6682522 237.0837,30.1736889 C237.400881,29.793935 237.497797,29.829261 237.876652,30.4386335 C238.079295,30.7565671 238.237885,31.0833321 238.237885,31.1716469 C238.237885,31.5337379 236.9163,32.443381 235.938326,32.7613145 C235.488987,32.9026183 234.651982,32.8672923 234.185022,32.6906626 Z" id="Path"></path>
                    <polygon id="Path" points="177.639 25.6434995 177.665 18.6834995 178.326 18.6834995 178.987 18.6834995 179.013 25.6434995 179.031 32.5934995 178.326 32.5934995 177.621 32.5934995"></polygon>
                    <path d="M2.2907489,32.0459641 C1.76211454,31.8516714 1.60352423,31.2069729 1.97356828,30.7653985 C2.44052863,30.2178464 3.39207048,30.5976003 3.37444934,31.3217822 C3.35682819,31.8516714 2.79295154,32.2314253 2.2907489,32.0459641 Z M38.907489,31.6043898 C38.7048458,31.445423 37.8854626,30.3061612 37.8854626,30.1648575 C37.8854626,30.1471945 37.7885463,29.9175758 37.6740088,29.6614627 C37.2422907,28.6811677 37.0484581,28.142447 36.9603524,27.6302208 C36.907489,27.3652762 36.9251101,27.2857928 37.0396476,27.2416354 C37.1982379,27.179815 37.5330396,27.4270966 37.5330396,27.6037264 C37.5330396,27.7450301 37.7885463,28.3014138 38.3524229,29.3611922 C38.4493392,29.5466534 38.6784141,29.8557554 38.8546256,30.0412166 C39.1189427,30.3238242 39.2422907,30.3856446 39.5154185,30.3856446 C39.7973568,30.3856446 39.9030837,30.3238242 40.185022,30.0235537 C40.4933921,29.6879572 41.4096916,28.0364692 41.4096916,27.815682 C41.4096916,27.6478838 41.7709251,27.2063095 41.9030837,27.2063095 C41.9735683,27.2063095 42.0528634,27.2681299 42.0792952,27.3299503 C42.1321586,27.4624226 41.8414097,28.522201 41.6299559,29.0167642 C41.5594714,29.1668995 41.4096916,29.5113275 41.2863436,29.793935 C41.1629956,30.0765426 41.0572687,30.3238242 41.0572687,30.3591502 C41.0572687,30.482791 40.2555066,31.5249064 40.0528634,31.6485472 C39.7444934,31.8516714 39.215859,31.8340084 38.907489,31.6043898 Z" id="Shape"></path>
                    <path d="M0,31.3571081 C0,31.2158043 0.0352422907,31.0126802 0.0792951542,30.8978708 C0.123348018,30.7830615 0.202643172,30.5357799 0.264317181,30.3414872 C0.36123348,30.0147222 0.449339207,29.8027665 0.757709251,29.0874161 C0.828193833,28.9372808 0.881057269,28.7871456 0.881057269,28.7606511 C0.881057269,28.6281788 1.53303965,27.6743783 1.83259912,27.3652762 C2.11453744,27.0650057 2.20264317,27.0296797 2.57268722,27.0296797 C2.96035242,27.0296797 3.030837,27.0650057 3.37444934,27.4270966 C3.91189427,27.9834803 4.65198238,29.5289904 5.0660793,30.9420283 C5.23348018,31.4984119 5.17180617,31.6838731 4.8722467,31.5867268 C4.71365639,31.5337379 4.63436123,31.3924341 4.25550661,30.4739595 C4.18502203,30.3061612 4.07048458,30.0500481 3.99118943,29.9175758 C3.92070485,29.7851035 3.8061674,29.5731479 3.74449339,29.4406756 C3.68281938,29.3170347 3.46255507,29.0432587 3.26872247,28.831303 C2.969163,28.504538 2.86343612,28.4427176 2.5814978,28.4427176 C1.95594714,28.4515491 1.55947137,28.9991012 0.581497797,31.1893099 C0.370044053,31.6750416 0,31.7810195 0,31.3571081 Z M38.907489,28.0717951 C38.6960352,27.8245135 38.6784141,27.197478 38.8810573,26.9943538 C39.3127753,26.561611 40.061674,26.6764203 40.2290749,27.2063095 C40.3436123,27.5595689 40.2555066,27.9658173 40.0264317,28.142447 C39.938326,28.2042674 39.69163,28.2660879 39.4713656,28.2660879 C39.1629956,28.2660879 39.030837,28.2219304 38.907489,28.0717951 Z M4.89867841,26.3938127 C4.8722467,26.3319923 4.83700441,26.0228903 4.80176211,25.7049568 C4.66960352,24.3184134 4.39647577,23.258635 4.07929515,22.914207 C3.94713656,22.7729032 3.78854626,22.7022513 3.58590308,22.7022513 C3.15418502,22.7022513 2.16740088,23.4264332 1.48898678,24.2477615 C0.766519824,25.1220787 0.440528634,25.3163714 0.440528634,24.8571341 C0.440528634,24.2742559 2.47577093,21.969238 3.38325991,21.5276636 C3.98237885,21.2362246 4.0969163,21.2362246 4.45814978,21.5100007 C5.030837,21.951575 5.40088106,23.5147481 5.35682819,25.3516973 C5.33039648,26.4203072 5.3215859,26.4556331 5.1277533,26.4821276 C5.02202643,26.4997905 4.91629956,26.4556331 4.89867841,26.3938127 Z" id="Shape"></path>
                    <path d="M2.49339207,26.181857 C1.88546256,25.8815865 2.03524229,24.8394711 2.70484581,24.7069988 C3.29515419,24.5921895 3.77092511,25.0779212 3.65638767,25.6696308 C3.55947137,26.1906885 3.00440529,26.4379701 2.49339207,26.181857 Z M38.3964758,25.7667772 C38.1145374,25.6166419 37.7444934,25.3428658 37.5594714,25.1750676 C36.8634361,24.5215376 35.6387665,22.949533 35.5418502,22.5786105 C35.4977974,22.3754863 35.5154185,22.3489919 35.7004405,22.3489919 C35.8590308,22.3489919 36.1145374,22.5609476 36.660793,23.1526572 C37.7797357,24.3714023 38.3964758,24.7599877 38.969163,24.6098524 C39.3920705,24.5038746 39.7621145,23.4970851 39.8678414,22.1723622 C39.938326,21.2097301 40.0528634,20.8476392 40.2643172,20.8476392 C40.5022026,20.8476392 40.5550661,21.2185616 40.4845815,22.5521161 C40.3876652,24.4243912 40.0881057,25.5106641 39.5506608,25.890418 C39.215859,26.1288681 38.9779736,26.1023737 38.3964758,25.7667772 Z" id="Shape"></path>
                    <path d="M37.5066079,22.4902957 C37.0396476,22.0575528 37.1189427,21.5100007 37.6828194,21.1832357 C38.0176211,20.9801115 38.3171806,21.0419319 38.6343612,21.3510339 C38.9339207,21.6601359 38.9251101,22.0575528 38.6079295,22.4196438 C38.2819383,22.7817347 37.8502203,22.8082292 37.5066079,22.4902957 Z M6.69603524,21.6866304 C6.59030837,21.5541581 6.60792952,21.298045 6.76651982,20.626852 C7.21585903,18.7899028 7.1277533,17.7566189 6.51101322,17.6241466 C5.95594714,17.5005058 5.18061674,17.7742819 3.84140969,18.5779471 C3.04845815,19.0460159 2.81938326,19.0990048 2.81938326,18.7899028 C2.81938326,18.5426212 3.00440529,18.35716 3.87665198,17.7831134 C5.2246696,16.8823017 6.24669604,16.4318959 6.9339207,16.4318959 C7.56828194,16.4318959 7.79735683,16.6526831 7.88546256,17.359202 C7.98237885,18.0833839 7.75330396,19.8673442 7.49779736,20.4060648 C7.46255507,20.4767167 7.35682819,20.7858188 7.26872247,21.0772578 C7.08370044,21.6777989 6.8722467,21.8985861 6.69603524,21.6866304 Z" id="Shape"></path>
                    <path d="M4.52863436,20.7151669 C4.22907489,20.5120427 4.0969163,20.1057943 4.22907489,19.7878608 C4.37885463,19.4257698 4.63436123,19.2579716 5.030837,19.2579716 C5.28634361,19.2579716 5.40969163,19.319792 5.58590308,19.5317477 C5.85022026,19.8408497 5.87665198,20.1411203 5.66519824,20.4943797 C5.45374449,20.8564707 4.88105727,20.97128 4.52863436,20.7151669 Z M36.1938326,20.5385371 C35.9647577,20.4767167 35.5242291,20.300087 35.2246696,20.1411203 C34.4493392,19.7437034 32.9779736,18.7457454 32.7665198,18.4808008 C32.6079295,18.2776766 32.6079295,18.2423507 32.7312775,18.1716988 C32.9251101,18.0657209 33.2863436,18.1628673 33.6123348,18.4101489 C33.9823789,18.6927565 35.2951542,19.319792 35.7885463,19.4434328 C36.2995595,19.5847366 36.5814978,19.4787588 36.784141,19.0725104 C36.9427313,18.7722398 36.9251101,17.70363 36.7488987,16.8293128 C36.4845815,15.5310843 36.4757709,15.2838027 36.6872247,15.2838027 C36.8898678,15.2838027 37.0572687,15.5752417 37.2599119,16.2552662 C37.6211454,17.4475169 37.7180617,17.9685746 37.7709251,18.8870492 C37.8237885,19.990985 37.7004405,20.3972334 37.2334802,20.5650316 C36.8898678,20.6975039 36.7312775,20.6886724 36.1938326,20.5385371 Z" id="Shape"></path>
                    <path d="M34.3876652,17.6153151 C34.1409692,17.4210224 34.0969163,17.3327075 34.0969163,17.0059425 C34.0969163,16.688009 34.1409692,16.5908627 34.3788546,16.3877385 C34.6079295,16.1934458 34.722467,16.1581198 34.9603524,16.2022773 C35.3480176,16.2640977 35.5770925,16.4672219 35.6387665,16.8204813 C35.7180617,17.2002352 35.5594714,17.5446632 35.2511013,17.7124615 C34.8898678,17.8979227 34.7136564,17.8802597 34.3876652,17.6153151 Z M9.82378855,17.6594725 C9.72687225,17.5093373 9.85903084,17.1384148 10.2643172,16.4760533 C10.7753304,15.6193992 11.1894273,14.6302727 11.1894273,14.2151928 C11.1894273,13.9767427 10.784141,13.6234832 10.3876652,13.5175054 C10.0088106,13.4115275 9.49779736,13.455685 8.32599119,13.7029666 C7.52422907,13.8707648 6.96035242,13.8972593 6.96035242,13.764787 C6.96035242,13.5528313 7.08370044,13.4468535 7.48898678,13.2967182 C9.20704846,12.6696827 11.2863436,12.422401 11.8942731,12.784492 C12.2114537,12.9699532 12.2819383,13.1465829 12.2643172,13.7559555 C12.246696,14.3300021 11.7621145,15.398612 10.9427313,16.6350201 C10.2907489,17.6329781 9.97356828,17.9155856 9.82378855,17.6594725 Z" id="Shape"></path>
                    <path d="M8.12334802,16.1669513 C7.68281938,15.7960289 7.8061674,15.08951 8.36123348,14.7980709 C8.59030837,14.6832616 8.65198238,14.6832616 8.9339207,14.7980709 C9.29515419,14.9570377 9.42731278,15.1601619 9.42731278,15.5840732 C9.42731278,16.2376032 8.63436123,16.5996942 8.12334802,16.1669513 Z M31.4096916,16.1492883 C29.8590308,15.8136919 28.9427313,15.5310843 28.722467,15.3191286 C28.6079295,15.1954878 28.6079295,15.1689933 28.7665198,15.054184 C28.8810573,14.9658692 29.030837,14.9393747 29.2070485,14.9747006 C29.3568282,15.0100266 29.6299559,15.071847 29.8237885,15.1160044 C31.215859,15.4339379 32.3171806,15.4339379 32.6343612,15.1160044 C32.784141,14.9658692 32.8193833,14.8333969 32.8017621,14.4624744 C32.7753304,13.9679112 32.7753304,13.9590797 32.3259912,13.0494366 C32.0088106,12.4047381 31.9559471,12.3252547 31.6563877,11.8306914 C31.5418502,11.6540617 31.4537445,11.4244431 31.4537445,11.3184652 C31.4537445,11.1594985 31.4977974,11.1241725 31.69163,11.150667 C31.8854626,11.1683299 32.0528634,11.3626227 32.6079295,12.1927824 C33.6211454,13.7029666 34.0088106,14.5596208 34.0088106,15.2838027 C34,15.8136919 33.7885463,16.0609735 33.1982379,16.2199402 C32.6167401,16.3700755 32.3964758,16.361244 31.4096916,16.1492883 Z M14.0088106,14.7980709 C13.9207048,14.6920931 14.0881057,14.4801374 14.969163,13.6058202 C15.5506608,13.0229421 16.0352423,12.4842214 16.0352423,12.422401 C16.0352423,12.3605806 16.0969163,12.2546028 16.1674009,12.1927824 C16.3436123,12.0426471 16.3259912,11.4862635 16.1409692,11.2654763 C15.7973568,10.8768909 15.3303965,10.7355871 13.8325991,10.5589574 C12.6696035,10.4264851 12.5110132,10.3734962 12.5110132,10.1615405 C12.5110132,9.95841633 12.7577093,9.89659592 13.6123348,9.89659592 C15.7004405,9.90542741 17.154185,10.2675183 17.5330396,10.8857224 C17.6299559,11.0446891 17.7092511,11.2389818 17.7092511,11.3272967 C17.7092511,11.9101748 16.4229075,13.3938646 15.0132159,14.418317 C14.4140969,14.8598913 14.1409692,14.9570377 14.0088106,14.7980709 Z" id="Shape"></path>
                    <path d="M29.9118943,13.9767427 C29.8061674,13.8972593 29.6740088,13.7206296 29.6035242,13.5793258 C29.4977974,13.3673701 29.5066079,13.2967182 29.6299559,13.0317736 C29.8325991,12.5990308 30.2819383,12.3870751 30.660793,12.5460418 C31.2070485,12.7756605 31.3480176,13.455685 30.9339207,13.8795963 C30.6343612,14.1798669 30.1938326,14.2240243 29.9118943,13.9767427 Z M23.9647577,13.4821794 C23.9647577,13.2172348 24.0881057,13.1730774 25.0660793,13.075931 C26.5550661,12.9257958 27.0484581,12.784492 27.5154185,12.3782436 C28.0176211,11.9366693 27.7356828,11.3537912 26.3788546,10.0114052 C25.4185022,9.0576047 25.2422907,8.81032308 25.4889868,8.72200821 C25.6651982,8.66018781 26.0792952,8.90746943 26.9339207,9.60515686 C28.4405286,10.823902 29.154185,11.7777025 29.0484581,12.4312325 C28.9779736,12.8374809 28.8810573,12.9434587 28.3348018,13.1907404 C27.6740088,13.5086739 26.4493392,13.6941351 25.1189427,13.6941351 L23.9647577,13.6941351 L23.9647577,13.4821794 Z M18.8810573,13.3585386 C18.8281938,13.2437293 19.0837004,12.8993013 19.2246696,12.8993013 C19.2599119,12.8993013 19.4977974,12.802155 19.753304,12.6785141 C20,12.5548733 20.2378855,12.457727 20.2731278,12.457727 C20.4229075,12.457727 21.3832599,11.82186 21.7004405,11.5215894 C22.2995595,10.9387113 22.0881057,10.3999906 21.0132159,9.75529214 C20.5198238,9.45502159 19.7621145,9.09293065 19.277533,8.91630092 C18.9515419,8.80149159 18.784141,8.57187294 18.8986784,8.39524321 C18.969163,8.28926537 19.2246696,8.28043389 19.4889868,8.38641172 C19.6035242,8.43056916 19.8942731,8.52771551 20.1409692,8.5983674 C20.6784141,8.75733416 21.9295154,9.31371781 22.4229075,9.61398835 C22.6167401,9.73762916 22.9251101,9.98491078 23.1101322,10.1792035 C23.3832599,10.4706425 23.4361233,10.5942833 23.4361233,10.9122168 C23.4361233,11.2478133 23.3832599,11.3449597 23.0572687,11.6805562 C22.7312775,12.0073212 21.5770925,12.6608512 20.9251101,12.8993013 C20.8281938,12.9346273 20.5991189,13.0317736 20.4140969,13.111257 C20.2290749,13.1907404 20.0088106,13.2525608 19.9118943,13.2525608 C19.8237885,13.2525608 19.7268722,13.2878867 19.7004405,13.3320441 C19.6123348,13.4645164 18.9251101,13.4910109 18.8810573,13.3585386 Z M13.1189427,13.0494366 C12.8634361,12.8816383 12.8193833,12.7933235 12.7929515,12.4488955 C12.7753304,12.113299 12.8017621,12.0073212 13.0044053,11.8130285 C13.3303965,11.477432 13.8325991,11.477432 14.0881057,11.8130285 C14.4845815,12.3075917 14.3964758,12.8728068 13.876652,13.111257 C13.4977974,13.2967182 13.4713656,13.2878867 13.1189427,13.0494366 Z" id="Shape"></path>
                    <path d="M24.5726872,11.9631637 C24.3348018,11.8925118 24.1145374,11.4067801 24.1674009,11.0711836 C24.2378855,10.6649352 24.5198238,10.4264851 24.9515419,10.4264851 C25.4185022,10.4264851 25.7268722,10.7355871 25.7268722,11.2036559 C25.7268722,11.6805562 25.5066079,11.9278378 25.0660793,11.9719952 C24.8722467,11.9896582 24.6519824,11.9896582 24.5726872,11.9631637 Z M106.828194,11.6982191 C105.259912,11.3096337 103.920705,10.1262145 103.436123,8.71317673 C103.215859,8.05964672 103.189427,6.59361996 103.39207,6.00191036 C103.885463,4.56237806 104.907489,3.51143117 106.255507,3.04336238 C106.651982,2.91089008 106.977974,2.87556414 108.017621,2.88439562 C109.162996,2.89322711 109.365639,2.91972157 110,3.14050873 C110.951542,3.45844225 111.013216,3.52909414 111.013216,4.21795009 C111.013216,4.51822063 110.977974,4.77433374 110.92511,4.77433374 C110.881057,4.77433374 110.599119,4.65952441 110.290749,4.51822063 C109.427313,4.11197225 108.863436,3.97949995 107.955947,3.97949995 C106.898678,3.97949995 106.202643,4.23561306 105.506608,4.89797455 C104.828194,5.54267306 104.555066,6.16970861 104.546256,7.1588351 C104.528634,8.30692835 104.810573,8.98695281 105.568282,9.69347173 C106.052863,10.135046 106.378855,10.3116758 107.022026,10.479474 C108.035242,10.7444186 109.427313,10.5412944 110.46696,9.96724781 C110.625551,9.87893295 110.792952,9.80828105 110.837004,9.80828105 C110.889868,9.80828105 110.92511,10.0820571 110.92511,10.4088221 C110.92511,11.1065095 110.969163,11.0623521 109.779736,11.459769 C109.251101,11.6363987 108.898678,11.6893877 108.061674,11.7158821 C107.480176,11.7247136 106.92511,11.7247136 106.828194,11.6982191 Z M127.762115,11.5834098 C127.198238,11.3537912 126.722467,10.9210483 126.511013,10.4441481 C126.237885,9.86126997 126.299559,8.863312 126.634361,8.33342281 C126.898678,7.90951145 127.647577,7.28247591 128.237885,6.99103685 C129.823789,6.19620307 130.440529,5.07460428 129.718062,4.31509644 C129.101322,3.67039792 127.779736,3.81170171 126.828194,4.63302995 C126.643172,4.8008282 126.449339,4.91563752 126.414097,4.89797455 C126.378855,4.87148009 126.343612,4.58004103 126.343612,4.25327603 C126.343612,3.5555886 126.387665,3.49376819 127.180617,3.13167724 C127.638767,2.91972157 127.823789,2.88439562 128.590308,2.88439562 C129.38326,2.87556414 129.515419,2.9020586 129.920705,3.11401427 C130.493392,3.41428481 130.881057,3.8823536 131.057269,4.4740632 C131.22467,5.04810982 131.22467,5.3218859 131.057269,5.85177509 C130.801762,6.6995978 130.334802,7.18532956 128.977974,7.98016334 C128.088106,8.50122105 127.54185,9.02227875 127.462555,9.43735862 C127.321586,10.1438775 127.788546,10.6207778 128.678414,10.6737667 C129.330396,10.7179241 129.718062,10.6031148 130.30837,10.2056979 C130.546256,10.0467312 130.757709,9.94075335 130.784141,9.96724781 C130.810573,9.99374227 130.837004,10.2675183 130.837004,10.5677889 C130.837004,11.0711836 130.819383,11.133004 130.599119,11.2919708 C129.894273,11.768871 128.563877,11.9101748 127.762115,11.5834098 Z M18.6167401,11.4862635 C18.1938326,11.0976781 18.3171806,10.3823276 18.845815,10.1615405 C19.1629956,10.0378997 19.4449339,10.0908886 19.7180617,10.3205072 C20,10.5677889 19.9911894,11.2036559 19.7092511,11.4686005 C19.4449339,11.7247136 18.8722467,11.7335451 18.6167401,11.4862635 Z M177.048458,11.4686005 C177.022026,11.3537912 177.013216,9.40203267 177.022026,7.11467767 L177.048458,2.963879 L177.577093,2.963879 L178.105727,2.963879 L178.14978,4.46523171 C178.176211,5.29539144 178.185022,7.24714996 178.167401,8.81915456 L178.140969,11.6628932 L177.621145,11.6628932 C177.145374,11.6628932 177.092511,11.6452302 177.048458,11.4686005 Z M189.189427,8.88980646 C188.643172,8.35108578 188.193833,7.86535402 188.193833,7.80353361 C188.193833,7.73288172 188.30837,7.68872429 188.528634,7.68872429 C188.713656,7.68872429 188.907489,7.64456686 188.969163,7.58274645 C189.039648,7.51209456 189.07489,7.0263628 189.07489,5.99307888 C189.07489,3.86469063 189.198238,3.45844225 190,3.02569941 C190.370044,2.82257522 191.647577,2.8314067 192.052863,3.03453089 C192.317181,3.17583468 192.334802,3.21999211 192.334802,3.62624049 C192.334802,3.8823536 192.290749,4.06781482 192.237885,4.06781482 C192.185022,4.06781482 191.894273,3.99716292 191.577093,3.91767955 C191.048458,3.77637576 191.004405,3.77637576 190.704846,3.91767955 C190.537445,3.99716292 190.352423,4.16496117 190.30837,4.29743347 C190.202643,4.56237806 190.193833,7.41494821 190.290749,7.57391496 C190.334802,7.64456686 190.660793,7.68872429 191.189427,7.70638726 L192.026432,7.73288172 L192.026432,8.17445605 L192.026432,8.61603037 L191.171806,8.64252483 C190.202643,8.66901929 190.246696,8.63369335 190.202643,9.45502159 L190.176211,9.85243849 L189.189427,8.88980646 Z" id="Shape"></path>
                    <path d="M113.215859,8.71317673 C112.995595,8.65135632 112.643172,8.49238956 112.440529,8.35108578 C112.079295,8.11263564 112.070485,8.09497267 112.070485,7.60040942 C112.070485,7.32663334 112.096916,7.07052023 112.123348,7.04402577 C112.15859,7.00869983 112.30837,7.08818321 112.45815,7.2206555 C112.854626,7.55625199 113.436123,7.77703915 113.920705,7.77703915 C114.264317,7.77703915 114.396476,7.73288172 114.60793,7.52975753 C114.907489,7.24714996 115.048458,6.74375523 114.898678,6.46114766 C114.837004,6.35516982 114.669604,6.25802347 114.493392,6.22269753 C114.325991,6.19620307 114.15859,6.13438266 114.132159,6.09022523 C114.105727,6.0460678 114,6.01074185 113.894273,6.01074185 C113.559471,6.00191036 112.581498,5.43669523 112.299559,5.09226725 C112.061674,4.8008282 112.026432,4.68601887 112.026432,4.21795009 C112.026432,3.63507198 112.14978,3.38779035 112.590308,3.04336238 C112.92511,2.79608076 113.911894,2.81374373 114.431718,3.08751981 L114.819383,3.28181252 L115.162996,3.04336238 C115.453744,2.84023819 115.559471,2.81374373 115.911894,2.86673265 C116.484581,2.94621603 116.828194,3.16700319 116.828194,3.45844225 C116.828194,3.6880609 116.810573,3.69689238 116.555066,3.62624049 C116.035242,3.47610522 116.035242,3.46727373 116.035242,5.47202117 C116.035242,7.20299253 116.026432,7.31780186 115.823789,7.74171321 C115.409692,8.63369335 114.352423,9.03111024 113.215859,8.71317673 Z M114.92511,5.60449347 C114.951542,5.52501009 114.977974,5.15408766 114.977974,4.77433374 L114.977974,4.0766463 L114.651982,3.82936468 C113.955947,3.29947549 113.127753,3.62624049 113.127753,4.42990576 C113.127753,4.85381712 113.365639,5.1275932 113.982379,5.39253779 C114.211454,5.49851563 114.46696,5.61332496 114.537445,5.65748239 C114.740088,5.77229171 114.863436,5.76346023 114.92511,5.60449347 Z" id="Shape"></path>
                    <path d="M120.378855,8.64252483 C120.167401,8.54537848 119.84141,8.2716024 119.638767,8.03315226 C119.444934,7.79470213 119.242291,7.62690388 119.198238,7.65339834 C119.154185,7.6798928 119.118943,7.91834294 119.118943,8.18328753 L119.118943,8.66018781 L118.590308,8.66018781 L118.061674,8.66018781 L118.061674,5.78995469 L118.061674,2.91089008 L118.572687,2.93738454 L119.07489,2.963879 L119.118943,4.68601887 C119.154185,6.07256226 119.198238,6.47881064 119.321586,6.7614182 C119.656388,7.51209456 120.202643,7.85652253 120.792952,7.6798928 C120.986784,7.6180724 121.189427,7.52092605 121.242291,7.45027415 C121.418502,7.24714996 121.647577,7.32663334 121.885463,7.68872429 C122.008811,7.88301699 122.114537,8.06847821 122.114537,8.11263564 C122.114537,8.33342281 121.242291,8.84564902 120.889868,8.83681754 C120.810573,8.82798605 120.581498,8.74850267 120.378855,8.64252483 Z" id="Path"></path>
                    <path d="M146.933921,8.71317673 C146.220264,8.50122105 145.709251,8.04198375 145.312775,7.24714996 C145.0837,6.80557564 145.066079,6.68193483 145.07489,5.83411212 C145.0837,4.74783928 145.23348,4.30626495 145.832599,3.66156644 C146.449339,2.99037346 146.748899,2.87556414 147.929515,2.88439562 C148.872247,2.88439562 148.977974,2.9020586 149.471366,3.14934022 C150,3.41428481 150,3.41428481 150.026432,3.83819617 C150.061674,4.39457982 149.973568,4.4740632 149.585903,4.24444455 C149.23348,4.04132036 148.396476,3.80287022 148.026432,3.80287022 C147.638767,3.80287022 147.030837,4.05015184 146.757709,4.31509644 C146.45815,4.60653549 146.14978,5.24240252 146.185022,5.50734712 C146.211454,5.70163982 146.237885,5.70163982 148.185022,5.72813428 L150.15859,5.74579725 L150.114537,6.36400131 C150.035242,7.44144267 149.365639,8.43056916 148.555066,8.66018781 C148.026432,8.81915456 147.374449,8.83681754 146.933921,8.71317673 Z M148.45815,7.60924091 C148.784141,7.37079077 149.0837,6.88505902 149.057269,6.62894591 L149.030837,6.40815874 L147.700441,6.38166428 C146.132159,6.35516982 146.044053,6.39049577 146.334802,6.97337388 C146.748899,7.77703915 147.788546,8.09497267 148.45815,7.60924091 Z" id="Shape"></path>
                    <path d="M153.938326,8.69551375 C153.770925,8.62486186 153.444934,8.35108578 153.189427,8.08614118 C152.942731,7.82119659 152.713656,7.62690388 152.669604,7.65339834 C152.634361,7.6798928 152.599119,7.91834294 152.599119,8.18328753 L152.599119,8.66018781 L152.070485,8.66018781 L151.54185,8.66018781 L151.54185,5.78995469 L151.54185,2.91972157 L152.070485,2.91972157 L152.599119,2.91972157 L152.599119,4.49172617 C152.599119,6.25802347 152.687225,6.73492375 153.118943,7.25598145 C153.268722,7.43261118 153.524229,7.6180724 153.726872,7.6798928 C154.044053,7.78587064 154.105727,7.77703915 154.537445,7.56508348 C154.784141,7.44144267 155.039648,7.33546483 155.092511,7.33546483 C155.154185,7.33546483 155.303965,7.51209456 155.436123,7.72405024 L155.665198,8.11263564 L155.488987,8.30692835 C155.286344,8.51888402 154.60793,8.83681754 154.378855,8.82798605 C154.299559,8.82798605 154.096916,8.76616564 153.938326,8.69551375 Z M158.696035,8.66018781 C158.493392,8.56304145 158.185022,8.38641172 158.017621,8.25393943 C157.700441,8.01548929 157.665198,8.02432078 157.603524,8.43940064 C157.577093,8.58953591 157.506608,8.61603037 157.048458,8.61603037 L156.519824,8.61603037 L156.519824,5.78995469 L156.519824,2.963879 L157.048458,2.963879 L157.577093,2.963879 L157.621145,5.09226725 L157.665198,7.2206555 L157.929515,7.45027415 C158.325991,7.80353361 158.863436,7.96250037 159.268722,7.84769105 C160,7.65339834 160.035242,7.52975753 160.088106,5.03927833 L160.132159,2.963879 L160.660793,2.963879 L161.189427,2.963879 L161.215859,5.03927833 L161.23348,7.10584618 L161.471366,7.3531278 C161.770925,7.67106132 162.202643,7.86535402 162.599119,7.86535402 C163.004405,7.86535402 163.198238,7.75937618 163.453744,7.40611672 C163.647577,7.12350915 163.656388,7.03519429 163.700441,5.03927833 L163.744493,2.963879 L164.088106,2.93738454 C164.281938,2.91972157 164.528634,2.92855305 164.643172,2.963879 L164.863436,3.01686792 L164.828194,5.10993023 C164.801762,7.15000361 164.792952,7.21182402 164.572687,7.69755578 C164.290749,8.30692835 163.876652,8.63369335 163.242291,8.76616564 C162.660793,8.88980646 162.211454,8.74850267 161.506608,8.20978199 L161.048458,7.85652253 L160.625551,8.23627645 C160.211454,8.60719889 159.674009,8.84564902 159.277533,8.82798605 C159.162996,8.82798605 158.907489,8.74850267 158.696035,8.66018781 Z" id="Shape"></path>
                    <path d="M167.057269,8.66018781 C166.246696,8.38641172 166.123348,8.25393943 166.096916,7.56508348 C166.070485,6.94687942 166.123348,6.86739604 166.387665,7.1588351 C166.634361,7.43261118 167.436123,7.77703915 167.84141,7.77703915 C168.555066,7.77703915 168.933921,7.39728523 168.881057,6.71726077 L168.854626,6.32867537 L168.237885,6.13438266 C167.585903,5.93125847 166.740088,5.56033604 166.519824,5.37487482 C166.211454,5.1275932 165.991189,4.62419847 165.991189,4.19145563 C165.991189,3.65273495 166.281938,3.19349765 166.748899,2.963879 C167.162996,2.7695863 167.938326,2.8314067 168.46696,3.10518279 L168.828194,3.28181252 L169.048458,3.07868833 C169.515419,2.637114 170.837004,2.92855305 170.837004,3.47610522 C170.837004,3.73221833 170.819383,3.74104981 170.352423,3.57325157 C170.30837,3.5555886 170.202643,3.57325157 170.132159,3.62624049 C170.026432,3.69689238 169.991189,4.05898333 169.955947,5.68397685 C169.903084,7.85652253 169.903084,7.88301699 169.303965,8.35991726 C168.704846,8.83681754 167.894273,8.94279538 167.057269,8.66018781 Z M168.881057,4.84498563 L168.854626,3.944174 L168.502203,3.74104981 C168.044053,3.47610522 167.735683,3.48493671 167.409692,3.76754427 C167.171806,3.96183698 167.136564,4.05015184 167.136564,4.42107428 C167.136564,4.80965968 167.171806,4.88031158 167.427313,5.07460428 C167.735683,5.31305442 168.599119,5.72813428 168.792952,5.73696577 C168.881057,5.74579725 168.898678,5.53384158 168.881057,4.84498563 Z" id="Shape"></path>
                    <path d="M174.343612,8.66018781 C174.167401,8.56304145 173.85022,8.28926537 173.647577,8.04198375 C173.444934,7.80353361 173.242291,7.60040942 173.207048,7.60040942 C173.171806,7.60040942 173.127753,7.83002807 173.110132,8.11263564 L173.0837,8.61603037 L172.555066,8.61603037 L172.026432,8.61603037 L172.026432,5.78995469 L172.026432,2.963879 L172.555066,2.963879 L173.0837,2.963879 L173.127753,4.7301763 C173.180617,6.5671255 173.23348,6.86739604 173.621145,7.30013888 C173.806167,7.51209456 174.290749,7.77703915 174.475771,7.77703915 C174.537445,7.77703915 174.792952,7.6798928 175.030837,7.55625199 C175.268722,7.43261118 175.506608,7.33546483 175.568282,7.33546483 C175.629956,7.33546483 175.779736,7.52092605 175.911894,7.75054469 L176.15859,8.15679307 L175.876652,8.39524321 C175.603524,8.62486186 175.057269,8.84564902 174.792952,8.83681754 C174.722467,8.82798605 174.519824,8.74850267 174.343612,8.66018781 Z" id="Path"></path>
                    <path d="M184.449339,8.71317673 C183.920705,8.56304145 183.594714,8.35991726 183.23348,7.96250037 C182.810573,7.49443159 182.678414,7.21182402 182.555066,6.54063104 C182.290749,5.08343577 182.889868,3.67039792 184.008811,3.06985684 C184.30837,2.91089008 184.502203,2.88439562 185.374449,2.88439562 C186.325991,2.88439562 186.422907,2.9020586 186.9163,3.14934022 L187.444934,3.40545333 L187.471366,3.91767955 C187.488987,4.19145563 187.462555,4.42107428 187.418502,4.42107428 C187.374449,4.42107428 187.162996,4.32392792 186.951542,4.2091186 C186.343612,3.87352211 185.647577,3.7498813 185.07489,3.8823536 C184.810573,3.944174 184.484581,4.06781482 184.361233,4.17379265 C183.920705,4.51822063 183.54185,5.29539144 183.665198,5.60449347 C183.709251,5.72813428 183.973568,5.74579725 185.638767,5.74579725 C187.947137,5.74579725 187.797357,5.6486509 187.471366,6.98220537 C187.145374,8.31575983 185.770925,9.10176213 184.449339,8.71317673 Z M185.903084,7.60924091 C186.229075,7.37079077 186.528634,6.88505902 186.502203,6.62894591 L186.475771,6.40815874 L185.145374,6.38166428 C183.594714,6.35516982 183.53304,6.38166428 183.788546,6.94687942 C184.14978,7.75937618 185.22467,8.09497267 185.903084,7.60924091 Z" id="Shape"></path>
                    <path d="M132.511013,6.61128293 C132.511013,5.48085266 132.537445,4.39457982 132.572687,4.2091186 C132.651982,3.72338684 133.295154,3.06102535 133.832599,2.91972157 C134.378855,2.7695863 134.995595,2.86673265 135.559471,3.18466616 C136.140969,3.51143117 136.193833,3.51143117 136.229075,3.21116062 C136.255507,2.97271049 136.273128,2.963879 136.784141,2.963879 L137.312775,2.963879 L137.312775,5.78995469 L137.312775,8.61603037 L136.784141,8.61603037 L136.255507,8.61603037 L136.211454,6.54063104 C136.185022,5.40136928 136.132159,4.41224279 136.096916,4.35042238 C136.052863,4.28860198 135.859031,4.13846671 135.656388,4.00599441 C135.23348,3.74104981 134.528634,3.6880609 134.14978,3.89118509 C133.665198,4.14729819 133.621145,4.35925387 133.585903,6.61128293 L133.550661,8.66018781 L133.030837,8.66018781 L132.511013,8.66018781 L132.511013,6.61128293 Z" id="Path"></path>
                    <path d="M138.828194,8.60719889 C138.792952,8.57187294 138.76652,6.64660888 138.76652,4.32392792 C138.76652,-0.330265472 138.722467,0.00533101577 139.339207,0.00533101577 C139.920705,0.00533101577 139.911894,-0.0299949303 139.911894,1.50668372 C139.911894,3.06985684 139.903084,3.05219387 140.537445,2.9020586 C140.748899,2.85790116 141.198238,2.84023819 141.54185,2.87556414 C142.052863,2.92855305 142.237885,2.99037346 142.696035,3.290644 C143.585903,3.87352211 143.964758,4.62419847 143.964758,5.78995469 C143.964758,7.10584618 143.515419,7.85652253 142.422907,8.36874875 C141.920705,8.60719889 141.823789,8.61603037 140.396476,8.64252483 C139.568282,8.66018781 138.863436,8.64252483 138.828194,8.60719889 Z M142.044053,7.40611672 C142.969163,6.8938905 143.154185,5.42786374 142.422907,4.45640022 C141.955947,3.83819617 140.933921,3.60857752 140.220264,3.95300549 L139.911894,4.10314076 L139.911894,5.78995469 C139.911894,7.01753131 139.938326,7.51209456 140.026432,7.59157794 C140.202643,7.78587064 141.594714,7.66222983 142.044053,7.40611672 Z" id="Shape"></path>
                    <path d="M179.823789,7.63573537 C179.312775,7.07052023 178.76652,6.46114766 178.61674,6.28451793 C178.45815,6.1078882 178.325991,5.93125847 178.325991,5.89593253 C178.325991,5.81644915 179.162996,4.90680604 180.343612,3.69689238 L181.101322,2.91972157 L181.770925,2.91972157 C182.140969,2.91972157 182.45815,2.94621603 182.484581,2.97271049 C182.519824,2.99920495 182.052863,3.50259968 181.471366,4.10314076 C180.881057,4.69485036 180.237885,5.34838036 180.052863,5.55150455 L179.709251,5.9135955 L180.405286,6.73492375 C180.784141,7.18532956 181.189427,7.64456686 181.295154,7.75054469 C181.54185,8.0066578 181.938326,8.52771551 181.938326,8.5983674 C181.938326,8.63369335 181.665198,8.66018781 181.339207,8.66018781 L180.740088,8.66018781 L179.823789,7.63573537 Z M7.44493392,6.90272199 C6.969163,6.68193483 6.81057269,6.48764212 6.66960352,5.92242699 C6.57268722,5.53384158 6.50220264,5.42786374 6.33480176,5.39253779 C6.15859031,5.34838036 6.12334802,5.28655996 6.12334802,5.03927833 C6.12334802,4.79199671 6.15859031,4.7301763 6.34361233,4.68601887 L6.56387665,4.63302995 L6.59030837,3.33480143 L6.61674009,2.03657292 L7.09251101,2.03657292 L7.56828194,2.03657292 L7.59471366,3.33480143 L7.62114537,4.63302995 L7.84140969,4.68601887 C8.02643172,4.7301763 8.06167401,4.79199671 8.06167401,5.03927833 C8.06167401,5.27772847 8.01762115,5.35721185 7.88546256,5.38370631 C7.65638767,5.41903225 7.56828194,5.56916752 7.63876652,5.78995469 C7.70044053,6.01074185 7.89427313,6.13438266 8.28193833,6.18737158 C8.55506608,6.22269753 8.59030837,6.26685496 8.61674009,6.54063104 C8.66960352,7.07052023 8.16740088,7.2206555 7.44493392,6.90272199 Z M32.7488987,6.92921645 C32.7136564,6.8938905 32.6872247,5.77229171 32.6872247,4.44756874 L32.6872247,2.02774143 L33.154185,2.05423589 L33.6123348,2.08073035 L33.6387665,2.81374373 C33.6563877,3.21116062 33.7004405,3.53792562 33.7444934,3.53792562 C33.7885463,3.53792562 34.0881057,3.20232914 34.4052863,2.78724927 L34.9955947,2.03657292 L35.5594714,2.03657292 C35.8678414,2.03657292 36.123348,2.07189886 36.123348,2.10722481 C36.123348,2.15138224 35.8678414,2.5046417 35.5506608,2.9020586 C35.2334802,3.290644 34.9779736,3.64390346 34.9779736,3.6880609 C34.9779736,3.76754427 35.5066079,4.50055766 35.9118943,4.97745793 C36.185022,5.30422293 36.0969163,5.39253779 35.4977974,5.39253779 C35.0484581,5.39253779 35.1277533,5.4543582 34.2026432,4.35042238 C33.9911894,4.09430928 33.7797357,3.89118509 33.7356828,3.89118509 C33.69163,3.89118509 33.6475771,4.58004103 33.6387665,5.41903225 L33.6123348,6.93804794 L33.215859,6.96454239 C32.9955947,6.98220537 32.784141,6.96454239 32.7488987,6.92921645 Z" id="Shape"></path>
                    <path d="M9.39207048,5.30422293 C8.63436123,5.07460428 8.23788546,4.50938914 8.24669604,3.66156644 C8.25550661,2.60178805 8.92511013,2.01007846 10.0881057,2.01007846 C10.6079295,2.01007846 10.784141,2.0454044 11.1189427,2.24852859 C11.5947137,2.52230467 11.7621145,2.75192332 11.9118943,3.30830698 C12.1321586,4.12080374 11.5859031,5.07460428 10.7753304,5.29539144 C10.3876652,5.41020077 9.75330396,5.41020077 9.39207048,5.30422293 Z M10.5198238,4.6683559 C10.6960352,4.50938914 10.7577093,4.35042238 10.8017621,3.97949995 C10.8810573,3.28181252 10.7312775,2.80491224 10.3700441,2.61061954 C10.0969163,2.46931576 10.0528634,2.46931576 9.8061674,2.59295657 C9.44493392,2.78724927 9.31277533,3.14934022 9.35682819,3.85585914 C9.39207048,4.36808536 9.42731278,4.4740632 9.63876652,4.65069293 C9.93832599,4.91563752 10.2378855,4.91563752 10.5198238,4.6683559 Z" id="Shape"></path>
                    <path d="M12.0352423,5.31305442 C12,5.2600655 12.0528634,5.04810982 12.1497797,4.84498563 C12.2378855,4.63302995 12.4317181,4.19145563 12.5726872,3.84702765 C13.2687225,2.20437116 13.4096916,1.94825805 13.6211454,1.94825805 C13.8590308,1.94825805 13.9911894,2.13371927 14.2819383,2.8314067 C14.3876652,3.0963513 14.5462555,3.39662184 14.6343612,3.48493671 C14.784141,3.65273495 14.8017621,3.62624049 15.1982379,2.80491224 C15.4449339,2.28385454 15.6563877,1.94825805 15.7356828,1.94825805 C15.9207048,1.94825805 16.2114537,2.11605629 16.2114537,2.21320265 C16.2114537,2.25736008 16.30837,2.5046417 16.4229075,2.76075481 C16.5374449,3.01686792 16.722467,3.43194779 16.8281938,3.67039792 C16.9339207,3.91767955 17.0748899,4.23561306 17.1365639,4.37691684 C17.4977974,5.18058212 17.5242291,5.28655996 17.3832599,5.33954887 C17.1982379,5.41020077 16.7136564,5.40136928 16.5991189,5.3218859 C16.4933921,5.2600655 16.0352423,4.2091186 16.0352423,4.03248887 C16.0352423,3.97949995 16,3.8823536 15.9559471,3.81170171 C15.8237885,3.59974603 15.6387665,3.82936468 15.3656388,4.56237806 C15.2246696,4.93330049 15.0396476,5.26889698 14.9515419,5.3218859 C14.6255507,5.48968415 14.4052863,5.33954887 14.1938326,4.8008282 C14.0792952,4.51822063 13.9207048,4.12963522 13.8325991,3.93534252 L13.6740088,3.58208306 L13.4801762,4.02365738 C13.3656388,4.27093901 13.2422907,4.56237806 13.1982379,4.68601887 C12.9603524,5.30422293 12.9162996,5.34838036 12.4933921,5.37487482 C12.2731278,5.39253779 12.061674,5.35721185 12.0352423,5.31305442 Z M20.30837,5.3218859 C19.4977974,5.03044685 19.1013216,4.49172617 19.1013216,3.67039792 C19.1013216,2.62828251 19.7444934,2.02774143 20.8722467,2.00124697 C21.1894273,2.00124697 21.6035242,2.02774143 21.7885463,2.06306738 C22.0969163,2.13371927 22.1145374,2.15138224 22.1145374,2.47814724 C22.1145374,2.86673265 22.1057269,2.87556414 21.5594714,2.72542886 C21.0748899,2.60178805 20.7400881,2.68127143 20.4229075,3.02569941 C20.2290749,3.23765508 20.1762115,3.37012738 20.1762115,3.6880609 C20.1762115,4.04132036 20.2202643,4.12963522 20.5022026,4.39457982 C20.7929515,4.67718739 20.8546256,4.69485036 21.2687225,4.65952441 C21.5154185,4.64186144 21.8061674,4.58887252 21.9207048,4.55354657 C22.0969163,4.49172617 22.1145374,4.51822063 22.1145374,4.8008282 C22.1145374,4.96862644 22.0528634,5.15408766 21.9735683,5.21590806 C21.8237885,5.34838036 20.5903084,5.41903225 20.30837,5.3218859 Z" id="Shape"></path>
                    <path d="M23.876652,5.33954887 C22.9251101,4.97745793 22.6255507,4.56237806 22.6255507,3.66156644 C22.6255507,3.18466616 22.660793,3.06102535 22.907489,2.71659738 C23.2687225,2.20437116 23.7004405,2.01007846 24.4669604,2.01007846 C25.3744493,2.01007846 25.9118943,2.32801197 26.2026432,3.04336238 C26.5022026,3.76754427 26.2907489,4.52705211 25.6299559,5.05694131 C25.3568282,5.27772847 25.215859,5.3218859 24.660793,5.35721185 C24.2995595,5.37487482 23.9471366,5.36604333 23.876652,5.33954887 Z M24.8986784,4.65952441 C25.1013216,4.48289468 25.1453744,4.35925387 25.1806167,3.91767955 C25.2334802,3.21999211 25.0837004,2.77841778 24.7400881,2.60178805 C24.1674009,2.30151751 23.7004405,2.80491224 23.7004405,3.71455536 C23.7004405,4.67718739 24.3171806,5.16291914 24.8986784,4.65952441 Z" id="Shape"></path>
                    <path d="M28.5638767,5.31305442 C28.3700441,5.1894136 28.4581498,2.88439562 28.660793,2.49581022 C28.9515419,1.96592102 29.7092511,1.79812278 30.3524229,2.12488778 C30.660793,2.28385454 30.7136564,2.29268603 30.8017621,2.16904521 C30.8722467,2.08073035 31.0484581,2.03657292 31.3568282,2.03657292 L31.8061674,2.03657292 L31.814978,2.81374373 C31.814978,3.23765508 31.8325991,3.91767955 31.8502203,4.33275941 C31.8942731,5.33954887 31.876652,5.39253779 31.4273128,5.39253779 C31.2246696,5.39253779 31.0132159,5.35721185 30.9515419,5.3218859 C30.8898678,5.28655996 30.845815,4.8626486 30.8193833,4.13846671 C30.7929515,3.08751981 30.784141,3.00803643 30.5814978,2.84023819 C30.4493392,2.72542886 30.246696,2.65477697 30.0352423,2.65477697 C29.5506608,2.65477697 29.4801762,2.84023819 29.4273128,4.20028711 L29.3832599,5.34838036 L29.030837,5.37487482 C28.8370044,5.38370631 28.6255507,5.35721185 28.5638767,5.31305442 Z" id="Path"></path>
                </g>
            </g>
        </g>
    </g>
</svg>