<?xml version="1.0" encoding="UTF-8"?>
<svg width="233px" height="332px" viewBox="0 0 233 332" version="1.1" xmlns="http://www.w3.org/2000/svg" xmlns:xlink="http://www.w3.org/1999/xlink">
    <title>card</title>
    <g id="Page-1" stroke="none" stroke-width="1" fill="none" fill-rule="evenodd">
        <g id="card" transform="translate(-0.000000, 0.000000)" fill-rule="nonzero">
            <path d="M82.9998379,269.085474 C82.9998379,300.774553 108.690881,326.466245 140.380609,326.466245 L226.866446,326.466245 L226.866446,185.421638 C226.872276,172.849756 222.600378,160.654616 214.748463,150.838588 L160.466569,82.9998379 L82.9998379,82.9998379 L82.9998379,269.085474 Z" id="Path" fill="#FEC9A3"></path>
            <path d="M27.6668288,5.53310638 L138.333495,5.53310638 C150.556518,5.53310638 160.466569,15.4431573 160.466569,27.6661803 L160.466569,226.865791 C160.466569,239.088814 150.556518,248.998865 138.333495,248.998865 L27.6668288,248.998865 C15.4438058,248.998865 5.53375482,239.088814 5.53375482,226.865791 L5.53375482,27.6661803 C5.53375482,15.4438058 15.4438058,5.53310638 27.6668288,5.53310638 Z" id="Path" fill="#4398D1"></path>
            <path d="M5.53310638,219.783571 L5.53310638,226.86644 C5.53310638,239.089463 15.4431573,248.999514 27.6661803,248.999514 L138.332847,248.999514 C150.55587,248.999514 160.465921,239.089463 160.465921,226.86644 L160.465921,63.7989926 C127.553891,131.537884 73.0508808,186.4118 5.53310638,219.783571 Z" id="Path" fill="#3E8CC7"></path>
            <rect id="Rectangle" fill="#F7BB8F" x="82.9998379" y="248.999514" width="60.8667639" height="16.5999676"></rect>
            <rect id="Rectangle" fill="#87CED9" x="99.5998055" y="5.53310638" width="27.6668288" height="243.466407"></rect>
            <g id="Group" transform="translate(27.666829, 27.666829)" fill="#126099">
                <rect id="Rectangle" x="0" y="0" width="11.0668612" height="71.9329767"></rect>
                <rect id="Rectangle" x="27.6661803" y="0" width="11.0668612" height="44.2667964"></rect>
            </g>
            <rect id="Rectangle" fill="#D9D9D9" x="33.1999352" y="188.13275" width="33.1999352" height="33.1999352"></rect>
            <path d="M182.599643,210.266472 L108.231789,131.250626 C100.612663,123.188619 87.9026643,122.823549 79.8348206,130.442675 C79.7077271,130.564581 79.5799852,130.685839 79.4587276,130.807745 L79.4587276,130.807745 C72.0937889,138.19473 71.5906024,149.986543 78.2967299,157.976574 L127.266634,215.799579 L127.266634,234.944658 C127.260798,263.380532 144.906694,288.828412 171.533431,298.799416 L182.599643,298.799416 L182.599643,210.266472 Z" id="Path" fill="#FEC9A3"></path>
            <path d="M138.332847,0 L27.6668288,0 C12.3890227,0 1.84296662e-14,12.3890227 1.84296662e-14,27.6668288 L1.84296662e-14,226.86644 C1.84296662e-14,242.144246 12.3890227,254.533268 27.6668288,254.533268 L77.4667315,254.533268 L77.4667315,269.086123 C77.4998018,303.818961 105.64777,331.96693 140.380609,332 L226.86644,332 C229.920574,332 232.399546,329.521028 232.399546,326.466894 L232.399546,185.421638 C232.377499,171.610595 227.674391,158.208714 219.064455,147.407712 L165.999676,81.0629589 L165.999676,27.6668288 C165.999676,12.3890227 153.610653,0 138.332847,0 Z M138.332847,11.0668612 C147.501735,11.0668612 154.932815,18.4979404 154.932815,27.6668288 L154.932815,172.805662 L132.799741,149.399708 L132.799741,11.0668612 L138.332847,11.0668612 Z M121.732879,137.502849 L112.270898,127.265986 C110.190066,125.202013 107.777883,123.497923 105.132912,122.230878 L105.132912,11.0668612 L121.732879,11.0668612 L121.732879,137.502849 Z M11.0668612,226.86644 L11.0668612,27.6668288 C11.0668612,18.4979404 18.4979404,11.0668612 27.6668288,11.0668612 L94.0666991,11.0668612 L94.0666991,119.409532 L94.0666991,119.409532 C87.127783,119.18258 80.4158195,121.893692 75.585618,126.879518 C66.2345191,136.319453 65.6087781,151.3314 74.146738,161.518333 L94.0666991,185.145404 L94.0666991,243.466407 L27.6668288,243.466407 C18.4979404,243.466407 11.0668612,236.03468 11.0668612,226.86644 Z M122.286644,243.466407 L105.13356,243.466407 L105.13356,198.203613 L121.733528,217.846692 L121.733528,234.944658 C121.749739,237.794536 121.932598,240.638577 122.286644,243.466407 Z M210.266472,154.324581 C217.382411,163.133588 221.288591,174.10059 221.333333,185.421638 L221.333333,320.93249 L140.380609,320.93249 C111.756688,320.89942 88.566663,297.709395 88.5335927,269.085474 L88.5335927,254.53262 L124.499757,254.53262 C130.785698,277.26874 147.534806,295.645423 169.596552,304.000523 L173.469661,293.597661 C149.05085,284.384679 132.865881,261.044865 132.799741,234.944658 L132.799741,215.799579 C132.799741,214.482605 132.329624,213.204537 131.471743,212.202703 L82.5569559,154.379698 C77.6988717,148.608616 78.0581054,140.08168 83.3869543,134.73662 C86.1648551,131.842649 90.0600116,130.287699 94.0660507,130.475745 C98.0059492,130.503628 101.751965,132.163625 104.413148,135.068619 L178.559886,214.084465 L186.638753,206.44848 L165.999676,184.314757 L165.999676,98.7698071 L210.266472,154.324581 Z" id="Shape" fill="#000000"></path>
            <rect id="Rectangle" fill="#000000" x="27.6668288" y="27.6668288" width="11.0668612" height="71.9329767"></rect>
            <rect id="Rectangle" fill="#000000" x="55.3330091" y="27.6668288" width="11.0668612" height="44.2667964"></rect>
            <path d="M66.3998703,182.599643 L33.1999352,182.599643 C30.1458005,182.599643 27.6668288,185.078615 27.6668288,188.13275 L27.6668288,221.332685 C27.6668288,224.38682 30.1458005,226.865791 33.1999352,226.865791 L66.3998703,226.865791 C69.454005,226.865791 71.9329767,224.38682 71.9329767,221.332685 L71.9329767,188.13275 C71.9329767,185.078615 69.454005,182.599643 66.3998703,182.599643 Z M60.8667639,215.799579 L38.73369,215.799579 L38.73369,193.666505 L60.8667639,193.666505 L60.8667639,215.799579 Z" id="Shape" fill="#000000"></path>
        </g>
    </g>
</svg>