<?xml version="1.0" encoding="UTF-8"?>
<svg width="74px" height="74px" viewBox="0 0 74 74" version="1.1" xmlns="http://www.w3.org/2000/svg" xmlns:xlink="http://www.w3.org/1999/xlink">
    <title>happy</title>
    <g id="Page-1" stroke="none" stroke-width="1" fill="none" fill-rule="evenodd">
        <g id="happy" fill-rule="nonzero">
            <g id="Group" transform="translate(1.357798, 2.036697)">
                <path d="M40.1957901,49.959063 L44.9869931,51.4650413 L56.3275992,55.0035263 L52.7863979,66.3359088 L50.3140172,65.5642211 C49.7184027,65.3781061 49.0734106,65.4337623 48.5185413,65.7191523 L38.2010149,71.0245053 C37.6471815,71.3070564 37.0046301,71.3616068 36.4110338,71.1764685 L11.3949604,63.3705504 C10.1425036,62.9794472 9.44439404,61.6478886 9.83561411,60.3962878 L10.5441514,58.1297519 C10.93554,56.8782798 12.2679607,56.1806963 13.5204237,56.5715363 L24.7492024,60.0752954 C24.4331618,58.9898454 24.9263461,57.8321992 25.9283653,57.3074593 L38.2953182,50.1686059 C38.8712934,49.8352918 39.5609481,49.7592516 40.1957901,49.959063 L40.1957901,49.959063 Z" id="Path" fill="#FFDAAA"></path>
                <polygon id="Path" fill="#FFB01A" transform="translate(56.853127, 61.396153) rotate(17.330109) translate(-56.853127, -61.396153) " points="54.4778638 53.0821805 59.2318209 53.0812002 59.2283898 69.710125 54.4744327 69.7111053"></polygon>
                <ellipse id="Oval" fill="#FFB01A" cx="35.6422018" cy="22.6371625" rx="22.5733945" ry="22.5570257"></ellipse>
                <path d="M46.3348624,29.7604337 C46.3348624,34.3504916 41.5469266,38.0709169 35.6422018,38.0709169 C29.7374771,38.0709169 24.9495413,34.3504916 24.9495413,29.7604337 L46.3348624,29.7604337 Z" id="Path" fill="#FF5023"></path>
                <g fill="#FF7C02" id="Path">
                    <polygon points="8.31651376 36.6554635 10.886465 41.8590132 16.6330275 42.6934747 12.4747706 46.7437964 13.4564163 52.4630412 8.31651376 49.7627278 3.17661124 52.4630412 4.15825688 46.7437964 0 42.6934747 5.7465625 41.8590132"></polygon>
                    <polyline points="56.1943865 13.295289 60.9793521 15.8077261 59.9977064 10.0883329 64.1559633 6.03845641 58.4086583 5.20444007 55.8394495 0 53.2702408 5.20444007 50.4515367 5.61402816"></polyline>
                    <polygon points="65.3440367 32.829228 67.1797586 36.5460916 71.2844037 37.142072 68.3142202 40.0351589 69.015332 44.120355 65.3440367 42.1915809 61.6727414 44.120355 62.3738532 40.0351589 59.4036697 37.142072 63.5083148 36.5460916"></polygon>
                    <polygon points="7.12844037 1.36811329 8.96416227 5.08497687 13.0688073 5.68095723 10.0986239 8.57404417 10.7997357 12.6592402 7.12844037 10.7304661 3.45714507 12.6592402 4.15825688 8.57404417 1.18807339 5.68095723 5.29271846 5.08497687"></polygon>
                </g>
            </g>
            <g id="Group" fill="#000000">
                <path d="M64.1040145,55.034995 C63.9566864,54.754716 63.7038851,54.5444706 63.4013135,54.4505849 L58.8449463,53.0283214 C58.5428424,52.9336532 58.2154604,52.9629688 57.9350136,53.109802 C57.6545668,53.2566351 57.4440966,53.508922 57.3500282,53.8110136 L56.9919639,54.9544895 L46.7453595,51.756633 L41.9323796,50.2449191 C40.9756311,49.9438741 39.9363551,50.0580026 39.0678658,50.5594868 L26.6624325,57.7200018 C25.7954935,58.1849021 25.157076,58.9844952 24.8959824,59.9324116 L15.1312727,56.886621 C13.2439914,56.2978089 11.2363088,57.3489684 10.6465183,59.2346974 L9.93486567,61.5112135 C9.34509803,63.3975351 10.3970676,65.4044919 12.2846621,65.9941759 L37.4162946,73.8360058 C38.3117542,74.1173776 39.282149,74.0343383 40.1166956,73.6049253 L50.4826548,68.2751645 C50.761507,68.1331868 51.0847498,68.1053783 51.3837831,68.1976407 L52.72354,68.6165673 L52.3684597,69.7496074 C52.172931,70.3781605 52.5232585,71.0462962 53.1517252,71.2434313 L57.7095843,72.6656947 C57.8249949,72.7017043 57.9452517,72.719805 58.0661566,72.719365 C58.5877208,72.719062 59.0486852,72.3803834 59.2045024,71.8830026 L64.1860709,55.9444087 C64.2799289,55.6423323 64.2504319,55.3154231 64.1040145,55.034995 L64.1040145,55.034995 Z M52.0954357,65.9211247 C51.197864,65.6381688 50.2246412,65.7223386 49.389067,66.1551869 L39.0290755,71.481966 C38.7504165,71.6248212 38.4266323,71.6521406 38.1279473,71.557999 L12.9963148,63.7161691 C12.367278,63.5197161 12.0166348,62.8509785 12.2130493,62.2223452 L12.9247019,59.9458292 C13.018254,59.6433854 13.2286446,59.3907096 13.5092541,59.2437913 C13.7898636,59.096873 14.1175203,59.0678441 14.41962,59.163137 L25.1660225,62.5160411 C25.1701107,62.5231969 25.1736036,62.5306763 25.176466,62.5384037 L26.2849731,64.6494363 C27.2031746,66.3995651 29.367033,67.0749422 31.1188401,66.1581686 L40.6329049,61.175774 C41.0127642,60.9791171 41.25824,60.5943436 41.2763328,60.1672265 C41.2944257,59.7401094 41.0823679,59.3359831 40.7204985,59.1079523 C40.3586291,58.8799215 39.9023017,58.8628673 39.5243977,59.0632506 L30.010333,64.0456452 C29.4264916,64.350898 28.7055544,64.1261036 28.399044,63.5432314 L27.2920288,61.430708 C27.2545904,61.359771 27.2241122,61.2853788 27.2010208,61.2085725 C27.0440032,60.663714 27.292158,60.0836561 27.7948106,59.8205984 C27.80973,59.8131442 27.8231574,59.8041992 27.8380767,59.796745 L40.2629052,52.6243032 C40.5520221,52.4575887 40.8978718,52.4197299 41.2162512,52.5199442 L46.0322149,54.0331491 L56.2803113,57.2310055 L53.4351927,66.3385605 L52.0954357,65.9211247 Z M57.2813992,70.0328674 L55.0032156,69.3217357 L59.2731314,55.6611487 L61.551315,56.3722804 L57.2813992,70.0328674 Z" id="Shape"></path>
                <path d="M37.000045,47.7880111 C50.1626349,47.7880111 60.870993,37.0874913 60.870993,23.9345361 C60.8723551,21.6052277 60.5311857,19.2883605 59.8584172,17.0581756 L61.8987865,18.1294948 C62.3009129,18.3406314 62.7881173,18.3053638 63.1555928,18.0385173 C63.5230683,17.7716709 63.7070997,17.3195131 63.6303254,16.8721185 L62.7500842,11.7443668 L66.4782787,8.11371884 C66.8037473,7.79682267 66.9208961,7.32273694 66.7804482,6.89087908 C66.6400003,6.45902121 66.2663259,6.14432639 65.8166059,6.07916651 L60.6640617,5.33150915 L58.3608136,0.665173101 C58.1598177,0.257886853 57.7448005,0 57.2903508,0 C56.8359011,0 56.4208839,0.257886853 56.219888,0.665173101 L53.9166399,5.33150915 L52.2256816,5.57705086 C47.9506697,2.0207209 42.5625729,0.0757825347 37.000045,0.0810611323 C23.837455,0.0810611323 13.1290969,10.7815809 13.1290969,23.9345361 C13.1290969,37.0874913 23.837455,47.7880111 37.000045,47.7880111 Z M55.7797674,6.94922201 L57.2903508,3.88911933 L58.8009342,6.94922201 C58.9747698,7.30138691 59.3109395,7.54548217 59.6998246,7.60191272 L63.0799509,8.0923998 L60.6346706,10.4738711 C60.3533648,10.7479258 60.2250409,11.1427626 60.2915257,11.5296855 L60.8690535,14.8940691 L58.547753,13.6753056 C57.4930554,11.4748645 56.1080736,9.44838301 54.4407564,7.66601893 L54.8816229,7.60191272 C55.270231,7.54525254 55.606077,7.30118983 55.7797674,6.94922201 L55.7797674,6.94922201 Z M37.000045,2.46640863 C48.8460029,2.46640863 58.4838982,12.0972492 58.4838982,23.9345361 C58.4838982,35.7718231 48.8460029,45.4026636 37.000045,45.4026636 C25.154087,45.4026636 15.5161917,35.7718231 15.5161917,23.9345361 C15.5161917,12.0972492 25.154087,2.46640863 37.000045,2.46640863 Z" id="Shape"></path>
                <path d="M25.0645709,31.0905786 C25.0645709,36.3517607 30.4188246,40.6319686 37.000045,40.6319686 C43.5812653,40.6319686 48.935519,36.3517607 48.935519,31.0905786 C48.935519,30.4318831 48.4011496,29.8979049 47.7419716,29.8979049 L26.2581183,29.8979049 C25.5989403,29.8979049 25.0645709,30.4318831 25.0645709,31.0905786 Z M46.4157912,32.2832524 C45.6559491,35.6634389 41.722912,38.2466211 37.000045,38.2466211 C32.2771779,38.2466211 28.3441408,35.6634389 27.5842987,32.2832524 L46.4157912,32.2832524 Z" id="Shape"></path>
                <path d="M22.6774761,21.5491886 C23.3366542,21.5491886 23.8710235,21.0152104 23.8710235,20.3565149 C23.8710235,18.3804283 25.4741316,16.7784936 27.4516657,16.7784936 C29.4291998,16.7784936 31.0323079,18.3804283 31.0323079,20.3565149 C31.0323079,21.0152104 31.5666773,21.5491886 32.2258553,21.5491886 C32.8850334,21.5491886 33.4194027,21.0152104 33.4194027,20.3565149 C33.4194027,17.0630373 30.7475559,14.3931461 27.4516657,14.3931461 C24.1557756,14.3931461 21.4839287,17.0630373 21.4839287,20.3565149 C21.4839287,21.0152104 22.0182981,21.5491886 22.6774761,21.5491886 L22.6774761,21.5491886 Z" id="Path"></path>
                <path d="M41.7742346,21.5491886 C42.4334126,21.5491886 42.967782,21.0152104 42.967782,20.3565149 C42.967782,18.3804283 44.5708901,16.7784936 46.5484242,16.7784936 C48.5259583,16.7784936 50.1290664,18.3804283 50.1290664,20.3565149 C50.1290664,21.0152104 50.6634358,21.5491886 51.3226138,21.5491886 C51.9817918,21.5491886 52.5161612,21.0152104 52.5161612,20.3565149 C52.5161612,17.0630373 49.8443143,14.3931461 46.5484242,14.3931461 C43.252534,14.3931461 40.5806872,17.0630373 40.5806872,20.3565149 C40.5806872,21.0152104 41.1150565,21.5491886 41.7742346,21.5491886 Z" id="Path"></path>
                <path d="M14.71189,55.0902596 C15.0637375,55.0902596 15.3976799,54.935117 15.6244963,54.6663325 C15.8513128,54.397548 15.9478915,54.0424533 15.8884293,53.6959206 L15.0081881,48.5683179 L18.7362334,44.9370736 C19.0616049,44.6201875 19.1787104,44.1461869 19.0383055,43.7143955 C18.8979006,43.2826042 18.5243395,42.9679194 18.0747098,42.9026704 L12.9226132,42.1545658 L10.6187683,37.4895715 C10.4177111,37.0824509 10.0027828,36.8247006 9.5484547,36.8247006 C9.09412655,36.8247006 8.6791983,37.0824509 8.47814106,37.4895715 L6.17414699,42.1545658 L1.02205044,42.9026704 C0.572420722,42.9679194 0.198859591,43.2826042 0.058454689,43.7143955 C-0.0819502126,44.1461869 0.0351553224,44.6201875 0.36052679,44.9370736 L4.08797533,48.5683179 L3.20773412,53.6959206 C3.13091871,54.143358 3.31496532,54.595574 3.68249149,54.8624342 C4.05001767,55.1292944 4.53728516,55.1645187 4.93942221,54.9532969 L9.5484547,52.5323182 L14.1567412,54.9532969 C14.3279475,55.0432242 14.5184723,55.0902596 14.71189,55.0902596 L14.71189,55.0902596 Z M10.1039018,50.1286334 C9.75617119,49.9459374 9.3407382,49.9459374 8.99300757,50.1286334 L5.97005039,51.7172748 L6.54742894,48.3536367 C6.6138621,47.9667623 6.48554224,47.5719937 6.20428407,47.2979713 L3.75840705,44.9157546 L7.1383841,44.4249693 C7.52712748,44.368478 7.8631612,44.1244563 8.0369761,43.7724277 L9.5484547,40.7121759 L11.0599333,43.7724277 C11.2337482,44.1244563 11.5697819,44.368478 11.9585253,44.4249693 L15.3385023,44.9157546 L12.8927745,47.2979713 C12.6115163,47.5719937 12.4831965,47.9667623 12.5496296,48.3536367 L13.1270082,51.7172748 L10.1039018,50.1286334 Z" id="Shape"></path>
                <path d="M73.9415306,38.1377897 C73.8012014,37.7059555 73.4276768,37.3911946 72.9780395,37.325877 L69.4754254,36.8173507 L67.9088945,33.6457331 C67.7078372,33.2386125 67.292909,32.9808622 66.8385808,32.9808622 C66.3842527,32.9808622 65.9693244,33.2386125 65.7682672,33.6457331 L64.2017362,36.8173507 L60.6991222,37.325877 C60.2494925,37.391126 59.8759313,37.7058108 59.7355264,38.1376022 C59.5951215,38.5693935 59.7122271,39.0433942 60.0375985,39.3602802 L62.5717981,41.8289658 L61.9735324,45.314853 C61.8965935,45.7624188 62.0806857,46.2148096 62.448364,46.4817114 C62.8160424,46.7486131 63.303499,46.7837069 63.7056681,46.5722293 L66.83873,44.9263396 L69.971792,46.5722293 C70.373929,46.7834511 70.8611965,46.7482269 71.2287227,46.4813667 C71.5962488,46.2145064 71.7802954,45.7622904 71.70348,45.314853 L71.1052144,41.8289658 L73.6397123,39.3602802 C73.9649212,39.0433752 74.0819209,38.5694774 73.9415306,38.1377897 Z M68.9895024,40.5586192 C68.7082443,40.8326416 68.5799244,41.2274102 68.6463576,41.6142845 L68.9423573,43.3363564 L67.3946247,42.523251 C67.0468941,42.3405551 66.6314611,42.3405551 66.2837305,42.523251 L64.7351027,43.3363564 L65.0308041,41.6142845 C65.0972373,41.2274102 64.9689174,40.8326416 64.6876592,40.5586192 L63.4354788,39.3389612 L65.1661225,39.0877543 C65.5548659,39.031263 65.8908996,38.7872412 66.0647145,38.4352127 L66.83873,36.8684866 L67.6125963,38.4352127 C67.7864112,38.7872412 68.1224449,39.031263 68.5111883,39.0877543 L70.2418321,39.3389612 L68.9895024,40.5586192 Z" id="Shape"></path>
                <path d="M4.08797533,10.2231114 L3.48970969,13.7089987 C3.41277082,14.1565645 3.59686296,14.6089553 3.96454131,14.875857 C4.33221966,15.1427588 4.81967625,15.1778526 5.22184536,14.966375 L8.35490729,13.3204852 L11.4879692,14.966375 C11.8901063,15.1775968 12.3773738,15.1423725 12.7448999,14.8755123 C13.1124261,14.6086521 13.2964727,14.1564361 13.2196573,13.7089987 L12.6218393,10.2231114 L15.1557404,7.75442587 C15.4811119,7.43753979 15.5982174,6.96353914 15.4578125,6.53174779 C15.3174076,6.09995644 14.9438465,5.78527161 14.4942167,5.72002262 L10.9916027,5.21149635 L9.42507173,2.03987868 C9.22401449,1.63275814 8.80908624,1.37500779 8.3547581,1.37500779 C7.90042995,1.37500779 7.48550171,1.63275814 7.28444447,2.03987868 L5.7179135,5.21149635 L2.21559784,5.72002262 C1.76596812,5.78527161 1.39240699,6.09995644 1.25200209,6.53174779 C1.11159719,6.96353914 1.22870273,7.43753979 1.55407419,7.75442587 L4.08797533,10.2231114 Z M6.68244899,7.48189992 C7.07119237,7.42540861 7.40722609,7.18138686 7.581041,6.82935829 L8.35490729,5.26263224 L9.12877359,6.82935829 C9.30258849,7.18138686 9.63862222,7.42540861 10.0273656,7.48189992 L11.7580093,7.73310683 L10.5058289,8.95276482 C10.2245707,9.2267872 10.0962509,9.62155584 10.162684,10.0084302 L10.4585346,11.730502 L8.91035442,10.9173967 C8.56262378,10.7347007 8.1471908,10.7347007 7.79946017,10.9173967 L6.25128,11.730502 L6.54698136,10.0084302 C6.61341452,9.62155584 6.48509466,9.2267872 6.20383649,8.95276482 L4.95165607,7.73310683 L6.68244899,7.48189992 Z" id="Shape"></path>
            </g>
        </g>
    </g>
</svg>