<?xml version="1.0" encoding="UTF-8"?>
<svg width="74px" height="74px" viewBox="0 0 74 74" version="1.1" xmlns="http://www.w3.org/2000/svg" xmlns:xlink="http://www.w3.org/1999/xlink">
    <title>returns</title>
    <g id="Page-1" stroke="none" stroke-width="1" fill="none" fill-rule="evenodd">
        <g id="returns" fill-rule="nonzero">
            <polygon id="Path" fill="#FF7C02" points="26.2753623 33.2463768 48.2608696 33.2463768 48.2608696 48.2608696 26.2753623 48.2608696"></polygon>
            <polygon id="Path" fill="#FF7C02" points="25.7391304 25.7391304 34.3188406 25.7391304 34.3188406 33.2463768 25.7391304 33.2463768"></polygon>
            <polygon id="Path" fill="#FF7C02" points="39.6811594 25.7391304 48.2608696 25.7391304 48.2608696 33.2463768 39.6811594 33.2463768"></polygon>
            <path d="M32.7101449,63.7723495 C19.4737154,61.742407 9.69666941,50.3285365 9.69308534,36.9018882 L13.3876374,36.9018882 L9.98864951,32.8145156 L7.2300506,29.4927536 L5.13647108,32.0118594 L1.07246377,36.9018882 L4.76701587,36.9018882 C4.77019716,52.7451493 16.2943649,66.2194674 31.9096586,68.6376812 L29.3973632,66.5384264 L32.7101449,63.7723495 Z" id="Path" fill="#02FF7C"></path>
            <path d="M69.2329841,37.0981118 C69.2298028,21.2548507 57.7056351,7.78053259 42.0903414,5.36231884 L44.6026368,7.46157363 L41.2898551,10.2276505 C54.5262846,12.257593 64.3033306,23.6714635 64.3069147,37.0981118 L60.6123626,37.0981118 L64.0113505,41.1854844 L66.7699494,44.5072464 L68.8635289,41.9881406 L72.9275362,37.0981118 L69.2329841,37.0981118 Z" id="Path" fill="#02FF7C"></path>
            <path d="M66.5384264,44.6026368 L63.7723495,41.2898551 C61.742407,54.5262846 50.3285365,64.3033306 36.9018882,64.3069147 L36.9018882,60.6123626 L32.8145156,64.0113505 L29.4927536,66.7699494 L32.0118594,68.8635289 L36.9018882,72.9275362 L36.9018882,69.2329841 C52.7451493,69.2298028 66.2194674,57.7056351 68.6376812,42.0903414 L66.5384264,44.6026368 Z" id="Path" fill="#7C02FF"></path>
            <path d="M41.9881406,5.13647108 L37.0981118,1.07246377 L37.0981118,4.76701587 C21.2548507,4.77019716 7.78053259,16.2943649 5.36231884,31.9096586 L7.46157363,29.3973632 L10.2276505,32.7101449 C12.257593,19.4737154 23.6714635,9.69666941 37.0981118,9.69308534 L37.0981118,13.3876374 L41.1854844,9.98864951 L44.5072464,7.2300506 L41.9881406,5.13647108 Z" id="Path" fill="#7C02FF"></path>
            <polygon id="Path" fill="#FF7C02" points="39.6811594 33.5144928 39.6811594 35.9275362 37.2681159 34.7210145 34.8550725 35.9275362 34.8550725 33.5144928 34.8550725 26.2753623 39.6811594 26.2753623"></polygon>
            <path d="M73.8863126,36.4830233 C73.6840106,36.045875 73.2457243,35.7665175 72.7640508,35.7677095 L70.2728762,35.7677095 C69.6004942,19.9890303 58.0047175,6.82064005 42.4383165,4.15824026 L37.788946,0.285679461 C37.4210225,-0.0207861444 36.9089664,-0.0865719802 36.4755288,0.116939647 C36.0420912,0.320451274 35.7656296,0.756469281 35.7664083,1.23532017 L35.7664083,3.7265854 C19.9883031,4.39899185 6.82039191,15.9951904 4.15808899,31.5621578 L0.285669068,36.2116973 C-0.0207853882,36.5796343 -0.0865688307,37.091709 0.116935393,37.5251624 C0.320439616,37.9586157 0.756441761,38.2350874 1.23527523,38.2343087 L3.72644982,38.2343087 C4.39883182,54.0129879 15.9946085,67.1813781 31.5610096,69.8437779 L36.21038,73.7163387 C36.4322574,73.9002005 36.7115104,74 36.999663,74 C37.1782279,74 37.3547746,73.9622396 37.51763,73.8890007 C37.9547624,73.6866913 38.2341096,73.2483891 38.2329178,72.766698 L38.2329178,70.2754328 C54.0110229,69.6030263 67.1789341,58.0068278 69.841237,42.4398604 L73.7136569,37.7903209 C74.0188869,37.4244891 74.0861017,36.9155581 73.8863126,36.4830233 L73.8863126,36.4830233 Z M36.999663,6.16851864 C37.3267425,6.16851864 37.6404257,6.03858209 37.8717058,5.80729354 C38.1029859,5.576005 38.2329178,5.26231042 38.2329178,4.93521902 L38.2329178,3.86224835 L42.4753141,7.40181826 L38.2329178,10.9413882 L38.2329178,9.86841749 C38.2329178,9.18728492 37.6807708,8.63511788 36.999663,8.63511788 C23.9957034,8.70355102 12.677706,17.5433654 9.46108441,30.1438632 L8.35115514,28.8118996 C8.11437491,28.5498402 7.77935154,28.3979574 7.42621408,28.3925778 C11.3116794,15.2781399 23.3224627,6.25219366 36.999663,6.16851864 L36.999663,6.16851864 Z M59.4818971,37.7903209 L62.5157038,41.4285547 C60.379969,53.3471573 50.3236639,62.2291029 38.2329178,62.8756351 L38.2329178,60.4337018 C38.2336964,59.954851 37.9572348,59.518833 37.5237972,59.3153213 C37.0903596,59.1118097 36.5783035,59.1775955 36.21038,59.4840611 L32.5722784,62.5179782 C20.6541094,60.3821657 11.772487,50.3254947 11.1259783,38.2343087 L13.5678227,38.2343087 C14.0466562,38.2350874 14.4826583,37.9586157 14.6861626,37.5251624 C14.8896668,37.091709 14.8238833,36.5796343 14.5174289,36.2116973 L11.4836222,32.5734635 C13.619357,20.6548609 23.6756621,11.7729153 35.7664083,11.1263831 L35.7664083,13.5683163 C35.7656296,14.0471672 36.0420912,14.4831852 36.4755288,14.6866969 C36.9089664,14.8902085 37.4210225,14.8244227 37.788946,14.5179571 L41.4270476,11.48404 C53.3452166,13.6198525 62.226839,23.6765235 62.8733477,35.7677095 L60.4315033,35.7677095 C59.9526698,35.7669308 59.5166677,36.0434025 59.3131634,36.4768558 C59.1096592,36.9103092 59.1754427,37.4223839 59.4818971,37.7903209 L59.4818971,37.7903209 Z M28.8108515,65.6505592 C28.5400106,65.883217 28.378993,66.2186824 28.3668797,66.5755339 C15.2658321,62.6764602 6.25391628,50.6701489 6.16829423,37.0010091 C6.16829423,36.3198765 5.61614727,35.7677095 4.93503948,35.7677095 L3.87444039,35.7677095 L7.40154898,31.5251588 L10.9286576,35.7677095 L9.86805848,35.7677095 C9.18695069,35.7677095 8.63480373,36.3198765 8.63480373,37.0010091 C8.70382066,50.0093061 17.5496647,61.3293568 30.1550991,64.5405896 L28.8108515,65.6505592 Z M36.999663,67.8334996 C36.3185552,67.8334996 35.7664083,68.3856666 35.7664083,69.0667992 L35.7664083,70.1397698 L31.5240119,66.6001999 L35.7664083,63.06063 L35.7664083,64.1336007 C35.7664083,64.8147333 36.3185552,65.3669003 36.999663,65.3669003 C50.0036226,65.2984672 61.32162,56.4586528 64.5382416,43.858155 L65.6481709,45.1901186 C65.8808202,45.4609693 66.2162734,45.6219927 66.5731119,45.6341064 C62.67418,58.7356307 50.6683055,67.7478744 36.999663,67.8334996 Z M66.597777,42.4768594 L63.0583359,38.2343087 L64.1312675,38.2343087 C64.8123753,38.2343087 65.3645223,37.6821417 65.3645223,37.0010091 C65.2960916,23.9965764 56.4565988,12.6781673 43.8565594,9.46142862 L45.1884745,8.35145896 C45.4593154,8.11880121 45.620333,7.78333577 45.6324463,7.42648425 C58.7334939,11.325558 67.7454097,23.3318693 67.8310318,37.0010091 C67.8310318,37.6821417 68.3831787,38.2343087 69.0642865,38.2343087 L70.1372182,38.2343087 L66.597777,42.4768594 Z" id="Shape" fill="#000000"></path>
            <path d="M48.1,24.6666667 L25.9,24.6666667 C25.2188488,24.6666667 24.6666667,25.2188488 24.6666667,25.9 L24.6666667,48.1 C24.6666667,48.7811512 25.2188488,49.3333333 25.9,49.3333333 L48.1,49.3333333 C48.7811512,49.3333333 49.3333333,48.7811512 49.3333333,48.1 L49.3333333,25.9 C49.3333333,25.2188488 48.7811512,24.6666667 48.1,24.6666667 Z M35.7666667,27.1333333 L38.2333333,27.1333333 L38.2333333,33.7686667 L37.555,33.4356667 C37.2071319,33.2546827 36.7928681,33.2546827 36.445,33.4356667 L35.7666667,33.7686667 L35.7666667,27.1333333 Z M27.1333333,27.1333333 L33.3,27.1333333 L33.3,32.0666667 L27.1333333,32.0666667 L27.1333333,27.1333333 Z M46.8666667,46.8666667 L27.1333333,46.8666667 L27.1333333,34.5333333 L33.3,34.5333333 L33.3,35.7666667 C33.3012936,36.1941316 33.5238404,36.5904453 33.8881547,36.8140589 C34.252469,37.0376725 34.7065942,37.0566954 35.0883333,36.8643333 L37,35.9146667 L38.9116667,36.8643333 C39.0839653,36.9511111 39.2737652,36.9975066 39.4666667,37 C39.6974516,36.9998282 39.9236882,36.935799 40.1203333,36.815 C40.4816821,36.5891576 40.7008527,36.1927851 40.7,35.7666667 L40.7,34.5333333 L46.8666667,34.5333333 L46.8666667,46.8666667 Z M46.8666667,32.0666667 L40.7,32.0666667 L40.7,27.1333333 L46.8666667,27.1333333 L46.8666667,32.0666667 Z" id="Shape" fill="#000000"></path>
            <polygon id="Path" fill="#000000" points="35.9275362 17.1594203 38.6086957 17.1594203 38.6086957 19.8405797 35.9275362 19.8405797"></polygon>
            <polygon id="Path" fill="#000000" transform="translate(27.751262, 20.983364) rotate(-30.000728) translate(-27.751262, -20.983364) " points="26.5179895 19.7500917 28.9845344 19.7500917 28.9845344 22.2166367 26.5179895 22.2166367"></polygon>
            <polygon id="Path" fill="#000000" transform="translate(20.978597, 27.758552) rotate(-59.999272) translate(-20.978597, -27.758552) " points="19.7453246 26.5252799 22.2118696 26.5252799 22.2118696 28.9918249 19.7453246 28.9918249"></polygon>
            <polygon id="Path" fill="#000000" points="17.1594203 35.9275362 19.8405797 35.9275362 19.8405797 38.6086957 17.1594203 38.6086957"></polygon>
            <polygon id="Path" fill="#000000" transform="translate(20.982494, 46.251626) rotate(-30.000728) translate(-20.982494, -46.251626) " points="19.7492218 45.0183536 22.2157668 45.0183536 22.2157668 47.4848986 19.7492218 47.4848986"></polygon>
            <polygon id="Path" fill="#000000" transform="translate(27.749215, 53.034774) rotate(-59.999272) translate(-27.749215, -53.034774) " points="26.5159422 51.8015015 28.9824872 51.8015015 28.9824872 54.2680465 26.5159422 54.2680465"></polygon>
            <polygon id="Path" fill="#000000" points="35.9275362 54.1594203 38.6086957 54.1594203 38.6086957 56.8405797 35.9275362 56.8405797"></polygon>
            <polygon id="Path" fill="#000000" transform="translate(46.251990, 53.020394) rotate(-30.000728) translate(-46.251990, -53.020394) " points="45.018717 51.7871213 47.485262 51.7871213 47.485262 54.2536662 45.018717 54.2536662"></polygon>
            <polygon id="Path" fill="#000000" transform="translate(53.022804, 46.266006) rotate(-59.999272) translate(-53.022804, -46.266006) " points="51.789532 45.0327339 54.2560769 45.0327339 54.2560769 47.4992789 51.789532 47.4992789"></polygon>
            <polygon id="Path" fill="#000000" points="54.1594203 35.9275362 56.8405797 35.9275362 56.8405797 38.6086957 54.1594203 38.6086957"></polygon>
            <polygon id="Path" fill="#000000" transform="translate(53.019524, 27.752132) rotate(-30.000728) translate(-53.019524, -27.752132) " points="51.7862514 26.5188594 54.2527963 26.5188594 54.2527963 28.9854043 51.7862514 28.9854043"></polygon>
            <polygon id="Path" fill="#000000" transform="translate(46.252804, 20.992417) rotate(-59.999272) translate(-46.252804, -20.992417) " points="45.019531 19.7591442 47.486076 19.7591442 47.486076 22.2256891 45.019531 22.2256891"></polygon>
        </g>
    </g>
</svg>