<?xml version="1.0" encoding="UTF-8"?>
<svg width="250px" height="57px" viewBox="0 0 250 57" version="1.1" xmlns="http://www.w3.org/2000/svg" xmlns:xlink="http://www.w3.org/1999/xlink">
    <title>vanarama</title>
    <g id="Page-1" stroke="none" stroke-width="1" fill="none" fill-rule="evenodd">
        <g id="Group-21" transform="translate(-1050.000000, 0.000000)" fill="#FFFFFF">
            <g id="vanarama" transform="translate(1050.000000, 0.000000)">
                <path d="M4.8983866,27.1071867 L7.20375461,27.1071867 C8.26777061,27.1071867 10.664203,27.1071867 11.3160326,27.0647418 C11.9815699,26.7232497 12.5612189,26.2398975 13.0127068,25.6499144 C14.3930519,24.0747399 16.1184832,21.8770414 16.8086558,20.3678922 C17.1099832,19.7193353 17.3459839,19.0432836 17.5132069,18.3494051 C17.6056613,17.7880959 17.8415182,17.259092 18.1985866,16.8119593 C18.256101,16.741218 18.4046798,16.5101295 18.5101228,16.3403502 C18.8421246,15.7876243 19.2170704,15.2609784 19.6316532,14.7651757 C20.3050507,13.8063 20.92889,12.8146475 21.5008705,11.7940382 L21.9034712,11.110205 C22.0254496,10.5767207 22.2588142,10.0740325 22.5888508,9.63406838 C12.7818824,10.6252964 4.70686372,17.6548192 2.51153989,27.1119027 L4.90797233,27.1119027 L4.8983866,27.1071867 M30.2623578,10.284889 C30.1904278,10.7200389 30.0929418,11.1505228 29.9704263,11.5740797 C29.7263525,12.4736269 29.3865635,13.382795 29.137704,14.046632 C29.0228457,14.3496881 28.9271305,14.6094504 28.8697014,14.7922461 C28.8122722,14.9750418 28.7500573,15.1385958 28.6686994,15.350254 C28.4611888,15.8753587 28.2885186,16.413692 28.1518372,16.9617424 C28.0476034,17.3902059 28.0329589,17.8357464 28.1087654,18.2701748 L28.2714813,18.2701748 C28.5103864,18.2800361 28.748478,18.3041363 28.9845596,18.342331 C29.1759901,18.3760039 29.4631357,18.4529705 29.7502814,18.5347475 C30.0739424,18.6330242 30.4031548,18.7117226 30.7361481,18.7704577 C31.4271162,18.7891221 32.1153565,18.8647418 32.7940252,18.9965471 C33.4353172,19.14567 35.2491205,19.6748154 35.981342,20.3482732 L36.2062727,20.5310689 C37.088767,21.2119348 37.8787047,22.0059897 38.5560813,22.8929818 C39.5298879,24.1461425 39.8822635,25.7771131 39.5132335,27.3233723 C39.398423,27.8208171 39.1798574,28.2881487 38.8719415,28.69434 C39.4011509,29.4791108 39.7298848,30.3828431 39.8290937,31.325636 C39.9306475,32.5617198 39.5103141,33.7838052 38.6709395,34.6929252 C39.2514523,35.7277413 39.3747814,36.9594957 39.0111593,38.0898465 C38.6474893,39.2201974 37.8300335,40.1461538 36.7566352,40.6434062 C36.9946311,41.3961397 36.9946311,42.2044815 36.7566352,42.9572149 C36.3810487,44.3307803 35.3167912,45.406052 33.9521794,45.7905483 C33.3922453,45.9589127 32.798811,46.1224668 32.5164511,46.1898126 C32.2441892,46.2580242 31.96427,46.2903983 31.6837287,46.2860208 C31.4157261,46.2860208 31.1285805,46.2619688 30.8749351,46.2379167 L30.5925753,46.2379167 C30.5051873,46.2509048 30.4188043,46.2702427 30.3341442,46.2956417 C29.9141937,46.4125347 29.4822309,46.4803615 29.0467745,46.497679 L28.9606308,46.497679 C28.4479323,46.4885392 27.9370523,46.4337005 27.4339731,46.334125 L27.295186,46.3100729 C27.1707563,46.3100729 26.9123252,46.3389354 26.7017517,46.3629874 L26.275819,46.4062812 C26.175318,46.4062812 26.0269594,46.4543853 25.8403147,46.4928686 C24.6417688,46.777164 23.4153697,46.9253247 22.1839935,46.9354266 C21.9447054,46.9354266 21.7054174,46.9354266 21.4422005,46.9354266 C20.1968499,46.8695239 18.9617407,46.6732591 17.7571647,46.3485562 C17.4733212,46.2714934 17.1858406,46.2088618 16.8957277,46.1609501 C16.1252203,46.0599314 14.3592745,45.9589127 13.6031243,45.9589127 L13.4164796,45.9589127 C13.1006194,45.9589127 12.6938297,45.9877752 12.2296109,45.9877752 C11.3059591,45.9877752 10.1765195,45.9589127 9.08058035,45.9252398 C8.14735698,45.8819461 7.26199123,45.8819461 6.63505656,45.8819461 L6.25219569,45.8819461 C5.93020971,45.8741533 5.6097073,45.8354775 5.29504353,45.7664962 C11.1082593,54.0601295 21.6313338,57.5611482 31.2194621,54.3910859 C40.8075903,51.2210237 47.2082583,42.1249173 46.988209,31.9818245 C46.7681119,21.8387797 39.978888,13.031683 30.2623578,10.284889" id="Shape"></path>
                <path d="M31.7852094,9.26708629 C31.7809509,8.79157458 31.7474097,8.31672639 31.6847292,7.84524323 C31.4638162,6.08831915 30.8277765,4.40770065 29.8282375,2.93988466 L29.7468964,2.81191878 C29.001094,1.55068237 27.8065756,0.610877278 26.3975558,0.176769634 C25.9172126,0.0496473847 25.4208403,-0.00782825126 24.923846,0.00614846574 C24.0655057,-0.0405685583 23.2139598,0.179840815 22.4883969,0.636498888 C21.3190464,1.33351954 20.595541,2.57878391 20.574488,3.93043532 L20.574488,3.98730905 C20.5715215,4.04413538 20.5715215,4.10110389 20.574488,4.15793022 L20.8520048,6.81203727 C20.7646827,7.14683391 20.7149211,7.49016162 20.7036769,7.83576427 L20.6462596,8.0158644 L20.5266403,8.21492242 C15.6111959,8.88006061 11.01925,11.0203136 7.36851667,14.3478055 C3.69120389,17.7063884 1.13565225,22.0961867 0.0430303685,26.9311166 C-0.0713113335,27.4174818 0.0450016955,27.9289661 0.358825337,28.3197834 C0.673189654,28.7032071 1.14730795,28.9231662 1.64592907,28.9169575 L9.61257484,28.9169575 C10.1549766,28.9129763 10.6936941,28.8282818 11.2106887,28.6657652 C11.5599771,28.5283204 12.3016168,28.1112464 13.368621,26.8837219 C14.0767673,26.0732713 16.4547991,23.267501 17.4117536,21.1963496 C17.7583146,20.4502138 18.0307596,19.6724182 18.2251649,18.8740059 C18.2655005,18.5706794 18.368086,18.2787277 18.5266055,18.0161606 L18.5648837,17.9735053 C18.7402456,17.7606554 18.9001048,17.5357673 19.0433609,17.3004996 C19.3261888,16.8171678 19.6461465,16.3560641 20.0003154,15.9213119 C20.7502806,14.89076 21.4312015,13.8125764 22.0386283,12.6937281 L22.4261949,12.0396803 C22.5165314,11.8929935 22.5827526,11.7330361 22.6223705,11.5657326 C22.6881612,11.2454388 22.8200773,10.9420648 23.0099371,10.6747109 C23.0777373,10.5889264 23.1370207,10.4968858 23.1869737,10.3998213 C23.2252519,10.3218569 23.2572141,10.2410488 23.2826691,10.158108 C23.3228134,10.0081035 23.3874556,9.86563478 23.47406,9.73629448 C23.6130098,9.55932248 23.7139685,9.35614106 23.7707159,9.13912042 C23.809951,8.97868912 23.8578944,8.82048539 23.9142591,8.66517273 C23.9918681,8.47374526 24.0324908,8.26956859 24.0338784,8.06325916 C24.0229212,7.88998389 24.0456489,7.71618727 24.1008652,7.55139566 C24.1904361,7.31238384 24.223164,7.05612033 24.1965606,6.80255831 L23.8903352,3.90199846 L23.8903352,3.87830108 C23.9399054,3.65279677 24.0892382,3.4613693 24.2970408,3.35695862 C24.4964701,3.28039237 24.7104452,3.24803596 24.923846,3.26216908 C25.0992079,3.25795569 25.2744263,3.2754728 25.4453862,3.31430333 C26.0890337,3.52307729 26.6280862,3.96716627 26.9525894,4.55604627 L27.0626392,4.72666744 C27.7964797,5.78750455 28.2595021,7.00891514 28.411945,8.28601458 C28.5691247,9.29116283 28.4855348,10.3188236 28.1679216,11.2861035 C27.9430373,12.096554 27.6224575,12.9496598 27.3784342,13.5800103 L27.3449408,13.6653209 C27.234891,13.9496895 27.1439803,14.2008817 27.0817783,14.3857213 C27.0195762,14.5705609 26.9812981,14.6748294 26.9095265,14.859669 C26.6874652,15.4364634 26.5036821,16.0270022 26.3592777,16.6274939 C26.199562,17.2730581 26.1767386,17.944405 26.2922909,18.5991163 C26.4220539,19.3360575 27.0414427,19.8910029 27.7947093,19.9451277 L28.0004546,19.9451277 C28.1606487,19.9527109 28.3203644,19.9685407 28.4789318,19.9925225 C28.5602729,19.9925225 28.7373095,20.0493962 29.1344456,20.1536647 C29.5600032,20.2874601 29.9973314,20.3810648 30.4406884,20.4332938 C31.0403161,20.457086 31.637982,20.51723 32.2301932,20.613394 C33.0945145,20.7915509 33.922615,21.1119395 34.6799966,21.5612893 L34.9192352,21.7556079 L34.9718677,21.8077421 C35.7429338,22.3915983 36.4345247,23.071808 37.0293198,23.8314988 C37.7171308,24.6785855 37.9713936,25.7927891 37.718327,26.8505455 C37.657369,27.1229233 37.5364578,27.3786181 37.3642538,27.5993829 C36.9527634,28.1311048 36.9091741,28.8572874 37.2542041,29.4335604 C37.6257895,29.9787425 37.8709134,30.598666 37.9719199,31.2487801 C38.0551271,32.0248694 37.8031131,32.7995843 37.2781279,33.3815447 C36.7854878,33.8898062 36.6756773,34.6530041 37.0053959,35.2773354 C37.3706176,35.8930883 37.4584182,36.6323519 37.2474097,37.3152157 C37.0364012,37.9981269 36.5459142,38.5620773 35.8953288,38.8698589 C35.0922047,39.2007692 34.6877001,40.0935444 34.9718677,40.907834 C35.1167985,41.3433919 35.1167985,41.813548 34.9718677,42.2491059 C34.7386101,43.0505989 34.0971635,43.6716125 33.2828431,43.8842254 C32.7373791,44.0501071 32.1536369,44.2017704 31.9287526,44.2633836 C31.5700382,44.3129585 31.2061084,44.3129585 30.847394,44.2633836 L30.7804072,44.2633836 C30.6607879,44.2633836 30.5555229,44.2633836 30.4646123,44.2633836 C30.3865726,44.2577436 30.3081981,44.2577436 30.2301584,44.2633836 C30.0685767,44.2813462 29.9086217,44.3114419 29.7516812,44.3534337 C29.4552167,44.4361849 29.1502353,44.4854755 28.8425745,44.5003574 L28.7516638,44.5003574 C28.3334269,44.4842432 27.9172952,44.4334834 27.507623,44.3486942 L27.3592951,44.3202573 C27.2574273,44.3112049 27.1549374,44.3112049 27.0530696,44.3202573 C26.8951722,44.3202573 26.5745924,44.3581731 26.3449234,44.3818705 L25.8951548,44.4292653 C25.785105,44.4292653 25.6415618,44.4671811 25.4166775,44.5193153 L25.2635648,44.5524917 C23.9787578,44.861553 22.6560075,44.9876231 21.3352668,44.9269104 C20.1853903,44.8675247 19.0450834,44.6879933 17.9332937,44.3913495 C17.5977855,44.3017734 17.2575404,44.2305864 16.9141373,44.178073 L16.43566,44.1069809 L16.3782428,44.1069809 C15.1654944,43.8911451 13.9357122,43.7832746 12.7035377,43.7846964 L5.1053194,43.7846964 C4.49995002,43.7914265 3.9477873,44.1287351 3.66988773,44.6614997 C3.38621293,45.2013735 3.42670646,45.8522458 3.77515272,46.3534929 C9.91324994,54.9764971 20.9592316,58.7031478 31.134911,55.5836241 C41.3104947,52.4645744 48.3008078,43.2093713 48.4486572,32.6594854 C48.5969852,22.1095994 41.8693083,12.665386 31.7852094,9.26708629 M38.369056,41.2111605 C39.5893165,40.2671989 40.3879907,38.8874898 40.5939751,37.3674447 C40.7255085,36.4932956 40.641775,35.6006625 40.3499517,34.7654719 C41.0172839,33.6762454 41.3343708,32.4117055 41.2590584,31.1397721 C41.2089619,30.2643433 40.9708238,29.4095787 40.5604817,28.6325888 C40.7111542,28.3103044 40.8281897,27.9736594 40.9097701,27.6278197 C41.3850893,25.6363864 40.9299618,23.5388361 39.6705141,21.9167501 C38.9087783,20.9244932 38.0173752,20.0367418 37.0197502,19.2768615 L36.8857766,19.1583746 C35.7087226,18.0872528 33.2302106,17.4995577 32.9526938,17.4379445 C32.2083747,17.2914472 31.4528591,17.2074163 30.6942813,17.1867522 C30.5890163,17.1867522 30.3354234,17.1014416 29.9765655,17.0066521 L29.6751248,16.926081 C29.7851746,16.5706202 29.8952244,16.2862516 29.9957046,16.0255803 C30.0961848,15.7649091 30.1727412,15.5516327 30.2301584,15.3904904 C30.2875757,15.2293482 30.344993,15.068206 30.4263341,14.8549296 L30.469397,14.7364426 C30.6894966,14.1582265 30.9861524,13.3714733 31.2349606,12.5468043 C39.5429042,15.4998302 45.1597005,23.2125705 45.3676945,31.9532085 C45.5757364,40.693894 40.3320567,48.6601963 32.1738286,51.9977359 C24.0155527,55.3352755 14.6249587,53.355596 8.54557064,47.0170197 L12.7226768,47.0170197 C13.7753267,47.0160718 14.8259191,47.1094395 15.8614874,47.2966488 L15.8997655,47.2966488 L16.4978621,47.4009173 C16.6270509,47.4009173 16.918922,47.4909674 17.172515,47.5525806 C18.4774659,47.8957187 19.8147619,48.1037817 21.163015,48.173452 C22.7898376,48.2379089 24.4178563,48.0786625 26.0004198,47.6995043 L26.1296086,47.6710675 L26.2635822,47.6378911 L26.7420595,47.5857569 L27.0004372,47.55732 C27.5804951,47.6720154 28.1697876,47.7355244 28.7612333,47.7468991 L28.9191308,47.7468991 C29.4606713,47.7274672 29.9983362,47.647844 30.5220295,47.5099253 C30.8091159,47.5383621 31.1440499,47.566799 31.478984,47.566799 C31.9001396,47.5696427 32.3198598,47.5189303 32.7278095,47.4151357 C33.2876279,47.2682119 33.7804594,47.1307671 34.1967346,47.0075407 C36.1096866,46.4658185 37.5965545,44.9715562 38.1154631,43.0690354 C38.3008252,42.4674062 38.3864247,41.8399469 38.369056,41.2111605 M9.99535664,25.6277605 C9.86616774,25.6277605 9.68913124,25.6609368 9.61735964,25.6609368 L3.81821567,25.6609368 C6.07021657,18.8509247 11.6887832,13.6594439 18.7036421,11.9069749 C18.3402865,12.5611649 17.9392747,13.1941221 17.5026642,13.8027657 C17.0309814,14.3715503 16.6038926,14.9752175 16.2251301,15.6085064 L16.1868519,15.6464222 L16.0337392,15.8881355 C15.5252136,16.5227989 15.1818105,17.2714466 15.0337218,18.0682949 C14.8918533,18.672673 14.689888,19.2616952 14.4308405,19.8266408 C13.9236546,20.9261994 12.5169316,22.8551665 10.8948938,24.7414783 C10.6294825,25.0693079 10.3277547,25.3666153 9.99535664,25.6277605" id="Shape"></path>
                <path d="M64.0038772,47.5761517 C63.5238465,47.5761517 62.9910124,47.5761517 62.3861737,47.5244448 C61.7846952,47.4906002 61.188497,47.399408 60.6052597,47.2518083 L60.3412428,47.1812989 L51.0430477,20.0257668 L51.5998834,19.9035505 C52.312249,19.7361141 53.0385354,19.6291748 53.7696222,19.5839077 C54.4320646,19.5510033 54.9841,19.5322008 55.4593304,19.5322008 C56.07857,19.5322008 56.7170109,19.5322008 57.3794533,19.5839077 C57.9967728,19.6150259 58.609292,19.7063591 59.2083703,19.8565442 L59.4963887,19.9317542 L64.3639003,38.0855823 L69.1642075,19.9129517 L69.4762274,19.8518436 C70.0508242,19.7418018 70.6307013,19.6617971 71.2139387,19.6121115 C71.8187774,19.5604046 72.4332167,19.5322008 73.0380554,19.5322008 C73.5180861,19.5322008 74.0461199,19.5322008 74.6797605,19.5839077 C75.4089271,19.6338754 76.1328135,19.7407677 76.844699,19.9035505 L77.3967344,20.0257668 L67.8969264,47.2612096 L67.5993073,47.3129165 C66.9642267,47.4210309 66.3229056,47.4915404 65.6791844,47.5244448 C64.9879402,47.5573492 64.4455055,47.5761517 64.0038772,47.5761517" id="Path"></path>
                <path d="M88.2336093,48.3459915 C86.7306224,48.3596031 85.2314587,48.201897 83.7652699,47.8766282 C82.4649115,47.592194 81.2414946,47.0388146 80.1762616,46.2526309 C79.1564288,45.4763508 78.3516499,44.4613056 77.834565,43.3003353 C77.2577431,41.9231293 76.9810406,40.4426164 77.0221397,38.9540305 C76.97435,37.4367664 77.3265603,35.933067 78.0448398,34.5889511 C78.6833106,33.460273 79.583669,32.4954027 80.6732747,31.7727709 C81.7523667,31.0675524 82.9518888,30.5588094 84.2144934,30.2708081 C85.4661063,29.9697584 86.7492604,29.8122401 88.0376714,29.8014447 C88.792749,29.8014447 89.6242903,29.8389938 90.5131791,29.9093983 L90.5131791,29.8577683 C90.5385077,29.2490509 90.4290692,28.642211 90.192988,28.0788811 C90.007086,27.6747593 89.7131791,27.327665 89.3423309,27.0744435 C88.9165244,26.8081737 88.4371935,26.6352602 87.937313,26.5675311 C87.2639557,26.46582 86.5829521,26.417194 85.9014707,26.4220284 C84.1260824,26.4552124 82.3717216,26.8084083 80.7258434,27.4640151 L80.2909569,27.6282923 L80.095019,27.2246398 C79.6792484,26.392881 79.341853,25.5256852 79.0866558,24.633754 C78.8414946,23.6717468 78.7258434,22.6823757 78.7425698,21.6908456 L78.7425698,21.3294358 L79.06754,21.2074013 C80.4247682,20.6961708 81.8278745,20.311152 83.2586989,20.0574611 C88.5155686,19.1187343 92.4916738,19.9588948 95.0818769,22.4042779 C96.9934659,24.2019397 97.9492604,27.0979117 97.9492604,30.951385 L97.9492604,46.6515898 L97.6099533,46.7689306 C96.2943022,47.2077854 94.9538004,47.5710726 93.5956164,47.8578536 C91.8316977,48.2108149 90.0338482,48.3746227 88.2336093,48.3459915 M88.6541588,35.3540134 C87.4818769,35.2863312 86.3158076,35.5677145 85.3088781,36.1613184 C84.5633584,36.6635372 84.2001564,37.4755358 84.2001564,38.639557 C84.1585794,39.2528272 84.3048159,39.8642669 84.620706,40.394976 C84.8797263,40.7873169 85.2434061,41.1022597 85.67208,41.305541 C86.1040991,41.5045041 86.5681373,41.6283691 87.0436451,41.6716444 C87.5693321,41.7232744 88.0328924,41.746744 88.4152102,41.746744 C88.8529641,41.7470241 89.2897622,41.7077384 89.7198697,41.6294017 L90.5179581,41.4792054 L90.5179581,35.5464524 C90.2742305,35.5089033 90.0400609,35.4713542 89.7533225,35.4431924 C89.3872532,35.398556 89.0183165,35.3750409 88.6493799,35.3727879 L88.6541588,35.3540134" id="Shape"></path>
                <path d="M119.431288,47.6235986 C118.294058,47.621214 117.160164,47.5139039 116.042476,47.304053 L115.632577,47.2277436 L115.632577,31.6272407 C115.632577,29.8482778 115.394264,28.4747086 114.922404,27.5446878 C114.503926,26.7176847 113.623597,26.2299722 112.701326,26.3141987 C112.199438,26.3191111 111.701364,26.3995222 111.223784,26.5526656 C110.72428,26.7151092 110.279111,27.0121436 109.936893,27.4111463 C109.477902,27.970685 109.141881,28.620698 108.950277,29.3188813 C108.656199,30.4210752 108.52322,31.559993 108.554677,32.7003416 L108.554677,47.2086663 L108.144779,47.2849757 C105.905589,47.7089698 103.606344,47.7089698 101.367153,47.2849757 L100.957255,47.2086663 L100.957255,19.5369701 L101.343322,19.4415834 C101.790874,19.3342256 102.244622,19.2530038 102.701707,19.1983472 C103.198352,19.1418305 103.698332,19.1147407 104.198313,19.1172684 C104.685902,19.1136437 105.173014,19.1407336 105.65679,19.1983472 C106.096239,19.2561515 106.531876,19.3373734 106.962746,19.4415834 L107.181994,19.4940461 L107.286851,19.6943583 C107.423643,19.9730784 107.524211,20.2679188 107.587126,20.5719164 C107.668152,20.9153087 107.739646,21.273009 107.801608,21.6450173 C107.839738,21.8676023 107.874532,22.0869918 107.906466,22.3031859 C108.036585,22.1346852 108.171946,21.9645629 108.311598,21.7928668 C108.781551,21.2323742 109.319662,20.7325477 109.913062,20.3048335 C110.542685,19.8520326 111.23284,19.4892768 111.962555,19.2269632 C112.778539,18.939706 113.638373,18.7976751 114.502973,18.8072615 C117.36273,18.8072615 119.56951,19.7086663 121.042285,21.4828598 C122.51506,23.2570534 123.220467,25.9803451 123.220467,29.652735 L123.220467,47.2229743 L122.810568,47.2992837 C121.696216,47.5100884 120.565182,47.6188293 119.431288,47.6235986" id="Path"></path>
                <path d="M136.611148,48.3459915 C135.108161,48.3596031 133.608997,48.201897 132.142809,47.8766282 C130.84245,47.592194 129.619033,47.0388146 128.5538,46.2526309 C127.533968,45.4763508 126.729189,44.4613056 126.212104,43.3003353 C125.635282,41.9231293 125.358579,40.4426164 125.399678,38.9540305 C125.351889,37.4367664 125.704099,35.933067 126.422379,34.5889511 C127.060849,33.460273 127.961208,32.4954027 129.050813,31.7727709 C130.129905,31.0675524 131.329428,30.5588094 132.592032,30.2708081 C133.843645,29.9697584 135.126799,29.8122401 136.41521,29.8014447 C137.170288,29.8014447 138.001829,29.8389938 138.890718,29.9093983 L138.890718,29.8577683 C138.916046,29.2490509 138.806608,28.642211 138.570527,28.0788811 C138.384625,27.6747593 138.090718,27.3276181 137.71987,27.0744435 C137.294063,26.8081737 136.814732,26.6352602 136.314852,26.5675311 C135.641494,26.46582 134.960491,26.417194 134.279009,26.4220284 C132.503143,26.4552124 130.74926,26.8084083 129.103382,27.4640151 L128.668496,27.6282923 L128.472558,27.2246398 C128.056787,26.392881 127.719392,25.5256852 127.464195,24.633754 C127.219033,23.6717468 127.103382,22.6823757 127.120109,21.6908456 L127.120109,21.3294358 L127.445079,21.2074013 C128.802307,20.6961708 130.205413,20.311152 131.636238,20.0574611 C136.893107,19.1187343 140.869212,19.9588948 143.459416,22.4042779 C145.371005,24.2019397 146.326799,27.0979117 146.326799,30.951385 L146.326799,46.6515898 L145.987492,46.7689306 C144.671841,47.2077854 143.331339,47.5710726 141.973155,47.8578536 C140.209236,48.2108149 138.411387,48.3746227 136.611148,48.3459915 M137.031698,35.3540134 C135.859416,35.2863312 134.693346,35.5677145 133.686417,36.1613184 C132.940897,36.6635372 132.577695,37.4755358 132.577695,38.639557 C132.536118,39.2528272 132.682355,39.8642669 132.998245,40.394976 C133.258699,40.787974 133.623812,41.1030107 134.054398,41.305541 C134.486417,41.5045041 134.950455,41.6283691 135.425963,41.6716444 C135.95165,41.7232744 136.41521,41.746744 136.797528,41.746744 C137.235282,41.7470241 137.67208,41.7077384 138.102187,41.6294017 L138.900276,41.4792054 L138.900276,35.5464524 C138.656548,35.5089033 138.422379,35.4713542 138.13564,35.4431924 C137.769571,35.398556 137.400634,35.3750409 137.031698,35.3727879 L137.031698,35.3540134" id="Shape"></path>
                <path d="M153.238388,47.6278586 C152.700754,47.6278586 152.133794,47.6278586 151.561946,47.5761517 C150.960285,47.5371365 150.361555,47.466627 149.768202,47.3646234 L149.342982,47.294114 L149.342982,19.9364549 L149.748652,19.8471429 C150.237411,19.7437291 150.726169,19.6638184 151.156277,19.6074109 C152.130861,19.4927625 153.116687,19.5022108 154.088828,19.6356146 C154.577587,19.7061241 155.03702,19.795436 155.486677,19.8988498 L155.711506,19.9505568 L155.819033,20.1479832 C155.959307,20.4226879 156.062435,20.7132808 156.126951,21.0128988 C156.21004,21.3513441 156.283354,21.7038913 156.346893,22.0705403 C156.389415,22.314973 156.428515,22.5578545 156.464195,22.7991378 C157.031154,22.1143502 157.666052,21.4846069 158.360578,20.9188863 C159.521379,19.989525 160.995475,19.5012237 162.50525,19.5463027 C162.832719,19.5463027 163.204175,19.5463027 163.644058,19.5980096 C163.997919,19.6165301 164.347381,19.6781553 164.685113,19.7813341 L164.963706,19.8800473 L165.017469,20.162085 C165.090294,20.5698176 165.140636,20.9808876 165.168984,21.3936498 C165.203198,21.8637126 165.21786,22.3337755 165.21786,22.8038384 C165.21786,23.391417 165.193422,24.0401037 165.144546,24.7310962 C165.099581,25.4065295 165.010138,26.0785314 164.875729,26.7429652 L164.77309,27.2130281 L164.284331,27.1143149 C163.933403,27.0493052 163.57612,27.017811 163.218838,27.0203023 L162.431937,27.0203023 C161.856179,27.0266012 161.281888,27.0832438 160.716394,27.189525 C160.095671,27.316818 159.522846,27.6044495 159.059502,28.0215362 C158.435847,28.6071876 157.969571,29.3299092 157.700754,30.1274179 C157.268691,31.4732079 157.078564,32.8801531 157.138681,34.2874743 L157.138681,47.3035152 L156.718349,47.3787253 C156.130372,47.4835493 155.536042,47.5540587 154.939268,47.5902536 C154.34787,47.6090561 153.776023,47.6278586 153.238388,47.6278586" id="Path"></path>
                <path d="M177.801112,48.3459915 C176.298125,48.3596031 174.798962,48.201897 173.332773,47.8766282 C172.032414,47.592194 170.808997,47.0388146 169.743764,46.2526309 C168.723932,45.4763508 167.919153,44.4613056 167.402068,43.3003353 C166.825246,41.9231293 166.548543,40.4426164 166.589643,38.9540305 C166.541853,37.4367664 166.894063,35.933067 167.612343,34.5889511 C168.250813,33.460273 169.151172,32.4954027 170.240778,31.7727709 C171.31987,31.0675524 172.519392,30.5588094 173.781996,30.2708081 C175.033609,29.9697584 176.316763,29.8122401 177.605174,29.8014447 C178.360252,29.8014447 179.191793,29.8389938 180.080682,29.9093983 L180.080682,29.8577683 C180.106011,29.2490509 179.996572,28.642211 179.760491,28.0788811 C179.574589,27.6747593 179.280682,27.327665 178.909834,27.0744435 C178.484027,26.8081737 178.004696,26.6352602 177.504816,26.5675311 C176.830981,26.46582 176.150455,26.417194 175.468974,26.4220284 C173.693585,26.4552124 171.939224,26.8084083 170.293346,27.4640151 L169.85846,27.6282923 L169.662522,27.2246398 C169.246751,26.392881 168.909356,25.5256852 168.654159,24.633754 C168.408997,23.6717468 168.293346,22.6823757 168.310073,21.6908456 L168.310073,21.3294358 L168.635043,21.2074013 C169.992271,20.6961708 171.395377,20.311152 172.826202,20.0574611 C178.083072,19.1187343 182.059177,19.9588948 184.64938,22.4042779 C186.560969,24.2019397 187.516763,27.0979117 187.516763,30.951385 L187.516763,46.6515898 L187.177456,46.7689306 C185.861805,47.2077854 184.521303,47.5710726 183.163119,47.8578536 C181.399201,48.2108149 179.601351,48.3746227 177.801112,48.3459915 M178.221662,35.3540134 C177.04938,35.2863312 175.88331,35.5677145 174.876381,36.1613184 C174.130861,36.6635372 173.767659,37.4755358 173.767659,38.639557 C173.726082,39.2528272 173.872319,39.8642669 174.188209,40.394976 C174.448663,40.787974 174.813776,41.1030107 175.244362,41.305541 C175.676381,41.5045041 176.140419,41.6283691 176.615927,41.6716444 C177.141614,41.7232744 177.605174,41.746744 177.987492,41.746744 C178.425246,41.7470241 178.862044,41.7077384 179.292152,41.6294017 L180.09024,41.4792054 L180.09024,35.5464524 C179.846512,35.5089033 179.612343,35.4713542 179.325604,35.4431924 C178.959535,35.398556 178.590598,35.3750409 178.221662,35.3727879 L178.221662,35.3540134" id="Shape"></path>
                <path d="M222.225372,47.6237031 C221.100112,47.621214 219.978154,47.5139039 218.872231,47.304053 L218.466647,47.2277436 L218.466647,31.6272407 C218.528428,30.2306833 218.331767,28.8348413 217.886568,27.5113024 C217.551725,26.6957457 216.900905,26.3141987 215.8445,26.3141987 C215.374306,26.3152957 214.907413,26.3942282 214.462685,26.5478963 C214.010412,26.7144892 213.609073,26.9972155 213.297811,27.3682223 C212.874777,27.893231 212.566345,28.5027046 212.392321,29.1567239 C212.119731,30.1824176 211.995698,31.2427844 212.024466,32.3044866 L212.024466,47.2277436 L211.618882,47.304053 C209.403263,47.7280471 207.12822,47.7280471 204.912601,47.304053 L204.507017,47.2277436 L204.507017,31.6272407 C204.568797,30.2306833 204.372136,28.8347936 203.926937,27.5113024 C203.592095,26.6957457 202.941274,26.3141987 201.88487,26.3141987 C201.403829,26.3152957 200.92656,26.3941805 200.470043,26.5478963 C200.005508,26.7144892 199.598037,27.0124297 199.295736,27.406377 C198.870816,27.9728312 198.567571,28.6225104 198.404395,29.314112 C198.143595,30.4277046 198.026636,31.5706763 198.055404,32.7146496 L198.055404,47.2229743 L197.64982,47.2992837 C195.4342,47.7232778 193.159158,47.7232778 190.943538,47.2992837 L190.537954,47.2229743 L190.537954,19.5369701 L190.919958,19.4415834 C191.362799,19.3342256 191.811771,19.2530038 192.264044,19.1983472 C192.75546,19.1418305 193.250178,19.1147407 193.744896,19.1172684 C194.227352,19.1136437 194.709337,19.1407336 195.18802,19.1983472 C195.622844,19.2561515 196.053895,19.3373734 196.480229,19.4415834 L196.697169,19.4940461 L196.800923,19.6943583 C196.936275,19.9730784 197.035785,20.2679188 197.098037,20.5719164 C197.178211,20.9153087 197.248952,21.273009 197.310261,21.6450173 C197.338558,21.8262521 197.366854,22.0027176 197.395151,22.1791831 C197.483342,22.0551803 197.572948,21.9327514 197.663968,21.8119441 C198.102093,21.2452037 198.614732,20.7413709 199.187266,20.3143721 C199.794698,19.8599497 200.46344,19.4954292 201.17274,19.2317325 C201.973061,18.9424245 202.817713,18.8002983 203.667552,18.8120308 C207.18104,18.8120308 209.595679,20.1903694 210.864308,22.9184304 C211.458535,21.9512565 212.200376,21.0852402 213.062006,20.3525268 C214.354215,19.3040834 215.976551,18.7621913 217.631899,18.8263389 C220.461554,18.8263389 222.612091,19.7420516 223.979758,21.5448612 C225.347424,23.3476708 225.988813,26.0614238 225.988813,29.7290444 L225.988813,47.246821 L225.583229,47.3231304 C224.475419,47.5267811 223.351574,47.6274141 222.225372,47.6237031" id="Path"></path>
                <path d="M240.032743,48.3459915 C238.559645,48.3596031 237.090294,48.201897 235.653263,47.8766282 C234.378764,47.592194 233.179676,47.0388146 232.135627,46.2526309 C231.136075,45.4763508 230.3473,44.4613056 229.840498,43.3003353 C229.275147,41.9231293 229.003947,40.4426164 229.044229,38.9540305 C228.997389,37.4367664 229.342596,35.933067 230.046591,34.5889511 C230.672365,33.460273 231.554819,32.4954027 232.622756,31.7727709 C233.680389,31.0675524 234.856057,30.5588094 236.093553,30.2708081 C237.320276,29.9697584 238.577912,29.8122401 239.840702,29.8014447 C240.580763,29.8014447 241.395768,29.8389938 242.266981,29.9093983 L242.266981,29.8577683 C242.291805,29.2490509 242.184543,28.642211 241.953157,28.0788811 C241.774699,27.676449 241.491789,27.3295425 241.133468,27.0744435 C240.707698,26.8043249 240.228063,26.6312706 239.728287,26.5675311 C239.068321,26.46582 238.40086,26.417194 237.73293,26.4220284 C236.007368,26.4588734 234.302415,26.8103797 232.702383,27.4593215 L232.276145,27.6235986 L232.056,27.2246398 C231.648497,26.392881 231.317811,25.5256852 231.067689,24.633754 C230.827403,23.6717468 230.714052,22.6823757 230.730446,21.6908456 L230.730446,21.3294358 L231.048953,21.2074013 C232.379191,20.6961708 233.754395,20.311152 235.156765,20.0574611 C240.309095,19.1187343 244.20613,19.9588948 246.744823,22.4042779 C248.618398,24.2019397 249.555185,27.0979117 249.555185,30.951385 L249.555185,46.6515898 L249.222626,46.7689306 C247.933138,47.2077854 246.619294,47.5710726 245.288119,47.8578536 C243.559278,48.2108149 241.797182,48.3746227 240.032743,48.3459915 M240.444929,35.3540134 C239.29596,35.2863312 238.153079,35.5677145 237.166174,36.1613184 C236.43548,36.6635372 236.079501,37.4755358 236.079501,38.639557 C236.038751,39.2528272 236.182079,39.8642669 236.491687,40.394976 C236.746962,40.787974 237.104814,41.1030107 237.526837,41.305541 C237.950265,41.5045041 238.405075,41.6283691 238.871127,41.6716444 C239.38636,41.7232744 239.840702,41.746744 240.215416,41.746744 C240.644465,41.7470241 241.072577,41.7077384 241.494131,41.6294017 L242.276348,41.4792054 L242.276348,35.5464524 C242.037468,35.5089033 241.807955,35.4713542 241.526919,35.4431924 C241.168129,35.398556 240.806529,35.3750409 240.444929,35.3727879 L240.444929,35.3540134" id="Shape"></path>
            </g>
        </g>
    </g>
</svg>