<?xml version="1.0" standalone="no"?>
<!DOCTYPE svg PUBLIC "-//W3C//DTD SVG 20010904//EN"
 "http://www.w3.org/TR/2001/REC-SVG-20010904/DTD/svg10.dtd">
<svg version="1.0" xmlns="http://www.w3.org/2000/svg"
 width="704.000000pt" height="704.000000pt" viewBox="0 0 704.000000 704.000000"
 preserveAspectRatio="xMidYMid meet">
<metadata>
Created by potrace 1.14, written by Peter Selinger 2001-2017
</metadata>
<g transform="translate(0.000000,704.000000) scale(0.100000,-0.100000)"
fill="#000000" stroke="none">
<path d="M1574 7026 c-66 -30 -313 -257 -463 -426 -412 -465 -676 -1054 -767
-1715 -25 -179 -25 -606 -1 -787 52 -389 151 -714 318 -1048 201 -402 470
-741 819 -1032 73 -61 110 -78 165 -78 135 0 220 131 169 260 -12 29 -43 62
-113 122 -600 507 -961 1236 -1000 2016 -34 680 161 1321 566 1859 98 131 303
348 436 460 50 43 96 91 107 113 41 80 13 188 -62 237 -47 32 -127 40 -174 19z"/>
<path d="M5312 7019 c-58 -29 -94 -85 -100 -153 -6 -76 20 -119 125 -209 132
-112 338 -329 435 -458 407 -543 601 -1181 567 -1864 -40 -780 -401 -1507
-1000 -2013 -102 -87 -129 -127 -129 -198 0 -39 22 -99 48 -127 48 -53 152
-73 215 -41 73 38 298 243 432 395 442 502 697 1064 791 1744 25 182 25 606 0
790 -90 659 -355 1250 -767 1715 -155 174 -400 399 -466 426 -47 20 -102 17
-151 -7z"/>
<path d="M2215 6217 c-16 -8 -71 -51 -121 -95 -381 -338 -636 -813 -721 -1347
-25 -156 -25 -517 0 -670 77 -467 259 -851 566 -1193 85 -95 236 -230 279
-249 71 -32 168 -4 219 63 21 29 28 50 31 99 6 84 -16 123 -117 210 -521 449
-746 1192 -570 1879 91 355 294 690 559 923 107 93 130 130 130 203 0 107 -67
181 -168 187 -34 2 -69 -2 -87 -10z"/>
<path d="M4727 6209 c-78 -41 -116 -147 -83 -232 12 -32 44 -70 123 -142 132
-124 215 -220 305 -355 206 -311 308 -653 308 -1040 0 -540 -207 -1014 -605
-1386 -85 -80 -119 -118 -131 -151 -60 -157 101 -306 252 -232 58 28 256 219
356 343 262 325 429 715 483 1131 20 156 20 434 0 590 -54 416 -224 813 -488
1140 -84 104 -297 309 -347 335 -50 26 -123 25 -173 -1z"/>
<path d="M3385 5543 c-509 -79 -898 -479 -966 -991 -13 -100 -7 -255 15 -358
61 -286 239 -552 477 -709 89 -60 236 -129 328 -154 41 -11 75 -22 76 -23 7
-9 15 -1195 15 -2175 l0 -1133 225 0 225 0 0 1655 0 1654 43 11 c221 56 395
158 556 325 134 140 228 306 279 493 24 88 26 114 26 282 0 169 -2 194 -27
283 -107 397 -420 710 -814 814 -83 22 -123 26 -263 28 -91 2 -178 1 -195 -2z
m339 -473 c105 -27 203 -81 286 -157 85 -79 139 -158 181 -266 27 -71 32 -98
37 -199 7 -180 -32 -312 -134 -448 -84 -110 -221 -205 -359 -246 -93 -28 -278
-26 -375 4 -237 73 -410 256 -470 497 -90 362 143 737 510 821 87 20 235 17
324 -6z"/>
</g>
</svg>
